G04 #@! TF.GenerationSoftware,KiCad,Pcbnew,5.1.2*
G04 #@! TF.CreationDate,2019-08-10T03:31:52+02:00*
G04 #@! TF.ProjectId,sclock,73636c6f-636b-42e6-9b69-6361645f7063,rev?*
G04 #@! TF.SameCoordinates,Original*
G04 #@! TF.FileFunction,Soldermask,Top*
G04 #@! TF.FilePolarity,Negative*
%FSLAX46Y46*%
G04 Gerber Fmt 4.6, Leading zero omitted, Abs format (unit mm)*
G04 Created by KiCad (PCBNEW 5.1.2) date 2019-08-10 03:31:52*
%MOMM*%
%LPD*%
G04 APERTURE LIST*
%ADD10C,0.100000*%
G04 APERTURE END LIST*
D10*
G36*
X103683765Y-80777009D02*
G01*
X103840734Y-80808232D01*
X104050203Y-80894997D01*
X104238720Y-81020960D01*
X104399040Y-81181280D01*
X104502609Y-81336282D01*
X104525004Y-81369799D01*
X104544141Y-81416000D01*
X104611768Y-81579266D01*
X104656000Y-81801636D01*
X104656000Y-82028364D01*
X104611768Y-82250734D01*
X104525003Y-82460203D01*
X104399040Y-82648720D01*
X104238720Y-82809040D01*
X104050203Y-82935003D01*
X103840734Y-83021768D01*
X103729549Y-83043884D01*
X103618365Y-83066000D01*
X103391635Y-83066000D01*
X103280451Y-83043884D01*
X103169266Y-83021768D01*
X102959797Y-82935003D01*
X102771280Y-82809040D01*
X102610960Y-82648720D01*
X102484997Y-82460203D01*
X102398232Y-82250734D01*
X102354000Y-82028364D01*
X102354000Y-81801636D01*
X102398232Y-81579266D01*
X102465859Y-81416000D01*
X102484996Y-81369799D01*
X102507391Y-81336282D01*
X102610960Y-81181280D01*
X102771280Y-81020960D01*
X102959797Y-80894997D01*
X103169266Y-80808232D01*
X103326235Y-80777009D01*
X103391635Y-80764000D01*
X103618365Y-80764000D01*
X103683765Y-80777009D01*
X103683765Y-80777009D01*
G37*
G36*
X68690442Y-80385518D02*
G01*
X68756627Y-80392037D01*
X68926466Y-80443557D01*
X69082991Y-80527222D01*
X69118729Y-80556552D01*
X69220186Y-80639814D01*
X69303448Y-80741271D01*
X69332778Y-80777009D01*
X69416443Y-80933534D01*
X69467963Y-81103373D01*
X69485359Y-81280000D01*
X69467963Y-81456627D01*
X69416443Y-81626466D01*
X69332778Y-81782991D01*
X69317477Y-81801635D01*
X69220186Y-81920186D01*
X69118729Y-82003448D01*
X69082991Y-82032778D01*
X68926466Y-82116443D01*
X68756627Y-82167963D01*
X68690443Y-82174481D01*
X68624260Y-82181000D01*
X68535740Y-82181000D01*
X68469557Y-82174481D01*
X68403373Y-82167963D01*
X68233534Y-82116443D01*
X68077009Y-82032778D01*
X68041271Y-82003448D01*
X67939814Y-81920186D01*
X67842523Y-81801635D01*
X67827222Y-81782991D01*
X67743557Y-81626466D01*
X67692037Y-81456627D01*
X67674641Y-81280000D01*
X67692037Y-81103373D01*
X67743557Y-80933534D01*
X67827222Y-80777009D01*
X67856552Y-80741271D01*
X67939814Y-80639814D01*
X68041271Y-80556552D01*
X68077009Y-80527222D01*
X68233534Y-80443557D01*
X68403373Y-80392037D01*
X68469558Y-80385518D01*
X68535740Y-80379000D01*
X68624260Y-80379000D01*
X68690442Y-80385518D01*
X68690442Y-80385518D01*
G37*
G36*
X95484928Y-80931764D02*
G01*
X95506009Y-80938160D01*
X95525445Y-80948548D01*
X95542476Y-80962524D01*
X95556452Y-80979555D01*
X95566840Y-80998991D01*
X95573236Y-81020072D01*
X95576000Y-81048140D01*
X95576000Y-81511860D01*
X95573236Y-81539928D01*
X95566840Y-81561009D01*
X95556452Y-81580445D01*
X95542476Y-81597476D01*
X95525445Y-81611452D01*
X95506009Y-81621840D01*
X95484928Y-81628236D01*
X95456860Y-81631000D01*
X93643140Y-81631000D01*
X93615072Y-81628236D01*
X93593991Y-81621840D01*
X93574555Y-81611452D01*
X93557524Y-81597476D01*
X93543548Y-81580445D01*
X93533160Y-81561009D01*
X93526764Y-81539928D01*
X93524000Y-81511860D01*
X93524000Y-81048140D01*
X93526764Y-81020072D01*
X93533160Y-80998991D01*
X93543548Y-80979555D01*
X93557524Y-80962524D01*
X93574555Y-80948548D01*
X93593991Y-80938160D01*
X93615072Y-80931764D01*
X93643140Y-80929000D01*
X95456860Y-80929000D01*
X95484928Y-80931764D01*
X95484928Y-80931764D01*
G37*
G36*
X90534928Y-80931764D02*
G01*
X90556009Y-80938160D01*
X90575445Y-80948548D01*
X90592476Y-80962524D01*
X90606452Y-80979555D01*
X90616840Y-80998991D01*
X90623236Y-81020072D01*
X90626000Y-81048140D01*
X90626000Y-81511860D01*
X90623236Y-81539928D01*
X90616840Y-81561009D01*
X90606452Y-81580445D01*
X90592476Y-81597476D01*
X90575445Y-81611452D01*
X90556009Y-81621840D01*
X90534928Y-81628236D01*
X90506860Y-81631000D01*
X88693140Y-81631000D01*
X88665072Y-81628236D01*
X88643991Y-81621840D01*
X88624555Y-81611452D01*
X88607524Y-81597476D01*
X88593548Y-81580445D01*
X88583160Y-81561009D01*
X88576764Y-81539928D01*
X88574000Y-81511860D01*
X88574000Y-81048140D01*
X88576764Y-81020072D01*
X88583160Y-80998991D01*
X88593548Y-80979555D01*
X88607524Y-80962524D01*
X88624555Y-80948548D01*
X88643991Y-80938160D01*
X88665072Y-80931764D01*
X88693140Y-80929000D01*
X90506860Y-80929000D01*
X90534928Y-80931764D01*
X90534928Y-80931764D01*
G37*
G36*
X80258228Y-79921703D02*
G01*
X80413100Y-79985853D01*
X80552481Y-80078985D01*
X80671015Y-80197519D01*
X80764147Y-80336900D01*
X80828297Y-80491772D01*
X80861000Y-80656184D01*
X80861000Y-80823816D01*
X80828297Y-80988228D01*
X80764147Y-81143100D01*
X80671015Y-81282481D01*
X80552481Y-81401015D01*
X80413100Y-81494147D01*
X80258228Y-81558297D01*
X80093816Y-81591000D01*
X79926184Y-81591000D01*
X79761772Y-81558297D01*
X79606900Y-81494147D01*
X79467519Y-81401015D01*
X79348985Y-81282481D01*
X79255853Y-81143100D01*
X79191703Y-80988228D01*
X79159000Y-80823816D01*
X79159000Y-80656184D01*
X79191703Y-80491772D01*
X79255853Y-80336900D01*
X79348985Y-80197519D01*
X79467519Y-80078985D01*
X79606900Y-79985853D01*
X79761772Y-79921703D01*
X79926184Y-79889000D01*
X80093816Y-79889000D01*
X80258228Y-79921703D01*
X80258228Y-79921703D01*
G37*
G36*
X99648674Y-80168465D02*
G01*
X99686367Y-80179899D01*
X99721103Y-80198466D01*
X99751548Y-80223452D01*
X99776534Y-80253897D01*
X99795101Y-80288633D01*
X99806535Y-80326326D01*
X99811000Y-80371661D01*
X99811000Y-81208339D01*
X99806535Y-81253674D01*
X99795101Y-81291367D01*
X99776534Y-81326103D01*
X99751548Y-81356548D01*
X99721103Y-81381534D01*
X99686367Y-81400101D01*
X99648674Y-81411535D01*
X99603339Y-81416000D01*
X98516661Y-81416000D01*
X98471326Y-81411535D01*
X98433633Y-81400101D01*
X98398897Y-81381534D01*
X98368452Y-81356548D01*
X98343466Y-81326103D01*
X98324899Y-81291367D01*
X98313465Y-81253674D01*
X98309000Y-81208339D01*
X98309000Y-80371661D01*
X98313465Y-80326326D01*
X98324899Y-80288633D01*
X98343466Y-80253897D01*
X98368452Y-80223452D01*
X98398897Y-80198466D01*
X98433633Y-80179899D01*
X98471326Y-80168465D01*
X98516661Y-80164000D01*
X99603339Y-80164000D01*
X99648674Y-80168465D01*
X99648674Y-80168465D01*
G37*
G36*
X85678674Y-80023465D02*
G01*
X85716367Y-80034899D01*
X85751103Y-80053466D01*
X85781548Y-80078452D01*
X85806534Y-80108897D01*
X85825101Y-80143633D01*
X85836535Y-80181326D01*
X85841000Y-80226661D01*
X85841000Y-81063339D01*
X85836535Y-81108674D01*
X85825101Y-81146367D01*
X85806534Y-81181103D01*
X85781548Y-81211548D01*
X85751103Y-81236534D01*
X85716367Y-81255101D01*
X85678674Y-81266535D01*
X85633339Y-81271000D01*
X84546661Y-81271000D01*
X84501326Y-81266535D01*
X84463633Y-81255101D01*
X84428897Y-81236534D01*
X84398452Y-81211548D01*
X84373466Y-81181103D01*
X84354899Y-81146367D01*
X84343465Y-81108674D01*
X84339000Y-81063339D01*
X84339000Y-80226661D01*
X84343465Y-80181326D01*
X84354899Y-80143633D01*
X84373466Y-80108897D01*
X84398452Y-80078452D01*
X84428897Y-80053466D01*
X84463633Y-80034899D01*
X84501326Y-80023465D01*
X84546661Y-80019000D01*
X85633339Y-80019000D01*
X85678674Y-80023465D01*
X85678674Y-80023465D01*
G37*
G36*
X90534928Y-79661764D02*
G01*
X90556009Y-79668160D01*
X90575445Y-79678548D01*
X90592476Y-79692524D01*
X90606452Y-79709555D01*
X90616840Y-79728991D01*
X90623236Y-79750072D01*
X90626000Y-79778140D01*
X90626000Y-80241860D01*
X90623236Y-80269928D01*
X90616840Y-80291009D01*
X90606452Y-80310445D01*
X90592476Y-80327476D01*
X90575445Y-80341452D01*
X90556009Y-80351840D01*
X90534928Y-80358236D01*
X90506860Y-80361000D01*
X88693140Y-80361000D01*
X88665072Y-80358236D01*
X88643991Y-80351840D01*
X88624555Y-80341452D01*
X88607524Y-80327476D01*
X88593548Y-80310445D01*
X88583160Y-80291009D01*
X88576764Y-80269928D01*
X88574000Y-80241860D01*
X88574000Y-79778140D01*
X88576764Y-79750072D01*
X88583160Y-79728991D01*
X88593548Y-79709555D01*
X88607524Y-79692524D01*
X88624555Y-79678548D01*
X88643991Y-79668160D01*
X88665072Y-79661764D01*
X88693140Y-79659000D01*
X90506860Y-79659000D01*
X90534928Y-79661764D01*
X90534928Y-79661764D01*
G37*
G36*
X95484928Y-79661764D02*
G01*
X95506009Y-79668160D01*
X95525445Y-79678548D01*
X95542476Y-79692524D01*
X95556452Y-79709555D01*
X95566840Y-79728991D01*
X95573236Y-79750072D01*
X95576000Y-79778140D01*
X95576000Y-80241860D01*
X95573236Y-80269928D01*
X95566840Y-80291009D01*
X95556452Y-80310445D01*
X95542476Y-80327476D01*
X95525445Y-80341452D01*
X95506009Y-80351840D01*
X95484928Y-80358236D01*
X95456860Y-80361000D01*
X93643140Y-80361000D01*
X93615072Y-80358236D01*
X93593991Y-80351840D01*
X93574555Y-80341452D01*
X93557524Y-80327476D01*
X93543548Y-80310445D01*
X93533160Y-80291009D01*
X93526764Y-80269928D01*
X93524000Y-80241860D01*
X93524000Y-79778140D01*
X93526764Y-79750072D01*
X93533160Y-79728991D01*
X93543548Y-79709555D01*
X93557524Y-79692524D01*
X93574555Y-79678548D01*
X93593991Y-79668160D01*
X93615072Y-79661764D01*
X93643140Y-79659000D01*
X95456860Y-79659000D01*
X95484928Y-79661764D01*
X95484928Y-79661764D01*
G37*
G36*
X68690443Y-77845519D02*
G01*
X68756627Y-77852037D01*
X68926466Y-77903557D01*
X69082991Y-77987222D01*
X69086032Y-77989718D01*
X69220186Y-78099814D01*
X69292619Y-78188075D01*
X69332778Y-78237009D01*
X69416443Y-78393534D01*
X69467963Y-78563373D01*
X69485359Y-78740000D01*
X69467963Y-78916627D01*
X69416443Y-79086466D01*
X69332778Y-79242991D01*
X69305603Y-79276103D01*
X69220186Y-79380186D01*
X69118729Y-79463448D01*
X69082991Y-79492778D01*
X68926466Y-79576443D01*
X68756627Y-79627963D01*
X68690442Y-79634482D01*
X68624260Y-79641000D01*
X68535740Y-79641000D01*
X68469558Y-79634482D01*
X68403373Y-79627963D01*
X68233534Y-79576443D01*
X68077009Y-79492778D01*
X68041271Y-79463448D01*
X67939814Y-79380186D01*
X67854397Y-79276103D01*
X67827222Y-79242991D01*
X67743557Y-79086466D01*
X67692037Y-78916627D01*
X67674641Y-78740000D01*
X67692037Y-78563373D01*
X67743557Y-78393534D01*
X67827222Y-78237009D01*
X67867381Y-78188075D01*
X67939814Y-78099814D01*
X68073968Y-77989718D01*
X68077009Y-77987222D01*
X68233534Y-77903557D01*
X68403373Y-77852037D01*
X68469557Y-77845519D01*
X68535740Y-77839000D01*
X68624260Y-77839000D01*
X68690443Y-77845519D01*
X68690443Y-77845519D01*
G37*
G36*
X80861000Y-79591000D02*
G01*
X79159000Y-79591000D01*
X79159000Y-77889000D01*
X80861000Y-77889000D01*
X80861000Y-79591000D01*
X80861000Y-79591000D01*
G37*
G36*
X99648674Y-78118465D02*
G01*
X99686367Y-78129899D01*
X99721103Y-78148466D01*
X99751548Y-78173452D01*
X99776534Y-78203897D01*
X99795101Y-78238633D01*
X99806535Y-78276326D01*
X99811000Y-78321661D01*
X99811000Y-79158339D01*
X99806535Y-79203674D01*
X99795101Y-79241367D01*
X99776534Y-79276103D01*
X99751548Y-79306548D01*
X99721103Y-79331534D01*
X99686367Y-79350101D01*
X99648674Y-79361535D01*
X99603339Y-79366000D01*
X98516661Y-79366000D01*
X98471326Y-79361535D01*
X98433633Y-79350101D01*
X98398897Y-79331534D01*
X98368452Y-79306548D01*
X98343466Y-79276103D01*
X98324899Y-79241367D01*
X98313465Y-79203674D01*
X98309000Y-79158339D01*
X98309000Y-78321661D01*
X98313465Y-78276326D01*
X98324899Y-78238633D01*
X98343466Y-78203897D01*
X98368452Y-78173452D01*
X98398897Y-78148466D01*
X98433633Y-78129899D01*
X98471326Y-78118465D01*
X98516661Y-78114000D01*
X99603339Y-78114000D01*
X99648674Y-78118465D01*
X99648674Y-78118465D01*
G37*
G36*
X85678674Y-77973465D02*
G01*
X85716367Y-77984899D01*
X85751103Y-78003466D01*
X85781548Y-78028452D01*
X85806534Y-78058897D01*
X85825101Y-78093633D01*
X85836535Y-78131326D01*
X85841000Y-78176661D01*
X85841000Y-79013339D01*
X85836535Y-79058674D01*
X85825101Y-79096367D01*
X85806534Y-79131103D01*
X85781548Y-79161548D01*
X85751103Y-79186534D01*
X85716367Y-79205101D01*
X85678674Y-79216535D01*
X85633339Y-79221000D01*
X84546661Y-79221000D01*
X84501326Y-79216535D01*
X84463633Y-79205101D01*
X84428897Y-79186534D01*
X84398452Y-79161548D01*
X84373466Y-79131103D01*
X84354899Y-79096367D01*
X84343465Y-79058674D01*
X84339000Y-79013339D01*
X84339000Y-78176661D01*
X84343465Y-78131326D01*
X84354899Y-78093633D01*
X84373466Y-78058897D01*
X84398452Y-78028452D01*
X84428897Y-78003466D01*
X84463633Y-77984899D01*
X84501326Y-77973465D01*
X84546661Y-77969000D01*
X85633339Y-77969000D01*
X85678674Y-77973465D01*
X85678674Y-77973465D01*
G37*
G36*
X95484928Y-78391764D02*
G01*
X95506009Y-78398160D01*
X95525445Y-78408548D01*
X95542476Y-78422524D01*
X95556452Y-78439555D01*
X95566840Y-78458991D01*
X95573236Y-78480072D01*
X95576000Y-78508140D01*
X95576000Y-78971860D01*
X95573236Y-78999928D01*
X95566840Y-79021009D01*
X95556452Y-79040445D01*
X95542476Y-79057476D01*
X95525445Y-79071452D01*
X95506009Y-79081840D01*
X95484928Y-79088236D01*
X95456860Y-79091000D01*
X93643140Y-79091000D01*
X93615072Y-79088236D01*
X93593991Y-79081840D01*
X93574555Y-79071452D01*
X93557524Y-79057476D01*
X93543548Y-79040445D01*
X93533160Y-79021009D01*
X93526764Y-78999928D01*
X93524000Y-78971860D01*
X93524000Y-78508140D01*
X93526764Y-78480072D01*
X93533160Y-78458991D01*
X93543548Y-78439555D01*
X93557524Y-78422524D01*
X93574555Y-78408548D01*
X93593991Y-78398160D01*
X93615072Y-78391764D01*
X93643140Y-78389000D01*
X95456860Y-78389000D01*
X95484928Y-78391764D01*
X95484928Y-78391764D01*
G37*
G36*
X90534928Y-78391764D02*
G01*
X90556009Y-78398160D01*
X90575445Y-78408548D01*
X90592476Y-78422524D01*
X90606452Y-78439555D01*
X90616840Y-78458991D01*
X90623236Y-78480072D01*
X90626000Y-78508140D01*
X90626000Y-78971860D01*
X90623236Y-78999928D01*
X90616840Y-79021009D01*
X90606452Y-79040445D01*
X90592476Y-79057476D01*
X90575445Y-79071452D01*
X90556009Y-79081840D01*
X90534928Y-79088236D01*
X90506860Y-79091000D01*
X88693140Y-79091000D01*
X88665072Y-79088236D01*
X88643991Y-79081840D01*
X88624555Y-79071452D01*
X88607524Y-79057476D01*
X88593548Y-79040445D01*
X88583160Y-79021009D01*
X88576764Y-78999928D01*
X88574000Y-78971860D01*
X88574000Y-78508140D01*
X88576764Y-78480072D01*
X88583160Y-78458991D01*
X88593548Y-78439555D01*
X88607524Y-78422524D01*
X88624555Y-78408548D01*
X88643991Y-78398160D01*
X88665072Y-78391764D01*
X88693140Y-78389000D01*
X90506860Y-78389000D01*
X90534928Y-78391764D01*
X90534928Y-78391764D01*
G37*
G36*
X95484928Y-77121764D02*
G01*
X95506009Y-77128160D01*
X95525445Y-77138548D01*
X95542476Y-77152524D01*
X95556452Y-77169555D01*
X95566840Y-77188991D01*
X95573236Y-77210072D01*
X95576000Y-77238140D01*
X95576000Y-77701860D01*
X95573236Y-77729928D01*
X95566840Y-77751009D01*
X95556452Y-77770445D01*
X95542476Y-77787476D01*
X95525445Y-77801452D01*
X95506009Y-77811840D01*
X95484928Y-77818236D01*
X95456860Y-77821000D01*
X93643140Y-77821000D01*
X93615072Y-77818236D01*
X93593991Y-77811840D01*
X93574555Y-77801452D01*
X93557524Y-77787476D01*
X93543548Y-77770445D01*
X93533160Y-77751009D01*
X93526764Y-77729928D01*
X93524000Y-77701860D01*
X93524000Y-77238140D01*
X93526764Y-77210072D01*
X93533160Y-77188991D01*
X93543548Y-77169555D01*
X93557524Y-77152524D01*
X93574555Y-77138548D01*
X93593991Y-77128160D01*
X93615072Y-77121764D01*
X93643140Y-77119000D01*
X95456860Y-77119000D01*
X95484928Y-77121764D01*
X95484928Y-77121764D01*
G37*
G36*
X90534928Y-77121764D02*
G01*
X90556009Y-77128160D01*
X90575445Y-77138548D01*
X90592476Y-77152524D01*
X90606452Y-77169555D01*
X90616840Y-77188991D01*
X90623236Y-77210072D01*
X90626000Y-77238140D01*
X90626000Y-77701860D01*
X90623236Y-77729928D01*
X90616840Y-77751009D01*
X90606452Y-77770445D01*
X90592476Y-77787476D01*
X90575445Y-77801452D01*
X90556009Y-77811840D01*
X90534928Y-77818236D01*
X90506860Y-77821000D01*
X88693140Y-77821000D01*
X88665072Y-77818236D01*
X88643991Y-77811840D01*
X88624555Y-77801452D01*
X88607524Y-77787476D01*
X88593548Y-77770445D01*
X88583160Y-77751009D01*
X88576764Y-77729928D01*
X88574000Y-77701860D01*
X88574000Y-77238140D01*
X88576764Y-77210072D01*
X88583160Y-77188991D01*
X88593548Y-77169555D01*
X88607524Y-77152524D01*
X88624555Y-77138548D01*
X88643991Y-77128160D01*
X88665072Y-77121764D01*
X88693140Y-77119000D01*
X90506860Y-77119000D01*
X90534928Y-77121764D01*
X90534928Y-77121764D01*
G37*
G36*
X68690442Y-75305518D02*
G01*
X68756627Y-75312037D01*
X68926466Y-75363557D01*
X69082991Y-75447222D01*
X69118729Y-75476552D01*
X69220186Y-75559814D01*
X69303448Y-75661271D01*
X69332778Y-75697009D01*
X69416443Y-75853534D01*
X69467963Y-76023373D01*
X69485359Y-76200000D01*
X69467963Y-76376627D01*
X69416443Y-76546466D01*
X69332778Y-76702991D01*
X69303448Y-76738729D01*
X69220186Y-76840186D01*
X69118729Y-76923448D01*
X69082991Y-76952778D01*
X68926466Y-77036443D01*
X68756627Y-77087963D01*
X68690442Y-77094482D01*
X68624260Y-77101000D01*
X68535740Y-77101000D01*
X68469558Y-77094482D01*
X68403373Y-77087963D01*
X68233534Y-77036443D01*
X68077009Y-76952778D01*
X68041271Y-76923448D01*
X67939814Y-76840186D01*
X67856552Y-76738729D01*
X67827222Y-76702991D01*
X67743557Y-76546466D01*
X67692037Y-76376627D01*
X67674641Y-76200000D01*
X67692037Y-76023373D01*
X67743557Y-75853534D01*
X67827222Y-75697009D01*
X67856552Y-75661271D01*
X67939814Y-75559814D01*
X68041271Y-75476552D01*
X68077009Y-75447222D01*
X68233534Y-75363557D01*
X68403373Y-75312037D01*
X68469558Y-75305518D01*
X68535740Y-75299000D01*
X68624260Y-75299000D01*
X68690442Y-75305518D01*
X68690442Y-75305518D01*
G37*
G36*
X104748674Y-73548465D02*
G01*
X104786367Y-73559899D01*
X104821103Y-73578466D01*
X104851548Y-73603452D01*
X104876534Y-73633897D01*
X104895101Y-73668633D01*
X104906535Y-73706326D01*
X104911000Y-73751661D01*
X104911000Y-74838339D01*
X104906535Y-74883674D01*
X104895101Y-74921367D01*
X104876534Y-74956103D01*
X104851548Y-74986548D01*
X104821103Y-75011534D01*
X104786367Y-75030101D01*
X104748674Y-75041535D01*
X104703339Y-75046000D01*
X103866661Y-75046000D01*
X103821326Y-75041535D01*
X103783633Y-75030101D01*
X103748897Y-75011534D01*
X103718452Y-74986548D01*
X103693466Y-74956103D01*
X103674899Y-74921367D01*
X103663465Y-74883674D01*
X103659000Y-74838339D01*
X103659000Y-73751661D01*
X103663465Y-73706326D01*
X103674899Y-73668633D01*
X103693466Y-73633897D01*
X103718452Y-73603452D01*
X103748897Y-73578466D01*
X103783633Y-73559899D01*
X103821326Y-73548465D01*
X103866661Y-73544000D01*
X104703339Y-73544000D01*
X104748674Y-73548465D01*
X104748674Y-73548465D01*
G37*
G36*
X99913674Y-73548465D02*
G01*
X99951367Y-73559899D01*
X99986103Y-73578466D01*
X100016548Y-73603452D01*
X100041534Y-73633897D01*
X100060101Y-73668633D01*
X100071535Y-73706326D01*
X100076000Y-73751661D01*
X100076000Y-74838339D01*
X100071535Y-74883674D01*
X100060101Y-74921367D01*
X100041534Y-74956103D01*
X100016548Y-74986548D01*
X99986103Y-75011534D01*
X99951367Y-75030101D01*
X99913674Y-75041535D01*
X99868339Y-75046000D01*
X99031661Y-75046000D01*
X98986326Y-75041535D01*
X98948633Y-75030101D01*
X98913897Y-75011534D01*
X98883452Y-74986548D01*
X98858466Y-74956103D01*
X98839899Y-74921367D01*
X98828465Y-74883674D01*
X98824000Y-74838339D01*
X98824000Y-73751661D01*
X98828465Y-73706326D01*
X98839899Y-73668633D01*
X98858466Y-73633897D01*
X98883452Y-73603452D01*
X98913897Y-73578466D01*
X98948633Y-73559899D01*
X98986326Y-73548465D01*
X99031661Y-73544000D01*
X99868339Y-73544000D01*
X99913674Y-73548465D01*
X99913674Y-73548465D01*
G37*
G36*
X97863674Y-73548465D02*
G01*
X97901367Y-73559899D01*
X97936103Y-73578466D01*
X97966548Y-73603452D01*
X97991534Y-73633897D01*
X98010101Y-73668633D01*
X98021535Y-73706326D01*
X98026000Y-73751661D01*
X98026000Y-74838339D01*
X98021535Y-74883674D01*
X98010101Y-74921367D01*
X97991534Y-74956103D01*
X97966548Y-74986548D01*
X97936103Y-75011534D01*
X97901367Y-75030101D01*
X97863674Y-75041535D01*
X97818339Y-75046000D01*
X96981661Y-75046000D01*
X96936326Y-75041535D01*
X96898633Y-75030101D01*
X96863897Y-75011534D01*
X96833452Y-74986548D01*
X96808466Y-74956103D01*
X96789899Y-74921367D01*
X96778465Y-74883674D01*
X96774000Y-74838339D01*
X96774000Y-73751661D01*
X96778465Y-73706326D01*
X96789899Y-73668633D01*
X96808466Y-73633897D01*
X96833452Y-73603452D01*
X96863897Y-73578466D01*
X96898633Y-73559899D01*
X96936326Y-73548465D01*
X96981661Y-73544000D01*
X97818339Y-73544000D01*
X97863674Y-73548465D01*
X97863674Y-73548465D01*
G37*
G36*
X102698674Y-73548465D02*
G01*
X102736367Y-73559899D01*
X102771103Y-73578466D01*
X102801548Y-73603452D01*
X102826534Y-73633897D01*
X102845101Y-73668633D01*
X102856535Y-73706326D01*
X102861000Y-73751661D01*
X102861000Y-74838339D01*
X102856535Y-74883674D01*
X102845101Y-74921367D01*
X102826534Y-74956103D01*
X102801548Y-74986548D01*
X102771103Y-75011534D01*
X102736367Y-75030101D01*
X102698674Y-75041535D01*
X102653339Y-75046000D01*
X101816661Y-75046000D01*
X101771326Y-75041535D01*
X101733633Y-75030101D01*
X101698897Y-75011534D01*
X101668452Y-74986548D01*
X101643466Y-74956103D01*
X101624899Y-74921367D01*
X101613465Y-74883674D01*
X101609000Y-74838339D01*
X101609000Y-73751661D01*
X101613465Y-73706326D01*
X101624899Y-73668633D01*
X101643466Y-73633897D01*
X101668452Y-73603452D01*
X101698897Y-73578466D01*
X101733633Y-73559899D01*
X101771326Y-73548465D01*
X101816661Y-73544000D01*
X102653339Y-73544000D01*
X102698674Y-73548465D01*
X102698674Y-73548465D01*
G37*
G36*
X94861000Y-74946000D02*
G01*
X93859000Y-74946000D01*
X93859000Y-73644000D01*
X94861000Y-73644000D01*
X94861000Y-74946000D01*
X94861000Y-74946000D01*
G37*
G36*
X91561000Y-74946000D02*
G01*
X90559000Y-74946000D01*
X90559000Y-73644000D01*
X91561000Y-73644000D01*
X91561000Y-74946000D01*
X91561000Y-74946000D01*
G37*
G36*
X69481000Y-74561000D02*
G01*
X67679000Y-74561000D01*
X67679000Y-72759000D01*
X69481000Y-72759000D01*
X69481000Y-74561000D01*
X69481000Y-74561000D01*
G37*
G36*
X78066000Y-71966000D02*
G01*
X73064000Y-71966000D01*
X73064000Y-66464000D01*
X78066000Y-66464000D01*
X78066000Y-71966000D01*
X78066000Y-71966000D01*
G37*
G36*
X89866000Y-71966000D02*
G01*
X84864000Y-71966000D01*
X84864000Y-66464000D01*
X89866000Y-66464000D01*
X89866000Y-71966000D01*
X89866000Y-71966000D01*
G37*
G36*
X96348674Y-69103465D02*
G01*
X96386367Y-69114899D01*
X96421103Y-69133466D01*
X96451548Y-69158452D01*
X96476534Y-69188897D01*
X96495101Y-69223633D01*
X96506535Y-69261326D01*
X96511000Y-69306661D01*
X96511000Y-70393339D01*
X96506535Y-70438674D01*
X96495101Y-70476367D01*
X96476534Y-70511103D01*
X96451548Y-70541548D01*
X96421103Y-70566534D01*
X96386367Y-70585101D01*
X96348674Y-70596535D01*
X96303339Y-70601000D01*
X95466661Y-70601000D01*
X95421326Y-70596535D01*
X95383633Y-70585101D01*
X95348897Y-70566534D01*
X95318452Y-70541548D01*
X95293466Y-70511103D01*
X95274899Y-70476367D01*
X95263465Y-70438674D01*
X95259000Y-70393339D01*
X95259000Y-69306661D01*
X95263465Y-69261326D01*
X95274899Y-69223633D01*
X95293466Y-69188897D01*
X95318452Y-69158452D01*
X95348897Y-69133466D01*
X95383633Y-69114899D01*
X95421326Y-69103465D01*
X95466661Y-69099000D01*
X96303339Y-69099000D01*
X96348674Y-69103465D01*
X96348674Y-69103465D01*
G37*
G36*
X94298674Y-69103465D02*
G01*
X94336367Y-69114899D01*
X94371103Y-69133466D01*
X94401548Y-69158452D01*
X94426534Y-69188897D01*
X94445101Y-69223633D01*
X94456535Y-69261326D01*
X94461000Y-69306661D01*
X94461000Y-70393339D01*
X94456535Y-70438674D01*
X94445101Y-70476367D01*
X94426534Y-70511103D01*
X94401548Y-70541548D01*
X94371103Y-70566534D01*
X94336367Y-70585101D01*
X94298674Y-70596535D01*
X94253339Y-70601000D01*
X93416661Y-70601000D01*
X93371326Y-70596535D01*
X93333633Y-70585101D01*
X93298897Y-70566534D01*
X93268452Y-70541548D01*
X93243466Y-70511103D01*
X93224899Y-70476367D01*
X93213465Y-70438674D01*
X93209000Y-70393339D01*
X93209000Y-69306661D01*
X93213465Y-69261326D01*
X93224899Y-69223633D01*
X93243466Y-69188897D01*
X93268452Y-69158452D01*
X93298897Y-69133466D01*
X93333633Y-69114899D01*
X93371326Y-69103465D01*
X93416661Y-69099000D01*
X94253339Y-69099000D01*
X94298674Y-69103465D01*
X94298674Y-69103465D01*
G37*
G36*
X102941213Y-65412502D02*
G01*
X103012321Y-65419505D01*
X103149172Y-65461019D01*
X103149175Y-65461020D01*
X103275294Y-65528432D01*
X103385843Y-65619157D01*
X103476568Y-65729706D01*
X103543980Y-65855825D01*
X103543981Y-65855828D01*
X103585495Y-65992679D01*
X103599512Y-66135000D01*
X103585495Y-66277321D01*
X103543981Y-66414172D01*
X103543980Y-66414175D01*
X103476568Y-66540294D01*
X103385843Y-66650843D01*
X103275294Y-66741568D01*
X103149175Y-66808980D01*
X103149172Y-66808981D01*
X103012321Y-66850495D01*
X102941213Y-66857498D01*
X102905660Y-66861000D01*
X102834340Y-66861000D01*
X102798787Y-66857498D01*
X102727679Y-66850495D01*
X102590828Y-66808981D01*
X102590825Y-66808980D01*
X102464706Y-66741568D01*
X102354157Y-66650843D01*
X102263432Y-66540294D01*
X102196020Y-66414175D01*
X102196019Y-66414172D01*
X102154505Y-66277321D01*
X102140488Y-66135000D01*
X102154505Y-65992679D01*
X102196019Y-65855828D01*
X102196020Y-65855825D01*
X102263432Y-65729706D01*
X102354157Y-65619157D01*
X102464706Y-65528432D01*
X102590825Y-65461020D01*
X102590828Y-65461019D01*
X102727679Y-65419505D01*
X102798787Y-65412502D01*
X102834340Y-65409000D01*
X102905660Y-65409000D01*
X102941213Y-65412502D01*
X102941213Y-65412502D01*
G37*
G36*
X94196000Y-66256000D02*
G01*
X92494000Y-66256000D01*
X92494000Y-64554000D01*
X94196000Y-64554000D01*
X94196000Y-66256000D01*
X94196000Y-66256000D01*
G37*
G36*
X103596000Y-64861000D02*
G01*
X102144000Y-64861000D01*
X102144000Y-63409000D01*
X103596000Y-63409000D01*
X103596000Y-64861000D01*
X103596000Y-64861000D01*
G37*
G36*
X68169549Y-62371116D02*
G01*
X68280734Y-62393232D01*
X68490203Y-62479997D01*
X68678720Y-62605960D01*
X68839040Y-62766280D01*
X68965003Y-62954797D01*
X69048664Y-63156772D01*
X69051768Y-63164267D01*
X69096000Y-63386635D01*
X69096000Y-63613365D01*
X69073884Y-63724549D01*
X69051768Y-63835734D01*
X68965003Y-64045203D01*
X68839040Y-64233720D01*
X68678720Y-64394040D01*
X68490203Y-64520003D01*
X68280734Y-64606768D01*
X68169549Y-64628884D01*
X68058365Y-64651000D01*
X67831635Y-64651000D01*
X67720451Y-64628884D01*
X67609266Y-64606768D01*
X67399797Y-64520003D01*
X67211280Y-64394040D01*
X67050960Y-64233720D01*
X66924997Y-64045203D01*
X66838232Y-63835734D01*
X66816116Y-63724549D01*
X66794000Y-63613365D01*
X66794000Y-63386635D01*
X66838232Y-63164267D01*
X66841337Y-63156772D01*
X66924997Y-62954797D01*
X67050960Y-62766280D01*
X67211280Y-62605960D01*
X67399797Y-62479997D01*
X67609266Y-62393232D01*
X67720451Y-62371116D01*
X67831635Y-62349000D01*
X68058365Y-62349000D01*
X68169549Y-62371116D01*
X68169549Y-62371116D01*
G37*
G36*
X93593228Y-62586703D02*
G01*
X93748100Y-62650853D01*
X93887481Y-62743985D01*
X94006015Y-62862519D01*
X94099147Y-63001900D01*
X94163297Y-63156772D01*
X94196000Y-63321184D01*
X94196000Y-63488816D01*
X94163297Y-63653228D01*
X94099147Y-63808100D01*
X94006015Y-63947481D01*
X93887481Y-64066015D01*
X93748100Y-64159147D01*
X93593228Y-64223297D01*
X93428816Y-64256000D01*
X93261184Y-64256000D01*
X93096772Y-64223297D01*
X92941900Y-64159147D01*
X92802519Y-64066015D01*
X92683985Y-63947481D01*
X92590853Y-63808100D01*
X92526703Y-63653228D01*
X92494000Y-63488816D01*
X92494000Y-63321184D01*
X92526703Y-63156772D01*
X92590853Y-63001900D01*
X92683985Y-62862519D01*
X92802519Y-62743985D01*
X92941900Y-62650853D01*
X93096772Y-62586703D01*
X93261184Y-62554000D01*
X93428816Y-62554000D01*
X93593228Y-62586703D01*
X93593228Y-62586703D01*
G37*
M02*
