G04 #@! TF.GenerationSoftware,KiCad,Pcbnew,5.1.2*
G04 #@! TF.CreationDate,2019-08-10T03:31:52+02:00*
G04 #@! TF.ProjectId,sclock,73636c6f-636b-42e6-9b69-6361645f7063,rev?*
G04 #@! TF.SameCoordinates,Original*
G04 #@! TF.FileFunction,Legend,Top*
G04 #@! TF.FilePolarity,Positive*
%FSLAX46Y46*%
G04 Gerber Fmt 4.6, Leading zero omitted, Abs format (unit mm)*
G04 Created by KiCad (PCBNEW 5.1.2) date 2019-08-10 03:31:52*
%MOMM*%
%LPD*%
G04 APERTURE LIST*
%ADD10C,0.150000*%
%ADD11C,0.125000*%
%ADD12C,0.120000*%
G04 APERTURE END LIST*
D10*
X76838752Y-73137780D02*
X76838752Y-73852066D01*
X76791133Y-73994923D01*
X76695895Y-74090161D01*
X76553038Y-74137780D01*
X76457800Y-74137780D01*
X77791133Y-74137780D02*
X77314942Y-74137780D01*
X77314942Y-73137780D01*
X78695895Y-74042542D02*
X78648276Y-74090161D01*
X78505419Y-74137780D01*
X78410180Y-74137780D01*
X78267323Y-74090161D01*
X78172085Y-73994923D01*
X78124466Y-73899685D01*
X78076847Y-73709209D01*
X78076847Y-73566352D01*
X78124466Y-73375876D01*
X78172085Y-73280638D01*
X78267323Y-73185400D01*
X78410180Y-73137780D01*
X78505419Y-73137780D01*
X78648276Y-73185400D01*
X78695895Y-73233019D01*
X79410180Y-73137780D02*
X79410180Y-73852066D01*
X79362561Y-73994923D01*
X79267323Y-74090161D01*
X79124466Y-74137780D01*
X79029228Y-74137780D01*
X80362561Y-74137780D02*
X79886371Y-74137780D01*
X79886371Y-73137780D01*
X81267323Y-74042542D02*
X81219704Y-74090161D01*
X81076847Y-74137780D01*
X80981609Y-74137780D01*
X80838752Y-74090161D01*
X80743514Y-73994923D01*
X80695895Y-73899685D01*
X80648276Y-73709209D01*
X80648276Y-73566352D01*
X80695895Y-73375876D01*
X80743514Y-73280638D01*
X80838752Y-73185400D01*
X80981609Y-73137780D01*
X81076847Y-73137780D01*
X81219704Y-73185400D01*
X81267323Y-73233019D01*
X81981609Y-73137780D02*
X81981609Y-73852066D01*
X81933990Y-73994923D01*
X81838752Y-74090161D01*
X81695895Y-74137780D01*
X81600657Y-74137780D01*
X82933990Y-74137780D02*
X82457800Y-74137780D01*
X82457800Y-73137780D01*
X83838752Y-74042542D02*
X83791133Y-74090161D01*
X83648276Y-74137780D01*
X83553038Y-74137780D01*
X83410180Y-74090161D01*
X83314942Y-73994923D01*
X83267323Y-73899685D01*
X83219704Y-73709209D01*
X83219704Y-73566352D01*
X83267323Y-73375876D01*
X83314942Y-73280638D01*
X83410180Y-73185400D01*
X83553038Y-73137780D01*
X83648276Y-73137780D01*
X83791133Y-73185400D01*
X83838752Y-73233019D01*
X84553038Y-73137780D02*
X84553038Y-73852066D01*
X84505419Y-73994923D01*
X84410180Y-74090161D01*
X84267323Y-74137780D01*
X84172085Y-74137780D01*
X85505419Y-74137780D02*
X85029228Y-74137780D01*
X85029228Y-73137780D01*
X86410180Y-74042542D02*
X86362561Y-74090161D01*
X86219704Y-74137780D01*
X86124466Y-74137780D01*
X85981609Y-74090161D01*
X85886371Y-73994923D01*
X85838752Y-73899685D01*
X85791133Y-73709209D01*
X85791133Y-73566352D01*
X85838752Y-73375876D01*
X85886371Y-73280638D01*
X85981609Y-73185400D01*
X86124466Y-73137780D01*
X86219704Y-73137780D01*
X86362561Y-73185400D01*
X86410180Y-73233019D01*
D11*
X70818571Y-63199404D02*
X70818571Y-62399404D01*
X70818571Y-62704166D02*
X70875714Y-62666071D01*
X70990000Y-62666071D01*
X71047142Y-62704166D01*
X71075714Y-62742261D01*
X71104285Y-62818452D01*
X71104285Y-63047023D01*
X71075714Y-63123214D01*
X71047142Y-63161309D01*
X70990000Y-63199404D01*
X70875714Y-63199404D01*
X70818571Y-63161309D01*
X71618571Y-62666071D02*
X71618571Y-63199404D01*
X71361428Y-62666071D02*
X71361428Y-63085119D01*
X71390000Y-63161309D01*
X71447142Y-63199404D01*
X71532857Y-63199404D01*
X71590000Y-63161309D01*
X71618571Y-63123214D01*
X72161428Y-63161309D02*
X72104285Y-63199404D01*
X71990000Y-63199404D01*
X71932857Y-63161309D01*
X71904285Y-63123214D01*
X71875714Y-63047023D01*
X71875714Y-62818452D01*
X71904285Y-62742261D01*
X71932857Y-62704166D01*
X71990000Y-62666071D01*
X72104285Y-62666071D01*
X72161428Y-62704166D01*
X72418571Y-63199404D02*
X72418571Y-62399404D01*
X72475714Y-62894642D02*
X72647142Y-63199404D01*
X72647142Y-62666071D02*
X72418571Y-62970833D01*
X72904285Y-63199404D02*
X72904285Y-62399404D01*
X72961428Y-62894642D02*
X73132857Y-63199404D01*
X73132857Y-62666071D02*
X72904285Y-62970833D01*
X73618571Y-63161309D02*
X73561428Y-63199404D01*
X73447142Y-63199404D01*
X73390000Y-63161309D01*
X73361428Y-63085119D01*
X73361428Y-62780357D01*
X73390000Y-62704166D01*
X73447142Y-62666071D01*
X73561428Y-62666071D01*
X73618571Y-62704166D01*
X73647142Y-62780357D01*
X73647142Y-62856547D01*
X73361428Y-62932738D01*
X73818571Y-62666071D02*
X74047142Y-62666071D01*
X73904285Y-62399404D02*
X73904285Y-63085119D01*
X73932857Y-63161309D01*
X73990000Y-63199404D01*
X74047142Y-63199404D01*
X71361428Y-63800595D02*
X71390000Y-63762500D01*
X71447142Y-63724404D01*
X71590000Y-63724404D01*
X71647142Y-63762500D01*
X71675714Y-63800595D01*
X71704285Y-63876785D01*
X71704285Y-63952976D01*
X71675714Y-64067261D01*
X71332857Y-64524404D01*
X71704285Y-64524404D01*
X72075714Y-63724404D02*
X72132857Y-63724404D01*
X72190000Y-63762500D01*
X72218571Y-63800595D01*
X72247142Y-63876785D01*
X72275714Y-64029166D01*
X72275714Y-64219642D01*
X72247142Y-64372023D01*
X72218571Y-64448214D01*
X72190000Y-64486309D01*
X72132857Y-64524404D01*
X72075714Y-64524404D01*
X72018571Y-64486309D01*
X71990000Y-64448214D01*
X71961428Y-64372023D01*
X71932857Y-64219642D01*
X71932857Y-64029166D01*
X71961428Y-63876785D01*
X71990000Y-63800595D01*
X72018571Y-63762500D01*
X72075714Y-63724404D01*
X72847142Y-64524404D02*
X72504285Y-64524404D01*
X72675714Y-64524404D02*
X72675714Y-63724404D01*
X72618571Y-63838690D01*
X72561428Y-63914880D01*
X72504285Y-63952976D01*
X73132857Y-64524404D02*
X73247142Y-64524404D01*
X73304285Y-64486309D01*
X73332857Y-64448214D01*
X73390000Y-64333928D01*
X73418571Y-64181547D01*
X73418571Y-63876785D01*
X73390000Y-63800595D01*
X73361428Y-63762500D01*
X73304285Y-63724404D01*
X73190000Y-63724404D01*
X73132857Y-63762500D01*
X73104285Y-63800595D01*
X73075714Y-63876785D01*
X73075714Y-64067261D01*
X73104285Y-64143452D01*
X73132857Y-64181547D01*
X73190000Y-64219642D01*
X73304285Y-64219642D01*
X73361428Y-64181547D01*
X73390000Y-64143452D01*
X73418571Y-64067261D01*
X99371428Y-69048380D02*
X99085714Y-69048380D01*
X99057142Y-69524571D01*
X99085714Y-69476952D01*
X99142857Y-69429333D01*
X99285714Y-69429333D01*
X99342857Y-69476952D01*
X99371428Y-69524571D01*
X99400000Y-69619809D01*
X99400000Y-69857904D01*
X99371428Y-69953142D01*
X99342857Y-70000761D01*
X99285714Y-70048380D01*
X99142857Y-70048380D01*
X99085714Y-70000761D01*
X99057142Y-69953142D01*
X99771428Y-69048380D02*
X99828571Y-69048380D01*
X99885714Y-69096000D01*
X99914285Y-69143619D01*
X99942857Y-69238857D01*
X99971428Y-69429333D01*
X99971428Y-69667428D01*
X99942857Y-69857904D01*
X99914285Y-69953142D01*
X99885714Y-70000761D01*
X99828571Y-70048380D01*
X99771428Y-70048380D01*
X99714285Y-70000761D01*
X99685714Y-69953142D01*
X99657142Y-69857904D01*
X99628571Y-69667428D01*
X99628571Y-69429333D01*
X99657142Y-69238857D01*
X99685714Y-69143619D01*
X99714285Y-69096000D01*
X99771428Y-69048380D01*
X100342857Y-69048380D02*
X100400000Y-69048380D01*
X100457142Y-69096000D01*
X100485714Y-69143619D01*
X100514285Y-69238857D01*
X100542857Y-69429333D01*
X100542857Y-69667428D01*
X100514285Y-69857904D01*
X100485714Y-69953142D01*
X100457142Y-70000761D01*
X100400000Y-70048380D01*
X100342857Y-70048380D01*
X100285714Y-70000761D01*
X100257142Y-69953142D01*
X100228571Y-69857904D01*
X100200000Y-69667428D01*
X100200000Y-69429333D01*
X100228571Y-69238857D01*
X100257142Y-69143619D01*
X100285714Y-69096000D01*
X100342857Y-69048380D01*
X100800000Y-70048380D02*
X100800000Y-69381714D01*
X100800000Y-69476952D02*
X100828571Y-69429333D01*
X100885714Y-69381714D01*
X100971428Y-69381714D01*
X101028571Y-69429333D01*
X101057142Y-69524571D01*
X101057142Y-70048380D01*
X101057142Y-69524571D02*
X101085714Y-69429333D01*
X101142857Y-69381714D01*
X101228571Y-69381714D01*
X101285714Y-69429333D01*
X101314285Y-69524571D01*
X101314285Y-70048380D01*
X101571428Y-69762666D02*
X101857142Y-69762666D01*
X101514285Y-70048380D02*
X101714285Y-69048380D01*
X101914285Y-70048380D01*
X102571428Y-70048380D02*
X102571428Y-69381714D01*
X102571428Y-69476952D02*
X102600000Y-69429333D01*
X102657142Y-69381714D01*
X102742857Y-69381714D01*
X102800000Y-69429333D01*
X102828571Y-69524571D01*
X102828571Y-70048380D01*
X102828571Y-69524571D02*
X102857142Y-69429333D01*
X102914285Y-69381714D01*
X103000000Y-69381714D01*
X103057142Y-69429333D01*
X103085714Y-69524571D01*
X103085714Y-70048380D01*
X103628571Y-70048380D02*
X103628571Y-69524571D01*
X103600000Y-69429333D01*
X103542857Y-69381714D01*
X103428571Y-69381714D01*
X103371428Y-69429333D01*
X103628571Y-70000761D02*
X103571428Y-70048380D01*
X103428571Y-70048380D01*
X103371428Y-70000761D01*
X103342857Y-69905523D01*
X103342857Y-69810285D01*
X103371428Y-69715047D01*
X103428571Y-69667428D01*
X103571428Y-69667428D01*
X103628571Y-69619809D01*
X103857142Y-70048380D02*
X104171428Y-69381714D01*
X103857142Y-69381714D02*
X104171428Y-70048380D01*
D10*
X70725357Y-73112380D02*
X71344404Y-73112380D01*
X71011071Y-73493333D01*
X71153928Y-73493333D01*
X71249166Y-73540952D01*
X71296785Y-73588571D01*
X71344404Y-73683809D01*
X71344404Y-73921904D01*
X71296785Y-74017142D01*
X71249166Y-74064761D01*
X71153928Y-74112380D01*
X70868214Y-74112380D01*
X70772976Y-74064761D01*
X70725357Y-74017142D01*
X71772976Y-74017142D02*
X71820595Y-74064761D01*
X71772976Y-74112380D01*
X71725357Y-74064761D01*
X71772976Y-74017142D01*
X71772976Y-74112380D01*
X72153928Y-73112380D02*
X72772976Y-73112380D01*
X72439642Y-73493333D01*
X72582500Y-73493333D01*
X72677738Y-73540952D01*
X72725357Y-73588571D01*
X72772976Y-73683809D01*
X72772976Y-73921904D01*
X72725357Y-74017142D01*
X72677738Y-74064761D01*
X72582500Y-74112380D01*
X72296785Y-74112380D01*
X72201547Y-74064761D01*
X72153928Y-74017142D01*
X73058690Y-73112380D02*
X73392023Y-74112380D01*
X73725357Y-73112380D01*
D11*
X66843571Y-67918261D02*
X66900714Y-67965880D01*
X67015000Y-67965880D01*
X67072142Y-67918261D01*
X67100714Y-67823023D01*
X67100714Y-67775404D01*
X67072142Y-67680166D01*
X67015000Y-67632547D01*
X66929285Y-67632547D01*
X66872142Y-67584928D01*
X66843571Y-67489690D01*
X66843571Y-67442071D01*
X66872142Y-67346833D01*
X66929285Y-67299214D01*
X67015000Y-67299214D01*
X67072142Y-67346833D01*
X67615000Y-67918261D02*
X67557857Y-67965880D01*
X67443571Y-67965880D01*
X67386428Y-67918261D01*
X67357857Y-67870642D01*
X67329285Y-67775404D01*
X67329285Y-67489690D01*
X67357857Y-67394452D01*
X67386428Y-67346833D01*
X67443571Y-67299214D01*
X67557857Y-67299214D01*
X67615000Y-67346833D01*
X67957857Y-67965880D02*
X67900714Y-67918261D01*
X67872142Y-67823023D01*
X67872142Y-66965880D01*
X68272142Y-67965880D02*
X68215000Y-67918261D01*
X68186428Y-67870642D01*
X68157857Y-67775404D01*
X68157857Y-67489690D01*
X68186428Y-67394452D01*
X68215000Y-67346833D01*
X68272142Y-67299214D01*
X68357857Y-67299214D01*
X68415000Y-67346833D01*
X68443571Y-67394452D01*
X68472142Y-67489690D01*
X68472142Y-67775404D01*
X68443571Y-67870642D01*
X68415000Y-67918261D01*
X68357857Y-67965880D01*
X68272142Y-67965880D01*
X68986428Y-67918261D02*
X68929285Y-67965880D01*
X68815000Y-67965880D01*
X68757857Y-67918261D01*
X68729285Y-67870642D01*
X68700714Y-67775404D01*
X68700714Y-67489690D01*
X68729285Y-67394452D01*
X68757857Y-67346833D01*
X68815000Y-67299214D01*
X68929285Y-67299214D01*
X68986428Y-67346833D01*
X69243571Y-67965880D02*
X69243571Y-66965880D01*
X69300714Y-67584928D02*
X69472142Y-67965880D01*
X69472142Y-67299214D02*
X69243571Y-67680166D01*
X70157857Y-67061119D02*
X70186428Y-67013500D01*
X70243571Y-66965880D01*
X70386428Y-66965880D01*
X70443571Y-67013500D01*
X70472142Y-67061119D01*
X70500714Y-67156357D01*
X70500714Y-67251595D01*
X70472142Y-67394452D01*
X70129285Y-67965880D01*
X70500714Y-67965880D01*
X71015000Y-67299214D02*
X71015000Y-67965880D01*
X70872142Y-66918261D02*
X70729285Y-67632547D01*
X71100714Y-67632547D01*
X71243571Y-66965880D02*
X71443571Y-67965880D01*
X71643571Y-66965880D01*
X66386428Y-68924214D02*
X66386428Y-69924214D01*
X66386428Y-68971833D02*
X66443571Y-68924214D01*
X66557857Y-68924214D01*
X66615000Y-68971833D01*
X66643571Y-69019452D01*
X66672142Y-69114690D01*
X66672142Y-69400404D01*
X66643571Y-69495642D01*
X66615000Y-69543261D01*
X66557857Y-69590880D01*
X66443571Y-69590880D01*
X66386428Y-69543261D01*
X67015000Y-69590880D02*
X66957857Y-69543261D01*
X66929285Y-69495642D01*
X66900714Y-69400404D01*
X66900714Y-69114690D01*
X66929285Y-69019452D01*
X66957857Y-68971833D01*
X67015000Y-68924214D01*
X67100714Y-68924214D01*
X67157857Y-68971833D01*
X67186428Y-69019452D01*
X67215000Y-69114690D01*
X67215000Y-69400404D01*
X67186428Y-69495642D01*
X67157857Y-69543261D01*
X67100714Y-69590880D01*
X67015000Y-69590880D01*
X67415000Y-68924214D02*
X67529285Y-69590880D01*
X67643571Y-69114690D01*
X67757857Y-69590880D01*
X67872142Y-68924214D01*
X68329285Y-69543261D02*
X68272142Y-69590880D01*
X68157857Y-69590880D01*
X68100714Y-69543261D01*
X68072142Y-69448023D01*
X68072142Y-69067071D01*
X68100714Y-68971833D01*
X68157857Y-68924214D01*
X68272142Y-68924214D01*
X68329285Y-68971833D01*
X68357857Y-69067071D01*
X68357857Y-69162309D01*
X68072142Y-69257547D01*
X68615000Y-69590880D02*
X68615000Y-68924214D01*
X68615000Y-69114690D02*
X68643571Y-69019452D01*
X68672142Y-68971833D01*
X68729285Y-68924214D01*
X68786428Y-68924214D01*
X69415000Y-69543261D02*
X69472142Y-69590880D01*
X69586428Y-69590880D01*
X69643571Y-69543261D01*
X69672142Y-69448023D01*
X69672142Y-69400404D01*
X69643571Y-69305166D01*
X69586428Y-69257547D01*
X69500714Y-69257547D01*
X69443571Y-69209928D01*
X69415000Y-69114690D01*
X69415000Y-69067071D01*
X69443571Y-68971833D01*
X69500714Y-68924214D01*
X69586428Y-68924214D01*
X69643571Y-68971833D01*
X70186428Y-68924214D02*
X70186428Y-69590880D01*
X69929285Y-68924214D02*
X69929285Y-69448023D01*
X69957857Y-69543261D01*
X70015000Y-69590880D01*
X70100714Y-69590880D01*
X70157857Y-69543261D01*
X70186428Y-69495642D01*
X70472142Y-68924214D02*
X70472142Y-69924214D01*
X70472142Y-68971833D02*
X70529285Y-68924214D01*
X70643571Y-68924214D01*
X70700714Y-68971833D01*
X70729285Y-69019452D01*
X70757857Y-69114690D01*
X70757857Y-69400404D01*
X70729285Y-69495642D01*
X70700714Y-69543261D01*
X70643571Y-69590880D01*
X70529285Y-69590880D01*
X70472142Y-69543261D01*
X71015000Y-68924214D02*
X71015000Y-69924214D01*
X71015000Y-68971833D02*
X71072142Y-68924214D01*
X71186428Y-68924214D01*
X71243571Y-68971833D01*
X71272142Y-69019452D01*
X71300714Y-69114690D01*
X71300714Y-69400404D01*
X71272142Y-69495642D01*
X71243571Y-69543261D01*
X71186428Y-69590880D01*
X71072142Y-69590880D01*
X71015000Y-69543261D01*
X71643571Y-69590880D02*
X71586428Y-69543261D01*
X71557857Y-69448023D01*
X71557857Y-68590880D01*
X71815000Y-68924214D02*
X71957857Y-69590880D01*
X72100714Y-68924214D02*
X71957857Y-69590880D01*
X71900714Y-69828976D01*
X71872142Y-69876595D01*
X71815000Y-69924214D01*
D10*
X98581785Y-65540000D02*
X98486547Y-65492380D01*
X98343690Y-65492380D01*
X98200833Y-65540000D01*
X98105595Y-65635238D01*
X98057976Y-65730476D01*
X98010357Y-65920952D01*
X98010357Y-66063809D01*
X98057976Y-66254285D01*
X98105595Y-66349523D01*
X98200833Y-66444761D01*
X98343690Y-66492380D01*
X98438928Y-66492380D01*
X98581785Y-66444761D01*
X98629404Y-66397142D01*
X98629404Y-66063809D01*
X98438928Y-66063809D01*
X99057976Y-66492380D02*
X99057976Y-65492380D01*
X99629404Y-66492380D01*
X99629404Y-65492380D01*
X100105595Y-66492380D02*
X100105595Y-65492380D01*
X100343690Y-65492380D01*
X100486547Y-65540000D01*
X100581785Y-65635238D01*
X100629404Y-65730476D01*
X100677023Y-65920952D01*
X100677023Y-66063809D01*
X100629404Y-66254285D01*
X100581785Y-66349523D01*
X100486547Y-66444761D01*
X100343690Y-66492380D01*
X100105595Y-66492380D01*
X98296071Y-63682619D02*
X98343690Y-63635000D01*
X98438928Y-63587380D01*
X98677023Y-63587380D01*
X98772261Y-63635000D01*
X98819880Y-63682619D01*
X98867500Y-63777857D01*
X98867500Y-63873095D01*
X98819880Y-64015952D01*
X98248452Y-64587380D01*
X98867500Y-64587380D01*
X99724642Y-63920714D02*
X99724642Y-64587380D01*
X99486547Y-63539761D02*
X99248452Y-64254047D01*
X99867500Y-64254047D01*
X100105595Y-63587380D02*
X100438928Y-64587380D01*
X100772261Y-63587380D01*
X71344404Y-80780000D02*
X71249166Y-80732380D01*
X71106309Y-80732380D01*
X70963452Y-80780000D01*
X70868214Y-80875238D01*
X70820595Y-80970476D01*
X70772976Y-81160952D01*
X70772976Y-81303809D01*
X70820595Y-81494285D01*
X70868214Y-81589523D01*
X70963452Y-81684761D01*
X71106309Y-81732380D01*
X71201547Y-81732380D01*
X71344404Y-81684761D01*
X71392023Y-81637142D01*
X71392023Y-81303809D01*
X71201547Y-81303809D01*
X71820595Y-81732380D02*
X71820595Y-80732380D01*
X72392023Y-81732380D01*
X72392023Y-80732380D01*
X72868214Y-81732380D02*
X72868214Y-80732380D01*
X73106309Y-80732380D01*
X73249166Y-80780000D01*
X73344404Y-80875238D01*
X73392023Y-80970476D01*
X73439642Y-81160952D01*
X73439642Y-81303809D01*
X73392023Y-81494285D01*
X73344404Y-81589523D01*
X73249166Y-81684761D01*
X73106309Y-81732380D01*
X72868214Y-81732380D01*
X70772976Y-79144761D02*
X70915833Y-79192380D01*
X71153928Y-79192380D01*
X71249166Y-79144761D01*
X71296785Y-79097142D01*
X71344404Y-79001904D01*
X71344404Y-78906666D01*
X71296785Y-78811428D01*
X71249166Y-78763809D01*
X71153928Y-78716190D01*
X70963452Y-78668571D01*
X70868214Y-78620952D01*
X70820595Y-78573333D01*
X70772976Y-78478095D01*
X70772976Y-78382857D01*
X70820595Y-78287619D01*
X70868214Y-78240000D01*
X70963452Y-78192380D01*
X71201547Y-78192380D01*
X71344404Y-78240000D01*
X71772976Y-79192380D02*
X71772976Y-78192380D01*
X71772976Y-78668571D02*
X72344404Y-78668571D01*
X72344404Y-79192380D02*
X72344404Y-78192380D01*
X72820595Y-79192380D02*
X72820595Y-78192380D01*
X73058690Y-78192380D01*
X73201547Y-78240000D01*
X73296785Y-78335238D01*
X73344404Y-78430476D01*
X73392023Y-78620952D01*
X73392023Y-78763809D01*
X73344404Y-78954285D01*
X73296785Y-79049523D01*
X73201547Y-79144761D01*
X73058690Y-79192380D01*
X72820595Y-79192380D01*
X73820595Y-79192380D02*
X73820595Y-78192380D01*
X74392023Y-79192380D01*
X74392023Y-78192380D01*
X71153928Y-76128571D02*
X71296785Y-76176190D01*
X71344404Y-76223809D01*
X71392023Y-76319047D01*
X71392023Y-76461904D01*
X71344404Y-76557142D01*
X71296785Y-76604761D01*
X71201547Y-76652380D01*
X70820595Y-76652380D01*
X70820595Y-75652380D01*
X71153928Y-75652380D01*
X71249166Y-75700000D01*
X71296785Y-75747619D01*
X71344404Y-75842857D01*
X71344404Y-75938095D01*
X71296785Y-76033333D01*
X71249166Y-76080952D01*
X71153928Y-76128571D01*
X70820595Y-76128571D01*
X71772976Y-76366666D02*
X72249166Y-76366666D01*
X71677738Y-76652380D02*
X72011071Y-75652380D01*
X72344404Y-76652380D01*
X72534880Y-75652380D02*
X73106309Y-75652380D01*
X72820595Y-76652380D02*
X72820595Y-75652380D01*
X73296785Y-75652380D02*
X73868214Y-75652380D01*
X73582500Y-76652380D02*
X73582500Y-75652380D01*
D12*
X75165000Y-65915000D02*
X75165000Y-62915000D01*
X75165000Y-62915000D02*
X87765000Y-62915000D01*
X87765000Y-62915000D02*
X87765000Y-65915000D01*
X87765000Y-72515000D02*
X87765000Y-75515000D01*
X87765000Y-75515000D02*
X75165000Y-75515000D01*
X75165000Y-75515000D02*
X75165000Y-72515000D01*
X84380000Y-79881252D02*
X84380000Y-79358748D01*
X85800000Y-79881252D02*
X85800000Y-79358748D01*
X98350000Y-79503748D02*
X98350000Y-80026252D01*
X99770000Y-79503748D02*
X99770000Y-80026252D01*
X82630000Y-79740000D02*
G75*
G03X82630000Y-79740000I-2620000J0D01*
G01*
X78970000Y-79740000D02*
X77430000Y-79740000D01*
X82590000Y-79740000D02*
X81050000Y-79740000D01*
X78970000Y-79780000D02*
X77430000Y-79780000D01*
X82590000Y-79780000D02*
X81050000Y-79780000D01*
X82589000Y-79820000D02*
X81050000Y-79820000D01*
X78970000Y-79820000D02*
X77431000Y-79820000D01*
X82588000Y-79860000D02*
X81050000Y-79860000D01*
X78970000Y-79860000D02*
X77432000Y-79860000D01*
X82586000Y-79900000D02*
X81050000Y-79900000D01*
X78970000Y-79900000D02*
X77434000Y-79900000D01*
X82583000Y-79940000D02*
X81050000Y-79940000D01*
X78970000Y-79940000D02*
X77437000Y-79940000D01*
X82579000Y-79980000D02*
X81050000Y-79980000D01*
X78970000Y-79980000D02*
X77441000Y-79980000D01*
X82575000Y-80020000D02*
X81050000Y-80020000D01*
X78970000Y-80020000D02*
X77445000Y-80020000D01*
X82571000Y-80060000D02*
X81050000Y-80060000D01*
X78970000Y-80060000D02*
X77449000Y-80060000D01*
X82566000Y-80100000D02*
X81050000Y-80100000D01*
X78970000Y-80100000D02*
X77454000Y-80100000D01*
X82560000Y-80140000D02*
X81050000Y-80140000D01*
X78970000Y-80140000D02*
X77460000Y-80140000D01*
X82553000Y-80180000D02*
X81050000Y-80180000D01*
X78970000Y-80180000D02*
X77467000Y-80180000D01*
X82546000Y-80220000D02*
X81050000Y-80220000D01*
X78970000Y-80220000D02*
X77474000Y-80220000D01*
X82538000Y-80260000D02*
X81050000Y-80260000D01*
X78970000Y-80260000D02*
X77482000Y-80260000D01*
X82530000Y-80300000D02*
X81050000Y-80300000D01*
X78970000Y-80300000D02*
X77490000Y-80300000D01*
X82521000Y-80340000D02*
X81050000Y-80340000D01*
X78970000Y-80340000D02*
X77499000Y-80340000D01*
X82511000Y-80380000D02*
X81050000Y-80380000D01*
X78970000Y-80380000D02*
X77509000Y-80380000D01*
X82501000Y-80420000D02*
X81050000Y-80420000D01*
X78970000Y-80420000D02*
X77519000Y-80420000D01*
X82490000Y-80461000D02*
X81050000Y-80461000D01*
X78970000Y-80461000D02*
X77530000Y-80461000D01*
X82478000Y-80501000D02*
X81050000Y-80501000D01*
X78970000Y-80501000D02*
X77542000Y-80501000D01*
X82465000Y-80541000D02*
X81050000Y-80541000D01*
X78970000Y-80541000D02*
X77555000Y-80541000D01*
X82452000Y-80581000D02*
X81050000Y-80581000D01*
X78970000Y-80581000D02*
X77568000Y-80581000D01*
X82438000Y-80621000D02*
X81050000Y-80621000D01*
X78970000Y-80621000D02*
X77582000Y-80621000D01*
X82424000Y-80661000D02*
X81050000Y-80661000D01*
X78970000Y-80661000D02*
X77596000Y-80661000D01*
X82408000Y-80701000D02*
X81050000Y-80701000D01*
X78970000Y-80701000D02*
X77612000Y-80701000D01*
X82392000Y-80741000D02*
X81050000Y-80741000D01*
X78970000Y-80741000D02*
X77628000Y-80741000D01*
X82375000Y-80781000D02*
X81050000Y-80781000D01*
X78970000Y-80781000D02*
X77645000Y-80781000D01*
X82358000Y-80821000D02*
X81050000Y-80821000D01*
X78970000Y-80821000D02*
X77662000Y-80821000D01*
X82339000Y-80861000D02*
X81050000Y-80861000D01*
X78970000Y-80861000D02*
X77681000Y-80861000D01*
X82320000Y-80901000D02*
X81050000Y-80901000D01*
X78970000Y-80901000D02*
X77700000Y-80901000D01*
X82300000Y-80941000D02*
X81050000Y-80941000D01*
X78970000Y-80941000D02*
X77720000Y-80941000D01*
X82278000Y-80981000D02*
X81050000Y-80981000D01*
X78970000Y-80981000D02*
X77742000Y-80981000D01*
X82257000Y-81021000D02*
X81050000Y-81021000D01*
X78970000Y-81021000D02*
X77763000Y-81021000D01*
X82234000Y-81061000D02*
X81050000Y-81061000D01*
X78970000Y-81061000D02*
X77786000Y-81061000D01*
X82210000Y-81101000D02*
X81050000Y-81101000D01*
X78970000Y-81101000D02*
X77810000Y-81101000D01*
X82185000Y-81141000D02*
X81050000Y-81141000D01*
X78970000Y-81141000D02*
X77835000Y-81141000D01*
X82159000Y-81181000D02*
X81050000Y-81181000D01*
X78970000Y-81181000D02*
X77861000Y-81181000D01*
X82132000Y-81221000D02*
X81050000Y-81221000D01*
X78970000Y-81221000D02*
X77888000Y-81221000D01*
X82105000Y-81261000D02*
X81050000Y-81261000D01*
X78970000Y-81261000D02*
X77915000Y-81261000D01*
X82075000Y-81301000D02*
X81050000Y-81301000D01*
X78970000Y-81301000D02*
X77945000Y-81301000D01*
X82045000Y-81341000D02*
X81050000Y-81341000D01*
X78970000Y-81341000D02*
X77975000Y-81341000D01*
X82014000Y-81381000D02*
X81050000Y-81381000D01*
X78970000Y-81381000D02*
X78006000Y-81381000D01*
X81981000Y-81421000D02*
X81050000Y-81421000D01*
X78970000Y-81421000D02*
X78039000Y-81421000D01*
X81947000Y-81461000D02*
X81050000Y-81461000D01*
X78970000Y-81461000D02*
X78073000Y-81461000D01*
X81911000Y-81501000D02*
X81050000Y-81501000D01*
X78970000Y-81501000D02*
X78109000Y-81501000D01*
X81874000Y-81541000D02*
X81050000Y-81541000D01*
X78970000Y-81541000D02*
X78146000Y-81541000D01*
X81836000Y-81581000D02*
X81050000Y-81581000D01*
X78970000Y-81581000D02*
X78184000Y-81581000D01*
X81795000Y-81621000D02*
X81050000Y-81621000D01*
X78970000Y-81621000D02*
X78225000Y-81621000D01*
X81753000Y-81661000D02*
X81050000Y-81661000D01*
X78970000Y-81661000D02*
X78267000Y-81661000D01*
X81709000Y-81701000D02*
X81050000Y-81701000D01*
X78970000Y-81701000D02*
X78311000Y-81701000D01*
X81663000Y-81741000D02*
X81050000Y-81741000D01*
X78970000Y-81741000D02*
X78357000Y-81741000D01*
X81615000Y-81781000D02*
X78405000Y-81781000D01*
X81564000Y-81821000D02*
X78456000Y-81821000D01*
X81510000Y-81861000D02*
X78510000Y-81861000D01*
X81453000Y-81901000D02*
X78567000Y-81901000D01*
X81393000Y-81941000D02*
X78627000Y-81941000D01*
X81329000Y-81981000D02*
X78691000Y-81981000D01*
X81261000Y-82021000D02*
X78759000Y-82021000D01*
X81188000Y-82061000D02*
X78832000Y-82061000D01*
X81108000Y-82101000D02*
X78912000Y-82101000D01*
X81021000Y-82141000D02*
X78999000Y-82141000D01*
X80925000Y-82181000D02*
X79095000Y-82181000D01*
X80815000Y-82221000D02*
X79205000Y-82221000D01*
X80687000Y-82261000D02*
X79333000Y-82261000D01*
X80528000Y-82301000D02*
X79492000Y-82301000D01*
X80294000Y-82341000D02*
X79726000Y-82341000D01*
X81485000Y-76935225D02*
X81485000Y-77435225D01*
X81735000Y-77185225D02*
X81235000Y-77185225D01*
X94598748Y-69140000D02*
X95121252Y-69140000D01*
X94598748Y-70560000D02*
X95121252Y-70560000D01*
X91620000Y-66959775D02*
X92120000Y-66959775D01*
X91870000Y-67209775D02*
X91870000Y-66709775D01*
X93061000Y-61804000D02*
X93629000Y-61804000D01*
X92827000Y-61844000D02*
X93863000Y-61844000D01*
X92668000Y-61884000D02*
X94022000Y-61884000D01*
X92540000Y-61924000D02*
X94150000Y-61924000D01*
X92430000Y-61964000D02*
X94260000Y-61964000D01*
X92334000Y-62004000D02*
X94356000Y-62004000D01*
X92247000Y-62044000D02*
X94443000Y-62044000D01*
X92167000Y-62084000D02*
X94523000Y-62084000D01*
X92094000Y-62124000D02*
X94596000Y-62124000D01*
X92026000Y-62164000D02*
X94664000Y-62164000D01*
X91962000Y-62204000D02*
X94728000Y-62204000D01*
X91902000Y-62244000D02*
X94788000Y-62244000D01*
X91845000Y-62284000D02*
X94845000Y-62284000D01*
X91791000Y-62324000D02*
X94899000Y-62324000D01*
X91740000Y-62364000D02*
X94950000Y-62364000D01*
X94385000Y-62404000D02*
X94998000Y-62404000D01*
X91692000Y-62404000D02*
X92305000Y-62404000D01*
X94385000Y-62444000D02*
X95044000Y-62444000D01*
X91646000Y-62444000D02*
X92305000Y-62444000D01*
X94385000Y-62484000D02*
X95088000Y-62484000D01*
X91602000Y-62484000D02*
X92305000Y-62484000D01*
X94385000Y-62524000D02*
X95130000Y-62524000D01*
X91560000Y-62524000D02*
X92305000Y-62524000D01*
X94385000Y-62564000D02*
X95171000Y-62564000D01*
X91519000Y-62564000D02*
X92305000Y-62564000D01*
X94385000Y-62604000D02*
X95209000Y-62604000D01*
X91481000Y-62604000D02*
X92305000Y-62604000D01*
X94385000Y-62644000D02*
X95246000Y-62644000D01*
X91444000Y-62644000D02*
X92305000Y-62644000D01*
X94385000Y-62684000D02*
X95282000Y-62684000D01*
X91408000Y-62684000D02*
X92305000Y-62684000D01*
X94385000Y-62724000D02*
X95316000Y-62724000D01*
X91374000Y-62724000D02*
X92305000Y-62724000D01*
X94385000Y-62764000D02*
X95349000Y-62764000D01*
X91341000Y-62764000D02*
X92305000Y-62764000D01*
X94385000Y-62804000D02*
X95380000Y-62804000D01*
X91310000Y-62804000D02*
X92305000Y-62804000D01*
X94385000Y-62844000D02*
X95410000Y-62844000D01*
X91280000Y-62844000D02*
X92305000Y-62844000D01*
X94385000Y-62884000D02*
X95440000Y-62884000D01*
X91250000Y-62884000D02*
X92305000Y-62884000D01*
X94385000Y-62924000D02*
X95467000Y-62924000D01*
X91223000Y-62924000D02*
X92305000Y-62924000D01*
X94385000Y-62964000D02*
X95494000Y-62964000D01*
X91196000Y-62964000D02*
X92305000Y-62964000D01*
X94385000Y-63004000D02*
X95520000Y-63004000D01*
X91170000Y-63004000D02*
X92305000Y-63004000D01*
X94385000Y-63044000D02*
X95545000Y-63044000D01*
X91145000Y-63044000D02*
X92305000Y-63044000D01*
X94385000Y-63084000D02*
X95569000Y-63084000D01*
X91121000Y-63084000D02*
X92305000Y-63084000D01*
X94385000Y-63124000D02*
X95592000Y-63124000D01*
X91098000Y-63124000D02*
X92305000Y-63124000D01*
X94385000Y-63164000D02*
X95613000Y-63164000D01*
X91077000Y-63164000D02*
X92305000Y-63164000D01*
X94385000Y-63204000D02*
X95635000Y-63204000D01*
X91055000Y-63204000D02*
X92305000Y-63204000D01*
X94385000Y-63244000D02*
X95655000Y-63244000D01*
X91035000Y-63244000D02*
X92305000Y-63244000D01*
X94385000Y-63284000D02*
X95674000Y-63284000D01*
X91016000Y-63284000D02*
X92305000Y-63284000D01*
X94385000Y-63324000D02*
X95693000Y-63324000D01*
X90997000Y-63324000D02*
X92305000Y-63324000D01*
X94385000Y-63364000D02*
X95710000Y-63364000D01*
X90980000Y-63364000D02*
X92305000Y-63364000D01*
X94385000Y-63404000D02*
X95727000Y-63404000D01*
X90963000Y-63404000D02*
X92305000Y-63404000D01*
X94385000Y-63444000D02*
X95743000Y-63444000D01*
X90947000Y-63444000D02*
X92305000Y-63444000D01*
X94385000Y-63484000D02*
X95759000Y-63484000D01*
X90931000Y-63484000D02*
X92305000Y-63484000D01*
X94385000Y-63524000D02*
X95773000Y-63524000D01*
X90917000Y-63524000D02*
X92305000Y-63524000D01*
X94385000Y-63564000D02*
X95787000Y-63564000D01*
X90903000Y-63564000D02*
X92305000Y-63564000D01*
X94385000Y-63604000D02*
X95800000Y-63604000D01*
X90890000Y-63604000D02*
X92305000Y-63604000D01*
X94385000Y-63644000D02*
X95813000Y-63644000D01*
X90877000Y-63644000D02*
X92305000Y-63644000D01*
X94385000Y-63684000D02*
X95825000Y-63684000D01*
X90865000Y-63684000D02*
X92305000Y-63684000D01*
X94385000Y-63725000D02*
X95836000Y-63725000D01*
X90854000Y-63725000D02*
X92305000Y-63725000D01*
X94385000Y-63765000D02*
X95846000Y-63765000D01*
X90844000Y-63765000D02*
X92305000Y-63765000D01*
X94385000Y-63805000D02*
X95856000Y-63805000D01*
X90834000Y-63805000D02*
X92305000Y-63805000D01*
X94385000Y-63845000D02*
X95865000Y-63845000D01*
X90825000Y-63845000D02*
X92305000Y-63845000D01*
X94385000Y-63885000D02*
X95873000Y-63885000D01*
X90817000Y-63885000D02*
X92305000Y-63885000D01*
X94385000Y-63925000D02*
X95881000Y-63925000D01*
X90809000Y-63925000D02*
X92305000Y-63925000D01*
X94385000Y-63965000D02*
X95888000Y-63965000D01*
X90802000Y-63965000D02*
X92305000Y-63965000D01*
X94385000Y-64005000D02*
X95895000Y-64005000D01*
X90795000Y-64005000D02*
X92305000Y-64005000D01*
X94385000Y-64045000D02*
X95901000Y-64045000D01*
X90789000Y-64045000D02*
X92305000Y-64045000D01*
X94385000Y-64085000D02*
X95906000Y-64085000D01*
X90784000Y-64085000D02*
X92305000Y-64085000D01*
X94385000Y-64125000D02*
X95910000Y-64125000D01*
X90780000Y-64125000D02*
X92305000Y-64125000D01*
X94385000Y-64165000D02*
X95914000Y-64165000D01*
X90776000Y-64165000D02*
X92305000Y-64165000D01*
X94385000Y-64205000D02*
X95918000Y-64205000D01*
X90772000Y-64205000D02*
X92305000Y-64205000D01*
X94385000Y-64245000D02*
X95921000Y-64245000D01*
X90769000Y-64245000D02*
X92305000Y-64245000D01*
X94385000Y-64285000D02*
X95923000Y-64285000D01*
X90767000Y-64285000D02*
X92305000Y-64285000D01*
X94385000Y-64325000D02*
X95924000Y-64325000D01*
X90766000Y-64325000D02*
X92305000Y-64325000D01*
X90765000Y-64365000D02*
X92305000Y-64365000D01*
X94385000Y-64365000D02*
X95925000Y-64365000D01*
X90765000Y-64405000D02*
X92305000Y-64405000D01*
X94385000Y-64405000D02*
X95925000Y-64405000D01*
X95965000Y-64405000D02*
G75*
G03X95965000Y-64405000I-2620000J0D01*
G01*
X94960000Y-75295000D02*
X94960000Y-73295000D01*
X94960000Y-73295000D02*
X91060000Y-73295000D01*
X94960000Y-75295000D02*
X91060000Y-75295000D01*
X67250000Y-82610000D02*
X69910000Y-82610000D01*
X67250000Y-74930000D02*
X67250000Y-82610000D01*
X69910000Y-74930000D02*
X69910000Y-82610000D01*
X67250000Y-74930000D02*
X69910000Y-74930000D01*
X67250000Y-73660000D02*
X67250000Y-72330000D01*
X67250000Y-72330000D02*
X68580000Y-72330000D01*
X101810000Y-67195000D02*
X103930000Y-67195000D01*
X101810000Y-65135000D02*
X101810000Y-67195000D01*
X103930000Y-65135000D02*
X103930000Y-67195000D01*
X101810000Y-65135000D02*
X103930000Y-65135000D01*
X101810000Y-64135000D02*
X101810000Y-63075000D01*
X101810000Y-63075000D02*
X102870000Y-63075000D01*
X98163748Y-75005000D02*
X98686252Y-75005000D01*
X98163748Y-73585000D02*
X98686252Y-73585000D01*
X102998748Y-73585000D02*
X103521252Y-73585000D01*
X102998748Y-75005000D02*
X103521252Y-75005000D01*
X92075000Y-81935000D02*
X94025000Y-81935000D01*
X92075000Y-81935000D02*
X90125000Y-81935000D01*
X92075000Y-76815000D02*
X94025000Y-76815000D01*
X92075000Y-76815000D02*
X88625000Y-76815000D01*
D10*
X81298333Y-62467380D02*
X80822142Y-62467380D01*
X80822142Y-61467380D01*
X82155476Y-62467380D02*
X81584047Y-62467380D01*
X81869761Y-62467380D02*
X81869761Y-61467380D01*
X81774523Y-61610238D01*
X81679285Y-61705476D01*
X81584047Y-61753095D01*
X84923333Y-82907142D02*
X84875714Y-82954761D01*
X84732857Y-83002380D01*
X84637619Y-83002380D01*
X84494761Y-82954761D01*
X84399523Y-82859523D01*
X84351904Y-82764285D01*
X84304285Y-82573809D01*
X84304285Y-82430952D01*
X84351904Y-82240476D01*
X84399523Y-82145238D01*
X84494761Y-82050000D01*
X84637619Y-82002380D01*
X84732857Y-82002380D01*
X84875714Y-82050000D01*
X84923333Y-82097619D01*
X85875714Y-83002380D02*
X85304285Y-83002380D01*
X85590000Y-83002380D02*
X85590000Y-82002380D01*
X85494761Y-82145238D01*
X85399523Y-82240476D01*
X85304285Y-82288095D01*
X98893333Y-82907142D02*
X98845714Y-82954761D01*
X98702857Y-83002380D01*
X98607619Y-83002380D01*
X98464761Y-82954761D01*
X98369523Y-82859523D01*
X98321904Y-82764285D01*
X98274285Y-82573809D01*
X98274285Y-82430952D01*
X98321904Y-82240476D01*
X98369523Y-82145238D01*
X98464761Y-82050000D01*
X98607619Y-82002380D01*
X98702857Y-82002380D01*
X98845714Y-82050000D01*
X98893333Y-82097619D01*
X99274285Y-82097619D02*
X99321904Y-82050000D01*
X99417142Y-82002380D01*
X99655238Y-82002380D01*
X99750476Y-82050000D01*
X99798095Y-82097619D01*
X99845714Y-82192857D01*
X99845714Y-82288095D01*
X99798095Y-82430952D01*
X99226666Y-83002380D01*
X99845714Y-83002380D01*
X76668333Y-82907142D02*
X76620714Y-82954761D01*
X76477857Y-83002380D01*
X76382619Y-83002380D01*
X76239761Y-82954761D01*
X76144523Y-82859523D01*
X76096904Y-82764285D01*
X76049285Y-82573809D01*
X76049285Y-82430952D01*
X76096904Y-82240476D01*
X76144523Y-82145238D01*
X76239761Y-82050000D01*
X76382619Y-82002380D01*
X76477857Y-82002380D01*
X76620714Y-82050000D01*
X76668333Y-82097619D01*
X77001666Y-82002380D02*
X77620714Y-82002380D01*
X77287380Y-82383333D01*
X77430238Y-82383333D01*
X77525476Y-82430952D01*
X77573095Y-82478571D01*
X77620714Y-82573809D01*
X77620714Y-82811904D01*
X77573095Y-82907142D01*
X77525476Y-82954761D01*
X77430238Y-83002380D01*
X77144523Y-83002380D01*
X77049285Y-82954761D01*
X77001666Y-82907142D01*
X94693333Y-68557142D02*
X94645714Y-68604761D01*
X94502857Y-68652380D01*
X94407619Y-68652380D01*
X94264761Y-68604761D01*
X94169523Y-68509523D01*
X94121904Y-68414285D01*
X94074285Y-68223809D01*
X94074285Y-68080952D01*
X94121904Y-67890476D01*
X94169523Y-67795238D01*
X94264761Y-67700000D01*
X94407619Y-67652380D01*
X94502857Y-67652380D01*
X94645714Y-67700000D01*
X94693333Y-67747619D01*
X95550476Y-67985714D02*
X95550476Y-68652380D01*
X95312380Y-67604761D02*
X95074285Y-68319047D01*
X95693333Y-68319047D01*
X89952142Y-64571666D02*
X89999761Y-64619285D01*
X90047380Y-64762142D01*
X90047380Y-64857380D01*
X89999761Y-65000238D01*
X89904523Y-65095476D01*
X89809285Y-65143095D01*
X89618809Y-65190714D01*
X89475952Y-65190714D01*
X89285476Y-65143095D01*
X89190238Y-65095476D01*
X89095000Y-65000238D01*
X89047380Y-64857380D01*
X89047380Y-64762142D01*
X89095000Y-64619285D01*
X89142619Y-64571666D01*
X89047380Y-63666904D02*
X89047380Y-64143095D01*
X89523571Y-64190714D01*
X89475952Y-64143095D01*
X89428333Y-64047857D01*
X89428333Y-63809761D01*
X89475952Y-63714523D01*
X89523571Y-63666904D01*
X89618809Y-63619285D01*
X89856904Y-63619285D01*
X89952142Y-63666904D01*
X89999761Y-63714523D01*
X90047380Y-63809761D01*
X90047380Y-64047857D01*
X89999761Y-64143095D01*
X89952142Y-64190714D01*
X91971904Y-72842380D02*
X91971904Y-71842380D01*
X92210000Y-71842380D01*
X92352857Y-71890000D01*
X92448095Y-71985238D01*
X92495714Y-72080476D01*
X92543333Y-72270952D01*
X92543333Y-72413809D01*
X92495714Y-72604285D01*
X92448095Y-72699523D01*
X92352857Y-72794761D01*
X92210000Y-72842380D01*
X91971904Y-72842380D01*
X93495714Y-72842380D02*
X92924285Y-72842380D01*
X93210000Y-72842380D02*
X93210000Y-71842380D01*
X93114761Y-71985238D01*
X93019523Y-72080476D01*
X92924285Y-72128095D01*
X68246666Y-70782380D02*
X68246666Y-71496666D01*
X68199047Y-71639523D01*
X68103809Y-71734761D01*
X67960952Y-71782380D01*
X67865714Y-71782380D01*
X69246666Y-71782380D02*
X68675238Y-71782380D01*
X68960952Y-71782380D02*
X68960952Y-70782380D01*
X68865714Y-70925238D01*
X68770476Y-71020476D01*
X68675238Y-71068095D01*
X102536666Y-61527380D02*
X102536666Y-62241666D01*
X102489047Y-62384523D01*
X102393809Y-62479761D01*
X102250952Y-62527380D01*
X102155714Y-62527380D01*
X102965238Y-61622619D02*
X103012857Y-61575000D01*
X103108095Y-61527380D01*
X103346190Y-61527380D01*
X103441428Y-61575000D01*
X103489047Y-61622619D01*
X103536666Y-61717857D01*
X103536666Y-61813095D01*
X103489047Y-61955952D01*
X102917619Y-62527380D01*
X103536666Y-62527380D01*
X98258333Y-73097380D02*
X97925000Y-72621190D01*
X97686904Y-73097380D02*
X97686904Y-72097380D01*
X98067857Y-72097380D01*
X98163095Y-72145000D01*
X98210714Y-72192619D01*
X98258333Y-72287857D01*
X98258333Y-72430714D01*
X98210714Y-72525952D01*
X98163095Y-72573571D01*
X98067857Y-72621190D01*
X97686904Y-72621190D01*
X99210714Y-73097380D02*
X98639285Y-73097380D01*
X98925000Y-73097380D02*
X98925000Y-72097380D01*
X98829761Y-72240238D01*
X98734523Y-72335476D01*
X98639285Y-72383095D01*
X103093333Y-73097380D02*
X102760000Y-72621190D01*
X102521904Y-73097380D02*
X102521904Y-72097380D01*
X102902857Y-72097380D01*
X102998095Y-72145000D01*
X103045714Y-72192619D01*
X103093333Y-72287857D01*
X103093333Y-72430714D01*
X103045714Y-72525952D01*
X102998095Y-72573571D01*
X102902857Y-72621190D01*
X102521904Y-72621190D01*
X103474285Y-72192619D02*
X103521904Y-72145000D01*
X103617142Y-72097380D01*
X103855238Y-72097380D01*
X103950476Y-72145000D01*
X103998095Y-72192619D01*
X104045714Y-72287857D01*
X104045714Y-72383095D01*
X103998095Y-72525952D01*
X103426666Y-73097380D01*
X104045714Y-73097380D01*
X91313095Y-82256380D02*
X91313095Y-83065904D01*
X91360714Y-83161142D01*
X91408333Y-83208761D01*
X91503571Y-83256380D01*
X91694047Y-83256380D01*
X91789285Y-83208761D01*
X91836904Y-83161142D01*
X91884523Y-83065904D01*
X91884523Y-82256380D01*
X92884523Y-83256380D02*
X92313095Y-83256380D01*
X92598809Y-83256380D02*
X92598809Y-82256380D01*
X92503571Y-82399238D01*
X92408333Y-82494476D01*
X92313095Y-82542095D01*
M02*
