G04 #@! TF.GenerationSoftware,KiCad,Pcbnew,5.1.2*
G04 #@! TF.CreationDate,2019-08-10T03:31:52+02:00*
G04 #@! TF.ProjectId,sclock,73636c6f-636b-42e6-9b69-6361645f7063,rev?*
G04 #@! TF.SameCoordinates,Original*
G04 #@! TF.FileFunction,Paste,Top*
G04 #@! TF.FilePolarity,Positive*
%FSLAX46Y46*%
G04 Gerber Fmt 4.6, Leading zero omitted, Abs format (unit mm)*
G04 Created by KiCad (PCBNEW 5.1.2) date 2019-08-10 03:31:52*
%MOMM*%
%LPD*%
G04 APERTURE LIST*
%ADD10R,4.900000X5.400000*%
%ADD11C,0.100000*%
%ADD12C,1.150000*%
%ADD13R,0.900000X1.200000*%
%ADD14C,0.600000*%
G04 APERTURE END LIST*
D10*
X75565000Y-69215000D03*
X87365000Y-69215000D03*
D11*
G36*
X85564505Y-80071204D02*
G01*
X85588773Y-80074804D01*
X85612572Y-80080765D01*
X85635671Y-80089030D01*
X85657850Y-80099520D01*
X85678893Y-80112132D01*
X85698599Y-80126747D01*
X85716777Y-80143223D01*
X85733253Y-80161401D01*
X85747868Y-80181107D01*
X85760480Y-80202150D01*
X85770970Y-80224329D01*
X85779235Y-80247428D01*
X85785196Y-80271227D01*
X85788796Y-80295495D01*
X85790000Y-80319999D01*
X85790000Y-80970001D01*
X85788796Y-80994505D01*
X85785196Y-81018773D01*
X85779235Y-81042572D01*
X85770970Y-81065671D01*
X85760480Y-81087850D01*
X85747868Y-81108893D01*
X85733253Y-81128599D01*
X85716777Y-81146777D01*
X85698599Y-81163253D01*
X85678893Y-81177868D01*
X85657850Y-81190480D01*
X85635671Y-81200970D01*
X85612572Y-81209235D01*
X85588773Y-81215196D01*
X85564505Y-81218796D01*
X85540001Y-81220000D01*
X84639999Y-81220000D01*
X84615495Y-81218796D01*
X84591227Y-81215196D01*
X84567428Y-81209235D01*
X84544329Y-81200970D01*
X84522150Y-81190480D01*
X84501107Y-81177868D01*
X84481401Y-81163253D01*
X84463223Y-81146777D01*
X84446747Y-81128599D01*
X84432132Y-81108893D01*
X84419520Y-81087850D01*
X84409030Y-81065671D01*
X84400765Y-81042572D01*
X84394804Y-81018773D01*
X84391204Y-80994505D01*
X84390000Y-80970001D01*
X84390000Y-80319999D01*
X84391204Y-80295495D01*
X84394804Y-80271227D01*
X84400765Y-80247428D01*
X84409030Y-80224329D01*
X84419520Y-80202150D01*
X84432132Y-80181107D01*
X84446747Y-80161401D01*
X84463223Y-80143223D01*
X84481401Y-80126747D01*
X84501107Y-80112132D01*
X84522150Y-80099520D01*
X84544329Y-80089030D01*
X84567428Y-80080765D01*
X84591227Y-80074804D01*
X84615495Y-80071204D01*
X84639999Y-80070000D01*
X85540001Y-80070000D01*
X85564505Y-80071204D01*
X85564505Y-80071204D01*
G37*
D12*
X85090000Y-80645000D03*
D11*
G36*
X85564505Y-78021204D02*
G01*
X85588773Y-78024804D01*
X85612572Y-78030765D01*
X85635671Y-78039030D01*
X85657850Y-78049520D01*
X85678893Y-78062132D01*
X85698599Y-78076747D01*
X85716777Y-78093223D01*
X85733253Y-78111401D01*
X85747868Y-78131107D01*
X85760480Y-78152150D01*
X85770970Y-78174329D01*
X85779235Y-78197428D01*
X85785196Y-78221227D01*
X85788796Y-78245495D01*
X85790000Y-78269999D01*
X85790000Y-78920001D01*
X85788796Y-78944505D01*
X85785196Y-78968773D01*
X85779235Y-78992572D01*
X85770970Y-79015671D01*
X85760480Y-79037850D01*
X85747868Y-79058893D01*
X85733253Y-79078599D01*
X85716777Y-79096777D01*
X85698599Y-79113253D01*
X85678893Y-79127868D01*
X85657850Y-79140480D01*
X85635671Y-79150970D01*
X85612572Y-79159235D01*
X85588773Y-79165196D01*
X85564505Y-79168796D01*
X85540001Y-79170000D01*
X84639999Y-79170000D01*
X84615495Y-79168796D01*
X84591227Y-79165196D01*
X84567428Y-79159235D01*
X84544329Y-79150970D01*
X84522150Y-79140480D01*
X84501107Y-79127868D01*
X84481401Y-79113253D01*
X84463223Y-79096777D01*
X84446747Y-79078599D01*
X84432132Y-79058893D01*
X84419520Y-79037850D01*
X84409030Y-79015671D01*
X84400765Y-78992572D01*
X84394804Y-78968773D01*
X84391204Y-78944505D01*
X84390000Y-78920001D01*
X84390000Y-78269999D01*
X84391204Y-78245495D01*
X84394804Y-78221227D01*
X84400765Y-78197428D01*
X84409030Y-78174329D01*
X84419520Y-78152150D01*
X84432132Y-78131107D01*
X84446747Y-78111401D01*
X84463223Y-78093223D01*
X84481401Y-78076747D01*
X84501107Y-78062132D01*
X84522150Y-78049520D01*
X84544329Y-78039030D01*
X84567428Y-78030765D01*
X84591227Y-78024804D01*
X84615495Y-78021204D01*
X84639999Y-78020000D01*
X85540001Y-78020000D01*
X85564505Y-78021204D01*
X85564505Y-78021204D01*
G37*
D12*
X85090000Y-78595000D03*
D11*
G36*
X99534505Y-80216204D02*
G01*
X99558773Y-80219804D01*
X99582572Y-80225765D01*
X99605671Y-80234030D01*
X99627850Y-80244520D01*
X99648893Y-80257132D01*
X99668599Y-80271747D01*
X99686777Y-80288223D01*
X99703253Y-80306401D01*
X99717868Y-80326107D01*
X99730480Y-80347150D01*
X99740970Y-80369329D01*
X99749235Y-80392428D01*
X99755196Y-80416227D01*
X99758796Y-80440495D01*
X99760000Y-80464999D01*
X99760000Y-81115001D01*
X99758796Y-81139505D01*
X99755196Y-81163773D01*
X99749235Y-81187572D01*
X99740970Y-81210671D01*
X99730480Y-81232850D01*
X99717868Y-81253893D01*
X99703253Y-81273599D01*
X99686777Y-81291777D01*
X99668599Y-81308253D01*
X99648893Y-81322868D01*
X99627850Y-81335480D01*
X99605671Y-81345970D01*
X99582572Y-81354235D01*
X99558773Y-81360196D01*
X99534505Y-81363796D01*
X99510001Y-81365000D01*
X98609999Y-81365000D01*
X98585495Y-81363796D01*
X98561227Y-81360196D01*
X98537428Y-81354235D01*
X98514329Y-81345970D01*
X98492150Y-81335480D01*
X98471107Y-81322868D01*
X98451401Y-81308253D01*
X98433223Y-81291777D01*
X98416747Y-81273599D01*
X98402132Y-81253893D01*
X98389520Y-81232850D01*
X98379030Y-81210671D01*
X98370765Y-81187572D01*
X98364804Y-81163773D01*
X98361204Y-81139505D01*
X98360000Y-81115001D01*
X98360000Y-80464999D01*
X98361204Y-80440495D01*
X98364804Y-80416227D01*
X98370765Y-80392428D01*
X98379030Y-80369329D01*
X98389520Y-80347150D01*
X98402132Y-80326107D01*
X98416747Y-80306401D01*
X98433223Y-80288223D01*
X98451401Y-80271747D01*
X98471107Y-80257132D01*
X98492150Y-80244520D01*
X98514329Y-80234030D01*
X98537428Y-80225765D01*
X98561227Y-80219804D01*
X98585495Y-80216204D01*
X98609999Y-80215000D01*
X99510001Y-80215000D01*
X99534505Y-80216204D01*
X99534505Y-80216204D01*
G37*
D12*
X99060000Y-80790000D03*
D11*
G36*
X99534505Y-78166204D02*
G01*
X99558773Y-78169804D01*
X99582572Y-78175765D01*
X99605671Y-78184030D01*
X99627850Y-78194520D01*
X99648893Y-78207132D01*
X99668599Y-78221747D01*
X99686777Y-78238223D01*
X99703253Y-78256401D01*
X99717868Y-78276107D01*
X99730480Y-78297150D01*
X99740970Y-78319329D01*
X99749235Y-78342428D01*
X99755196Y-78366227D01*
X99758796Y-78390495D01*
X99760000Y-78414999D01*
X99760000Y-79065001D01*
X99758796Y-79089505D01*
X99755196Y-79113773D01*
X99749235Y-79137572D01*
X99740970Y-79160671D01*
X99730480Y-79182850D01*
X99717868Y-79203893D01*
X99703253Y-79223599D01*
X99686777Y-79241777D01*
X99668599Y-79258253D01*
X99648893Y-79272868D01*
X99627850Y-79285480D01*
X99605671Y-79295970D01*
X99582572Y-79304235D01*
X99558773Y-79310196D01*
X99534505Y-79313796D01*
X99510001Y-79315000D01*
X98609999Y-79315000D01*
X98585495Y-79313796D01*
X98561227Y-79310196D01*
X98537428Y-79304235D01*
X98514329Y-79295970D01*
X98492150Y-79285480D01*
X98471107Y-79272868D01*
X98451401Y-79258253D01*
X98433223Y-79241777D01*
X98416747Y-79223599D01*
X98402132Y-79203893D01*
X98389520Y-79182850D01*
X98379030Y-79160671D01*
X98370765Y-79137572D01*
X98364804Y-79113773D01*
X98361204Y-79089505D01*
X98360000Y-79065001D01*
X98360000Y-78414999D01*
X98361204Y-78390495D01*
X98364804Y-78366227D01*
X98370765Y-78342428D01*
X98379030Y-78319329D01*
X98389520Y-78297150D01*
X98402132Y-78276107D01*
X98416747Y-78256401D01*
X98433223Y-78238223D01*
X98451401Y-78221747D01*
X98471107Y-78207132D01*
X98492150Y-78194520D01*
X98514329Y-78184030D01*
X98537428Y-78175765D01*
X98561227Y-78169804D01*
X98585495Y-78166204D01*
X98609999Y-78165000D01*
X99510001Y-78165000D01*
X99534505Y-78166204D01*
X99534505Y-78166204D01*
G37*
D12*
X99060000Y-78740000D03*
D11*
G36*
X94184505Y-69151204D02*
G01*
X94208773Y-69154804D01*
X94232572Y-69160765D01*
X94255671Y-69169030D01*
X94277850Y-69179520D01*
X94298893Y-69192132D01*
X94318599Y-69206747D01*
X94336777Y-69223223D01*
X94353253Y-69241401D01*
X94367868Y-69261107D01*
X94380480Y-69282150D01*
X94390970Y-69304329D01*
X94399235Y-69327428D01*
X94405196Y-69351227D01*
X94408796Y-69375495D01*
X94410000Y-69399999D01*
X94410000Y-70300001D01*
X94408796Y-70324505D01*
X94405196Y-70348773D01*
X94399235Y-70372572D01*
X94390970Y-70395671D01*
X94380480Y-70417850D01*
X94367868Y-70438893D01*
X94353253Y-70458599D01*
X94336777Y-70476777D01*
X94318599Y-70493253D01*
X94298893Y-70507868D01*
X94277850Y-70520480D01*
X94255671Y-70530970D01*
X94232572Y-70539235D01*
X94208773Y-70545196D01*
X94184505Y-70548796D01*
X94160001Y-70550000D01*
X93509999Y-70550000D01*
X93485495Y-70548796D01*
X93461227Y-70545196D01*
X93437428Y-70539235D01*
X93414329Y-70530970D01*
X93392150Y-70520480D01*
X93371107Y-70507868D01*
X93351401Y-70493253D01*
X93333223Y-70476777D01*
X93316747Y-70458599D01*
X93302132Y-70438893D01*
X93289520Y-70417850D01*
X93279030Y-70395671D01*
X93270765Y-70372572D01*
X93264804Y-70348773D01*
X93261204Y-70324505D01*
X93260000Y-70300001D01*
X93260000Y-69399999D01*
X93261204Y-69375495D01*
X93264804Y-69351227D01*
X93270765Y-69327428D01*
X93279030Y-69304329D01*
X93289520Y-69282150D01*
X93302132Y-69261107D01*
X93316747Y-69241401D01*
X93333223Y-69223223D01*
X93351401Y-69206747D01*
X93371107Y-69192132D01*
X93392150Y-69179520D01*
X93414329Y-69169030D01*
X93437428Y-69160765D01*
X93461227Y-69154804D01*
X93485495Y-69151204D01*
X93509999Y-69150000D01*
X94160001Y-69150000D01*
X94184505Y-69151204D01*
X94184505Y-69151204D01*
G37*
D12*
X93835000Y-69850000D03*
D11*
G36*
X96234505Y-69151204D02*
G01*
X96258773Y-69154804D01*
X96282572Y-69160765D01*
X96305671Y-69169030D01*
X96327850Y-69179520D01*
X96348893Y-69192132D01*
X96368599Y-69206747D01*
X96386777Y-69223223D01*
X96403253Y-69241401D01*
X96417868Y-69261107D01*
X96430480Y-69282150D01*
X96440970Y-69304329D01*
X96449235Y-69327428D01*
X96455196Y-69351227D01*
X96458796Y-69375495D01*
X96460000Y-69399999D01*
X96460000Y-70300001D01*
X96458796Y-70324505D01*
X96455196Y-70348773D01*
X96449235Y-70372572D01*
X96440970Y-70395671D01*
X96430480Y-70417850D01*
X96417868Y-70438893D01*
X96403253Y-70458599D01*
X96386777Y-70476777D01*
X96368599Y-70493253D01*
X96348893Y-70507868D01*
X96327850Y-70520480D01*
X96305671Y-70530970D01*
X96282572Y-70539235D01*
X96258773Y-70545196D01*
X96234505Y-70548796D01*
X96210001Y-70550000D01*
X95559999Y-70550000D01*
X95535495Y-70548796D01*
X95511227Y-70545196D01*
X95487428Y-70539235D01*
X95464329Y-70530970D01*
X95442150Y-70520480D01*
X95421107Y-70507868D01*
X95401401Y-70493253D01*
X95383223Y-70476777D01*
X95366747Y-70458599D01*
X95352132Y-70438893D01*
X95339520Y-70417850D01*
X95329030Y-70395671D01*
X95320765Y-70372572D01*
X95314804Y-70348773D01*
X95311204Y-70324505D01*
X95310000Y-70300001D01*
X95310000Y-69399999D01*
X95311204Y-69375495D01*
X95314804Y-69351227D01*
X95320765Y-69327428D01*
X95329030Y-69304329D01*
X95339520Y-69282150D01*
X95352132Y-69261107D01*
X95366747Y-69241401D01*
X95383223Y-69223223D01*
X95401401Y-69206747D01*
X95421107Y-69192132D01*
X95442150Y-69179520D01*
X95464329Y-69169030D01*
X95487428Y-69160765D01*
X95511227Y-69154804D01*
X95535495Y-69151204D01*
X95559999Y-69150000D01*
X96210001Y-69150000D01*
X96234505Y-69151204D01*
X96234505Y-69151204D01*
G37*
D12*
X95885000Y-69850000D03*
D13*
X94360000Y-74295000D03*
X91060000Y-74295000D03*
D11*
G36*
X99799505Y-73596204D02*
G01*
X99823773Y-73599804D01*
X99847572Y-73605765D01*
X99870671Y-73614030D01*
X99892850Y-73624520D01*
X99913893Y-73637132D01*
X99933599Y-73651747D01*
X99951777Y-73668223D01*
X99968253Y-73686401D01*
X99982868Y-73706107D01*
X99995480Y-73727150D01*
X100005970Y-73749329D01*
X100014235Y-73772428D01*
X100020196Y-73796227D01*
X100023796Y-73820495D01*
X100025000Y-73844999D01*
X100025000Y-74745001D01*
X100023796Y-74769505D01*
X100020196Y-74793773D01*
X100014235Y-74817572D01*
X100005970Y-74840671D01*
X99995480Y-74862850D01*
X99982868Y-74883893D01*
X99968253Y-74903599D01*
X99951777Y-74921777D01*
X99933599Y-74938253D01*
X99913893Y-74952868D01*
X99892850Y-74965480D01*
X99870671Y-74975970D01*
X99847572Y-74984235D01*
X99823773Y-74990196D01*
X99799505Y-74993796D01*
X99775001Y-74995000D01*
X99124999Y-74995000D01*
X99100495Y-74993796D01*
X99076227Y-74990196D01*
X99052428Y-74984235D01*
X99029329Y-74975970D01*
X99007150Y-74965480D01*
X98986107Y-74952868D01*
X98966401Y-74938253D01*
X98948223Y-74921777D01*
X98931747Y-74903599D01*
X98917132Y-74883893D01*
X98904520Y-74862850D01*
X98894030Y-74840671D01*
X98885765Y-74817572D01*
X98879804Y-74793773D01*
X98876204Y-74769505D01*
X98875000Y-74745001D01*
X98875000Y-73844999D01*
X98876204Y-73820495D01*
X98879804Y-73796227D01*
X98885765Y-73772428D01*
X98894030Y-73749329D01*
X98904520Y-73727150D01*
X98917132Y-73706107D01*
X98931747Y-73686401D01*
X98948223Y-73668223D01*
X98966401Y-73651747D01*
X98986107Y-73637132D01*
X99007150Y-73624520D01*
X99029329Y-73614030D01*
X99052428Y-73605765D01*
X99076227Y-73599804D01*
X99100495Y-73596204D01*
X99124999Y-73595000D01*
X99775001Y-73595000D01*
X99799505Y-73596204D01*
X99799505Y-73596204D01*
G37*
D12*
X99450000Y-74295000D03*
D11*
G36*
X97749505Y-73596204D02*
G01*
X97773773Y-73599804D01*
X97797572Y-73605765D01*
X97820671Y-73614030D01*
X97842850Y-73624520D01*
X97863893Y-73637132D01*
X97883599Y-73651747D01*
X97901777Y-73668223D01*
X97918253Y-73686401D01*
X97932868Y-73706107D01*
X97945480Y-73727150D01*
X97955970Y-73749329D01*
X97964235Y-73772428D01*
X97970196Y-73796227D01*
X97973796Y-73820495D01*
X97975000Y-73844999D01*
X97975000Y-74745001D01*
X97973796Y-74769505D01*
X97970196Y-74793773D01*
X97964235Y-74817572D01*
X97955970Y-74840671D01*
X97945480Y-74862850D01*
X97932868Y-74883893D01*
X97918253Y-74903599D01*
X97901777Y-74921777D01*
X97883599Y-74938253D01*
X97863893Y-74952868D01*
X97842850Y-74965480D01*
X97820671Y-74975970D01*
X97797572Y-74984235D01*
X97773773Y-74990196D01*
X97749505Y-74993796D01*
X97725001Y-74995000D01*
X97074999Y-74995000D01*
X97050495Y-74993796D01*
X97026227Y-74990196D01*
X97002428Y-74984235D01*
X96979329Y-74975970D01*
X96957150Y-74965480D01*
X96936107Y-74952868D01*
X96916401Y-74938253D01*
X96898223Y-74921777D01*
X96881747Y-74903599D01*
X96867132Y-74883893D01*
X96854520Y-74862850D01*
X96844030Y-74840671D01*
X96835765Y-74817572D01*
X96829804Y-74793773D01*
X96826204Y-74769505D01*
X96825000Y-74745001D01*
X96825000Y-73844999D01*
X96826204Y-73820495D01*
X96829804Y-73796227D01*
X96835765Y-73772428D01*
X96844030Y-73749329D01*
X96854520Y-73727150D01*
X96867132Y-73706107D01*
X96881747Y-73686401D01*
X96898223Y-73668223D01*
X96916401Y-73651747D01*
X96936107Y-73637132D01*
X96957150Y-73624520D01*
X96979329Y-73614030D01*
X97002428Y-73605765D01*
X97026227Y-73599804D01*
X97050495Y-73596204D01*
X97074999Y-73595000D01*
X97725001Y-73595000D01*
X97749505Y-73596204D01*
X97749505Y-73596204D01*
G37*
D12*
X97400000Y-74295000D03*
D11*
G36*
X102584505Y-73596204D02*
G01*
X102608773Y-73599804D01*
X102632572Y-73605765D01*
X102655671Y-73614030D01*
X102677850Y-73624520D01*
X102698893Y-73637132D01*
X102718599Y-73651747D01*
X102736777Y-73668223D01*
X102753253Y-73686401D01*
X102767868Y-73706107D01*
X102780480Y-73727150D01*
X102790970Y-73749329D01*
X102799235Y-73772428D01*
X102805196Y-73796227D01*
X102808796Y-73820495D01*
X102810000Y-73844999D01*
X102810000Y-74745001D01*
X102808796Y-74769505D01*
X102805196Y-74793773D01*
X102799235Y-74817572D01*
X102790970Y-74840671D01*
X102780480Y-74862850D01*
X102767868Y-74883893D01*
X102753253Y-74903599D01*
X102736777Y-74921777D01*
X102718599Y-74938253D01*
X102698893Y-74952868D01*
X102677850Y-74965480D01*
X102655671Y-74975970D01*
X102632572Y-74984235D01*
X102608773Y-74990196D01*
X102584505Y-74993796D01*
X102560001Y-74995000D01*
X101909999Y-74995000D01*
X101885495Y-74993796D01*
X101861227Y-74990196D01*
X101837428Y-74984235D01*
X101814329Y-74975970D01*
X101792150Y-74965480D01*
X101771107Y-74952868D01*
X101751401Y-74938253D01*
X101733223Y-74921777D01*
X101716747Y-74903599D01*
X101702132Y-74883893D01*
X101689520Y-74862850D01*
X101679030Y-74840671D01*
X101670765Y-74817572D01*
X101664804Y-74793773D01*
X101661204Y-74769505D01*
X101660000Y-74745001D01*
X101660000Y-73844999D01*
X101661204Y-73820495D01*
X101664804Y-73796227D01*
X101670765Y-73772428D01*
X101679030Y-73749329D01*
X101689520Y-73727150D01*
X101702132Y-73706107D01*
X101716747Y-73686401D01*
X101733223Y-73668223D01*
X101751401Y-73651747D01*
X101771107Y-73637132D01*
X101792150Y-73624520D01*
X101814329Y-73614030D01*
X101837428Y-73605765D01*
X101861227Y-73599804D01*
X101885495Y-73596204D01*
X101909999Y-73595000D01*
X102560001Y-73595000D01*
X102584505Y-73596204D01*
X102584505Y-73596204D01*
G37*
D12*
X102235000Y-74295000D03*
D11*
G36*
X104634505Y-73596204D02*
G01*
X104658773Y-73599804D01*
X104682572Y-73605765D01*
X104705671Y-73614030D01*
X104727850Y-73624520D01*
X104748893Y-73637132D01*
X104768599Y-73651747D01*
X104786777Y-73668223D01*
X104803253Y-73686401D01*
X104817868Y-73706107D01*
X104830480Y-73727150D01*
X104840970Y-73749329D01*
X104849235Y-73772428D01*
X104855196Y-73796227D01*
X104858796Y-73820495D01*
X104860000Y-73844999D01*
X104860000Y-74745001D01*
X104858796Y-74769505D01*
X104855196Y-74793773D01*
X104849235Y-74817572D01*
X104840970Y-74840671D01*
X104830480Y-74862850D01*
X104817868Y-74883893D01*
X104803253Y-74903599D01*
X104786777Y-74921777D01*
X104768599Y-74938253D01*
X104748893Y-74952868D01*
X104727850Y-74965480D01*
X104705671Y-74975970D01*
X104682572Y-74984235D01*
X104658773Y-74990196D01*
X104634505Y-74993796D01*
X104610001Y-74995000D01*
X103959999Y-74995000D01*
X103935495Y-74993796D01*
X103911227Y-74990196D01*
X103887428Y-74984235D01*
X103864329Y-74975970D01*
X103842150Y-74965480D01*
X103821107Y-74952868D01*
X103801401Y-74938253D01*
X103783223Y-74921777D01*
X103766747Y-74903599D01*
X103752132Y-74883893D01*
X103739520Y-74862850D01*
X103729030Y-74840671D01*
X103720765Y-74817572D01*
X103714804Y-74793773D01*
X103711204Y-74769505D01*
X103710000Y-74745001D01*
X103710000Y-73844999D01*
X103711204Y-73820495D01*
X103714804Y-73796227D01*
X103720765Y-73772428D01*
X103729030Y-73749329D01*
X103739520Y-73727150D01*
X103752132Y-73706107D01*
X103766747Y-73686401D01*
X103783223Y-73668223D01*
X103801401Y-73651747D01*
X103821107Y-73637132D01*
X103842150Y-73624520D01*
X103864329Y-73614030D01*
X103887428Y-73605765D01*
X103911227Y-73599804D01*
X103935495Y-73596204D01*
X103959999Y-73595000D01*
X104610001Y-73595000D01*
X104634505Y-73596204D01*
X104634505Y-73596204D01*
G37*
D12*
X104285000Y-74295000D03*
D11*
G36*
X90439703Y-77170722D02*
G01*
X90454264Y-77172882D01*
X90468543Y-77176459D01*
X90482403Y-77181418D01*
X90495710Y-77187712D01*
X90508336Y-77195280D01*
X90520159Y-77204048D01*
X90531066Y-77213934D01*
X90540952Y-77224841D01*
X90549720Y-77236664D01*
X90557288Y-77249290D01*
X90563582Y-77262597D01*
X90568541Y-77276457D01*
X90572118Y-77290736D01*
X90574278Y-77305297D01*
X90575000Y-77320000D01*
X90575000Y-77620000D01*
X90574278Y-77634703D01*
X90572118Y-77649264D01*
X90568541Y-77663543D01*
X90563582Y-77677403D01*
X90557288Y-77690710D01*
X90549720Y-77703336D01*
X90540952Y-77715159D01*
X90531066Y-77726066D01*
X90520159Y-77735952D01*
X90508336Y-77744720D01*
X90495710Y-77752288D01*
X90482403Y-77758582D01*
X90468543Y-77763541D01*
X90454264Y-77767118D01*
X90439703Y-77769278D01*
X90425000Y-77770000D01*
X88775000Y-77770000D01*
X88760297Y-77769278D01*
X88745736Y-77767118D01*
X88731457Y-77763541D01*
X88717597Y-77758582D01*
X88704290Y-77752288D01*
X88691664Y-77744720D01*
X88679841Y-77735952D01*
X88668934Y-77726066D01*
X88659048Y-77715159D01*
X88650280Y-77703336D01*
X88642712Y-77690710D01*
X88636418Y-77677403D01*
X88631459Y-77663543D01*
X88627882Y-77649264D01*
X88625722Y-77634703D01*
X88625000Y-77620000D01*
X88625000Y-77320000D01*
X88625722Y-77305297D01*
X88627882Y-77290736D01*
X88631459Y-77276457D01*
X88636418Y-77262597D01*
X88642712Y-77249290D01*
X88650280Y-77236664D01*
X88659048Y-77224841D01*
X88668934Y-77213934D01*
X88679841Y-77204048D01*
X88691664Y-77195280D01*
X88704290Y-77187712D01*
X88717597Y-77181418D01*
X88731457Y-77176459D01*
X88745736Y-77172882D01*
X88760297Y-77170722D01*
X88775000Y-77170000D01*
X90425000Y-77170000D01*
X90439703Y-77170722D01*
X90439703Y-77170722D01*
G37*
D14*
X89600000Y-77470000D03*
D11*
G36*
X90439703Y-78440722D02*
G01*
X90454264Y-78442882D01*
X90468543Y-78446459D01*
X90482403Y-78451418D01*
X90495710Y-78457712D01*
X90508336Y-78465280D01*
X90520159Y-78474048D01*
X90531066Y-78483934D01*
X90540952Y-78494841D01*
X90549720Y-78506664D01*
X90557288Y-78519290D01*
X90563582Y-78532597D01*
X90568541Y-78546457D01*
X90572118Y-78560736D01*
X90574278Y-78575297D01*
X90575000Y-78590000D01*
X90575000Y-78890000D01*
X90574278Y-78904703D01*
X90572118Y-78919264D01*
X90568541Y-78933543D01*
X90563582Y-78947403D01*
X90557288Y-78960710D01*
X90549720Y-78973336D01*
X90540952Y-78985159D01*
X90531066Y-78996066D01*
X90520159Y-79005952D01*
X90508336Y-79014720D01*
X90495710Y-79022288D01*
X90482403Y-79028582D01*
X90468543Y-79033541D01*
X90454264Y-79037118D01*
X90439703Y-79039278D01*
X90425000Y-79040000D01*
X88775000Y-79040000D01*
X88760297Y-79039278D01*
X88745736Y-79037118D01*
X88731457Y-79033541D01*
X88717597Y-79028582D01*
X88704290Y-79022288D01*
X88691664Y-79014720D01*
X88679841Y-79005952D01*
X88668934Y-78996066D01*
X88659048Y-78985159D01*
X88650280Y-78973336D01*
X88642712Y-78960710D01*
X88636418Y-78947403D01*
X88631459Y-78933543D01*
X88627882Y-78919264D01*
X88625722Y-78904703D01*
X88625000Y-78890000D01*
X88625000Y-78590000D01*
X88625722Y-78575297D01*
X88627882Y-78560736D01*
X88631459Y-78546457D01*
X88636418Y-78532597D01*
X88642712Y-78519290D01*
X88650280Y-78506664D01*
X88659048Y-78494841D01*
X88668934Y-78483934D01*
X88679841Y-78474048D01*
X88691664Y-78465280D01*
X88704290Y-78457712D01*
X88717597Y-78451418D01*
X88731457Y-78446459D01*
X88745736Y-78442882D01*
X88760297Y-78440722D01*
X88775000Y-78440000D01*
X90425000Y-78440000D01*
X90439703Y-78440722D01*
X90439703Y-78440722D01*
G37*
D14*
X89600000Y-78740000D03*
D11*
G36*
X90439703Y-79710722D02*
G01*
X90454264Y-79712882D01*
X90468543Y-79716459D01*
X90482403Y-79721418D01*
X90495710Y-79727712D01*
X90508336Y-79735280D01*
X90520159Y-79744048D01*
X90531066Y-79753934D01*
X90540952Y-79764841D01*
X90549720Y-79776664D01*
X90557288Y-79789290D01*
X90563582Y-79802597D01*
X90568541Y-79816457D01*
X90572118Y-79830736D01*
X90574278Y-79845297D01*
X90575000Y-79860000D01*
X90575000Y-80160000D01*
X90574278Y-80174703D01*
X90572118Y-80189264D01*
X90568541Y-80203543D01*
X90563582Y-80217403D01*
X90557288Y-80230710D01*
X90549720Y-80243336D01*
X90540952Y-80255159D01*
X90531066Y-80266066D01*
X90520159Y-80275952D01*
X90508336Y-80284720D01*
X90495710Y-80292288D01*
X90482403Y-80298582D01*
X90468543Y-80303541D01*
X90454264Y-80307118D01*
X90439703Y-80309278D01*
X90425000Y-80310000D01*
X88775000Y-80310000D01*
X88760297Y-80309278D01*
X88745736Y-80307118D01*
X88731457Y-80303541D01*
X88717597Y-80298582D01*
X88704290Y-80292288D01*
X88691664Y-80284720D01*
X88679841Y-80275952D01*
X88668934Y-80266066D01*
X88659048Y-80255159D01*
X88650280Y-80243336D01*
X88642712Y-80230710D01*
X88636418Y-80217403D01*
X88631459Y-80203543D01*
X88627882Y-80189264D01*
X88625722Y-80174703D01*
X88625000Y-80160000D01*
X88625000Y-79860000D01*
X88625722Y-79845297D01*
X88627882Y-79830736D01*
X88631459Y-79816457D01*
X88636418Y-79802597D01*
X88642712Y-79789290D01*
X88650280Y-79776664D01*
X88659048Y-79764841D01*
X88668934Y-79753934D01*
X88679841Y-79744048D01*
X88691664Y-79735280D01*
X88704290Y-79727712D01*
X88717597Y-79721418D01*
X88731457Y-79716459D01*
X88745736Y-79712882D01*
X88760297Y-79710722D01*
X88775000Y-79710000D01*
X90425000Y-79710000D01*
X90439703Y-79710722D01*
X90439703Y-79710722D01*
G37*
D14*
X89600000Y-80010000D03*
D11*
G36*
X90439703Y-80980722D02*
G01*
X90454264Y-80982882D01*
X90468543Y-80986459D01*
X90482403Y-80991418D01*
X90495710Y-80997712D01*
X90508336Y-81005280D01*
X90520159Y-81014048D01*
X90531066Y-81023934D01*
X90540952Y-81034841D01*
X90549720Y-81046664D01*
X90557288Y-81059290D01*
X90563582Y-81072597D01*
X90568541Y-81086457D01*
X90572118Y-81100736D01*
X90574278Y-81115297D01*
X90575000Y-81130000D01*
X90575000Y-81430000D01*
X90574278Y-81444703D01*
X90572118Y-81459264D01*
X90568541Y-81473543D01*
X90563582Y-81487403D01*
X90557288Y-81500710D01*
X90549720Y-81513336D01*
X90540952Y-81525159D01*
X90531066Y-81536066D01*
X90520159Y-81545952D01*
X90508336Y-81554720D01*
X90495710Y-81562288D01*
X90482403Y-81568582D01*
X90468543Y-81573541D01*
X90454264Y-81577118D01*
X90439703Y-81579278D01*
X90425000Y-81580000D01*
X88775000Y-81580000D01*
X88760297Y-81579278D01*
X88745736Y-81577118D01*
X88731457Y-81573541D01*
X88717597Y-81568582D01*
X88704290Y-81562288D01*
X88691664Y-81554720D01*
X88679841Y-81545952D01*
X88668934Y-81536066D01*
X88659048Y-81525159D01*
X88650280Y-81513336D01*
X88642712Y-81500710D01*
X88636418Y-81487403D01*
X88631459Y-81473543D01*
X88627882Y-81459264D01*
X88625722Y-81444703D01*
X88625000Y-81430000D01*
X88625000Y-81130000D01*
X88625722Y-81115297D01*
X88627882Y-81100736D01*
X88631459Y-81086457D01*
X88636418Y-81072597D01*
X88642712Y-81059290D01*
X88650280Y-81046664D01*
X88659048Y-81034841D01*
X88668934Y-81023934D01*
X88679841Y-81014048D01*
X88691664Y-81005280D01*
X88704290Y-80997712D01*
X88717597Y-80991418D01*
X88731457Y-80986459D01*
X88745736Y-80982882D01*
X88760297Y-80980722D01*
X88775000Y-80980000D01*
X90425000Y-80980000D01*
X90439703Y-80980722D01*
X90439703Y-80980722D01*
G37*
D14*
X89600000Y-81280000D03*
D11*
G36*
X95389703Y-80980722D02*
G01*
X95404264Y-80982882D01*
X95418543Y-80986459D01*
X95432403Y-80991418D01*
X95445710Y-80997712D01*
X95458336Y-81005280D01*
X95470159Y-81014048D01*
X95481066Y-81023934D01*
X95490952Y-81034841D01*
X95499720Y-81046664D01*
X95507288Y-81059290D01*
X95513582Y-81072597D01*
X95518541Y-81086457D01*
X95522118Y-81100736D01*
X95524278Y-81115297D01*
X95525000Y-81130000D01*
X95525000Y-81430000D01*
X95524278Y-81444703D01*
X95522118Y-81459264D01*
X95518541Y-81473543D01*
X95513582Y-81487403D01*
X95507288Y-81500710D01*
X95499720Y-81513336D01*
X95490952Y-81525159D01*
X95481066Y-81536066D01*
X95470159Y-81545952D01*
X95458336Y-81554720D01*
X95445710Y-81562288D01*
X95432403Y-81568582D01*
X95418543Y-81573541D01*
X95404264Y-81577118D01*
X95389703Y-81579278D01*
X95375000Y-81580000D01*
X93725000Y-81580000D01*
X93710297Y-81579278D01*
X93695736Y-81577118D01*
X93681457Y-81573541D01*
X93667597Y-81568582D01*
X93654290Y-81562288D01*
X93641664Y-81554720D01*
X93629841Y-81545952D01*
X93618934Y-81536066D01*
X93609048Y-81525159D01*
X93600280Y-81513336D01*
X93592712Y-81500710D01*
X93586418Y-81487403D01*
X93581459Y-81473543D01*
X93577882Y-81459264D01*
X93575722Y-81444703D01*
X93575000Y-81430000D01*
X93575000Y-81130000D01*
X93575722Y-81115297D01*
X93577882Y-81100736D01*
X93581459Y-81086457D01*
X93586418Y-81072597D01*
X93592712Y-81059290D01*
X93600280Y-81046664D01*
X93609048Y-81034841D01*
X93618934Y-81023934D01*
X93629841Y-81014048D01*
X93641664Y-81005280D01*
X93654290Y-80997712D01*
X93667597Y-80991418D01*
X93681457Y-80986459D01*
X93695736Y-80982882D01*
X93710297Y-80980722D01*
X93725000Y-80980000D01*
X95375000Y-80980000D01*
X95389703Y-80980722D01*
X95389703Y-80980722D01*
G37*
D14*
X94550000Y-81280000D03*
D11*
G36*
X95389703Y-79710722D02*
G01*
X95404264Y-79712882D01*
X95418543Y-79716459D01*
X95432403Y-79721418D01*
X95445710Y-79727712D01*
X95458336Y-79735280D01*
X95470159Y-79744048D01*
X95481066Y-79753934D01*
X95490952Y-79764841D01*
X95499720Y-79776664D01*
X95507288Y-79789290D01*
X95513582Y-79802597D01*
X95518541Y-79816457D01*
X95522118Y-79830736D01*
X95524278Y-79845297D01*
X95525000Y-79860000D01*
X95525000Y-80160000D01*
X95524278Y-80174703D01*
X95522118Y-80189264D01*
X95518541Y-80203543D01*
X95513582Y-80217403D01*
X95507288Y-80230710D01*
X95499720Y-80243336D01*
X95490952Y-80255159D01*
X95481066Y-80266066D01*
X95470159Y-80275952D01*
X95458336Y-80284720D01*
X95445710Y-80292288D01*
X95432403Y-80298582D01*
X95418543Y-80303541D01*
X95404264Y-80307118D01*
X95389703Y-80309278D01*
X95375000Y-80310000D01*
X93725000Y-80310000D01*
X93710297Y-80309278D01*
X93695736Y-80307118D01*
X93681457Y-80303541D01*
X93667597Y-80298582D01*
X93654290Y-80292288D01*
X93641664Y-80284720D01*
X93629841Y-80275952D01*
X93618934Y-80266066D01*
X93609048Y-80255159D01*
X93600280Y-80243336D01*
X93592712Y-80230710D01*
X93586418Y-80217403D01*
X93581459Y-80203543D01*
X93577882Y-80189264D01*
X93575722Y-80174703D01*
X93575000Y-80160000D01*
X93575000Y-79860000D01*
X93575722Y-79845297D01*
X93577882Y-79830736D01*
X93581459Y-79816457D01*
X93586418Y-79802597D01*
X93592712Y-79789290D01*
X93600280Y-79776664D01*
X93609048Y-79764841D01*
X93618934Y-79753934D01*
X93629841Y-79744048D01*
X93641664Y-79735280D01*
X93654290Y-79727712D01*
X93667597Y-79721418D01*
X93681457Y-79716459D01*
X93695736Y-79712882D01*
X93710297Y-79710722D01*
X93725000Y-79710000D01*
X95375000Y-79710000D01*
X95389703Y-79710722D01*
X95389703Y-79710722D01*
G37*
D14*
X94550000Y-80010000D03*
D11*
G36*
X95389703Y-78440722D02*
G01*
X95404264Y-78442882D01*
X95418543Y-78446459D01*
X95432403Y-78451418D01*
X95445710Y-78457712D01*
X95458336Y-78465280D01*
X95470159Y-78474048D01*
X95481066Y-78483934D01*
X95490952Y-78494841D01*
X95499720Y-78506664D01*
X95507288Y-78519290D01*
X95513582Y-78532597D01*
X95518541Y-78546457D01*
X95522118Y-78560736D01*
X95524278Y-78575297D01*
X95525000Y-78590000D01*
X95525000Y-78890000D01*
X95524278Y-78904703D01*
X95522118Y-78919264D01*
X95518541Y-78933543D01*
X95513582Y-78947403D01*
X95507288Y-78960710D01*
X95499720Y-78973336D01*
X95490952Y-78985159D01*
X95481066Y-78996066D01*
X95470159Y-79005952D01*
X95458336Y-79014720D01*
X95445710Y-79022288D01*
X95432403Y-79028582D01*
X95418543Y-79033541D01*
X95404264Y-79037118D01*
X95389703Y-79039278D01*
X95375000Y-79040000D01*
X93725000Y-79040000D01*
X93710297Y-79039278D01*
X93695736Y-79037118D01*
X93681457Y-79033541D01*
X93667597Y-79028582D01*
X93654290Y-79022288D01*
X93641664Y-79014720D01*
X93629841Y-79005952D01*
X93618934Y-78996066D01*
X93609048Y-78985159D01*
X93600280Y-78973336D01*
X93592712Y-78960710D01*
X93586418Y-78947403D01*
X93581459Y-78933543D01*
X93577882Y-78919264D01*
X93575722Y-78904703D01*
X93575000Y-78890000D01*
X93575000Y-78590000D01*
X93575722Y-78575297D01*
X93577882Y-78560736D01*
X93581459Y-78546457D01*
X93586418Y-78532597D01*
X93592712Y-78519290D01*
X93600280Y-78506664D01*
X93609048Y-78494841D01*
X93618934Y-78483934D01*
X93629841Y-78474048D01*
X93641664Y-78465280D01*
X93654290Y-78457712D01*
X93667597Y-78451418D01*
X93681457Y-78446459D01*
X93695736Y-78442882D01*
X93710297Y-78440722D01*
X93725000Y-78440000D01*
X95375000Y-78440000D01*
X95389703Y-78440722D01*
X95389703Y-78440722D01*
G37*
D14*
X94550000Y-78740000D03*
D11*
G36*
X95389703Y-77170722D02*
G01*
X95404264Y-77172882D01*
X95418543Y-77176459D01*
X95432403Y-77181418D01*
X95445710Y-77187712D01*
X95458336Y-77195280D01*
X95470159Y-77204048D01*
X95481066Y-77213934D01*
X95490952Y-77224841D01*
X95499720Y-77236664D01*
X95507288Y-77249290D01*
X95513582Y-77262597D01*
X95518541Y-77276457D01*
X95522118Y-77290736D01*
X95524278Y-77305297D01*
X95525000Y-77320000D01*
X95525000Y-77620000D01*
X95524278Y-77634703D01*
X95522118Y-77649264D01*
X95518541Y-77663543D01*
X95513582Y-77677403D01*
X95507288Y-77690710D01*
X95499720Y-77703336D01*
X95490952Y-77715159D01*
X95481066Y-77726066D01*
X95470159Y-77735952D01*
X95458336Y-77744720D01*
X95445710Y-77752288D01*
X95432403Y-77758582D01*
X95418543Y-77763541D01*
X95404264Y-77767118D01*
X95389703Y-77769278D01*
X95375000Y-77770000D01*
X93725000Y-77770000D01*
X93710297Y-77769278D01*
X93695736Y-77767118D01*
X93681457Y-77763541D01*
X93667597Y-77758582D01*
X93654290Y-77752288D01*
X93641664Y-77744720D01*
X93629841Y-77735952D01*
X93618934Y-77726066D01*
X93609048Y-77715159D01*
X93600280Y-77703336D01*
X93592712Y-77690710D01*
X93586418Y-77677403D01*
X93581459Y-77663543D01*
X93577882Y-77649264D01*
X93575722Y-77634703D01*
X93575000Y-77620000D01*
X93575000Y-77320000D01*
X93575722Y-77305297D01*
X93577882Y-77290736D01*
X93581459Y-77276457D01*
X93586418Y-77262597D01*
X93592712Y-77249290D01*
X93600280Y-77236664D01*
X93609048Y-77224841D01*
X93618934Y-77213934D01*
X93629841Y-77204048D01*
X93641664Y-77195280D01*
X93654290Y-77187712D01*
X93667597Y-77181418D01*
X93681457Y-77176459D01*
X93695736Y-77172882D01*
X93710297Y-77170722D01*
X93725000Y-77170000D01*
X95375000Y-77170000D01*
X95389703Y-77170722D01*
X95389703Y-77170722D01*
G37*
D14*
X94550000Y-77470000D03*
M02*
