M48
; DRILL file {KiCad 5.1.4} date Di 19 Nov 2019 03:17:32 CET
; FORMAT={-:-/ absolute / inch / decimal}
; #@! TF.CreationDate,2019-11-19T03:17:32+01:00
; #@! TF.GenerationSoftware,Kicad,Pcbnew,5.1.4
; #@! TF.FileFunction,Plated,1,2,PTH
FMAT,2
INCH
T1C0.0157
T2C0.0295
T3C0.0315
T4C0.0394
T5C0.0433
T6C0.0472
%
G90
G05
T1
X2.95Y-4.025
X3.185Y-3.855
X3.28Y-3.28
X3.28Y-3.54
X3.425Y-3.1
X3.5Y-3.825
X3.525Y-2.925
X3.565Y-3.575
X3.65Y-3.1
X3.725Y-3.825
X3.76Y-3.54
X3.76Y-3.615
X3.77Y-3.735
X3.8Y-3.86
X3.825Y-3.175
X3.925Y-2.625
X4.0Y-3.84
X4.05Y-4.075
X4.05Y-4.15
X4.2Y-4.15
X4.275Y-4.075
X4.375Y-2.875
X4.375Y-3.15
X4.74Y-3.58
X4.8Y-3.625
T2
X4.12Y-3.05
X4.17Y-3.0
X4.22Y-3.05
X4.52Y-2.75
X4.57Y-2.8
X4.62Y-2.75
X4.52Y-3.45
X4.57Y-3.5
X4.62Y-3.45
X4.12Y-2.775
X4.17Y-2.725
X4.22Y-2.775
X4.52Y-3.025
X4.57Y-3.075
X4.62Y-3.025
X4.12Y-3.45
X4.17Y-3.5
X4.22Y-3.45
T3
X4.42Y-2.55
X4.72Y-2.55
X4.02Y-3.25
X4.32Y-3.25
X3.8Y-3.35
X3.8Y-3.4287
X4.42Y-3.25
X4.72Y-3.25
X3.675Y-2.4963
X3.675Y-2.575
X2.65Y-3.925
X2.65Y-4.225
X2.75Y-3.925
X2.75Y-4.225
X2.85Y-3.925
X2.85Y-4.225
X2.95Y-3.925
X2.95Y-4.225
X3.05Y-3.925
X3.05Y-4.225
X3.15Y-3.925
X3.15Y-4.225
X3.25Y-3.925
X3.25Y-4.225
X3.35Y-3.925
X3.35Y-4.225
X3.45Y-3.925
X3.45Y-4.225
X3.55Y-3.925
X3.55Y-4.225
X3.65Y-3.925
X3.65Y-4.225
X3.75Y-3.925
X3.75Y-4.225
X3.85Y-3.925
X3.85Y-4.225
X3.95Y-3.925
X3.95Y-4.225
X3.15Y-3.1
X3.15Y-3.1787
X4.02Y-2.55
X4.32Y-2.55
X3.15Y-3.35
X3.15Y-3.4287
T4
X4.96Y-3.175
X4.96Y-3.275
X4.96Y-3.375
X4.96Y-3.475
X4.96Y-3.575
X4.96Y-3.675
X4.415Y-4.13
X4.515Y-4.13
X4.615Y-4.13
X4.715Y-4.13
X4.815Y-4.13
X4.915Y-4.13
T5
X4.525Y-3.725
X4.525Y-3.9022
X4.7809Y-3.725
X4.7809Y-3.9022
X4.1Y-3.725
X4.1Y-3.9022
X4.3559Y-3.725
X4.3559Y-3.9022
T6
X2.74Y-2.965
X2.74Y-3.1028
X4.885Y-2.8322
X4.885Y-2.97
T3
G00X2.664Y-3.3954
M15
G01X2.664Y-3.3402
M16
G05
G00X2.664Y-3.5765
M15
G01X2.664Y-3.5213
M16
G05
G00X2.664Y-3.7576
M15
G01X2.664Y-3.7024
M16
G05
G00X2.936Y-3.3954
M15
G01X2.936Y-3.3402
M16
G05
G00X2.936Y-3.5765
M15
G01X2.936Y-3.5213
M16
G05
G00X2.936Y-3.7576
M15
G01X2.936Y-3.7024
M16
G05
T0
M30
