G04 #@! TF.GenerationSoftware,KiCad,Pcbnew,5.1.4*
G04 #@! TF.CreationDate,2019-11-19T03:17:16+01:00*
G04 #@! TF.ProjectId,sclock,73636c6f-636b-42e6-9b69-6361645f7063,rev?*
G04 #@! TF.SameCoordinates,Original*
G04 #@! TF.FileFunction,Legend,Top*
G04 #@! TF.FilePolarity,Positive*
%FSLAX46Y46*%
G04 Gerber Fmt 4.6, Leading zero omitted, Abs format (unit mm)*
G04 Created by KiCad (PCBNEW 5.1.4) date 2019-11-19 03:17:16*
%MOMM*%
%LPD*%
G04 APERTURE LIST*
%ADD10C,0.100000*%
%ADD11C,0.050000*%
%ADD12C,0.150000*%
%ADD13C,0.125000*%
%ADD14C,0.250000*%
%ADD15C,0.300000*%
%ADD16C,0.120000*%
G04 APERTURE END LIST*
D10*
X111533857Y-102469190D02*
X111843380Y-102469190D01*
X111676714Y-102659666D01*
X111748142Y-102659666D01*
X111795761Y-102683476D01*
X111819571Y-102707285D01*
X111843380Y-102754904D01*
X111843380Y-102873952D01*
X111819571Y-102921571D01*
X111795761Y-102945380D01*
X111748142Y-102969190D01*
X111605285Y-102969190D01*
X111557666Y-102945380D01*
X111533857Y-102921571D01*
X112033857Y-102516809D02*
X112057666Y-102493000D01*
X112105285Y-102469190D01*
X112224333Y-102469190D01*
X112271952Y-102493000D01*
X112295761Y-102516809D01*
X112319571Y-102564428D01*
X112319571Y-102612047D01*
X112295761Y-102683476D01*
X112010047Y-102969190D01*
X112319571Y-102969190D01*
X112533857Y-102969190D02*
X112533857Y-102469190D01*
X112581476Y-102778714D02*
X112724333Y-102969190D01*
X112724333Y-102635857D02*
X112533857Y-102826333D01*
X124051190Y-93916428D02*
X123551190Y-93916428D01*
X123551190Y-93797380D01*
X123575000Y-93725952D01*
X123622619Y-93678333D01*
X123670238Y-93654523D01*
X123765476Y-93630714D01*
X123836904Y-93630714D01*
X123932142Y-93654523D01*
X123979761Y-93678333D01*
X124027380Y-93725952D01*
X124051190Y-93797380D01*
X124051190Y-93916428D01*
X123551190Y-93487857D02*
X123551190Y-93202142D01*
X124051190Y-93345000D02*
X123551190Y-93345000D01*
X124051190Y-92749761D02*
X123813095Y-92916428D01*
X124051190Y-93035476D02*
X123551190Y-93035476D01*
X123551190Y-92845000D01*
X123575000Y-92797380D01*
X123598809Y-92773571D01*
X123646428Y-92749761D01*
X123717857Y-92749761D01*
X123765476Y-92773571D01*
X123789285Y-92797380D01*
X123813095Y-92845000D01*
X123813095Y-93035476D01*
X123551190Y-91447857D02*
X123551190Y-91162142D01*
X124051190Y-91305000D02*
X123551190Y-91305000D01*
X123551190Y-91043095D02*
X124051190Y-90709761D01*
X123551190Y-90709761D02*
X124051190Y-91043095D01*
X123551190Y-90424047D02*
X123551190Y-90328809D01*
X123575000Y-90281190D01*
X123622619Y-90233571D01*
X123717857Y-90209761D01*
X123884523Y-90209761D01*
X123979761Y-90233571D01*
X124027380Y-90281190D01*
X124051190Y-90328809D01*
X124051190Y-90424047D01*
X124027380Y-90471666D01*
X123979761Y-90519285D01*
X123884523Y-90543095D01*
X123717857Y-90543095D01*
X123622619Y-90519285D01*
X123575000Y-90471666D01*
X123551190Y-90424047D01*
X124051190Y-88467380D02*
X123813095Y-88634047D01*
X124051190Y-88753095D02*
X123551190Y-88753095D01*
X123551190Y-88562619D01*
X123575000Y-88515000D01*
X123598809Y-88491190D01*
X123646428Y-88467380D01*
X123717857Y-88467380D01*
X123765476Y-88491190D01*
X123789285Y-88515000D01*
X123813095Y-88562619D01*
X123813095Y-88753095D01*
X123551190Y-88300714D02*
X124051190Y-87967380D01*
X123551190Y-87967380D02*
X124051190Y-88300714D01*
X124051190Y-87776904D02*
X123551190Y-87776904D01*
X123551190Y-86344047D02*
X123551190Y-86034523D01*
X123741666Y-86201190D01*
X123741666Y-86129761D01*
X123765476Y-86082142D01*
X123789285Y-86058333D01*
X123836904Y-86034523D01*
X123955952Y-86034523D01*
X124003571Y-86058333D01*
X124027380Y-86082142D01*
X124051190Y-86129761D01*
X124051190Y-86272619D01*
X124027380Y-86320238D01*
X124003571Y-86344047D01*
X123551190Y-85891666D02*
X124051190Y-85725000D01*
X123551190Y-85558333D01*
X123551190Y-85439285D02*
X123551190Y-85129761D01*
X123741666Y-85296428D01*
X123741666Y-85225000D01*
X123765476Y-85177380D01*
X123789285Y-85153571D01*
X123836904Y-85129761D01*
X123955952Y-85129761D01*
X124003571Y-85153571D01*
X124027380Y-85177380D01*
X124051190Y-85225000D01*
X124051190Y-85367857D01*
X124027380Y-85415476D01*
X124003571Y-85439285D01*
X124003571Y-83458809D02*
X124027380Y-83482619D01*
X124051190Y-83554047D01*
X124051190Y-83601666D01*
X124027380Y-83673095D01*
X123979761Y-83720714D01*
X123932142Y-83744523D01*
X123836904Y-83768333D01*
X123765476Y-83768333D01*
X123670238Y-83744523D01*
X123622619Y-83720714D01*
X123575000Y-83673095D01*
X123551190Y-83601666D01*
X123551190Y-83554047D01*
X123575000Y-83482619D01*
X123598809Y-83458809D01*
X123551190Y-83315952D02*
X123551190Y-83030238D01*
X124051190Y-83173095D02*
X123551190Y-83173095D01*
X124027380Y-82887380D02*
X124051190Y-82815952D01*
X124051190Y-82696904D01*
X124027380Y-82649285D01*
X124003571Y-82625476D01*
X123955952Y-82601666D01*
X123908333Y-82601666D01*
X123860714Y-82625476D01*
X123836904Y-82649285D01*
X123813095Y-82696904D01*
X123789285Y-82792142D01*
X123765476Y-82839761D01*
X123741666Y-82863571D01*
X123694047Y-82887380D01*
X123646428Y-82887380D01*
X123598809Y-82863571D01*
X123575000Y-82839761D01*
X123551190Y-82792142D01*
X123551190Y-82673095D01*
X123575000Y-82601666D01*
X123575000Y-81025952D02*
X123551190Y-81073571D01*
X123551190Y-81145000D01*
X123575000Y-81216428D01*
X123622619Y-81264047D01*
X123670238Y-81287857D01*
X123765476Y-81311666D01*
X123836904Y-81311666D01*
X123932142Y-81287857D01*
X123979761Y-81264047D01*
X124027380Y-81216428D01*
X124051190Y-81145000D01*
X124051190Y-81097380D01*
X124027380Y-81025952D01*
X124003571Y-81002142D01*
X123836904Y-81002142D01*
X123836904Y-81097380D01*
X124051190Y-80787857D02*
X123551190Y-80787857D01*
X124051190Y-80502142D01*
X123551190Y-80502142D01*
X124051190Y-80264047D02*
X123551190Y-80264047D01*
X123551190Y-80145000D01*
X123575000Y-80073571D01*
X123622619Y-80025952D01*
X123670238Y-80002142D01*
X123765476Y-79978333D01*
X123836904Y-79978333D01*
X123932142Y-80002142D01*
X123979761Y-80025952D01*
X124027380Y-80073571D01*
X124051190Y-80145000D01*
X124051190Y-80264047D01*
X114228619Y-102969190D02*
X114228619Y-102469190D01*
X114466714Y-102969190D02*
X114466714Y-102469190D01*
X114752428Y-102969190D01*
X114752428Y-102469190D01*
X114919095Y-102469190D02*
X115204809Y-102469190D01*
X115061952Y-102969190D02*
X115061952Y-102469190D01*
X116625761Y-102945380D02*
X116697190Y-102969190D01*
X116816238Y-102969190D01*
X116863857Y-102945380D01*
X116887666Y-102921571D01*
X116911476Y-102873952D01*
X116911476Y-102826333D01*
X116887666Y-102778714D01*
X116863857Y-102754904D01*
X116816238Y-102731095D01*
X116721000Y-102707285D01*
X116673380Y-102683476D01*
X116649571Y-102659666D01*
X116625761Y-102612047D01*
X116625761Y-102564428D01*
X116649571Y-102516809D01*
X116673380Y-102493000D01*
X116721000Y-102469190D01*
X116840047Y-102469190D01*
X116911476Y-102493000D01*
X117411476Y-102921571D02*
X117387666Y-102945380D01*
X117316238Y-102969190D01*
X117268619Y-102969190D01*
X117197190Y-102945380D01*
X117149571Y-102897761D01*
X117125761Y-102850142D01*
X117101952Y-102754904D01*
X117101952Y-102683476D01*
X117125761Y-102588238D01*
X117149571Y-102540619D01*
X117197190Y-102493000D01*
X117268619Y-102469190D01*
X117316238Y-102469190D01*
X117387666Y-102493000D01*
X117411476Y-102516809D01*
X117863857Y-102969190D02*
X117625761Y-102969190D01*
X117625761Y-102469190D01*
X119153857Y-102945380D02*
X119225285Y-102969190D01*
X119344333Y-102969190D01*
X119391952Y-102945380D01*
X119415761Y-102921571D01*
X119439571Y-102873952D01*
X119439571Y-102826333D01*
X119415761Y-102778714D01*
X119391952Y-102754904D01*
X119344333Y-102731095D01*
X119249095Y-102707285D01*
X119201476Y-102683476D01*
X119177666Y-102659666D01*
X119153857Y-102612047D01*
X119153857Y-102564428D01*
X119177666Y-102516809D01*
X119201476Y-102493000D01*
X119249095Y-102469190D01*
X119368142Y-102469190D01*
X119439571Y-102493000D01*
X119653857Y-102969190D02*
X119653857Y-102469190D01*
X119772904Y-102469190D01*
X119844333Y-102493000D01*
X119891952Y-102540619D01*
X119915761Y-102588238D01*
X119939571Y-102683476D01*
X119939571Y-102754904D01*
X119915761Y-102850142D01*
X119891952Y-102897761D01*
X119844333Y-102945380D01*
X119772904Y-102969190D01*
X119653857Y-102969190D01*
X120130047Y-102826333D02*
X120368142Y-102826333D01*
X120082428Y-102969190D02*
X120249095Y-102469190D01*
X120415761Y-102969190D01*
X121681952Y-102469190D02*
X121991476Y-102469190D01*
X121824809Y-102659666D01*
X121896238Y-102659666D01*
X121943857Y-102683476D01*
X121967666Y-102707285D01*
X121991476Y-102754904D01*
X121991476Y-102873952D01*
X121967666Y-102921571D01*
X121943857Y-102945380D01*
X121896238Y-102969190D01*
X121753380Y-102969190D01*
X121705761Y-102945380D01*
X121681952Y-102921571D01*
X122134333Y-102469190D02*
X122301000Y-102969190D01*
X122467666Y-102469190D01*
X122586714Y-102469190D02*
X122896238Y-102469190D01*
X122729571Y-102659666D01*
X122801000Y-102659666D01*
X122848619Y-102683476D01*
X122872428Y-102707285D01*
X122896238Y-102754904D01*
X122896238Y-102873952D01*
X122872428Y-102921571D01*
X122848619Y-102945380D01*
X122801000Y-102969190D01*
X122658142Y-102969190D01*
X122610523Y-102945380D01*
X122586714Y-102921571D01*
D11*
X128270000Y-60960000D02*
X65405000Y-60960000D01*
X128270000Y-109220000D02*
X128270000Y-60960000D01*
X65405000Y-109220000D02*
X128270000Y-109220000D01*
X65405000Y-60960000D02*
X65405000Y-109220000D01*
D12*
X76838752Y-73137780D02*
X76838752Y-73852066D01*
X76791133Y-73994923D01*
X76695895Y-74090161D01*
X76553038Y-74137780D01*
X76457800Y-74137780D01*
X77791133Y-74137780D02*
X77314942Y-74137780D01*
X77314942Y-73137780D01*
X78695895Y-74042542D02*
X78648276Y-74090161D01*
X78505419Y-74137780D01*
X78410180Y-74137780D01*
X78267323Y-74090161D01*
X78172085Y-73994923D01*
X78124466Y-73899685D01*
X78076847Y-73709209D01*
X78076847Y-73566352D01*
X78124466Y-73375876D01*
X78172085Y-73280638D01*
X78267323Y-73185400D01*
X78410180Y-73137780D01*
X78505419Y-73137780D01*
X78648276Y-73185400D01*
X78695895Y-73233019D01*
X79410180Y-73137780D02*
X79410180Y-73852066D01*
X79362561Y-73994923D01*
X79267323Y-74090161D01*
X79124466Y-74137780D01*
X79029228Y-74137780D01*
X80362561Y-74137780D02*
X79886371Y-74137780D01*
X79886371Y-73137780D01*
X81267323Y-74042542D02*
X81219704Y-74090161D01*
X81076847Y-74137780D01*
X80981609Y-74137780D01*
X80838752Y-74090161D01*
X80743514Y-73994923D01*
X80695895Y-73899685D01*
X80648276Y-73709209D01*
X80648276Y-73566352D01*
X80695895Y-73375876D01*
X80743514Y-73280638D01*
X80838752Y-73185400D01*
X80981609Y-73137780D01*
X81076847Y-73137780D01*
X81219704Y-73185400D01*
X81267323Y-73233019D01*
X81981609Y-73137780D02*
X81981609Y-73852066D01*
X81933990Y-73994923D01*
X81838752Y-74090161D01*
X81695895Y-74137780D01*
X81600657Y-74137780D01*
X82933990Y-74137780D02*
X82457800Y-74137780D01*
X82457800Y-73137780D01*
X83838752Y-74042542D02*
X83791133Y-74090161D01*
X83648276Y-74137780D01*
X83553038Y-74137780D01*
X83410180Y-74090161D01*
X83314942Y-73994923D01*
X83267323Y-73899685D01*
X83219704Y-73709209D01*
X83219704Y-73566352D01*
X83267323Y-73375876D01*
X83314942Y-73280638D01*
X83410180Y-73185400D01*
X83553038Y-73137780D01*
X83648276Y-73137780D01*
X83791133Y-73185400D01*
X83838752Y-73233019D01*
X84553038Y-73137780D02*
X84553038Y-73852066D01*
X84505419Y-73994923D01*
X84410180Y-74090161D01*
X84267323Y-74137780D01*
X84172085Y-74137780D01*
X85505419Y-74137780D02*
X85029228Y-74137780D01*
X85029228Y-73137780D01*
X86410180Y-74042542D02*
X86362561Y-74090161D01*
X86219704Y-74137780D01*
X86124466Y-74137780D01*
X85981609Y-74090161D01*
X85886371Y-73994923D01*
X85838752Y-73899685D01*
X85791133Y-73709209D01*
X85791133Y-73566352D01*
X85838752Y-73375876D01*
X85886371Y-73280638D01*
X85981609Y-73185400D01*
X86124466Y-73137780D01*
X86219704Y-73137780D01*
X86362561Y-73185400D01*
X86410180Y-73233019D01*
D13*
X125683404Y-99361428D02*
X124883404Y-99361428D01*
X125188166Y-99361428D02*
X125150071Y-99304285D01*
X125150071Y-99190000D01*
X125188166Y-99132857D01*
X125226261Y-99104285D01*
X125302452Y-99075714D01*
X125531023Y-99075714D01*
X125607214Y-99104285D01*
X125645309Y-99132857D01*
X125683404Y-99190000D01*
X125683404Y-99304285D01*
X125645309Y-99361428D01*
X125150071Y-98561428D02*
X125683404Y-98561428D01*
X125150071Y-98818571D02*
X125569119Y-98818571D01*
X125645309Y-98790000D01*
X125683404Y-98732857D01*
X125683404Y-98647142D01*
X125645309Y-98590000D01*
X125607214Y-98561428D01*
X125645309Y-98018571D02*
X125683404Y-98075714D01*
X125683404Y-98190000D01*
X125645309Y-98247142D01*
X125607214Y-98275714D01*
X125531023Y-98304285D01*
X125302452Y-98304285D01*
X125226261Y-98275714D01*
X125188166Y-98247142D01*
X125150071Y-98190000D01*
X125150071Y-98075714D01*
X125188166Y-98018571D01*
X125683404Y-97761428D02*
X124883404Y-97761428D01*
X125378642Y-97704285D02*
X125683404Y-97532857D01*
X125150071Y-97532857D02*
X125454833Y-97761428D01*
X125683404Y-97275714D02*
X124883404Y-97275714D01*
X125378642Y-97218571D02*
X125683404Y-97047142D01*
X125150071Y-97047142D02*
X125454833Y-97275714D01*
X125645309Y-96561428D02*
X125683404Y-96618571D01*
X125683404Y-96732857D01*
X125645309Y-96790000D01*
X125569119Y-96818571D01*
X125264357Y-96818571D01*
X125188166Y-96790000D01*
X125150071Y-96732857D01*
X125150071Y-96618571D01*
X125188166Y-96561428D01*
X125264357Y-96532857D01*
X125340547Y-96532857D01*
X125416738Y-96818571D01*
X125150071Y-96361428D02*
X125150071Y-96132857D01*
X124883404Y-96275714D02*
X125569119Y-96275714D01*
X125645309Y-96247142D01*
X125683404Y-96190000D01*
X125683404Y-96132857D01*
X126284595Y-98818571D02*
X126246500Y-98790000D01*
X126208404Y-98732857D01*
X126208404Y-98590000D01*
X126246500Y-98532857D01*
X126284595Y-98504285D01*
X126360785Y-98475714D01*
X126436976Y-98475714D01*
X126551261Y-98504285D01*
X127008404Y-98847142D01*
X127008404Y-98475714D01*
X126208404Y-98104285D02*
X126208404Y-98047142D01*
X126246500Y-97990000D01*
X126284595Y-97961428D01*
X126360785Y-97932857D01*
X126513166Y-97904285D01*
X126703642Y-97904285D01*
X126856023Y-97932857D01*
X126932214Y-97961428D01*
X126970309Y-97990000D01*
X127008404Y-98047142D01*
X127008404Y-98104285D01*
X126970309Y-98161428D01*
X126932214Y-98190000D01*
X126856023Y-98218571D01*
X126703642Y-98247142D01*
X126513166Y-98247142D01*
X126360785Y-98218571D01*
X126284595Y-98190000D01*
X126246500Y-98161428D01*
X126208404Y-98104285D01*
X127008404Y-97332857D02*
X127008404Y-97675714D01*
X127008404Y-97504285D02*
X126208404Y-97504285D01*
X126322690Y-97561428D01*
X126398880Y-97618571D01*
X126436976Y-97675714D01*
X127008404Y-97047142D02*
X127008404Y-96932857D01*
X126970309Y-96875714D01*
X126932214Y-96847142D01*
X126817928Y-96790000D01*
X126665547Y-96761428D01*
X126360785Y-96761428D01*
X126284595Y-96790000D01*
X126246500Y-96818571D01*
X126208404Y-96875714D01*
X126208404Y-96990000D01*
X126246500Y-97047142D01*
X126284595Y-97075714D01*
X126360785Y-97104285D01*
X126551261Y-97104285D01*
X126627452Y-97075714D01*
X126665547Y-97047142D01*
X126703642Y-96990000D01*
X126703642Y-96875714D01*
X126665547Y-96818571D01*
X126627452Y-96790000D01*
X126551261Y-96761428D01*
D14*
X67024523Y-70278523D02*
X67119761Y-70373761D01*
X67310238Y-70373761D01*
X67405476Y-70278523D01*
X67453095Y-70088047D01*
X67453095Y-69992809D01*
X67405476Y-69802333D01*
X67310238Y-69707095D01*
X67167380Y-69707095D01*
X67072142Y-69611857D01*
X67024523Y-69421380D01*
X67024523Y-69326142D01*
X67072142Y-69135666D01*
X67167380Y-69040428D01*
X67310238Y-69040428D01*
X67405476Y-69135666D01*
X68310238Y-70278523D02*
X68215000Y-70373761D01*
X68024523Y-70373761D01*
X67929285Y-70278523D01*
X67881666Y-70183285D01*
X67834047Y-69992809D01*
X67834047Y-69421380D01*
X67881666Y-69230904D01*
X67929285Y-69135666D01*
X68024523Y-69040428D01*
X68215000Y-69040428D01*
X68310238Y-69135666D01*
X68881666Y-70373761D02*
X68786428Y-70278523D01*
X68738809Y-70088047D01*
X68738809Y-68373761D01*
X69405476Y-70373761D02*
X69310238Y-70278523D01*
X69262619Y-70183285D01*
X69215000Y-69992809D01*
X69215000Y-69421380D01*
X69262619Y-69230904D01*
X69310238Y-69135666D01*
X69405476Y-69040428D01*
X69548333Y-69040428D01*
X69643571Y-69135666D01*
X69691190Y-69230904D01*
X69738809Y-69421380D01*
X69738809Y-69992809D01*
X69691190Y-70183285D01*
X69643571Y-70278523D01*
X69548333Y-70373761D01*
X69405476Y-70373761D01*
X70595952Y-70278523D02*
X70500714Y-70373761D01*
X70310238Y-70373761D01*
X70215000Y-70278523D01*
X70167380Y-70183285D01*
X70119761Y-69992809D01*
X70119761Y-69421380D01*
X70167380Y-69230904D01*
X70215000Y-69135666D01*
X70310238Y-69040428D01*
X70500714Y-69040428D01*
X70595952Y-69135666D01*
X71024523Y-70373761D02*
X71024523Y-68373761D01*
X71119761Y-69611857D02*
X71405476Y-70373761D01*
X71405476Y-69040428D02*
X71024523Y-69802333D01*
D15*
X74077190Y-77358857D02*
X75601000Y-77358857D01*
D10*
X124460047Y-102493000D02*
X124412428Y-102469190D01*
X124341000Y-102469190D01*
X124269571Y-102493000D01*
X124221952Y-102540619D01*
X124198142Y-102588238D01*
X124174333Y-102683476D01*
X124174333Y-102754904D01*
X124198142Y-102850142D01*
X124221952Y-102897761D01*
X124269571Y-102945380D01*
X124341000Y-102969190D01*
X124388619Y-102969190D01*
X124460047Y-102945380D01*
X124483857Y-102921571D01*
X124483857Y-102754904D01*
X124388619Y-102754904D01*
X124698142Y-102969190D02*
X124698142Y-102469190D01*
X124983857Y-102969190D01*
X124983857Y-102469190D01*
X125221952Y-102969190D02*
X125221952Y-102469190D01*
X125341000Y-102469190D01*
X125412428Y-102493000D01*
X125460047Y-102540619D01*
X125483857Y-102588238D01*
X125507666Y-102683476D01*
X125507666Y-102754904D01*
X125483857Y-102850142D01*
X125460047Y-102897761D01*
X125412428Y-102945380D01*
X125341000Y-102969190D01*
X125221952Y-102969190D01*
D15*
X74077190Y-79390857D02*
X75601000Y-79390857D01*
X74839095Y-80152761D02*
X74839095Y-78628952D01*
D16*
G04 #@! TO.C,Y1*
X77249000Y-97196000D02*
X84549000Y-97196000D01*
X77249000Y-92796000D02*
X77249000Y-97196000D01*
G04 #@! TO.C,SW3*
X66024400Y-82142000D02*
X66024400Y-98142000D01*
X76224400Y-82142000D02*
X66024400Y-82142000D01*
X76224400Y-98142000D02*
X76224400Y-82142000D01*
X66024400Y-98142000D02*
X76224400Y-98142000D01*
G04 #@! TO.C,RTC*
X126171000Y-106342000D02*
X110811000Y-106342000D01*
X110811000Y-106342000D02*
X110811000Y-109002000D01*
X110811000Y-109002000D02*
X126171000Y-109002000D01*
X126171000Y-109002000D02*
X126171000Y-106342000D01*
X125221000Y-109002000D02*
X125221000Y-115002000D01*
X125221000Y-115002000D02*
X124461000Y-115002000D01*
X124461000Y-115002000D02*
X124461000Y-109002000D01*
X125161000Y-109002000D02*
X125161000Y-115002000D01*
X125041000Y-109002000D02*
X125041000Y-115002000D01*
X124921000Y-109002000D02*
X124921000Y-115002000D01*
X124801000Y-109002000D02*
X124801000Y-115002000D01*
X124681000Y-109002000D02*
X124681000Y-115002000D01*
X124561000Y-109002000D02*
X124561000Y-115002000D01*
X125221000Y-106012000D02*
X125221000Y-106342000D01*
X124461000Y-106012000D02*
X124461000Y-106342000D01*
X123571000Y-106342000D02*
X123571000Y-109002000D01*
X122681000Y-109002000D02*
X122681000Y-115002000D01*
X122681000Y-115002000D02*
X121921000Y-115002000D01*
X121921000Y-115002000D02*
X121921000Y-109002000D01*
X122681000Y-105944929D02*
X122681000Y-106342000D01*
X121921000Y-105944929D02*
X121921000Y-106342000D01*
X121031000Y-106342000D02*
X121031000Y-109002000D01*
X120141000Y-109002000D02*
X120141000Y-115002000D01*
X120141000Y-115002000D02*
X119381000Y-115002000D01*
X119381000Y-115002000D02*
X119381000Y-109002000D01*
X120141000Y-105944929D02*
X120141000Y-106342000D01*
X119381000Y-105944929D02*
X119381000Y-106342000D01*
X118491000Y-106342000D02*
X118491000Y-109002000D01*
X117601000Y-109002000D02*
X117601000Y-115002000D01*
X117601000Y-115002000D02*
X116841000Y-115002000D01*
X116841000Y-115002000D02*
X116841000Y-109002000D01*
X117601000Y-105944929D02*
X117601000Y-106342000D01*
X116841000Y-105944929D02*
X116841000Y-106342000D01*
X115951000Y-106342000D02*
X115951000Y-109002000D01*
X115061000Y-109002000D02*
X115061000Y-115002000D01*
X115061000Y-115002000D02*
X114301000Y-115002000D01*
X114301000Y-115002000D02*
X114301000Y-109002000D01*
X115061000Y-105944929D02*
X115061000Y-106342000D01*
X114301000Y-105944929D02*
X114301000Y-106342000D01*
X113411000Y-106342000D02*
X113411000Y-109002000D01*
X112521000Y-109002000D02*
X112521000Y-115002000D01*
X112521000Y-115002000D02*
X111761000Y-115002000D01*
X111761000Y-115002000D02*
X111761000Y-109002000D01*
X112521000Y-105944929D02*
X112521000Y-106342000D01*
X111761000Y-105944929D02*
X111761000Y-106342000D01*
X124841000Y-103632000D02*
X126111000Y-103632000D01*
X126111000Y-103632000D02*
X126111000Y-104902000D01*
G04 #@! TO.C,L1*
X75165000Y-65915000D02*
X75165000Y-62915000D01*
X75165000Y-62915000D02*
X87765000Y-62915000D01*
X87765000Y-62915000D02*
X87765000Y-65915000D01*
X87765000Y-72515000D02*
X87765000Y-75515000D01*
X87765000Y-75515000D02*
X75165000Y-75515000D01*
X75165000Y-75515000D02*
X75165000Y-72515000D01*
G04 #@! TO.C,C1*
X84380000Y-79881252D02*
X84380000Y-79358748D01*
X85800000Y-79881252D02*
X85800000Y-79358748D01*
G04 #@! TO.C,C2*
X98350000Y-79503748D02*
X98350000Y-80026252D01*
X99770000Y-79503748D02*
X99770000Y-80026252D01*
G04 #@! TO.C,C3*
X82630000Y-79740000D02*
G75*
G03X82630000Y-79740000I-2620000J0D01*
G01*
X78970000Y-79740000D02*
X77430000Y-79740000D01*
X82590000Y-79740000D02*
X81050000Y-79740000D01*
X78970000Y-79780000D02*
X77430000Y-79780000D01*
X82590000Y-79780000D02*
X81050000Y-79780000D01*
X82589000Y-79820000D02*
X81050000Y-79820000D01*
X78970000Y-79820000D02*
X77431000Y-79820000D01*
X82588000Y-79860000D02*
X81050000Y-79860000D01*
X78970000Y-79860000D02*
X77432000Y-79860000D01*
X82586000Y-79900000D02*
X81050000Y-79900000D01*
X78970000Y-79900000D02*
X77434000Y-79900000D01*
X82583000Y-79940000D02*
X81050000Y-79940000D01*
X78970000Y-79940000D02*
X77437000Y-79940000D01*
X82579000Y-79980000D02*
X81050000Y-79980000D01*
X78970000Y-79980000D02*
X77441000Y-79980000D01*
X82575000Y-80020000D02*
X81050000Y-80020000D01*
X78970000Y-80020000D02*
X77445000Y-80020000D01*
X82571000Y-80060000D02*
X81050000Y-80060000D01*
X78970000Y-80060000D02*
X77449000Y-80060000D01*
X82566000Y-80100000D02*
X81050000Y-80100000D01*
X78970000Y-80100000D02*
X77454000Y-80100000D01*
X82560000Y-80140000D02*
X81050000Y-80140000D01*
X78970000Y-80140000D02*
X77460000Y-80140000D01*
X82553000Y-80180000D02*
X81050000Y-80180000D01*
X78970000Y-80180000D02*
X77467000Y-80180000D01*
X82546000Y-80220000D02*
X81050000Y-80220000D01*
X78970000Y-80220000D02*
X77474000Y-80220000D01*
X82538000Y-80260000D02*
X81050000Y-80260000D01*
X78970000Y-80260000D02*
X77482000Y-80260000D01*
X82530000Y-80300000D02*
X81050000Y-80300000D01*
X78970000Y-80300000D02*
X77490000Y-80300000D01*
X82521000Y-80340000D02*
X81050000Y-80340000D01*
X78970000Y-80340000D02*
X77499000Y-80340000D01*
X82511000Y-80380000D02*
X81050000Y-80380000D01*
X78970000Y-80380000D02*
X77509000Y-80380000D01*
X82501000Y-80420000D02*
X81050000Y-80420000D01*
X78970000Y-80420000D02*
X77519000Y-80420000D01*
X82490000Y-80461000D02*
X81050000Y-80461000D01*
X78970000Y-80461000D02*
X77530000Y-80461000D01*
X82478000Y-80501000D02*
X81050000Y-80501000D01*
X78970000Y-80501000D02*
X77542000Y-80501000D01*
X82465000Y-80541000D02*
X81050000Y-80541000D01*
X78970000Y-80541000D02*
X77555000Y-80541000D01*
X82452000Y-80581000D02*
X81050000Y-80581000D01*
X78970000Y-80581000D02*
X77568000Y-80581000D01*
X82438000Y-80621000D02*
X81050000Y-80621000D01*
X78970000Y-80621000D02*
X77582000Y-80621000D01*
X82424000Y-80661000D02*
X81050000Y-80661000D01*
X78970000Y-80661000D02*
X77596000Y-80661000D01*
X82408000Y-80701000D02*
X81050000Y-80701000D01*
X78970000Y-80701000D02*
X77612000Y-80701000D01*
X82392000Y-80741000D02*
X81050000Y-80741000D01*
X78970000Y-80741000D02*
X77628000Y-80741000D01*
X82375000Y-80781000D02*
X81050000Y-80781000D01*
X78970000Y-80781000D02*
X77645000Y-80781000D01*
X82358000Y-80821000D02*
X81050000Y-80821000D01*
X78970000Y-80821000D02*
X77662000Y-80821000D01*
X82339000Y-80861000D02*
X81050000Y-80861000D01*
X78970000Y-80861000D02*
X77681000Y-80861000D01*
X82320000Y-80901000D02*
X81050000Y-80901000D01*
X78970000Y-80901000D02*
X77700000Y-80901000D01*
X82300000Y-80941000D02*
X81050000Y-80941000D01*
X78970000Y-80941000D02*
X77720000Y-80941000D01*
X82278000Y-80981000D02*
X81050000Y-80981000D01*
X78970000Y-80981000D02*
X77742000Y-80981000D01*
X82257000Y-81021000D02*
X81050000Y-81021000D01*
X78970000Y-81021000D02*
X77763000Y-81021000D01*
X82234000Y-81061000D02*
X81050000Y-81061000D01*
X78970000Y-81061000D02*
X77786000Y-81061000D01*
X82210000Y-81101000D02*
X81050000Y-81101000D01*
X78970000Y-81101000D02*
X77810000Y-81101000D01*
X82185000Y-81141000D02*
X81050000Y-81141000D01*
X78970000Y-81141000D02*
X77835000Y-81141000D01*
X82159000Y-81181000D02*
X81050000Y-81181000D01*
X78970000Y-81181000D02*
X77861000Y-81181000D01*
X82132000Y-81221000D02*
X81050000Y-81221000D01*
X78970000Y-81221000D02*
X77888000Y-81221000D01*
X82105000Y-81261000D02*
X81050000Y-81261000D01*
X78970000Y-81261000D02*
X77915000Y-81261000D01*
X82075000Y-81301000D02*
X81050000Y-81301000D01*
X78970000Y-81301000D02*
X77945000Y-81301000D01*
X82045000Y-81341000D02*
X81050000Y-81341000D01*
X78970000Y-81341000D02*
X77975000Y-81341000D01*
X82014000Y-81381000D02*
X81050000Y-81381000D01*
X78970000Y-81381000D02*
X78006000Y-81381000D01*
X81981000Y-81421000D02*
X81050000Y-81421000D01*
X78970000Y-81421000D02*
X78039000Y-81421000D01*
X81947000Y-81461000D02*
X81050000Y-81461000D01*
X78970000Y-81461000D02*
X78073000Y-81461000D01*
X81911000Y-81501000D02*
X81050000Y-81501000D01*
X78970000Y-81501000D02*
X78109000Y-81501000D01*
X81874000Y-81541000D02*
X81050000Y-81541000D01*
X78970000Y-81541000D02*
X78146000Y-81541000D01*
X81836000Y-81581000D02*
X81050000Y-81581000D01*
X78970000Y-81581000D02*
X78184000Y-81581000D01*
X81795000Y-81621000D02*
X81050000Y-81621000D01*
X78970000Y-81621000D02*
X78225000Y-81621000D01*
X81753000Y-81661000D02*
X81050000Y-81661000D01*
X78970000Y-81661000D02*
X78267000Y-81661000D01*
X81709000Y-81701000D02*
X81050000Y-81701000D01*
X78970000Y-81701000D02*
X78311000Y-81701000D01*
X81663000Y-81741000D02*
X81050000Y-81741000D01*
X78970000Y-81741000D02*
X78357000Y-81741000D01*
X81615000Y-81781000D02*
X78405000Y-81781000D01*
X81564000Y-81821000D02*
X78456000Y-81821000D01*
X81510000Y-81861000D02*
X78510000Y-81861000D01*
X81453000Y-81901000D02*
X78567000Y-81901000D01*
X81393000Y-81941000D02*
X78627000Y-81941000D01*
X81329000Y-81981000D02*
X78691000Y-81981000D01*
X81261000Y-82021000D02*
X78759000Y-82021000D01*
X81188000Y-82061000D02*
X78832000Y-82061000D01*
X81108000Y-82101000D02*
X78912000Y-82101000D01*
X81021000Y-82141000D02*
X78999000Y-82141000D01*
X80925000Y-82181000D02*
X79095000Y-82181000D01*
X80815000Y-82221000D02*
X79205000Y-82221000D01*
X80687000Y-82261000D02*
X79333000Y-82261000D01*
X80528000Y-82301000D02*
X79492000Y-82301000D01*
X80294000Y-82341000D02*
X79726000Y-82341000D01*
X81485000Y-76935225D02*
X81485000Y-77435225D01*
X81735000Y-77185225D02*
X81235000Y-77185225D01*
G04 #@! TO.C,C4*
X94598748Y-69140000D02*
X95121252Y-69140000D01*
X94598748Y-70560000D02*
X95121252Y-70560000D01*
G04 #@! TO.C,C5*
X91620000Y-66959775D02*
X92120000Y-66959775D01*
X91870000Y-67209775D02*
X91870000Y-66709775D01*
X93061000Y-61804000D02*
X93629000Y-61804000D01*
X92827000Y-61844000D02*
X93863000Y-61844000D01*
X92668000Y-61884000D02*
X94022000Y-61884000D01*
X92540000Y-61924000D02*
X94150000Y-61924000D01*
X92430000Y-61964000D02*
X94260000Y-61964000D01*
X92334000Y-62004000D02*
X94356000Y-62004000D01*
X92247000Y-62044000D02*
X94443000Y-62044000D01*
X92167000Y-62084000D02*
X94523000Y-62084000D01*
X92094000Y-62124000D02*
X94596000Y-62124000D01*
X92026000Y-62164000D02*
X94664000Y-62164000D01*
X91962000Y-62204000D02*
X94728000Y-62204000D01*
X91902000Y-62244000D02*
X94788000Y-62244000D01*
X91845000Y-62284000D02*
X94845000Y-62284000D01*
X91791000Y-62324000D02*
X94899000Y-62324000D01*
X91740000Y-62364000D02*
X94950000Y-62364000D01*
X94385000Y-62404000D02*
X94998000Y-62404000D01*
X91692000Y-62404000D02*
X92305000Y-62404000D01*
X94385000Y-62444000D02*
X95044000Y-62444000D01*
X91646000Y-62444000D02*
X92305000Y-62444000D01*
X94385000Y-62484000D02*
X95088000Y-62484000D01*
X91602000Y-62484000D02*
X92305000Y-62484000D01*
X94385000Y-62524000D02*
X95130000Y-62524000D01*
X91560000Y-62524000D02*
X92305000Y-62524000D01*
X94385000Y-62564000D02*
X95171000Y-62564000D01*
X91519000Y-62564000D02*
X92305000Y-62564000D01*
X94385000Y-62604000D02*
X95209000Y-62604000D01*
X91481000Y-62604000D02*
X92305000Y-62604000D01*
X94385000Y-62644000D02*
X95246000Y-62644000D01*
X91444000Y-62644000D02*
X92305000Y-62644000D01*
X94385000Y-62684000D02*
X95282000Y-62684000D01*
X91408000Y-62684000D02*
X92305000Y-62684000D01*
X94385000Y-62724000D02*
X95316000Y-62724000D01*
X91374000Y-62724000D02*
X92305000Y-62724000D01*
X94385000Y-62764000D02*
X95349000Y-62764000D01*
X91341000Y-62764000D02*
X92305000Y-62764000D01*
X94385000Y-62804000D02*
X95380000Y-62804000D01*
X91310000Y-62804000D02*
X92305000Y-62804000D01*
X94385000Y-62844000D02*
X95410000Y-62844000D01*
X91280000Y-62844000D02*
X92305000Y-62844000D01*
X94385000Y-62884000D02*
X95440000Y-62884000D01*
X91250000Y-62884000D02*
X92305000Y-62884000D01*
X94385000Y-62924000D02*
X95467000Y-62924000D01*
X91223000Y-62924000D02*
X92305000Y-62924000D01*
X94385000Y-62964000D02*
X95494000Y-62964000D01*
X91196000Y-62964000D02*
X92305000Y-62964000D01*
X94385000Y-63004000D02*
X95520000Y-63004000D01*
X91170000Y-63004000D02*
X92305000Y-63004000D01*
X94385000Y-63044000D02*
X95545000Y-63044000D01*
X91145000Y-63044000D02*
X92305000Y-63044000D01*
X94385000Y-63084000D02*
X95569000Y-63084000D01*
X91121000Y-63084000D02*
X92305000Y-63084000D01*
X94385000Y-63124000D02*
X95592000Y-63124000D01*
X91098000Y-63124000D02*
X92305000Y-63124000D01*
X94385000Y-63164000D02*
X95613000Y-63164000D01*
X91077000Y-63164000D02*
X92305000Y-63164000D01*
X94385000Y-63204000D02*
X95635000Y-63204000D01*
X91055000Y-63204000D02*
X92305000Y-63204000D01*
X94385000Y-63244000D02*
X95655000Y-63244000D01*
X91035000Y-63244000D02*
X92305000Y-63244000D01*
X94385000Y-63284000D02*
X95674000Y-63284000D01*
X91016000Y-63284000D02*
X92305000Y-63284000D01*
X94385000Y-63324000D02*
X95693000Y-63324000D01*
X90997000Y-63324000D02*
X92305000Y-63324000D01*
X94385000Y-63364000D02*
X95710000Y-63364000D01*
X90980000Y-63364000D02*
X92305000Y-63364000D01*
X94385000Y-63404000D02*
X95727000Y-63404000D01*
X90963000Y-63404000D02*
X92305000Y-63404000D01*
X94385000Y-63444000D02*
X95743000Y-63444000D01*
X90947000Y-63444000D02*
X92305000Y-63444000D01*
X94385000Y-63484000D02*
X95759000Y-63484000D01*
X90931000Y-63484000D02*
X92305000Y-63484000D01*
X94385000Y-63524000D02*
X95773000Y-63524000D01*
X90917000Y-63524000D02*
X92305000Y-63524000D01*
X94385000Y-63564000D02*
X95787000Y-63564000D01*
X90903000Y-63564000D02*
X92305000Y-63564000D01*
X94385000Y-63604000D02*
X95800000Y-63604000D01*
X90890000Y-63604000D02*
X92305000Y-63604000D01*
X94385000Y-63644000D02*
X95813000Y-63644000D01*
X90877000Y-63644000D02*
X92305000Y-63644000D01*
X94385000Y-63684000D02*
X95825000Y-63684000D01*
X90865000Y-63684000D02*
X92305000Y-63684000D01*
X94385000Y-63725000D02*
X95836000Y-63725000D01*
X90854000Y-63725000D02*
X92305000Y-63725000D01*
X94385000Y-63765000D02*
X95846000Y-63765000D01*
X90844000Y-63765000D02*
X92305000Y-63765000D01*
X94385000Y-63805000D02*
X95856000Y-63805000D01*
X90834000Y-63805000D02*
X92305000Y-63805000D01*
X94385000Y-63845000D02*
X95865000Y-63845000D01*
X90825000Y-63845000D02*
X92305000Y-63845000D01*
X94385000Y-63885000D02*
X95873000Y-63885000D01*
X90817000Y-63885000D02*
X92305000Y-63885000D01*
X94385000Y-63925000D02*
X95881000Y-63925000D01*
X90809000Y-63925000D02*
X92305000Y-63925000D01*
X94385000Y-63965000D02*
X95888000Y-63965000D01*
X90802000Y-63965000D02*
X92305000Y-63965000D01*
X94385000Y-64005000D02*
X95895000Y-64005000D01*
X90795000Y-64005000D02*
X92305000Y-64005000D01*
X94385000Y-64045000D02*
X95901000Y-64045000D01*
X90789000Y-64045000D02*
X92305000Y-64045000D01*
X94385000Y-64085000D02*
X95906000Y-64085000D01*
X90784000Y-64085000D02*
X92305000Y-64085000D01*
X94385000Y-64125000D02*
X95910000Y-64125000D01*
X90780000Y-64125000D02*
X92305000Y-64125000D01*
X94385000Y-64165000D02*
X95914000Y-64165000D01*
X90776000Y-64165000D02*
X92305000Y-64165000D01*
X94385000Y-64205000D02*
X95918000Y-64205000D01*
X90772000Y-64205000D02*
X92305000Y-64205000D01*
X94385000Y-64245000D02*
X95921000Y-64245000D01*
X90769000Y-64245000D02*
X92305000Y-64245000D01*
X94385000Y-64285000D02*
X95923000Y-64285000D01*
X90767000Y-64285000D02*
X92305000Y-64285000D01*
X94385000Y-64325000D02*
X95924000Y-64325000D01*
X90766000Y-64325000D02*
X92305000Y-64325000D01*
X90765000Y-64365000D02*
X92305000Y-64365000D01*
X94385000Y-64365000D02*
X95925000Y-64365000D01*
X90765000Y-64405000D02*
X92305000Y-64405000D01*
X94385000Y-64405000D02*
X95925000Y-64405000D01*
X95965000Y-64405000D02*
G75*
G03X95965000Y-64405000I-2620000J0D01*
G01*
G04 #@! TO.C,D1*
X94960000Y-75295000D02*
X94960000Y-73295000D01*
X94960000Y-73295000D02*
X91060000Y-73295000D01*
X94960000Y-75295000D02*
X91060000Y-75295000D01*
G04 #@! TO.C,R1*
X98163748Y-75005000D02*
X98686252Y-75005000D01*
X98163748Y-73585000D02*
X98686252Y-73585000D01*
G04 #@! TO.C,R2*
X99052748Y-69140000D02*
X99575252Y-69140000D01*
X99052748Y-70560000D02*
X99575252Y-70560000D01*
G04 #@! TO.C,U1*
X92075000Y-81935000D02*
X94025000Y-81935000D01*
X92075000Y-81935000D02*
X90125000Y-81935000D01*
X92075000Y-76815000D02*
X94025000Y-76815000D01*
X92075000Y-76815000D02*
X88625000Y-76815000D01*
G04 #@! TO.C,C6*
X82630000Y-86090000D02*
G75*
G03X82630000Y-86090000I-2620000J0D01*
G01*
X78970000Y-86090000D02*
X77430000Y-86090000D01*
X82590000Y-86090000D02*
X81050000Y-86090000D01*
X78970000Y-86130000D02*
X77430000Y-86130000D01*
X82590000Y-86130000D02*
X81050000Y-86130000D01*
X82589000Y-86170000D02*
X81050000Y-86170000D01*
X78970000Y-86170000D02*
X77431000Y-86170000D01*
X82588000Y-86210000D02*
X81050000Y-86210000D01*
X78970000Y-86210000D02*
X77432000Y-86210000D01*
X82586000Y-86250000D02*
X81050000Y-86250000D01*
X78970000Y-86250000D02*
X77434000Y-86250000D01*
X82583000Y-86290000D02*
X81050000Y-86290000D01*
X78970000Y-86290000D02*
X77437000Y-86290000D01*
X82579000Y-86330000D02*
X81050000Y-86330000D01*
X78970000Y-86330000D02*
X77441000Y-86330000D01*
X82575000Y-86370000D02*
X81050000Y-86370000D01*
X78970000Y-86370000D02*
X77445000Y-86370000D01*
X82571000Y-86410000D02*
X81050000Y-86410000D01*
X78970000Y-86410000D02*
X77449000Y-86410000D01*
X82566000Y-86450000D02*
X81050000Y-86450000D01*
X78970000Y-86450000D02*
X77454000Y-86450000D01*
X82560000Y-86490000D02*
X81050000Y-86490000D01*
X78970000Y-86490000D02*
X77460000Y-86490000D01*
X82553000Y-86530000D02*
X81050000Y-86530000D01*
X78970000Y-86530000D02*
X77467000Y-86530000D01*
X82546000Y-86570000D02*
X81050000Y-86570000D01*
X78970000Y-86570000D02*
X77474000Y-86570000D01*
X82538000Y-86610000D02*
X81050000Y-86610000D01*
X78970000Y-86610000D02*
X77482000Y-86610000D01*
X82530000Y-86650000D02*
X81050000Y-86650000D01*
X78970000Y-86650000D02*
X77490000Y-86650000D01*
X82521000Y-86690000D02*
X81050000Y-86690000D01*
X78970000Y-86690000D02*
X77499000Y-86690000D01*
X82511000Y-86730000D02*
X81050000Y-86730000D01*
X78970000Y-86730000D02*
X77509000Y-86730000D01*
X82501000Y-86770000D02*
X81050000Y-86770000D01*
X78970000Y-86770000D02*
X77519000Y-86770000D01*
X82490000Y-86811000D02*
X81050000Y-86811000D01*
X78970000Y-86811000D02*
X77530000Y-86811000D01*
X82478000Y-86851000D02*
X81050000Y-86851000D01*
X78970000Y-86851000D02*
X77542000Y-86851000D01*
X82465000Y-86891000D02*
X81050000Y-86891000D01*
X78970000Y-86891000D02*
X77555000Y-86891000D01*
X82452000Y-86931000D02*
X81050000Y-86931000D01*
X78970000Y-86931000D02*
X77568000Y-86931000D01*
X82438000Y-86971000D02*
X81050000Y-86971000D01*
X78970000Y-86971000D02*
X77582000Y-86971000D01*
X82424000Y-87011000D02*
X81050000Y-87011000D01*
X78970000Y-87011000D02*
X77596000Y-87011000D01*
X82408000Y-87051000D02*
X81050000Y-87051000D01*
X78970000Y-87051000D02*
X77612000Y-87051000D01*
X82392000Y-87091000D02*
X81050000Y-87091000D01*
X78970000Y-87091000D02*
X77628000Y-87091000D01*
X82375000Y-87131000D02*
X81050000Y-87131000D01*
X78970000Y-87131000D02*
X77645000Y-87131000D01*
X82358000Y-87171000D02*
X81050000Y-87171000D01*
X78970000Y-87171000D02*
X77662000Y-87171000D01*
X82339000Y-87211000D02*
X81050000Y-87211000D01*
X78970000Y-87211000D02*
X77681000Y-87211000D01*
X82320000Y-87251000D02*
X81050000Y-87251000D01*
X78970000Y-87251000D02*
X77700000Y-87251000D01*
X82300000Y-87291000D02*
X81050000Y-87291000D01*
X78970000Y-87291000D02*
X77720000Y-87291000D01*
X82278000Y-87331000D02*
X81050000Y-87331000D01*
X78970000Y-87331000D02*
X77742000Y-87331000D01*
X82257000Y-87371000D02*
X81050000Y-87371000D01*
X78970000Y-87371000D02*
X77763000Y-87371000D01*
X82234000Y-87411000D02*
X81050000Y-87411000D01*
X78970000Y-87411000D02*
X77786000Y-87411000D01*
X82210000Y-87451000D02*
X81050000Y-87451000D01*
X78970000Y-87451000D02*
X77810000Y-87451000D01*
X82185000Y-87491000D02*
X81050000Y-87491000D01*
X78970000Y-87491000D02*
X77835000Y-87491000D01*
X82159000Y-87531000D02*
X81050000Y-87531000D01*
X78970000Y-87531000D02*
X77861000Y-87531000D01*
X82132000Y-87571000D02*
X81050000Y-87571000D01*
X78970000Y-87571000D02*
X77888000Y-87571000D01*
X82105000Y-87611000D02*
X81050000Y-87611000D01*
X78970000Y-87611000D02*
X77915000Y-87611000D01*
X82075000Y-87651000D02*
X81050000Y-87651000D01*
X78970000Y-87651000D02*
X77945000Y-87651000D01*
X82045000Y-87691000D02*
X81050000Y-87691000D01*
X78970000Y-87691000D02*
X77975000Y-87691000D01*
X82014000Y-87731000D02*
X81050000Y-87731000D01*
X78970000Y-87731000D02*
X78006000Y-87731000D01*
X81981000Y-87771000D02*
X81050000Y-87771000D01*
X78970000Y-87771000D02*
X78039000Y-87771000D01*
X81947000Y-87811000D02*
X81050000Y-87811000D01*
X78970000Y-87811000D02*
X78073000Y-87811000D01*
X81911000Y-87851000D02*
X81050000Y-87851000D01*
X78970000Y-87851000D02*
X78109000Y-87851000D01*
X81874000Y-87891000D02*
X81050000Y-87891000D01*
X78970000Y-87891000D02*
X78146000Y-87891000D01*
X81836000Y-87931000D02*
X81050000Y-87931000D01*
X78970000Y-87931000D02*
X78184000Y-87931000D01*
X81795000Y-87971000D02*
X81050000Y-87971000D01*
X78970000Y-87971000D02*
X78225000Y-87971000D01*
X81753000Y-88011000D02*
X81050000Y-88011000D01*
X78970000Y-88011000D02*
X78267000Y-88011000D01*
X81709000Y-88051000D02*
X81050000Y-88051000D01*
X78970000Y-88051000D02*
X78311000Y-88051000D01*
X81663000Y-88091000D02*
X81050000Y-88091000D01*
X78970000Y-88091000D02*
X78357000Y-88091000D01*
X81615000Y-88131000D02*
X78405000Y-88131000D01*
X81564000Y-88171000D02*
X78456000Y-88171000D01*
X81510000Y-88211000D02*
X78510000Y-88211000D01*
X81453000Y-88251000D02*
X78567000Y-88251000D01*
X81393000Y-88291000D02*
X78627000Y-88291000D01*
X81329000Y-88331000D02*
X78691000Y-88331000D01*
X81261000Y-88371000D02*
X78759000Y-88371000D01*
X81188000Y-88411000D02*
X78832000Y-88411000D01*
X81108000Y-88451000D02*
X78912000Y-88451000D01*
X81021000Y-88491000D02*
X78999000Y-88491000D01*
X80925000Y-88531000D02*
X79095000Y-88531000D01*
X80815000Y-88571000D02*
X79205000Y-88571000D01*
X80687000Y-88611000D02*
X79333000Y-88611000D01*
X80528000Y-88651000D02*
X79492000Y-88651000D01*
X80294000Y-88691000D02*
X79726000Y-88691000D01*
X81485000Y-83285225D02*
X81485000Y-83785225D01*
X81735000Y-83535225D02*
X81235000Y-83535225D01*
G04 #@! TO.C,C7*
X98245000Y-83535225D02*
X97745000Y-83535225D01*
X97995000Y-83285225D02*
X97995000Y-83785225D01*
X96804000Y-88691000D02*
X96236000Y-88691000D01*
X97038000Y-88651000D02*
X96002000Y-88651000D01*
X97197000Y-88611000D02*
X95843000Y-88611000D01*
X97325000Y-88571000D02*
X95715000Y-88571000D01*
X97435000Y-88531000D02*
X95605000Y-88531000D01*
X97531000Y-88491000D02*
X95509000Y-88491000D01*
X97618000Y-88451000D02*
X95422000Y-88451000D01*
X97698000Y-88411000D02*
X95342000Y-88411000D01*
X97771000Y-88371000D02*
X95269000Y-88371000D01*
X97839000Y-88331000D02*
X95201000Y-88331000D01*
X97903000Y-88291000D02*
X95137000Y-88291000D01*
X97963000Y-88251000D02*
X95077000Y-88251000D01*
X98020000Y-88211000D02*
X95020000Y-88211000D01*
X98074000Y-88171000D02*
X94966000Y-88171000D01*
X98125000Y-88131000D02*
X94915000Y-88131000D01*
X95480000Y-88091000D02*
X94867000Y-88091000D01*
X98173000Y-88091000D02*
X97560000Y-88091000D01*
X95480000Y-88051000D02*
X94821000Y-88051000D01*
X98219000Y-88051000D02*
X97560000Y-88051000D01*
X95480000Y-88011000D02*
X94777000Y-88011000D01*
X98263000Y-88011000D02*
X97560000Y-88011000D01*
X95480000Y-87971000D02*
X94735000Y-87971000D01*
X98305000Y-87971000D02*
X97560000Y-87971000D01*
X95480000Y-87931000D02*
X94694000Y-87931000D01*
X98346000Y-87931000D02*
X97560000Y-87931000D01*
X95480000Y-87891000D02*
X94656000Y-87891000D01*
X98384000Y-87891000D02*
X97560000Y-87891000D01*
X95480000Y-87851000D02*
X94619000Y-87851000D01*
X98421000Y-87851000D02*
X97560000Y-87851000D01*
X95480000Y-87811000D02*
X94583000Y-87811000D01*
X98457000Y-87811000D02*
X97560000Y-87811000D01*
X95480000Y-87771000D02*
X94549000Y-87771000D01*
X98491000Y-87771000D02*
X97560000Y-87771000D01*
X95480000Y-87731000D02*
X94516000Y-87731000D01*
X98524000Y-87731000D02*
X97560000Y-87731000D01*
X95480000Y-87691000D02*
X94485000Y-87691000D01*
X98555000Y-87691000D02*
X97560000Y-87691000D01*
X95480000Y-87651000D02*
X94455000Y-87651000D01*
X98585000Y-87651000D02*
X97560000Y-87651000D01*
X95480000Y-87611000D02*
X94425000Y-87611000D01*
X98615000Y-87611000D02*
X97560000Y-87611000D01*
X95480000Y-87571000D02*
X94398000Y-87571000D01*
X98642000Y-87571000D02*
X97560000Y-87571000D01*
X95480000Y-87531000D02*
X94371000Y-87531000D01*
X98669000Y-87531000D02*
X97560000Y-87531000D01*
X95480000Y-87491000D02*
X94345000Y-87491000D01*
X98695000Y-87491000D02*
X97560000Y-87491000D01*
X95480000Y-87451000D02*
X94320000Y-87451000D01*
X98720000Y-87451000D02*
X97560000Y-87451000D01*
X95480000Y-87411000D02*
X94296000Y-87411000D01*
X98744000Y-87411000D02*
X97560000Y-87411000D01*
X95480000Y-87371000D02*
X94273000Y-87371000D01*
X98767000Y-87371000D02*
X97560000Y-87371000D01*
X95480000Y-87331000D02*
X94252000Y-87331000D01*
X98788000Y-87331000D02*
X97560000Y-87331000D01*
X95480000Y-87291000D02*
X94230000Y-87291000D01*
X98810000Y-87291000D02*
X97560000Y-87291000D01*
X95480000Y-87251000D02*
X94210000Y-87251000D01*
X98830000Y-87251000D02*
X97560000Y-87251000D01*
X95480000Y-87211000D02*
X94191000Y-87211000D01*
X98849000Y-87211000D02*
X97560000Y-87211000D01*
X95480000Y-87171000D02*
X94172000Y-87171000D01*
X98868000Y-87171000D02*
X97560000Y-87171000D01*
X95480000Y-87131000D02*
X94155000Y-87131000D01*
X98885000Y-87131000D02*
X97560000Y-87131000D01*
X95480000Y-87091000D02*
X94138000Y-87091000D01*
X98902000Y-87091000D02*
X97560000Y-87091000D01*
X95480000Y-87051000D02*
X94122000Y-87051000D01*
X98918000Y-87051000D02*
X97560000Y-87051000D01*
X95480000Y-87011000D02*
X94106000Y-87011000D01*
X98934000Y-87011000D02*
X97560000Y-87011000D01*
X95480000Y-86971000D02*
X94092000Y-86971000D01*
X98948000Y-86971000D02*
X97560000Y-86971000D01*
X95480000Y-86931000D02*
X94078000Y-86931000D01*
X98962000Y-86931000D02*
X97560000Y-86931000D01*
X95480000Y-86891000D02*
X94065000Y-86891000D01*
X98975000Y-86891000D02*
X97560000Y-86891000D01*
X95480000Y-86851000D02*
X94052000Y-86851000D01*
X98988000Y-86851000D02*
X97560000Y-86851000D01*
X95480000Y-86811000D02*
X94040000Y-86811000D01*
X99000000Y-86811000D02*
X97560000Y-86811000D01*
X95480000Y-86770000D02*
X94029000Y-86770000D01*
X99011000Y-86770000D02*
X97560000Y-86770000D01*
X95480000Y-86730000D02*
X94019000Y-86730000D01*
X99021000Y-86730000D02*
X97560000Y-86730000D01*
X95480000Y-86690000D02*
X94009000Y-86690000D01*
X99031000Y-86690000D02*
X97560000Y-86690000D01*
X95480000Y-86650000D02*
X94000000Y-86650000D01*
X99040000Y-86650000D02*
X97560000Y-86650000D01*
X95480000Y-86610000D02*
X93992000Y-86610000D01*
X99048000Y-86610000D02*
X97560000Y-86610000D01*
X95480000Y-86570000D02*
X93984000Y-86570000D01*
X99056000Y-86570000D02*
X97560000Y-86570000D01*
X95480000Y-86530000D02*
X93977000Y-86530000D01*
X99063000Y-86530000D02*
X97560000Y-86530000D01*
X95480000Y-86490000D02*
X93970000Y-86490000D01*
X99070000Y-86490000D02*
X97560000Y-86490000D01*
X95480000Y-86450000D02*
X93964000Y-86450000D01*
X99076000Y-86450000D02*
X97560000Y-86450000D01*
X95480000Y-86410000D02*
X93959000Y-86410000D01*
X99081000Y-86410000D02*
X97560000Y-86410000D01*
X95480000Y-86370000D02*
X93955000Y-86370000D01*
X99085000Y-86370000D02*
X97560000Y-86370000D01*
X95480000Y-86330000D02*
X93951000Y-86330000D01*
X99089000Y-86330000D02*
X97560000Y-86330000D01*
X95480000Y-86290000D02*
X93947000Y-86290000D01*
X99093000Y-86290000D02*
X97560000Y-86290000D01*
X95480000Y-86250000D02*
X93944000Y-86250000D01*
X99096000Y-86250000D02*
X97560000Y-86250000D01*
X95480000Y-86210000D02*
X93942000Y-86210000D01*
X99098000Y-86210000D02*
X97560000Y-86210000D01*
X95480000Y-86170000D02*
X93941000Y-86170000D01*
X99099000Y-86170000D02*
X97560000Y-86170000D01*
X99100000Y-86130000D02*
X97560000Y-86130000D01*
X95480000Y-86130000D02*
X93940000Y-86130000D01*
X99100000Y-86090000D02*
X97560000Y-86090000D01*
X95480000Y-86090000D02*
X93940000Y-86090000D01*
X99140000Y-86090000D02*
G75*
G03X99140000Y-86090000I-2620000J0D01*
G01*
G04 #@! TO.C,C8*
X111835000Y-88248748D02*
X111835000Y-88771252D01*
X110415000Y-88248748D02*
X110415000Y-88771252D01*
G04 #@! TO.C,C9*
X87383252Y-96214000D02*
X86860748Y-96214000D01*
X87383252Y-94794000D02*
X86860748Y-94794000D01*
G04 #@! TO.C,C10*
X91559748Y-96214000D02*
X92082252Y-96214000D01*
X91559748Y-94794000D02*
X92082252Y-94794000D01*
G04 #@! TO.C,D2*
X103798000Y-81430000D02*
X103798000Y-83670000D01*
X103798000Y-83670000D02*
X108038000Y-83670000D01*
X108038000Y-83670000D02*
X108038000Y-81430000D01*
X108038000Y-81430000D02*
X103798000Y-81430000D01*
X103148000Y-82550000D02*
X103798000Y-82550000D01*
X108688000Y-82550000D02*
X108038000Y-82550000D01*
X104518000Y-81430000D02*
X104518000Y-83670000D01*
X104638000Y-81430000D02*
X104638000Y-83670000D01*
X104398000Y-81430000D02*
X104398000Y-83670000D01*
G04 #@! TO.C,D3*
X113958000Y-81430000D02*
X113958000Y-83670000D01*
X113958000Y-83670000D02*
X118198000Y-83670000D01*
X118198000Y-83670000D02*
X118198000Y-81430000D01*
X118198000Y-81430000D02*
X113958000Y-81430000D01*
X113308000Y-82550000D02*
X113958000Y-82550000D01*
X118848000Y-82550000D02*
X118198000Y-82550000D01*
X114678000Y-81430000D02*
X114678000Y-83670000D01*
X114798000Y-81430000D02*
X114798000Y-83670000D01*
X114558000Y-81430000D02*
X114558000Y-83670000D01*
G04 #@! TO.C,D4*
X104398000Y-63650000D02*
X104398000Y-65890000D01*
X104638000Y-63650000D02*
X104638000Y-65890000D01*
X104518000Y-63650000D02*
X104518000Y-65890000D01*
X108688000Y-64770000D02*
X108038000Y-64770000D01*
X103148000Y-64770000D02*
X103798000Y-64770000D01*
X108038000Y-63650000D02*
X103798000Y-63650000D01*
X108038000Y-65890000D02*
X108038000Y-63650000D01*
X103798000Y-65890000D02*
X108038000Y-65890000D01*
X103798000Y-63650000D02*
X103798000Y-65890000D01*
G04 #@! TO.C,D5*
X114558000Y-63650000D02*
X114558000Y-65890000D01*
X114798000Y-63650000D02*
X114798000Y-65890000D01*
X114678000Y-63650000D02*
X114678000Y-65890000D01*
X118848000Y-64770000D02*
X118198000Y-64770000D01*
X113308000Y-64770000D02*
X113958000Y-64770000D01*
X118198000Y-63650000D02*
X113958000Y-63650000D01*
X118198000Y-65890000D02*
X118198000Y-63650000D01*
X113958000Y-65890000D02*
X118198000Y-65890000D01*
X113958000Y-63650000D02*
X113958000Y-65890000D01*
G04 #@! TO.C,CLOCK*
X127979000Y-77838000D02*
X127979000Y-76338000D01*
X126239000Y-77838000D02*
X127979000Y-77838000D01*
X120619000Y-69778000D02*
X127739000Y-69778000D01*
X120619000Y-77598000D02*
X127739000Y-77598000D01*
X127739000Y-77598000D02*
X127739000Y-69778000D01*
X120619000Y-77598000D02*
X120619000Y-69778000D01*
X126179000Y-77598000D02*
X126179000Y-69778000D01*
X125634000Y-71938000D02*
G75*
G03X125634000Y-71938000I-1555000J0D01*
G01*
X125634492Y-75410989D02*
G75*
G02X125511000Y-76046000I-1555492J-27011D01*
G01*
X124686742Y-76870109D02*
G75*
G02X123471000Y-76870000I-607742J1432109D01*
G01*
X122646891Y-76045742D02*
G75*
G02X122647000Y-74830000I1432109J607742D01*
G01*
X123471258Y-74005891D02*
G75*
G02X124687000Y-74006000I607742J-1432109D01*
G01*
X125510385Y-74830413D02*
G75*
G02X125634000Y-75438000I-1431385J-607587D01*
G01*
G04 #@! TO.C,UART*
X124654000Y-94675000D02*
X127314000Y-94675000D01*
X124654000Y-81915000D02*
X124654000Y-94675000D01*
X127314000Y-81915000D02*
X127314000Y-94675000D01*
X124654000Y-81915000D02*
X127314000Y-81915000D01*
X124654000Y-80645000D02*
X124654000Y-79315000D01*
X124654000Y-79315000D02*
X125984000Y-79315000D01*
G04 #@! TO.C,BATT*
X68164615Y-75918587D02*
G75*
G02X68041000Y-75311000I1431385J607587D01*
G01*
X70203742Y-76743109D02*
G75*
G02X68988000Y-76743000I-607742J1432109D01*
G01*
X71028109Y-74703258D02*
G75*
G02X71028000Y-75919000I-1432109J-607742D01*
G01*
X68988258Y-73878891D02*
G75*
G02X70204000Y-73879000I607742J-1432109D01*
G01*
X68040508Y-75338011D02*
G75*
G02X68164000Y-74703000I1555492J27011D01*
G01*
X71151000Y-78811000D02*
G75*
G03X71151000Y-78811000I-1555000J0D01*
G01*
X67496000Y-73151000D02*
X67496000Y-80971000D01*
X73056000Y-73151000D02*
X73056000Y-80971000D01*
X65936000Y-73151000D02*
X65936000Y-80971000D01*
X73056000Y-73151000D02*
X65936000Y-73151000D01*
X73056000Y-80971000D02*
X65936000Y-80971000D01*
X67436000Y-72911000D02*
X65696000Y-72911000D01*
X65696000Y-72911000D02*
X65696000Y-74411000D01*
G04 #@! TO.C,Q1*
X104079522Y-85791522D02*
G75*
G03X105918000Y-90230000I1838478J-1838478D01*
G01*
X107756478Y-85791522D02*
G75*
G02X105918000Y-90230000I-1838478J-1838478D01*
G01*
X107718000Y-85780000D02*
X104118000Y-85780000D01*
G04 #@! TO.C,Q2*
X114239522Y-85791522D02*
G75*
G03X116078000Y-90230000I1838478J-1838478D01*
G01*
X117916478Y-85791522D02*
G75*
G02X116078000Y-90230000I-1838478J-1838478D01*
G01*
X117878000Y-85780000D02*
X114278000Y-85780000D01*
G04 #@! TO.C,Q3*
X117878000Y-74985000D02*
X114278000Y-74985000D01*
X117916478Y-74996522D02*
G75*
G02X116078000Y-79435000I-1838478J-1838478D01*
G01*
X114239522Y-74996522D02*
G75*
G03X116078000Y-79435000I1838478J-1838478D01*
G01*
G04 #@! TO.C,Q4*
X107756478Y-79308478D02*
G75*
G03X105918000Y-74870000I-1838478J1838478D01*
G01*
X104079522Y-79308478D02*
G75*
G02X105918000Y-74870000I1838478J1838478D01*
G01*
X104118000Y-79320000D02*
X107718000Y-79320000D01*
G04 #@! TO.C,Q5*
X117878000Y-68000000D02*
X114278000Y-68000000D01*
X117916478Y-68011522D02*
G75*
G02X116078000Y-72450000I-1838478J-1838478D01*
G01*
X114239522Y-68011522D02*
G75*
G03X116078000Y-72450000I1838478J-1838478D01*
G01*
G04 #@! TO.C,Q6*
X104118000Y-72335000D02*
X107718000Y-72335000D01*
X104079522Y-72323478D02*
G75*
G02X105918000Y-67885000I1838478J1838478D01*
G01*
X107756478Y-72323478D02*
G75*
G03X105918000Y-67885000I-1838478J1838478D01*
G01*
G04 #@! TO.C,R3*
X99076252Y-97230000D02*
X98553748Y-97230000D01*
X99076252Y-95810000D02*
X98553748Y-95810000D01*
G04 #@! TO.C,R4*
X100913000Y-92194748D02*
X100913000Y-92717252D01*
X99493000Y-92194748D02*
X99493000Y-92717252D01*
G04 #@! TO.C,R5*
X121268748Y-85650000D02*
X121791252Y-85650000D01*
X121268748Y-87070000D02*
X121791252Y-87070000D01*
G04 #@! TO.C,R6*
X96445000Y-92194748D02*
X96445000Y-92717252D01*
X97865000Y-92194748D02*
X97865000Y-92717252D01*
G04 #@! TO.C,R7*
X121413748Y-89610000D02*
X121936252Y-89610000D01*
X121413748Y-88190000D02*
X121936252Y-88190000D01*
G04 #@! TO.C,R8*
X110288000Y-70356252D02*
X110288000Y-69833748D01*
X111708000Y-70356252D02*
X111708000Y-69833748D01*
G04 #@! TO.C,R9*
X111708000Y-77486252D02*
X111708000Y-76963748D01*
X110288000Y-77486252D02*
X110288000Y-76963748D01*
G04 #@! TO.C,R10*
X105393748Y-108025000D02*
X105916252Y-108025000D01*
X105393748Y-106605000D02*
X105916252Y-106605000D01*
G04 #@! TO.C,R11*
X105393748Y-102795000D02*
X105916252Y-102795000D01*
X105393748Y-104215000D02*
X105916252Y-104215000D01*
G04 #@! TO.C,SW1*
X110890000Y-97615000D02*
X110890000Y-96115000D01*
X109640000Y-93615000D02*
X105140000Y-93615000D01*
X103890000Y-96115000D02*
X103890000Y-97615000D01*
X105140000Y-100115000D02*
X109640000Y-100115000D01*
G04 #@! TO.C,SW2*
X115935000Y-100115000D02*
X120435000Y-100115000D01*
X114685000Y-96115000D02*
X114685000Y-97615000D01*
X120435000Y-93615000D02*
X115935000Y-93615000D01*
X121685000Y-97615000D02*
X121685000Y-96115000D01*
G04 #@! TO.C,U2*
X88265000Y-89555000D02*
X90215000Y-89555000D01*
X88265000Y-89555000D02*
X86315000Y-89555000D01*
X88265000Y-84435000D02*
X90215000Y-84435000D01*
X88265000Y-84435000D02*
X84815000Y-84435000D01*
G04 #@! TO.C,U3*
X101660000Y-104505000D02*
G75*
G02X101660000Y-102505000I0J1000000D01*
G01*
X101660000Y-102505000D02*
X101660000Y-100855000D01*
X101660000Y-100855000D02*
X65980000Y-100855000D01*
X65980000Y-100855000D02*
X65980000Y-106155000D01*
X65980000Y-106155000D02*
X101660000Y-106155000D01*
X101660000Y-106155000D02*
X101660000Y-104505000D01*
G04 #@! TD*
G04 #@! TO.C,Y1*
D12*
X80422809Y-91972190D02*
X80422809Y-92448380D01*
X80089476Y-91448380D02*
X80422809Y-91972190D01*
X80756142Y-91448380D01*
X81613285Y-92448380D02*
X81041857Y-92448380D01*
X81327571Y-92448380D02*
X81327571Y-91448380D01*
X81232333Y-91591238D01*
X81137095Y-91686476D01*
X81041857Y-91734095D01*
G04 #@! TO.C,SW3*
X69431066Y-97686761D02*
X69573923Y-97734380D01*
X69812019Y-97734380D01*
X69907257Y-97686761D01*
X69954876Y-97639142D01*
X70002495Y-97543904D01*
X70002495Y-97448666D01*
X69954876Y-97353428D01*
X69907257Y-97305809D01*
X69812019Y-97258190D01*
X69621542Y-97210571D01*
X69526304Y-97162952D01*
X69478685Y-97115333D01*
X69431066Y-97020095D01*
X69431066Y-96924857D01*
X69478685Y-96829619D01*
X69526304Y-96782000D01*
X69621542Y-96734380D01*
X69859638Y-96734380D01*
X70002495Y-96782000D01*
X70335828Y-96734380D02*
X70573923Y-97734380D01*
X70764400Y-97020095D01*
X70954876Y-97734380D01*
X71192971Y-96734380D01*
X71478685Y-96734380D02*
X72097733Y-96734380D01*
X71764400Y-97115333D01*
X71907257Y-97115333D01*
X72002495Y-97162952D01*
X72050114Y-97210571D01*
X72097733Y-97305809D01*
X72097733Y-97543904D01*
X72050114Y-97639142D01*
X72002495Y-97686761D01*
X71907257Y-97734380D01*
X71621542Y-97734380D01*
X71526304Y-97686761D01*
X71478685Y-97639142D01*
G04 #@! TO.C,REF\002A\002A*
X123126666Y-61022380D02*
X122793333Y-60546190D01*
X122555238Y-61022380D02*
X122555238Y-60022380D01*
X122936190Y-60022380D01*
X123031428Y-60070000D01*
X123079047Y-60117619D01*
X123126666Y-60212857D01*
X123126666Y-60355714D01*
X123079047Y-60450952D01*
X123031428Y-60498571D01*
X122936190Y-60546190D01*
X122555238Y-60546190D01*
X123555238Y-60498571D02*
X123888571Y-60498571D01*
X124031428Y-61022380D02*
X123555238Y-61022380D01*
X123555238Y-60022380D01*
X124031428Y-60022380D01*
X124793333Y-60498571D02*
X124460000Y-60498571D01*
X124460000Y-61022380D02*
X124460000Y-60022380D01*
X124936190Y-60022380D01*
X125460000Y-60022380D02*
X125460000Y-60260476D01*
X125221904Y-60165238D02*
X125460000Y-60260476D01*
X125698095Y-60165238D01*
X125317142Y-60450952D02*
X125460000Y-60260476D01*
X125602857Y-60450952D01*
X126221904Y-60022380D02*
X126221904Y-60260476D01*
X125983809Y-60165238D02*
X126221904Y-60260476D01*
X126460000Y-60165238D01*
X126079047Y-60450952D02*
X126221904Y-60260476D01*
X126364761Y-60450952D01*
X67881666Y-61022380D02*
X67548333Y-60546190D01*
X67310238Y-61022380D02*
X67310238Y-60022380D01*
X67691190Y-60022380D01*
X67786428Y-60070000D01*
X67834047Y-60117619D01*
X67881666Y-60212857D01*
X67881666Y-60355714D01*
X67834047Y-60450952D01*
X67786428Y-60498571D01*
X67691190Y-60546190D01*
X67310238Y-60546190D01*
X68310238Y-60498571D02*
X68643571Y-60498571D01*
X68786428Y-61022380D02*
X68310238Y-61022380D01*
X68310238Y-60022380D01*
X68786428Y-60022380D01*
X69548333Y-60498571D02*
X69215000Y-60498571D01*
X69215000Y-61022380D02*
X69215000Y-60022380D01*
X69691190Y-60022380D01*
X70215000Y-60022380D02*
X70215000Y-60260476D01*
X69976904Y-60165238D02*
X70215000Y-60260476D01*
X70453095Y-60165238D01*
X70072142Y-60450952D02*
X70215000Y-60260476D01*
X70357857Y-60450952D01*
X70976904Y-60022380D02*
X70976904Y-60260476D01*
X70738809Y-60165238D02*
X70976904Y-60260476D01*
X71215000Y-60165238D01*
X70834047Y-60450952D02*
X70976904Y-60260476D01*
X71119761Y-60450952D01*
G04 #@! TO.C,RTC*
X124269571Y-101671380D02*
X123936238Y-101195190D01*
X123698142Y-101671380D02*
X123698142Y-100671380D01*
X124079095Y-100671380D01*
X124174333Y-100719000D01*
X124221952Y-100766619D01*
X124269571Y-100861857D01*
X124269571Y-101004714D01*
X124221952Y-101099952D01*
X124174333Y-101147571D01*
X124079095Y-101195190D01*
X123698142Y-101195190D01*
X124555285Y-100671380D02*
X125126714Y-100671380D01*
X124841000Y-101671380D02*
X124841000Y-100671380D01*
X126031476Y-101576142D02*
X125983857Y-101623761D01*
X125841000Y-101671380D01*
X125745761Y-101671380D01*
X125602904Y-101623761D01*
X125507666Y-101528523D01*
X125460047Y-101433285D01*
X125412428Y-101242809D01*
X125412428Y-101099952D01*
X125460047Y-100909476D01*
X125507666Y-100814238D01*
X125602904Y-100719000D01*
X125745761Y-100671380D01*
X125841000Y-100671380D01*
X125983857Y-100719000D01*
X126031476Y-100766619D01*
G04 #@! TO.C,L1*
X81298333Y-62467380D02*
X80822142Y-62467380D01*
X80822142Y-61467380D01*
X82155476Y-62467380D02*
X81584047Y-62467380D01*
X81869761Y-62467380D02*
X81869761Y-61467380D01*
X81774523Y-61610238D01*
X81679285Y-61705476D01*
X81584047Y-61753095D01*
G04 #@! TO.C,C1*
X84923333Y-82907142D02*
X84875714Y-82954761D01*
X84732857Y-83002380D01*
X84637619Y-83002380D01*
X84494761Y-82954761D01*
X84399523Y-82859523D01*
X84351904Y-82764285D01*
X84304285Y-82573809D01*
X84304285Y-82430952D01*
X84351904Y-82240476D01*
X84399523Y-82145238D01*
X84494761Y-82050000D01*
X84637619Y-82002380D01*
X84732857Y-82002380D01*
X84875714Y-82050000D01*
X84923333Y-82097619D01*
X85875714Y-83002380D02*
X85304285Y-83002380D01*
X85590000Y-83002380D02*
X85590000Y-82002380D01*
X85494761Y-82145238D01*
X85399523Y-82240476D01*
X85304285Y-82288095D01*
G04 #@! TO.C,C2*
X99147333Y-77573142D02*
X99099714Y-77620761D01*
X98956857Y-77668380D01*
X98861619Y-77668380D01*
X98718761Y-77620761D01*
X98623523Y-77525523D01*
X98575904Y-77430285D01*
X98528285Y-77239809D01*
X98528285Y-77096952D01*
X98575904Y-76906476D01*
X98623523Y-76811238D01*
X98718761Y-76716000D01*
X98861619Y-76668380D01*
X98956857Y-76668380D01*
X99099714Y-76716000D01*
X99147333Y-76763619D01*
X99528285Y-76763619D02*
X99575904Y-76716000D01*
X99671142Y-76668380D01*
X99909238Y-76668380D01*
X100004476Y-76716000D01*
X100052095Y-76763619D01*
X100099714Y-76858857D01*
X100099714Y-76954095D01*
X100052095Y-77096952D01*
X99480666Y-77668380D01*
X100099714Y-77668380D01*
G04 #@! TO.C,C3*
X77557333Y-83288142D02*
X77509714Y-83335761D01*
X77366857Y-83383380D01*
X77271619Y-83383380D01*
X77128761Y-83335761D01*
X77033523Y-83240523D01*
X76985904Y-83145285D01*
X76938285Y-82954809D01*
X76938285Y-82811952D01*
X76985904Y-82621476D01*
X77033523Y-82526238D01*
X77128761Y-82431000D01*
X77271619Y-82383380D01*
X77366857Y-82383380D01*
X77509714Y-82431000D01*
X77557333Y-82478619D01*
X77890666Y-82383380D02*
X78509714Y-82383380D01*
X78176380Y-82764333D01*
X78319238Y-82764333D01*
X78414476Y-82811952D01*
X78462095Y-82859571D01*
X78509714Y-82954809D01*
X78509714Y-83192904D01*
X78462095Y-83288142D01*
X78414476Y-83335761D01*
X78319238Y-83383380D01*
X78033523Y-83383380D01*
X77938285Y-83335761D01*
X77890666Y-83288142D01*
G04 #@! TO.C,C4*
X94693333Y-68557142D02*
X94645714Y-68604761D01*
X94502857Y-68652380D01*
X94407619Y-68652380D01*
X94264761Y-68604761D01*
X94169523Y-68509523D01*
X94121904Y-68414285D01*
X94074285Y-68223809D01*
X94074285Y-68080952D01*
X94121904Y-67890476D01*
X94169523Y-67795238D01*
X94264761Y-67700000D01*
X94407619Y-67652380D01*
X94502857Y-67652380D01*
X94645714Y-67700000D01*
X94693333Y-67747619D01*
X95550476Y-67985714D02*
X95550476Y-68652380D01*
X95312380Y-67604761D02*
X95074285Y-68319047D01*
X95693333Y-68319047D01*
G04 #@! TO.C,C5*
X89428333Y-62587142D02*
X89380714Y-62634761D01*
X89237857Y-62682380D01*
X89142619Y-62682380D01*
X88999761Y-62634761D01*
X88904523Y-62539523D01*
X88856904Y-62444285D01*
X88809285Y-62253809D01*
X88809285Y-62110952D01*
X88856904Y-61920476D01*
X88904523Y-61825238D01*
X88999761Y-61730000D01*
X89142619Y-61682380D01*
X89237857Y-61682380D01*
X89380714Y-61730000D01*
X89428333Y-61777619D01*
X90333095Y-61682380D02*
X89856904Y-61682380D01*
X89809285Y-62158571D01*
X89856904Y-62110952D01*
X89952142Y-62063333D01*
X90190238Y-62063333D01*
X90285476Y-62110952D01*
X90333095Y-62158571D01*
X90380714Y-62253809D01*
X90380714Y-62491904D01*
X90333095Y-62587142D01*
X90285476Y-62634761D01*
X90190238Y-62682380D01*
X89952142Y-62682380D01*
X89856904Y-62634761D01*
X89809285Y-62587142D01*
G04 #@! TO.C,D1*
X91971904Y-72842380D02*
X91971904Y-71842380D01*
X92210000Y-71842380D01*
X92352857Y-71890000D01*
X92448095Y-71985238D01*
X92495714Y-72080476D01*
X92543333Y-72270952D01*
X92543333Y-72413809D01*
X92495714Y-72604285D01*
X92448095Y-72699523D01*
X92352857Y-72794761D01*
X92210000Y-72842380D01*
X91971904Y-72842380D01*
X93495714Y-72842380D02*
X92924285Y-72842380D01*
X93210000Y-72842380D02*
X93210000Y-71842380D01*
X93114761Y-71985238D01*
X93019523Y-72080476D01*
X92924285Y-72128095D01*
G04 #@! TO.C,R1*
X98258333Y-73097380D02*
X97925000Y-72621190D01*
X97686904Y-73097380D02*
X97686904Y-72097380D01*
X98067857Y-72097380D01*
X98163095Y-72145000D01*
X98210714Y-72192619D01*
X98258333Y-72287857D01*
X98258333Y-72430714D01*
X98210714Y-72525952D01*
X98163095Y-72573571D01*
X98067857Y-72621190D01*
X97686904Y-72621190D01*
X99210714Y-73097380D02*
X98639285Y-73097380D01*
X98925000Y-73097380D02*
X98925000Y-72097380D01*
X98829761Y-72240238D01*
X98734523Y-72335476D01*
X98639285Y-72383095D01*
G04 #@! TO.C,R2*
X99147333Y-68652380D02*
X98814000Y-68176190D01*
X98575904Y-68652380D02*
X98575904Y-67652380D01*
X98956857Y-67652380D01*
X99052095Y-67700000D01*
X99099714Y-67747619D01*
X99147333Y-67842857D01*
X99147333Y-67985714D01*
X99099714Y-68080952D01*
X99052095Y-68128571D01*
X98956857Y-68176190D01*
X98575904Y-68176190D01*
X99528285Y-67747619D02*
X99575904Y-67700000D01*
X99671142Y-67652380D01*
X99909238Y-67652380D01*
X100004476Y-67700000D01*
X100052095Y-67747619D01*
X100099714Y-67842857D01*
X100099714Y-67938095D01*
X100052095Y-68080952D01*
X99480666Y-68652380D01*
X100099714Y-68652380D01*
G04 #@! TO.C,U1*
X91313095Y-82256380D02*
X91313095Y-83065904D01*
X91360714Y-83161142D01*
X91408333Y-83208761D01*
X91503571Y-83256380D01*
X91694047Y-83256380D01*
X91789285Y-83208761D01*
X91836904Y-83161142D01*
X91884523Y-83065904D01*
X91884523Y-82256380D01*
X92884523Y-83256380D02*
X92313095Y-83256380D01*
X92598809Y-83256380D02*
X92598809Y-82256380D01*
X92503571Y-82399238D01*
X92408333Y-82494476D01*
X92313095Y-82542095D01*
G04 #@! TO.C,C6*
X77557333Y-89638142D02*
X77509714Y-89685761D01*
X77366857Y-89733380D01*
X77271619Y-89733380D01*
X77128761Y-89685761D01*
X77033523Y-89590523D01*
X76985904Y-89495285D01*
X76938285Y-89304809D01*
X76938285Y-89161952D01*
X76985904Y-88971476D01*
X77033523Y-88876238D01*
X77128761Y-88781000D01*
X77271619Y-88733380D01*
X77366857Y-88733380D01*
X77509714Y-88781000D01*
X77557333Y-88828619D01*
X78414476Y-88733380D02*
X78224000Y-88733380D01*
X78128761Y-88781000D01*
X78081142Y-88828619D01*
X77985904Y-88971476D01*
X77938285Y-89161952D01*
X77938285Y-89542904D01*
X77985904Y-89638142D01*
X78033523Y-89685761D01*
X78128761Y-89733380D01*
X78319238Y-89733380D01*
X78414476Y-89685761D01*
X78462095Y-89638142D01*
X78509714Y-89542904D01*
X78509714Y-89304809D01*
X78462095Y-89209571D01*
X78414476Y-89161952D01*
X78319238Y-89114333D01*
X78128761Y-89114333D01*
X78033523Y-89161952D01*
X77985904Y-89209571D01*
X77938285Y-89304809D01*
G04 #@! TO.C,C7*
X100163333Y-87352142D02*
X100115714Y-87399761D01*
X99972857Y-87447380D01*
X99877619Y-87447380D01*
X99734761Y-87399761D01*
X99639523Y-87304523D01*
X99591904Y-87209285D01*
X99544285Y-87018809D01*
X99544285Y-86875952D01*
X99591904Y-86685476D01*
X99639523Y-86590238D01*
X99734761Y-86495000D01*
X99877619Y-86447380D01*
X99972857Y-86447380D01*
X100115714Y-86495000D01*
X100163333Y-86542619D01*
X100496666Y-86447380D02*
X101163333Y-86447380D01*
X100734761Y-87447380D01*
G04 #@! TO.C,C8*
X110958333Y-86209142D02*
X110910714Y-86256761D01*
X110767857Y-86304380D01*
X110672619Y-86304380D01*
X110529761Y-86256761D01*
X110434523Y-86161523D01*
X110386904Y-86066285D01*
X110339285Y-85875809D01*
X110339285Y-85732952D01*
X110386904Y-85542476D01*
X110434523Y-85447238D01*
X110529761Y-85352000D01*
X110672619Y-85304380D01*
X110767857Y-85304380D01*
X110910714Y-85352000D01*
X110958333Y-85399619D01*
X111529761Y-85732952D02*
X111434523Y-85685333D01*
X111386904Y-85637714D01*
X111339285Y-85542476D01*
X111339285Y-85494857D01*
X111386904Y-85399619D01*
X111434523Y-85352000D01*
X111529761Y-85304380D01*
X111720238Y-85304380D01*
X111815476Y-85352000D01*
X111863095Y-85399619D01*
X111910714Y-85494857D01*
X111910714Y-85542476D01*
X111863095Y-85637714D01*
X111815476Y-85685333D01*
X111720238Y-85732952D01*
X111529761Y-85732952D01*
X111434523Y-85780571D01*
X111386904Y-85828190D01*
X111339285Y-85923428D01*
X111339285Y-86113904D01*
X111386904Y-86209142D01*
X111434523Y-86256761D01*
X111529761Y-86304380D01*
X111720238Y-86304380D01*
X111815476Y-86256761D01*
X111863095Y-86209142D01*
X111910714Y-86113904D01*
X111910714Y-85923428D01*
X111863095Y-85828190D01*
X111815476Y-85780571D01*
X111720238Y-85732952D01*
G04 #@! TO.C,C9*
X86955333Y-94210142D02*
X86907714Y-94257761D01*
X86764857Y-94305380D01*
X86669619Y-94305380D01*
X86526761Y-94257761D01*
X86431523Y-94162523D01*
X86383904Y-94067285D01*
X86336285Y-93876809D01*
X86336285Y-93733952D01*
X86383904Y-93543476D01*
X86431523Y-93448238D01*
X86526761Y-93353000D01*
X86669619Y-93305380D01*
X86764857Y-93305380D01*
X86907714Y-93353000D01*
X86955333Y-93400619D01*
X87431523Y-94305380D02*
X87622000Y-94305380D01*
X87717238Y-94257761D01*
X87764857Y-94210142D01*
X87860095Y-94067285D01*
X87907714Y-93876809D01*
X87907714Y-93495857D01*
X87860095Y-93400619D01*
X87812476Y-93353000D01*
X87717238Y-93305380D01*
X87526761Y-93305380D01*
X87431523Y-93353000D01*
X87383904Y-93400619D01*
X87336285Y-93495857D01*
X87336285Y-93733952D01*
X87383904Y-93829190D01*
X87431523Y-93876809D01*
X87526761Y-93924428D01*
X87717238Y-93924428D01*
X87812476Y-93876809D01*
X87860095Y-93829190D01*
X87907714Y-93733952D01*
G04 #@! TO.C,C10*
X91178142Y-94211142D02*
X91130523Y-94258761D01*
X90987666Y-94306380D01*
X90892428Y-94306380D01*
X90749571Y-94258761D01*
X90654333Y-94163523D01*
X90606714Y-94068285D01*
X90559095Y-93877809D01*
X90559095Y-93734952D01*
X90606714Y-93544476D01*
X90654333Y-93449238D01*
X90749571Y-93354000D01*
X90892428Y-93306380D01*
X90987666Y-93306380D01*
X91130523Y-93354000D01*
X91178142Y-93401619D01*
X92130523Y-94306380D02*
X91559095Y-94306380D01*
X91844809Y-94306380D02*
X91844809Y-93306380D01*
X91749571Y-93449238D01*
X91654333Y-93544476D01*
X91559095Y-93592095D01*
X92749571Y-93306380D02*
X92844809Y-93306380D01*
X92940047Y-93354000D01*
X92987666Y-93401619D01*
X93035285Y-93496857D01*
X93082904Y-93687333D01*
X93082904Y-93925428D01*
X93035285Y-94115904D01*
X92987666Y-94211142D01*
X92940047Y-94258761D01*
X92844809Y-94306380D01*
X92749571Y-94306380D01*
X92654333Y-94258761D01*
X92606714Y-94211142D01*
X92559095Y-94115904D01*
X92511476Y-93925428D01*
X92511476Y-93687333D01*
X92559095Y-93496857D01*
X92606714Y-93401619D01*
X92654333Y-93354000D01*
X92749571Y-93306380D01*
G04 #@! TO.C,D2*
X105179904Y-80882380D02*
X105179904Y-79882380D01*
X105418000Y-79882380D01*
X105560857Y-79930000D01*
X105656095Y-80025238D01*
X105703714Y-80120476D01*
X105751333Y-80310952D01*
X105751333Y-80453809D01*
X105703714Y-80644285D01*
X105656095Y-80739523D01*
X105560857Y-80834761D01*
X105418000Y-80882380D01*
X105179904Y-80882380D01*
X106132285Y-79977619D02*
X106179904Y-79930000D01*
X106275142Y-79882380D01*
X106513238Y-79882380D01*
X106608476Y-79930000D01*
X106656095Y-79977619D01*
X106703714Y-80072857D01*
X106703714Y-80168095D01*
X106656095Y-80310952D01*
X106084666Y-80882380D01*
X106703714Y-80882380D01*
X101846095Y-81202380D02*
X101846095Y-80202380D01*
X102417523Y-81202380D02*
X101988952Y-80630952D01*
X102417523Y-80202380D02*
X101846095Y-80773809D01*
G04 #@! TO.C,D3*
X115339904Y-80882380D02*
X115339904Y-79882380D01*
X115578000Y-79882380D01*
X115720857Y-79930000D01*
X115816095Y-80025238D01*
X115863714Y-80120476D01*
X115911333Y-80310952D01*
X115911333Y-80453809D01*
X115863714Y-80644285D01*
X115816095Y-80739523D01*
X115720857Y-80834761D01*
X115578000Y-80882380D01*
X115339904Y-80882380D01*
X116244666Y-79882380D02*
X116863714Y-79882380D01*
X116530380Y-80263333D01*
X116673238Y-80263333D01*
X116768476Y-80310952D01*
X116816095Y-80358571D01*
X116863714Y-80453809D01*
X116863714Y-80691904D01*
X116816095Y-80787142D01*
X116768476Y-80834761D01*
X116673238Y-80882380D01*
X116387523Y-80882380D01*
X116292285Y-80834761D01*
X116244666Y-80787142D01*
X112006095Y-81202380D02*
X112006095Y-80202380D01*
X112577523Y-81202380D02*
X112148952Y-80630952D01*
X112577523Y-80202380D02*
X112006095Y-80773809D01*
G04 #@! TO.C,D4*
X105179904Y-63102380D02*
X105179904Y-62102380D01*
X105418000Y-62102380D01*
X105560857Y-62150000D01*
X105656095Y-62245238D01*
X105703714Y-62340476D01*
X105751333Y-62530952D01*
X105751333Y-62673809D01*
X105703714Y-62864285D01*
X105656095Y-62959523D01*
X105560857Y-63054761D01*
X105418000Y-63102380D01*
X105179904Y-63102380D01*
X106608476Y-62435714D02*
X106608476Y-63102380D01*
X106370380Y-62054761D02*
X106132285Y-62769047D01*
X106751333Y-62769047D01*
X101846095Y-63422380D02*
X101846095Y-62422380D01*
X102417523Y-63422380D02*
X101988952Y-62850952D01*
X102417523Y-62422380D02*
X101846095Y-62993809D01*
G04 #@! TO.C,D5*
X115339904Y-63102380D02*
X115339904Y-62102380D01*
X115578000Y-62102380D01*
X115720857Y-62150000D01*
X115816095Y-62245238D01*
X115863714Y-62340476D01*
X115911333Y-62530952D01*
X115911333Y-62673809D01*
X115863714Y-62864285D01*
X115816095Y-62959523D01*
X115720857Y-63054761D01*
X115578000Y-63102380D01*
X115339904Y-63102380D01*
X116816095Y-62102380D02*
X116339904Y-62102380D01*
X116292285Y-62578571D01*
X116339904Y-62530952D01*
X116435142Y-62483333D01*
X116673238Y-62483333D01*
X116768476Y-62530952D01*
X116816095Y-62578571D01*
X116863714Y-62673809D01*
X116863714Y-62911904D01*
X116816095Y-63007142D01*
X116768476Y-63054761D01*
X116673238Y-63102380D01*
X116435142Y-63102380D01*
X116339904Y-63054761D01*
X116292285Y-63007142D01*
X112006095Y-63422380D02*
X112006095Y-62422380D01*
X112577523Y-63422380D02*
X112148952Y-62850952D01*
X112577523Y-62422380D02*
X112006095Y-62993809D01*
G04 #@! TO.C,CLOCK*
X122586952Y-68937142D02*
X122539333Y-68984761D01*
X122396476Y-69032380D01*
X122301238Y-69032380D01*
X122158380Y-68984761D01*
X122063142Y-68889523D01*
X122015523Y-68794285D01*
X121967904Y-68603809D01*
X121967904Y-68460952D01*
X122015523Y-68270476D01*
X122063142Y-68175238D01*
X122158380Y-68080000D01*
X122301238Y-68032380D01*
X122396476Y-68032380D01*
X122539333Y-68080000D01*
X122586952Y-68127619D01*
X123491714Y-69032380D02*
X123015523Y-69032380D01*
X123015523Y-68032380D01*
X124015523Y-68032380D02*
X124206000Y-68032380D01*
X124301238Y-68080000D01*
X124396476Y-68175238D01*
X124444095Y-68365714D01*
X124444095Y-68699047D01*
X124396476Y-68889523D01*
X124301238Y-68984761D01*
X124206000Y-69032380D01*
X124015523Y-69032380D01*
X123920285Y-68984761D01*
X123825047Y-68889523D01*
X123777428Y-68699047D01*
X123777428Y-68365714D01*
X123825047Y-68175238D01*
X123920285Y-68080000D01*
X124015523Y-68032380D01*
X125444095Y-68937142D02*
X125396476Y-68984761D01*
X125253619Y-69032380D01*
X125158380Y-69032380D01*
X125015523Y-68984761D01*
X124920285Y-68889523D01*
X124872666Y-68794285D01*
X124825047Y-68603809D01*
X124825047Y-68460952D01*
X124872666Y-68270476D01*
X124920285Y-68175238D01*
X125015523Y-68080000D01*
X125158380Y-68032380D01*
X125253619Y-68032380D01*
X125396476Y-68080000D01*
X125444095Y-68127619D01*
X125872666Y-69032380D02*
X125872666Y-68032380D01*
X126444095Y-69032380D02*
X126015523Y-68460952D01*
X126444095Y-68032380D02*
X125872666Y-68603809D01*
G04 #@! TO.C,UART*
X121626380Y-82875238D02*
X122435904Y-82875238D01*
X122531142Y-82827619D01*
X122578761Y-82780000D01*
X122626380Y-82684761D01*
X122626380Y-82494285D01*
X122578761Y-82399047D01*
X122531142Y-82351428D01*
X122435904Y-82303809D01*
X121626380Y-82303809D01*
X122340666Y-81875238D02*
X122340666Y-81399047D01*
X122626380Y-81970476D02*
X121626380Y-81637142D01*
X122626380Y-81303809D01*
X122626380Y-80399047D02*
X122150190Y-80732380D01*
X122626380Y-80970476D02*
X121626380Y-80970476D01*
X121626380Y-80589523D01*
X121674000Y-80494285D01*
X121721619Y-80446666D01*
X121816857Y-80399047D01*
X121959714Y-80399047D01*
X122054952Y-80446666D01*
X122102571Y-80494285D01*
X122150190Y-80589523D01*
X122150190Y-80970476D01*
X121626380Y-80113333D02*
X121626380Y-79541904D01*
X122626380Y-79827619D02*
X121626380Y-79827619D01*
G04 #@! TO.C,BATT*
X68476952Y-71937571D02*
X68619809Y-71985190D01*
X68667428Y-72032809D01*
X68715047Y-72128047D01*
X68715047Y-72270904D01*
X68667428Y-72366142D01*
X68619809Y-72413761D01*
X68524571Y-72461380D01*
X68143619Y-72461380D01*
X68143619Y-71461380D01*
X68476952Y-71461380D01*
X68572190Y-71509000D01*
X68619809Y-71556619D01*
X68667428Y-71651857D01*
X68667428Y-71747095D01*
X68619809Y-71842333D01*
X68572190Y-71889952D01*
X68476952Y-71937571D01*
X68143619Y-71937571D01*
X69096000Y-72175666D02*
X69572190Y-72175666D01*
X69000761Y-72461380D02*
X69334095Y-71461380D01*
X69667428Y-72461380D01*
X69857904Y-71461380D02*
X70429333Y-71461380D01*
X70143619Y-72461380D02*
X70143619Y-71461380D01*
X70619809Y-71461380D02*
X71191238Y-71461380D01*
X70905523Y-72461380D02*
X70905523Y-71461380D01*
G04 #@! TO.C,Q1*
X105949761Y-85383619D02*
X105854523Y-85336000D01*
X105759285Y-85240761D01*
X105616428Y-85097904D01*
X105521190Y-85050285D01*
X105425952Y-85050285D01*
X105473571Y-85288380D02*
X105378333Y-85240761D01*
X105283095Y-85145523D01*
X105235476Y-84955047D01*
X105235476Y-84621714D01*
X105283095Y-84431238D01*
X105378333Y-84336000D01*
X105473571Y-84288380D01*
X105664047Y-84288380D01*
X105759285Y-84336000D01*
X105854523Y-84431238D01*
X105902142Y-84621714D01*
X105902142Y-84955047D01*
X105854523Y-85145523D01*
X105759285Y-85240761D01*
X105664047Y-85288380D01*
X105473571Y-85288380D01*
X106854523Y-85288380D02*
X106283095Y-85288380D01*
X106568809Y-85288380D02*
X106568809Y-84288380D01*
X106473571Y-84431238D01*
X106378333Y-84526476D01*
X106283095Y-84574095D01*
G04 #@! TO.C,Q2*
X115982761Y-85383619D02*
X115887523Y-85336000D01*
X115792285Y-85240761D01*
X115649428Y-85097904D01*
X115554190Y-85050285D01*
X115458952Y-85050285D01*
X115506571Y-85288380D02*
X115411333Y-85240761D01*
X115316095Y-85145523D01*
X115268476Y-84955047D01*
X115268476Y-84621714D01*
X115316095Y-84431238D01*
X115411333Y-84336000D01*
X115506571Y-84288380D01*
X115697047Y-84288380D01*
X115792285Y-84336000D01*
X115887523Y-84431238D01*
X115935142Y-84621714D01*
X115935142Y-84955047D01*
X115887523Y-85145523D01*
X115792285Y-85240761D01*
X115697047Y-85288380D01*
X115506571Y-85288380D01*
X116316095Y-84383619D02*
X116363714Y-84336000D01*
X116458952Y-84288380D01*
X116697047Y-84288380D01*
X116792285Y-84336000D01*
X116839904Y-84383619D01*
X116887523Y-84478857D01*
X116887523Y-84574095D01*
X116839904Y-84716952D01*
X116268476Y-85288380D01*
X116887523Y-85288380D01*
G04 #@! TO.C,Q3*
X115982761Y-74461619D02*
X115887523Y-74414000D01*
X115792285Y-74318761D01*
X115649428Y-74175904D01*
X115554190Y-74128285D01*
X115458952Y-74128285D01*
X115506571Y-74366380D02*
X115411333Y-74318761D01*
X115316095Y-74223523D01*
X115268476Y-74033047D01*
X115268476Y-73699714D01*
X115316095Y-73509238D01*
X115411333Y-73414000D01*
X115506571Y-73366380D01*
X115697047Y-73366380D01*
X115792285Y-73414000D01*
X115887523Y-73509238D01*
X115935142Y-73699714D01*
X115935142Y-74033047D01*
X115887523Y-74223523D01*
X115792285Y-74318761D01*
X115697047Y-74366380D01*
X115506571Y-74366380D01*
X116268476Y-73366380D02*
X116887523Y-73366380D01*
X116554190Y-73747333D01*
X116697047Y-73747333D01*
X116792285Y-73794952D01*
X116839904Y-73842571D01*
X116887523Y-73937809D01*
X116887523Y-74175904D01*
X116839904Y-74271142D01*
X116792285Y-74318761D01*
X116697047Y-74366380D01*
X116411333Y-74366380D01*
X116316095Y-74318761D01*
X116268476Y-74271142D01*
G04 #@! TO.C,Q4*
X105822761Y-74457619D02*
X105727523Y-74410000D01*
X105632285Y-74314761D01*
X105489428Y-74171904D01*
X105394190Y-74124285D01*
X105298952Y-74124285D01*
X105346571Y-74362380D02*
X105251333Y-74314761D01*
X105156095Y-74219523D01*
X105108476Y-74029047D01*
X105108476Y-73695714D01*
X105156095Y-73505238D01*
X105251333Y-73410000D01*
X105346571Y-73362380D01*
X105537047Y-73362380D01*
X105632285Y-73410000D01*
X105727523Y-73505238D01*
X105775142Y-73695714D01*
X105775142Y-74029047D01*
X105727523Y-74219523D01*
X105632285Y-74314761D01*
X105537047Y-74362380D01*
X105346571Y-74362380D01*
X106632285Y-73695714D02*
X106632285Y-74362380D01*
X106394190Y-73314761D02*
X106156095Y-74029047D01*
X106775142Y-74029047D01*
G04 #@! TO.C,Q5*
X115982761Y-67476619D02*
X115887523Y-67429000D01*
X115792285Y-67333761D01*
X115649428Y-67190904D01*
X115554190Y-67143285D01*
X115458952Y-67143285D01*
X115506571Y-67381380D02*
X115411333Y-67333761D01*
X115316095Y-67238523D01*
X115268476Y-67048047D01*
X115268476Y-66714714D01*
X115316095Y-66524238D01*
X115411333Y-66429000D01*
X115506571Y-66381380D01*
X115697047Y-66381380D01*
X115792285Y-66429000D01*
X115887523Y-66524238D01*
X115935142Y-66714714D01*
X115935142Y-67048047D01*
X115887523Y-67238523D01*
X115792285Y-67333761D01*
X115697047Y-67381380D01*
X115506571Y-67381380D01*
X116839904Y-66381380D02*
X116363714Y-66381380D01*
X116316095Y-66857571D01*
X116363714Y-66809952D01*
X116458952Y-66762333D01*
X116697047Y-66762333D01*
X116792285Y-66809952D01*
X116839904Y-66857571D01*
X116887523Y-66952809D01*
X116887523Y-67190904D01*
X116839904Y-67286142D01*
X116792285Y-67333761D01*
X116697047Y-67381380D01*
X116458952Y-67381380D01*
X116363714Y-67333761D01*
X116316095Y-67286142D01*
G04 #@! TO.C,Q6*
X105822761Y-67472619D02*
X105727523Y-67425000D01*
X105632285Y-67329761D01*
X105489428Y-67186904D01*
X105394190Y-67139285D01*
X105298952Y-67139285D01*
X105346571Y-67377380D02*
X105251333Y-67329761D01*
X105156095Y-67234523D01*
X105108476Y-67044047D01*
X105108476Y-66710714D01*
X105156095Y-66520238D01*
X105251333Y-66425000D01*
X105346571Y-66377380D01*
X105537047Y-66377380D01*
X105632285Y-66425000D01*
X105727523Y-66520238D01*
X105775142Y-66710714D01*
X105775142Y-67044047D01*
X105727523Y-67234523D01*
X105632285Y-67329761D01*
X105537047Y-67377380D01*
X105346571Y-67377380D01*
X106632285Y-66377380D02*
X106441809Y-66377380D01*
X106346571Y-66425000D01*
X106298952Y-66472619D01*
X106203714Y-66615476D01*
X106156095Y-66805952D01*
X106156095Y-67186904D01*
X106203714Y-67282142D01*
X106251333Y-67329761D01*
X106346571Y-67377380D01*
X106537047Y-67377380D01*
X106632285Y-67329761D01*
X106679904Y-67282142D01*
X106727523Y-67186904D01*
X106727523Y-66948809D01*
X106679904Y-66853571D01*
X106632285Y-66805952D01*
X106537047Y-66758333D01*
X106346571Y-66758333D01*
X106251333Y-66805952D01*
X106203714Y-66853571D01*
X106156095Y-66948809D01*
G04 #@! TO.C,R3*
X95718333Y-96972380D02*
X95385000Y-96496190D01*
X95146904Y-96972380D02*
X95146904Y-95972380D01*
X95527857Y-95972380D01*
X95623095Y-96020000D01*
X95670714Y-96067619D01*
X95718333Y-96162857D01*
X95718333Y-96305714D01*
X95670714Y-96400952D01*
X95623095Y-96448571D01*
X95527857Y-96496190D01*
X95146904Y-96496190D01*
X96051666Y-95972380D02*
X96670714Y-95972380D01*
X96337380Y-96353333D01*
X96480238Y-96353333D01*
X96575476Y-96400952D01*
X96623095Y-96448571D01*
X96670714Y-96543809D01*
X96670714Y-96781904D01*
X96623095Y-96877142D01*
X96575476Y-96924761D01*
X96480238Y-96972380D01*
X96194523Y-96972380D01*
X96099285Y-96924761D01*
X96051666Y-96877142D01*
G04 #@! TO.C,R4*
X100036333Y-90359380D02*
X99703000Y-89883190D01*
X99464904Y-90359380D02*
X99464904Y-89359380D01*
X99845857Y-89359380D01*
X99941095Y-89407000D01*
X99988714Y-89454619D01*
X100036333Y-89549857D01*
X100036333Y-89692714D01*
X99988714Y-89787952D01*
X99941095Y-89835571D01*
X99845857Y-89883190D01*
X99464904Y-89883190D01*
X100893476Y-89692714D02*
X100893476Y-90359380D01*
X100655380Y-89311761D02*
X100417285Y-90026047D01*
X101036333Y-90026047D01*
G04 #@! TO.C,R5*
X121753333Y-85034380D02*
X121420000Y-84558190D01*
X121181904Y-85034380D02*
X121181904Y-84034380D01*
X121562857Y-84034380D01*
X121658095Y-84082000D01*
X121705714Y-84129619D01*
X121753333Y-84224857D01*
X121753333Y-84367714D01*
X121705714Y-84462952D01*
X121658095Y-84510571D01*
X121562857Y-84558190D01*
X121181904Y-84558190D01*
X122658095Y-84034380D02*
X122181904Y-84034380D01*
X122134285Y-84510571D01*
X122181904Y-84462952D01*
X122277142Y-84415333D01*
X122515238Y-84415333D01*
X122610476Y-84462952D01*
X122658095Y-84510571D01*
X122705714Y-84605809D01*
X122705714Y-84843904D01*
X122658095Y-84939142D01*
X122610476Y-84986761D01*
X122515238Y-85034380D01*
X122277142Y-85034380D01*
X122181904Y-84986761D01*
X122134285Y-84939142D01*
G04 #@! TO.C,R6*
X96988333Y-90359380D02*
X96655000Y-89883190D01*
X96416904Y-90359380D02*
X96416904Y-89359380D01*
X96797857Y-89359380D01*
X96893095Y-89407000D01*
X96940714Y-89454619D01*
X96988333Y-89549857D01*
X96988333Y-89692714D01*
X96940714Y-89787952D01*
X96893095Y-89835571D01*
X96797857Y-89883190D01*
X96416904Y-89883190D01*
X97845476Y-89359380D02*
X97655000Y-89359380D01*
X97559761Y-89407000D01*
X97512142Y-89454619D01*
X97416904Y-89597476D01*
X97369285Y-89787952D01*
X97369285Y-90168904D01*
X97416904Y-90264142D01*
X97464523Y-90311761D01*
X97559761Y-90359380D01*
X97750238Y-90359380D01*
X97845476Y-90311761D01*
X97893095Y-90264142D01*
X97940714Y-90168904D01*
X97940714Y-89930809D01*
X97893095Y-89835571D01*
X97845476Y-89787952D01*
X97750238Y-89740333D01*
X97559761Y-89740333D01*
X97464523Y-89787952D01*
X97416904Y-89835571D01*
X97369285Y-89930809D01*
G04 #@! TO.C,R7*
X121753333Y-91257380D02*
X121420000Y-90781190D01*
X121181904Y-91257380D02*
X121181904Y-90257380D01*
X121562857Y-90257380D01*
X121658095Y-90305000D01*
X121705714Y-90352619D01*
X121753333Y-90447857D01*
X121753333Y-90590714D01*
X121705714Y-90685952D01*
X121658095Y-90733571D01*
X121562857Y-90781190D01*
X121181904Y-90781190D01*
X122086666Y-90257380D02*
X122753333Y-90257380D01*
X122324761Y-91257380D01*
G04 #@! TO.C,R8*
X110831333Y-68016380D02*
X110498000Y-67540190D01*
X110259904Y-68016380D02*
X110259904Y-67016380D01*
X110640857Y-67016380D01*
X110736095Y-67064000D01*
X110783714Y-67111619D01*
X110831333Y-67206857D01*
X110831333Y-67349714D01*
X110783714Y-67444952D01*
X110736095Y-67492571D01*
X110640857Y-67540190D01*
X110259904Y-67540190D01*
X111402761Y-67444952D02*
X111307523Y-67397333D01*
X111259904Y-67349714D01*
X111212285Y-67254476D01*
X111212285Y-67206857D01*
X111259904Y-67111619D01*
X111307523Y-67064000D01*
X111402761Y-67016380D01*
X111593238Y-67016380D01*
X111688476Y-67064000D01*
X111736095Y-67111619D01*
X111783714Y-67206857D01*
X111783714Y-67254476D01*
X111736095Y-67349714D01*
X111688476Y-67397333D01*
X111593238Y-67444952D01*
X111402761Y-67444952D01*
X111307523Y-67492571D01*
X111259904Y-67540190D01*
X111212285Y-67635428D01*
X111212285Y-67825904D01*
X111259904Y-67921142D01*
X111307523Y-67968761D01*
X111402761Y-68016380D01*
X111593238Y-68016380D01*
X111688476Y-67968761D01*
X111736095Y-67921142D01*
X111783714Y-67825904D01*
X111783714Y-67635428D01*
X111736095Y-67540190D01*
X111688476Y-67492571D01*
X111593238Y-67444952D01*
G04 #@! TO.C,R9*
X110831333Y-75128380D02*
X110498000Y-74652190D01*
X110259904Y-75128380D02*
X110259904Y-74128380D01*
X110640857Y-74128380D01*
X110736095Y-74176000D01*
X110783714Y-74223619D01*
X110831333Y-74318857D01*
X110831333Y-74461714D01*
X110783714Y-74556952D01*
X110736095Y-74604571D01*
X110640857Y-74652190D01*
X110259904Y-74652190D01*
X111307523Y-75128380D02*
X111498000Y-75128380D01*
X111593238Y-75080761D01*
X111640857Y-75033142D01*
X111736095Y-74890285D01*
X111783714Y-74699809D01*
X111783714Y-74318857D01*
X111736095Y-74223619D01*
X111688476Y-74176000D01*
X111593238Y-74128380D01*
X111402761Y-74128380D01*
X111307523Y-74176000D01*
X111259904Y-74223619D01*
X111212285Y-74318857D01*
X111212285Y-74556952D01*
X111259904Y-74652190D01*
X111307523Y-74699809D01*
X111402761Y-74747428D01*
X111593238Y-74747428D01*
X111688476Y-74699809D01*
X111736095Y-74652190D01*
X111783714Y-74556952D01*
G04 #@! TO.C,R10*
X105012142Y-106117380D02*
X104678809Y-105641190D01*
X104440714Y-106117380D02*
X104440714Y-105117380D01*
X104821666Y-105117380D01*
X104916904Y-105165000D01*
X104964523Y-105212619D01*
X105012142Y-105307857D01*
X105012142Y-105450714D01*
X104964523Y-105545952D01*
X104916904Y-105593571D01*
X104821666Y-105641190D01*
X104440714Y-105641190D01*
X105964523Y-106117380D02*
X105393095Y-106117380D01*
X105678809Y-106117380D02*
X105678809Y-105117380D01*
X105583571Y-105260238D01*
X105488333Y-105355476D01*
X105393095Y-105403095D01*
X106583571Y-105117380D02*
X106678809Y-105117380D01*
X106774047Y-105165000D01*
X106821666Y-105212619D01*
X106869285Y-105307857D01*
X106916904Y-105498333D01*
X106916904Y-105736428D01*
X106869285Y-105926904D01*
X106821666Y-106022142D01*
X106774047Y-106069761D01*
X106678809Y-106117380D01*
X106583571Y-106117380D01*
X106488333Y-106069761D01*
X106440714Y-106022142D01*
X106393095Y-105926904D01*
X106345476Y-105736428D01*
X106345476Y-105498333D01*
X106393095Y-105307857D01*
X106440714Y-105212619D01*
X106488333Y-105165000D01*
X106583571Y-105117380D01*
G04 #@! TO.C,R11*
X105012142Y-102307380D02*
X104678809Y-101831190D01*
X104440714Y-102307380D02*
X104440714Y-101307380D01*
X104821666Y-101307380D01*
X104916904Y-101355000D01*
X104964523Y-101402619D01*
X105012142Y-101497857D01*
X105012142Y-101640714D01*
X104964523Y-101735952D01*
X104916904Y-101783571D01*
X104821666Y-101831190D01*
X104440714Y-101831190D01*
X105964523Y-102307380D02*
X105393095Y-102307380D01*
X105678809Y-102307380D02*
X105678809Y-101307380D01*
X105583571Y-101450238D01*
X105488333Y-101545476D01*
X105393095Y-101593095D01*
X106916904Y-102307380D02*
X106345476Y-102307380D01*
X106631190Y-102307380D02*
X106631190Y-101307380D01*
X106535952Y-101450238D01*
X106440714Y-101545476D01*
X106345476Y-101593095D01*
G04 #@! TO.C,SW1*
X106056666Y-92606761D02*
X106199523Y-92654380D01*
X106437619Y-92654380D01*
X106532857Y-92606761D01*
X106580476Y-92559142D01*
X106628095Y-92463904D01*
X106628095Y-92368666D01*
X106580476Y-92273428D01*
X106532857Y-92225809D01*
X106437619Y-92178190D01*
X106247142Y-92130571D01*
X106151904Y-92082952D01*
X106104285Y-92035333D01*
X106056666Y-91940095D01*
X106056666Y-91844857D01*
X106104285Y-91749619D01*
X106151904Y-91702000D01*
X106247142Y-91654380D01*
X106485238Y-91654380D01*
X106628095Y-91702000D01*
X106961428Y-91654380D02*
X107199523Y-92654380D01*
X107390000Y-91940095D01*
X107580476Y-92654380D01*
X107818571Y-91654380D01*
X108723333Y-92654380D02*
X108151904Y-92654380D01*
X108437619Y-92654380D02*
X108437619Y-91654380D01*
X108342380Y-91797238D01*
X108247142Y-91892476D01*
X108151904Y-91940095D01*
G04 #@! TO.C,SW2*
X116851666Y-92606761D02*
X116994523Y-92654380D01*
X117232619Y-92654380D01*
X117327857Y-92606761D01*
X117375476Y-92559142D01*
X117423095Y-92463904D01*
X117423095Y-92368666D01*
X117375476Y-92273428D01*
X117327857Y-92225809D01*
X117232619Y-92178190D01*
X117042142Y-92130571D01*
X116946904Y-92082952D01*
X116899285Y-92035333D01*
X116851666Y-91940095D01*
X116851666Y-91844857D01*
X116899285Y-91749619D01*
X116946904Y-91702000D01*
X117042142Y-91654380D01*
X117280238Y-91654380D01*
X117423095Y-91702000D01*
X117756428Y-91654380D02*
X117994523Y-92654380D01*
X118185000Y-91940095D01*
X118375476Y-92654380D01*
X118613571Y-91654380D01*
X118946904Y-91749619D02*
X118994523Y-91702000D01*
X119089761Y-91654380D01*
X119327857Y-91654380D01*
X119423095Y-91702000D01*
X119470714Y-91749619D01*
X119518333Y-91844857D01*
X119518333Y-91940095D01*
X119470714Y-92082952D01*
X118899285Y-92654380D01*
X119518333Y-92654380D01*
G04 #@! TO.C,U2*
X87503095Y-83047380D02*
X87503095Y-83856904D01*
X87550714Y-83952142D01*
X87598333Y-83999761D01*
X87693571Y-84047380D01*
X87884047Y-84047380D01*
X87979285Y-83999761D01*
X88026904Y-83952142D01*
X88074523Y-83856904D01*
X88074523Y-83047380D01*
X88503095Y-83142619D02*
X88550714Y-83095000D01*
X88645952Y-83047380D01*
X88884047Y-83047380D01*
X88979285Y-83095000D01*
X89026904Y-83142619D01*
X89074523Y-83237857D01*
X89074523Y-83333095D01*
X89026904Y-83475952D01*
X88455476Y-84047380D01*
X89074523Y-84047380D01*
G04 #@! TO.C,U3*
X83058095Y-102957380D02*
X83058095Y-103766904D01*
X83105714Y-103862142D01*
X83153333Y-103909761D01*
X83248571Y-103957380D01*
X83439047Y-103957380D01*
X83534285Y-103909761D01*
X83581904Y-103862142D01*
X83629523Y-103766904D01*
X83629523Y-102957380D01*
X84010476Y-102957380D02*
X84629523Y-102957380D01*
X84296190Y-103338333D01*
X84439047Y-103338333D01*
X84534285Y-103385952D01*
X84581904Y-103433571D01*
X84629523Y-103528809D01*
X84629523Y-103766904D01*
X84581904Y-103862142D01*
X84534285Y-103909761D01*
X84439047Y-103957380D01*
X84153333Y-103957380D01*
X84058095Y-103909761D01*
X84010476Y-103862142D01*
G04 #@! TD*
M02*
