G04 #@! TF.GenerationSoftware,KiCad,Pcbnew,5.1.4*
G04 #@! TF.CreationDate,2019-11-19T03:17:16+01:00*
G04 #@! TF.ProjectId,sclock,73636c6f-636b-42e6-9b69-6361645f7063,rev?*
G04 #@! TF.SameCoordinates,Original*
G04 #@! TF.FileFunction,Soldermask,Bot*
G04 #@! TF.FilePolarity,Negative*
%FSLAX46Y46*%
G04 Gerber Fmt 4.6, Leading zero omitted, Abs format (unit mm)*
G04 Created by KiCad (PCBNEW 5.1.4) date 2019-11-19 03:17:16*
%MOMM*%
%LPD*%
G04 APERTURE LIST*
%ADD10C,0.050000*%
%ADD11C,0.100000*%
G04 APERTURE END LIST*
D10*
X128270000Y-60960000D02*
X65405000Y-60960000D01*
X128270000Y-109220000D02*
X128270000Y-60960000D01*
X65405000Y-109220000D02*
X128270000Y-109220000D01*
X65405000Y-60960000D02*
X65405000Y-109220000D01*
D11*
G36*
X100496823Y-106476313D02*
G01*
X100657242Y-106524976D01*
X100789906Y-106595886D01*
X100805078Y-106603996D01*
X100934659Y-106710341D01*
X101041004Y-106839922D01*
X101041005Y-106839924D01*
X101120024Y-106987758D01*
X101168687Y-107148177D01*
X101185117Y-107315000D01*
X101168687Y-107481823D01*
X101120024Y-107642242D01*
X101049114Y-107774906D01*
X101041004Y-107790078D01*
X100934659Y-107919659D01*
X100805078Y-108026004D01*
X100805076Y-108026005D01*
X100657242Y-108105024D01*
X100496823Y-108153687D01*
X100371804Y-108166000D01*
X100288196Y-108166000D01*
X100163177Y-108153687D01*
X100002758Y-108105024D01*
X99854924Y-108026005D01*
X99854922Y-108026004D01*
X99725341Y-107919659D01*
X99618996Y-107790078D01*
X99610886Y-107774906D01*
X99539976Y-107642242D01*
X99491313Y-107481823D01*
X99474883Y-107315000D01*
X99491313Y-107148177D01*
X99539976Y-106987758D01*
X99618995Y-106839924D01*
X99618996Y-106839922D01*
X99725341Y-106710341D01*
X99854922Y-106603996D01*
X99870094Y-106595886D01*
X100002758Y-106524976D01*
X100163177Y-106476313D01*
X100288196Y-106464000D01*
X100371804Y-106464000D01*
X100496823Y-106476313D01*
X100496823Y-106476313D01*
G37*
G36*
X97956823Y-106476313D02*
G01*
X98117242Y-106524976D01*
X98249906Y-106595886D01*
X98265078Y-106603996D01*
X98394659Y-106710341D01*
X98501004Y-106839922D01*
X98501005Y-106839924D01*
X98580024Y-106987758D01*
X98628687Y-107148177D01*
X98645117Y-107315000D01*
X98628687Y-107481823D01*
X98580024Y-107642242D01*
X98509114Y-107774906D01*
X98501004Y-107790078D01*
X98394659Y-107919659D01*
X98265078Y-108026004D01*
X98265076Y-108026005D01*
X98117242Y-108105024D01*
X97956823Y-108153687D01*
X97831804Y-108166000D01*
X97748196Y-108166000D01*
X97623177Y-108153687D01*
X97462758Y-108105024D01*
X97314924Y-108026005D01*
X97314922Y-108026004D01*
X97185341Y-107919659D01*
X97078996Y-107790078D01*
X97070886Y-107774906D01*
X96999976Y-107642242D01*
X96951313Y-107481823D01*
X96934883Y-107315000D01*
X96951313Y-107148177D01*
X96999976Y-106987758D01*
X97078995Y-106839924D01*
X97078996Y-106839922D01*
X97185341Y-106710341D01*
X97314922Y-106603996D01*
X97330094Y-106595886D01*
X97462758Y-106524976D01*
X97623177Y-106476313D01*
X97748196Y-106464000D01*
X97831804Y-106464000D01*
X97956823Y-106476313D01*
X97956823Y-106476313D01*
G37*
G36*
X67476823Y-106476313D02*
G01*
X67637242Y-106524976D01*
X67769906Y-106595886D01*
X67785078Y-106603996D01*
X67914659Y-106710341D01*
X68021004Y-106839922D01*
X68021005Y-106839924D01*
X68100024Y-106987758D01*
X68148687Y-107148177D01*
X68165117Y-107315000D01*
X68148687Y-107481823D01*
X68100024Y-107642242D01*
X68029114Y-107774906D01*
X68021004Y-107790078D01*
X67914659Y-107919659D01*
X67785078Y-108026004D01*
X67785076Y-108026005D01*
X67637242Y-108105024D01*
X67476823Y-108153687D01*
X67351804Y-108166000D01*
X67268196Y-108166000D01*
X67143177Y-108153687D01*
X66982758Y-108105024D01*
X66834924Y-108026005D01*
X66834922Y-108026004D01*
X66705341Y-107919659D01*
X66598996Y-107790078D01*
X66590886Y-107774906D01*
X66519976Y-107642242D01*
X66471313Y-107481823D01*
X66454883Y-107315000D01*
X66471313Y-107148177D01*
X66519976Y-106987758D01*
X66598995Y-106839924D01*
X66598996Y-106839922D01*
X66705341Y-106710341D01*
X66834922Y-106603996D01*
X66850094Y-106595886D01*
X66982758Y-106524976D01*
X67143177Y-106476313D01*
X67268196Y-106464000D01*
X67351804Y-106464000D01*
X67476823Y-106476313D01*
X67476823Y-106476313D01*
G37*
G36*
X70016823Y-106476313D02*
G01*
X70177242Y-106524976D01*
X70309906Y-106595886D01*
X70325078Y-106603996D01*
X70454659Y-106710341D01*
X70561004Y-106839922D01*
X70561005Y-106839924D01*
X70640024Y-106987758D01*
X70688687Y-107148177D01*
X70705117Y-107315000D01*
X70688687Y-107481823D01*
X70640024Y-107642242D01*
X70569114Y-107774906D01*
X70561004Y-107790078D01*
X70454659Y-107919659D01*
X70325078Y-108026004D01*
X70325076Y-108026005D01*
X70177242Y-108105024D01*
X70016823Y-108153687D01*
X69891804Y-108166000D01*
X69808196Y-108166000D01*
X69683177Y-108153687D01*
X69522758Y-108105024D01*
X69374924Y-108026005D01*
X69374922Y-108026004D01*
X69245341Y-107919659D01*
X69138996Y-107790078D01*
X69130886Y-107774906D01*
X69059976Y-107642242D01*
X69011313Y-107481823D01*
X68994883Y-107315000D01*
X69011313Y-107148177D01*
X69059976Y-106987758D01*
X69138995Y-106839924D01*
X69138996Y-106839922D01*
X69245341Y-106710341D01*
X69374922Y-106603996D01*
X69390094Y-106595886D01*
X69522758Y-106524976D01*
X69683177Y-106476313D01*
X69808196Y-106464000D01*
X69891804Y-106464000D01*
X70016823Y-106476313D01*
X70016823Y-106476313D01*
G37*
G36*
X72556823Y-106476313D02*
G01*
X72717242Y-106524976D01*
X72849906Y-106595886D01*
X72865078Y-106603996D01*
X72994659Y-106710341D01*
X73101004Y-106839922D01*
X73101005Y-106839924D01*
X73180024Y-106987758D01*
X73228687Y-107148177D01*
X73245117Y-107315000D01*
X73228687Y-107481823D01*
X73180024Y-107642242D01*
X73109114Y-107774906D01*
X73101004Y-107790078D01*
X72994659Y-107919659D01*
X72865078Y-108026004D01*
X72865076Y-108026005D01*
X72717242Y-108105024D01*
X72556823Y-108153687D01*
X72431804Y-108166000D01*
X72348196Y-108166000D01*
X72223177Y-108153687D01*
X72062758Y-108105024D01*
X71914924Y-108026005D01*
X71914922Y-108026004D01*
X71785341Y-107919659D01*
X71678996Y-107790078D01*
X71670886Y-107774906D01*
X71599976Y-107642242D01*
X71551313Y-107481823D01*
X71534883Y-107315000D01*
X71551313Y-107148177D01*
X71599976Y-106987758D01*
X71678995Y-106839924D01*
X71678996Y-106839922D01*
X71785341Y-106710341D01*
X71914922Y-106603996D01*
X71930094Y-106595886D01*
X72062758Y-106524976D01*
X72223177Y-106476313D01*
X72348196Y-106464000D01*
X72431804Y-106464000D01*
X72556823Y-106476313D01*
X72556823Y-106476313D01*
G37*
G36*
X75096823Y-106476313D02*
G01*
X75257242Y-106524976D01*
X75389906Y-106595886D01*
X75405078Y-106603996D01*
X75534659Y-106710341D01*
X75641004Y-106839922D01*
X75641005Y-106839924D01*
X75720024Y-106987758D01*
X75768687Y-107148177D01*
X75785117Y-107315000D01*
X75768687Y-107481823D01*
X75720024Y-107642242D01*
X75649114Y-107774906D01*
X75641004Y-107790078D01*
X75534659Y-107919659D01*
X75405078Y-108026004D01*
X75405076Y-108026005D01*
X75257242Y-108105024D01*
X75096823Y-108153687D01*
X74971804Y-108166000D01*
X74888196Y-108166000D01*
X74763177Y-108153687D01*
X74602758Y-108105024D01*
X74454924Y-108026005D01*
X74454922Y-108026004D01*
X74325341Y-107919659D01*
X74218996Y-107790078D01*
X74210886Y-107774906D01*
X74139976Y-107642242D01*
X74091313Y-107481823D01*
X74074883Y-107315000D01*
X74091313Y-107148177D01*
X74139976Y-106987758D01*
X74218995Y-106839924D01*
X74218996Y-106839922D01*
X74325341Y-106710341D01*
X74454922Y-106603996D01*
X74470094Y-106595886D01*
X74602758Y-106524976D01*
X74763177Y-106476313D01*
X74888196Y-106464000D01*
X74971804Y-106464000D01*
X75096823Y-106476313D01*
X75096823Y-106476313D01*
G37*
G36*
X77636823Y-106476313D02*
G01*
X77797242Y-106524976D01*
X77929906Y-106595886D01*
X77945078Y-106603996D01*
X78074659Y-106710341D01*
X78181004Y-106839922D01*
X78181005Y-106839924D01*
X78260024Y-106987758D01*
X78308687Y-107148177D01*
X78325117Y-107315000D01*
X78308687Y-107481823D01*
X78260024Y-107642242D01*
X78189114Y-107774906D01*
X78181004Y-107790078D01*
X78074659Y-107919659D01*
X77945078Y-108026004D01*
X77945076Y-108026005D01*
X77797242Y-108105024D01*
X77636823Y-108153687D01*
X77511804Y-108166000D01*
X77428196Y-108166000D01*
X77303177Y-108153687D01*
X77142758Y-108105024D01*
X76994924Y-108026005D01*
X76994922Y-108026004D01*
X76865341Y-107919659D01*
X76758996Y-107790078D01*
X76750886Y-107774906D01*
X76679976Y-107642242D01*
X76631313Y-107481823D01*
X76614883Y-107315000D01*
X76631313Y-107148177D01*
X76679976Y-106987758D01*
X76758995Y-106839924D01*
X76758996Y-106839922D01*
X76865341Y-106710341D01*
X76994922Y-106603996D01*
X77010094Y-106595886D01*
X77142758Y-106524976D01*
X77303177Y-106476313D01*
X77428196Y-106464000D01*
X77511804Y-106464000D01*
X77636823Y-106476313D01*
X77636823Y-106476313D01*
G37*
G36*
X80176823Y-106476313D02*
G01*
X80337242Y-106524976D01*
X80469906Y-106595886D01*
X80485078Y-106603996D01*
X80614659Y-106710341D01*
X80721004Y-106839922D01*
X80721005Y-106839924D01*
X80800024Y-106987758D01*
X80848687Y-107148177D01*
X80865117Y-107315000D01*
X80848687Y-107481823D01*
X80800024Y-107642242D01*
X80729114Y-107774906D01*
X80721004Y-107790078D01*
X80614659Y-107919659D01*
X80485078Y-108026004D01*
X80485076Y-108026005D01*
X80337242Y-108105024D01*
X80176823Y-108153687D01*
X80051804Y-108166000D01*
X79968196Y-108166000D01*
X79843177Y-108153687D01*
X79682758Y-108105024D01*
X79534924Y-108026005D01*
X79534922Y-108026004D01*
X79405341Y-107919659D01*
X79298996Y-107790078D01*
X79290886Y-107774906D01*
X79219976Y-107642242D01*
X79171313Y-107481823D01*
X79154883Y-107315000D01*
X79171313Y-107148177D01*
X79219976Y-106987758D01*
X79298995Y-106839924D01*
X79298996Y-106839922D01*
X79405341Y-106710341D01*
X79534922Y-106603996D01*
X79550094Y-106595886D01*
X79682758Y-106524976D01*
X79843177Y-106476313D01*
X79968196Y-106464000D01*
X80051804Y-106464000D01*
X80176823Y-106476313D01*
X80176823Y-106476313D01*
G37*
G36*
X85256823Y-106476313D02*
G01*
X85417242Y-106524976D01*
X85549906Y-106595886D01*
X85565078Y-106603996D01*
X85694659Y-106710341D01*
X85801004Y-106839922D01*
X85801005Y-106839924D01*
X85880024Y-106987758D01*
X85928687Y-107148177D01*
X85945117Y-107315000D01*
X85928687Y-107481823D01*
X85880024Y-107642242D01*
X85809114Y-107774906D01*
X85801004Y-107790078D01*
X85694659Y-107919659D01*
X85565078Y-108026004D01*
X85565076Y-108026005D01*
X85417242Y-108105024D01*
X85256823Y-108153687D01*
X85131804Y-108166000D01*
X85048196Y-108166000D01*
X84923177Y-108153687D01*
X84762758Y-108105024D01*
X84614924Y-108026005D01*
X84614922Y-108026004D01*
X84485341Y-107919659D01*
X84378996Y-107790078D01*
X84370886Y-107774906D01*
X84299976Y-107642242D01*
X84251313Y-107481823D01*
X84234883Y-107315000D01*
X84251313Y-107148177D01*
X84299976Y-106987758D01*
X84378995Y-106839924D01*
X84378996Y-106839922D01*
X84485341Y-106710341D01*
X84614922Y-106603996D01*
X84630094Y-106595886D01*
X84762758Y-106524976D01*
X84923177Y-106476313D01*
X85048196Y-106464000D01*
X85131804Y-106464000D01*
X85256823Y-106476313D01*
X85256823Y-106476313D01*
G37*
G36*
X87796823Y-106476313D02*
G01*
X87957242Y-106524976D01*
X88089906Y-106595886D01*
X88105078Y-106603996D01*
X88234659Y-106710341D01*
X88341004Y-106839922D01*
X88341005Y-106839924D01*
X88420024Y-106987758D01*
X88468687Y-107148177D01*
X88485117Y-107315000D01*
X88468687Y-107481823D01*
X88420024Y-107642242D01*
X88349114Y-107774906D01*
X88341004Y-107790078D01*
X88234659Y-107919659D01*
X88105078Y-108026004D01*
X88105076Y-108026005D01*
X87957242Y-108105024D01*
X87796823Y-108153687D01*
X87671804Y-108166000D01*
X87588196Y-108166000D01*
X87463177Y-108153687D01*
X87302758Y-108105024D01*
X87154924Y-108026005D01*
X87154922Y-108026004D01*
X87025341Y-107919659D01*
X86918996Y-107790078D01*
X86910886Y-107774906D01*
X86839976Y-107642242D01*
X86791313Y-107481823D01*
X86774883Y-107315000D01*
X86791313Y-107148177D01*
X86839976Y-106987758D01*
X86918995Y-106839924D01*
X86918996Y-106839922D01*
X87025341Y-106710341D01*
X87154922Y-106603996D01*
X87170094Y-106595886D01*
X87302758Y-106524976D01*
X87463177Y-106476313D01*
X87588196Y-106464000D01*
X87671804Y-106464000D01*
X87796823Y-106476313D01*
X87796823Y-106476313D01*
G37*
G36*
X90336823Y-106476313D02*
G01*
X90497242Y-106524976D01*
X90629906Y-106595886D01*
X90645078Y-106603996D01*
X90774659Y-106710341D01*
X90881004Y-106839922D01*
X90881005Y-106839924D01*
X90960024Y-106987758D01*
X91008687Y-107148177D01*
X91025117Y-107315000D01*
X91008687Y-107481823D01*
X90960024Y-107642242D01*
X90889114Y-107774906D01*
X90881004Y-107790078D01*
X90774659Y-107919659D01*
X90645078Y-108026004D01*
X90645076Y-108026005D01*
X90497242Y-108105024D01*
X90336823Y-108153687D01*
X90211804Y-108166000D01*
X90128196Y-108166000D01*
X90003177Y-108153687D01*
X89842758Y-108105024D01*
X89694924Y-108026005D01*
X89694922Y-108026004D01*
X89565341Y-107919659D01*
X89458996Y-107790078D01*
X89450886Y-107774906D01*
X89379976Y-107642242D01*
X89331313Y-107481823D01*
X89314883Y-107315000D01*
X89331313Y-107148177D01*
X89379976Y-106987758D01*
X89458995Y-106839924D01*
X89458996Y-106839922D01*
X89565341Y-106710341D01*
X89694922Y-106603996D01*
X89710094Y-106595886D01*
X89842758Y-106524976D01*
X90003177Y-106476313D01*
X90128196Y-106464000D01*
X90211804Y-106464000D01*
X90336823Y-106476313D01*
X90336823Y-106476313D01*
G37*
G36*
X92876823Y-106476313D02*
G01*
X93037242Y-106524976D01*
X93169906Y-106595886D01*
X93185078Y-106603996D01*
X93314659Y-106710341D01*
X93421004Y-106839922D01*
X93421005Y-106839924D01*
X93500024Y-106987758D01*
X93548687Y-107148177D01*
X93565117Y-107315000D01*
X93548687Y-107481823D01*
X93500024Y-107642242D01*
X93429114Y-107774906D01*
X93421004Y-107790078D01*
X93314659Y-107919659D01*
X93185078Y-108026004D01*
X93185076Y-108026005D01*
X93037242Y-108105024D01*
X92876823Y-108153687D01*
X92751804Y-108166000D01*
X92668196Y-108166000D01*
X92543177Y-108153687D01*
X92382758Y-108105024D01*
X92234924Y-108026005D01*
X92234922Y-108026004D01*
X92105341Y-107919659D01*
X91998996Y-107790078D01*
X91990886Y-107774906D01*
X91919976Y-107642242D01*
X91871313Y-107481823D01*
X91854883Y-107315000D01*
X91871313Y-107148177D01*
X91919976Y-106987758D01*
X91998995Y-106839924D01*
X91998996Y-106839922D01*
X92105341Y-106710341D01*
X92234922Y-106603996D01*
X92250094Y-106595886D01*
X92382758Y-106524976D01*
X92543177Y-106476313D01*
X92668196Y-106464000D01*
X92751804Y-106464000D01*
X92876823Y-106476313D01*
X92876823Y-106476313D01*
G37*
G36*
X95416823Y-106476313D02*
G01*
X95577242Y-106524976D01*
X95709906Y-106595886D01*
X95725078Y-106603996D01*
X95854659Y-106710341D01*
X95961004Y-106839922D01*
X95961005Y-106839924D01*
X96040024Y-106987758D01*
X96088687Y-107148177D01*
X96105117Y-107315000D01*
X96088687Y-107481823D01*
X96040024Y-107642242D01*
X95969114Y-107774906D01*
X95961004Y-107790078D01*
X95854659Y-107919659D01*
X95725078Y-108026004D01*
X95725076Y-108026005D01*
X95577242Y-108105024D01*
X95416823Y-108153687D01*
X95291804Y-108166000D01*
X95208196Y-108166000D01*
X95083177Y-108153687D01*
X94922758Y-108105024D01*
X94774924Y-108026005D01*
X94774922Y-108026004D01*
X94645341Y-107919659D01*
X94538996Y-107790078D01*
X94530886Y-107774906D01*
X94459976Y-107642242D01*
X94411313Y-107481823D01*
X94394883Y-107315000D01*
X94411313Y-107148177D01*
X94459976Y-106987758D01*
X94538995Y-106839924D01*
X94538996Y-106839922D01*
X94645341Y-106710341D01*
X94774922Y-106603996D01*
X94790094Y-106595886D01*
X94922758Y-106524976D01*
X95083177Y-106476313D01*
X95208196Y-106464000D01*
X95291804Y-106464000D01*
X95416823Y-106476313D01*
X95416823Y-106476313D01*
G37*
G36*
X82716823Y-106476313D02*
G01*
X82877242Y-106524976D01*
X83009906Y-106595886D01*
X83025078Y-106603996D01*
X83154659Y-106710341D01*
X83261004Y-106839922D01*
X83261005Y-106839924D01*
X83340024Y-106987758D01*
X83388687Y-107148177D01*
X83405117Y-107315000D01*
X83388687Y-107481823D01*
X83340024Y-107642242D01*
X83269114Y-107774906D01*
X83261004Y-107790078D01*
X83154659Y-107919659D01*
X83025078Y-108026004D01*
X83025076Y-108026005D01*
X82877242Y-108105024D01*
X82716823Y-108153687D01*
X82591804Y-108166000D01*
X82508196Y-108166000D01*
X82383177Y-108153687D01*
X82222758Y-108105024D01*
X82074924Y-108026005D01*
X82074922Y-108026004D01*
X81945341Y-107919659D01*
X81838996Y-107790078D01*
X81830886Y-107774906D01*
X81759976Y-107642242D01*
X81711313Y-107481823D01*
X81694883Y-107315000D01*
X81711313Y-107148177D01*
X81759976Y-106987758D01*
X81838995Y-106839924D01*
X81838996Y-106839922D01*
X81945341Y-106710341D01*
X82074922Y-106603996D01*
X82090094Y-106595886D01*
X82222758Y-106524976D01*
X82383177Y-106476313D01*
X82508196Y-106464000D01*
X82591804Y-106464000D01*
X82716823Y-106476313D01*
X82716823Y-106476313D01*
G37*
G36*
X114791443Y-104007519D02*
G01*
X114857627Y-104014037D01*
X115027466Y-104065557D01*
X115183991Y-104149222D01*
X115219729Y-104178552D01*
X115321186Y-104261814D01*
X115404448Y-104363271D01*
X115433778Y-104399009D01*
X115517443Y-104555534D01*
X115568963Y-104725373D01*
X115586359Y-104902000D01*
X115568963Y-105078627D01*
X115517443Y-105248466D01*
X115433778Y-105404991D01*
X115404448Y-105440729D01*
X115321186Y-105542186D01*
X115219729Y-105625448D01*
X115183991Y-105654778D01*
X115027466Y-105738443D01*
X114857627Y-105789963D01*
X114791442Y-105796482D01*
X114725260Y-105803000D01*
X114636740Y-105803000D01*
X114570558Y-105796482D01*
X114504373Y-105789963D01*
X114334534Y-105738443D01*
X114178009Y-105654778D01*
X114142271Y-105625448D01*
X114040814Y-105542186D01*
X113957552Y-105440729D01*
X113928222Y-105404991D01*
X113844557Y-105248466D01*
X113793037Y-105078627D01*
X113775641Y-104902000D01*
X113793037Y-104725373D01*
X113844557Y-104555534D01*
X113928222Y-104399009D01*
X113957552Y-104363271D01*
X114040814Y-104261814D01*
X114142271Y-104178552D01*
X114178009Y-104149222D01*
X114334534Y-104065557D01*
X114504373Y-104014037D01*
X114570558Y-104007518D01*
X114636740Y-104001000D01*
X114725260Y-104001000D01*
X114791443Y-104007519D01*
X114791443Y-104007519D01*
G37*
G36*
X122411443Y-104007519D02*
G01*
X122477627Y-104014037D01*
X122647466Y-104065557D01*
X122803991Y-104149222D01*
X122839729Y-104178552D01*
X122941186Y-104261814D01*
X123024448Y-104363271D01*
X123053778Y-104399009D01*
X123137443Y-104555534D01*
X123188963Y-104725373D01*
X123206359Y-104902000D01*
X123188963Y-105078627D01*
X123137443Y-105248466D01*
X123053778Y-105404991D01*
X123024448Y-105440729D01*
X122941186Y-105542186D01*
X122839729Y-105625448D01*
X122803991Y-105654778D01*
X122647466Y-105738443D01*
X122477627Y-105789963D01*
X122411442Y-105796482D01*
X122345260Y-105803000D01*
X122256740Y-105803000D01*
X122190558Y-105796482D01*
X122124373Y-105789963D01*
X121954534Y-105738443D01*
X121798009Y-105654778D01*
X121762271Y-105625448D01*
X121660814Y-105542186D01*
X121577552Y-105440729D01*
X121548222Y-105404991D01*
X121464557Y-105248466D01*
X121413037Y-105078627D01*
X121395641Y-104902000D01*
X121413037Y-104725373D01*
X121464557Y-104555534D01*
X121548222Y-104399009D01*
X121577552Y-104363271D01*
X121660814Y-104261814D01*
X121762271Y-104178552D01*
X121798009Y-104149222D01*
X121954534Y-104065557D01*
X122124373Y-104014037D01*
X122190558Y-104007518D01*
X122256740Y-104001000D01*
X122345260Y-104001000D01*
X122411443Y-104007519D01*
X122411443Y-104007519D01*
G37*
G36*
X117331443Y-104007519D02*
G01*
X117397627Y-104014037D01*
X117567466Y-104065557D01*
X117723991Y-104149222D01*
X117759729Y-104178552D01*
X117861186Y-104261814D01*
X117944448Y-104363271D01*
X117973778Y-104399009D01*
X118057443Y-104555534D01*
X118108963Y-104725373D01*
X118126359Y-104902000D01*
X118108963Y-105078627D01*
X118057443Y-105248466D01*
X117973778Y-105404991D01*
X117944448Y-105440729D01*
X117861186Y-105542186D01*
X117759729Y-105625448D01*
X117723991Y-105654778D01*
X117567466Y-105738443D01*
X117397627Y-105789963D01*
X117331442Y-105796482D01*
X117265260Y-105803000D01*
X117176740Y-105803000D01*
X117110558Y-105796482D01*
X117044373Y-105789963D01*
X116874534Y-105738443D01*
X116718009Y-105654778D01*
X116682271Y-105625448D01*
X116580814Y-105542186D01*
X116497552Y-105440729D01*
X116468222Y-105404991D01*
X116384557Y-105248466D01*
X116333037Y-105078627D01*
X116315641Y-104902000D01*
X116333037Y-104725373D01*
X116384557Y-104555534D01*
X116468222Y-104399009D01*
X116497552Y-104363271D01*
X116580814Y-104261814D01*
X116682271Y-104178552D01*
X116718009Y-104149222D01*
X116874534Y-104065557D01*
X117044373Y-104014037D01*
X117110558Y-104007518D01*
X117176740Y-104001000D01*
X117265260Y-104001000D01*
X117331443Y-104007519D01*
X117331443Y-104007519D01*
G37*
G36*
X112251443Y-104007519D02*
G01*
X112317627Y-104014037D01*
X112487466Y-104065557D01*
X112643991Y-104149222D01*
X112679729Y-104178552D01*
X112781186Y-104261814D01*
X112864448Y-104363271D01*
X112893778Y-104399009D01*
X112977443Y-104555534D01*
X113028963Y-104725373D01*
X113046359Y-104902000D01*
X113028963Y-105078627D01*
X112977443Y-105248466D01*
X112893778Y-105404991D01*
X112864448Y-105440729D01*
X112781186Y-105542186D01*
X112679729Y-105625448D01*
X112643991Y-105654778D01*
X112487466Y-105738443D01*
X112317627Y-105789963D01*
X112251442Y-105796482D01*
X112185260Y-105803000D01*
X112096740Y-105803000D01*
X112030558Y-105796482D01*
X111964373Y-105789963D01*
X111794534Y-105738443D01*
X111638009Y-105654778D01*
X111602271Y-105625448D01*
X111500814Y-105542186D01*
X111417552Y-105440729D01*
X111388222Y-105404991D01*
X111304557Y-105248466D01*
X111253037Y-105078627D01*
X111235641Y-104902000D01*
X111253037Y-104725373D01*
X111304557Y-104555534D01*
X111388222Y-104399009D01*
X111417552Y-104363271D01*
X111500814Y-104261814D01*
X111602271Y-104178552D01*
X111638009Y-104149222D01*
X111794534Y-104065557D01*
X111964373Y-104014037D01*
X112030558Y-104007518D01*
X112096740Y-104001000D01*
X112185260Y-104001000D01*
X112251443Y-104007519D01*
X112251443Y-104007519D01*
G37*
G36*
X125742000Y-105803000D02*
G01*
X123940000Y-105803000D01*
X123940000Y-104001000D01*
X125742000Y-104001000D01*
X125742000Y-105803000D01*
X125742000Y-105803000D01*
G37*
G36*
X119871443Y-104007519D02*
G01*
X119937627Y-104014037D01*
X120107466Y-104065557D01*
X120263991Y-104149222D01*
X120299729Y-104178552D01*
X120401186Y-104261814D01*
X120484448Y-104363271D01*
X120513778Y-104399009D01*
X120597443Y-104555534D01*
X120648963Y-104725373D01*
X120666359Y-104902000D01*
X120648963Y-105078627D01*
X120597443Y-105248466D01*
X120513778Y-105404991D01*
X120484448Y-105440729D01*
X120401186Y-105542186D01*
X120299729Y-105625448D01*
X120263991Y-105654778D01*
X120107466Y-105738443D01*
X119937627Y-105789963D01*
X119871442Y-105796482D01*
X119805260Y-105803000D01*
X119716740Y-105803000D01*
X119650558Y-105796482D01*
X119584373Y-105789963D01*
X119414534Y-105738443D01*
X119258009Y-105654778D01*
X119222271Y-105625448D01*
X119120814Y-105542186D01*
X119037552Y-105440729D01*
X119008222Y-105404991D01*
X118924557Y-105248466D01*
X118873037Y-105078627D01*
X118855641Y-104902000D01*
X118873037Y-104725373D01*
X118924557Y-104555534D01*
X119008222Y-104399009D01*
X119037552Y-104363271D01*
X119120814Y-104261814D01*
X119222271Y-104178552D01*
X119258009Y-104149222D01*
X119414534Y-104065557D01*
X119584373Y-104014037D01*
X119650558Y-104007518D01*
X119716740Y-104001000D01*
X119805260Y-104001000D01*
X119871443Y-104007519D01*
X119871443Y-104007519D01*
G37*
G36*
X77636823Y-98856313D02*
G01*
X77797242Y-98904976D01*
X77929906Y-98975886D01*
X77945078Y-98983996D01*
X78074659Y-99090341D01*
X78181004Y-99219922D01*
X78181005Y-99219924D01*
X78260024Y-99367758D01*
X78308687Y-99528177D01*
X78325117Y-99695000D01*
X78308687Y-99861823D01*
X78260024Y-100022242D01*
X78204772Y-100125611D01*
X78181004Y-100170078D01*
X78074659Y-100299659D01*
X77945078Y-100406004D01*
X77945076Y-100406005D01*
X77797242Y-100485024D01*
X77636823Y-100533687D01*
X77511804Y-100546000D01*
X77428196Y-100546000D01*
X77303177Y-100533687D01*
X77142758Y-100485024D01*
X76994924Y-100406005D01*
X76994922Y-100406004D01*
X76865341Y-100299659D01*
X76758996Y-100170078D01*
X76735228Y-100125611D01*
X76679976Y-100022242D01*
X76631313Y-99861823D01*
X76614883Y-99695000D01*
X76631313Y-99528177D01*
X76679976Y-99367758D01*
X76758995Y-99219924D01*
X76758996Y-99219922D01*
X76865341Y-99090341D01*
X76994922Y-98983996D01*
X77010094Y-98975886D01*
X77142758Y-98904976D01*
X77303177Y-98856313D01*
X77428196Y-98844000D01*
X77511804Y-98844000D01*
X77636823Y-98856313D01*
X77636823Y-98856313D01*
G37*
G36*
X67476823Y-98856313D02*
G01*
X67637242Y-98904976D01*
X67769906Y-98975886D01*
X67785078Y-98983996D01*
X67914659Y-99090341D01*
X68021004Y-99219922D01*
X68021005Y-99219924D01*
X68100024Y-99367758D01*
X68148687Y-99528177D01*
X68165117Y-99695000D01*
X68148687Y-99861823D01*
X68100024Y-100022242D01*
X68044772Y-100125611D01*
X68021004Y-100170078D01*
X67914659Y-100299659D01*
X67785078Y-100406004D01*
X67785076Y-100406005D01*
X67637242Y-100485024D01*
X67476823Y-100533687D01*
X67351804Y-100546000D01*
X67268196Y-100546000D01*
X67143177Y-100533687D01*
X66982758Y-100485024D01*
X66834924Y-100406005D01*
X66834922Y-100406004D01*
X66705341Y-100299659D01*
X66598996Y-100170078D01*
X66575228Y-100125611D01*
X66519976Y-100022242D01*
X66471313Y-99861823D01*
X66454883Y-99695000D01*
X66471313Y-99528177D01*
X66519976Y-99367758D01*
X66598995Y-99219924D01*
X66598996Y-99219922D01*
X66705341Y-99090341D01*
X66834922Y-98983996D01*
X66850094Y-98975886D01*
X66982758Y-98904976D01*
X67143177Y-98856313D01*
X67268196Y-98844000D01*
X67351804Y-98844000D01*
X67476823Y-98856313D01*
X67476823Y-98856313D01*
G37*
G36*
X70016823Y-98856313D02*
G01*
X70177242Y-98904976D01*
X70309906Y-98975886D01*
X70325078Y-98983996D01*
X70454659Y-99090341D01*
X70561004Y-99219922D01*
X70561005Y-99219924D01*
X70640024Y-99367758D01*
X70688687Y-99528177D01*
X70705117Y-99695000D01*
X70688687Y-99861823D01*
X70640024Y-100022242D01*
X70584772Y-100125611D01*
X70561004Y-100170078D01*
X70454659Y-100299659D01*
X70325078Y-100406004D01*
X70325076Y-100406005D01*
X70177242Y-100485024D01*
X70016823Y-100533687D01*
X69891804Y-100546000D01*
X69808196Y-100546000D01*
X69683177Y-100533687D01*
X69522758Y-100485024D01*
X69374924Y-100406005D01*
X69374922Y-100406004D01*
X69245341Y-100299659D01*
X69138996Y-100170078D01*
X69115228Y-100125611D01*
X69059976Y-100022242D01*
X69011313Y-99861823D01*
X68994883Y-99695000D01*
X69011313Y-99528177D01*
X69059976Y-99367758D01*
X69138995Y-99219924D01*
X69138996Y-99219922D01*
X69245341Y-99090341D01*
X69374922Y-98983996D01*
X69390094Y-98975886D01*
X69522758Y-98904976D01*
X69683177Y-98856313D01*
X69808196Y-98844000D01*
X69891804Y-98844000D01*
X70016823Y-98856313D01*
X70016823Y-98856313D01*
G37*
G36*
X72556823Y-98856313D02*
G01*
X72717242Y-98904976D01*
X72849906Y-98975886D01*
X72865078Y-98983996D01*
X72994659Y-99090341D01*
X73101004Y-99219922D01*
X73101005Y-99219924D01*
X73180024Y-99367758D01*
X73228687Y-99528177D01*
X73245117Y-99695000D01*
X73228687Y-99861823D01*
X73180024Y-100022242D01*
X73124772Y-100125611D01*
X73101004Y-100170078D01*
X72994659Y-100299659D01*
X72865078Y-100406004D01*
X72865076Y-100406005D01*
X72717242Y-100485024D01*
X72556823Y-100533687D01*
X72431804Y-100546000D01*
X72348196Y-100546000D01*
X72223177Y-100533687D01*
X72062758Y-100485024D01*
X71914924Y-100406005D01*
X71914922Y-100406004D01*
X71785341Y-100299659D01*
X71678996Y-100170078D01*
X71655228Y-100125611D01*
X71599976Y-100022242D01*
X71551313Y-99861823D01*
X71534883Y-99695000D01*
X71551313Y-99528177D01*
X71599976Y-99367758D01*
X71678995Y-99219924D01*
X71678996Y-99219922D01*
X71785341Y-99090341D01*
X71914922Y-98983996D01*
X71930094Y-98975886D01*
X72062758Y-98904976D01*
X72223177Y-98856313D01*
X72348196Y-98844000D01*
X72431804Y-98844000D01*
X72556823Y-98856313D01*
X72556823Y-98856313D01*
G37*
G36*
X75096823Y-98856313D02*
G01*
X75257242Y-98904976D01*
X75389906Y-98975886D01*
X75405078Y-98983996D01*
X75534659Y-99090341D01*
X75641004Y-99219922D01*
X75641005Y-99219924D01*
X75720024Y-99367758D01*
X75768687Y-99528177D01*
X75785117Y-99695000D01*
X75768687Y-99861823D01*
X75720024Y-100022242D01*
X75664772Y-100125611D01*
X75641004Y-100170078D01*
X75534659Y-100299659D01*
X75405078Y-100406004D01*
X75405076Y-100406005D01*
X75257242Y-100485024D01*
X75096823Y-100533687D01*
X74971804Y-100546000D01*
X74888196Y-100546000D01*
X74763177Y-100533687D01*
X74602758Y-100485024D01*
X74454924Y-100406005D01*
X74454922Y-100406004D01*
X74325341Y-100299659D01*
X74218996Y-100170078D01*
X74195228Y-100125611D01*
X74139976Y-100022242D01*
X74091313Y-99861823D01*
X74074883Y-99695000D01*
X74091313Y-99528177D01*
X74139976Y-99367758D01*
X74218995Y-99219924D01*
X74218996Y-99219922D01*
X74325341Y-99090341D01*
X74454922Y-98983996D01*
X74470094Y-98975886D01*
X74602758Y-98904976D01*
X74763177Y-98856313D01*
X74888196Y-98844000D01*
X74971804Y-98844000D01*
X75096823Y-98856313D01*
X75096823Y-98856313D01*
G37*
G36*
X101181000Y-100546000D02*
G01*
X99479000Y-100546000D01*
X99479000Y-98844000D01*
X101181000Y-98844000D01*
X101181000Y-100546000D01*
X101181000Y-100546000D01*
G37*
G36*
X97956823Y-98856313D02*
G01*
X98117242Y-98904976D01*
X98249906Y-98975886D01*
X98265078Y-98983996D01*
X98394659Y-99090341D01*
X98501004Y-99219922D01*
X98501005Y-99219924D01*
X98580024Y-99367758D01*
X98628687Y-99528177D01*
X98645117Y-99695000D01*
X98628687Y-99861823D01*
X98580024Y-100022242D01*
X98524772Y-100125611D01*
X98501004Y-100170078D01*
X98394659Y-100299659D01*
X98265078Y-100406004D01*
X98265076Y-100406005D01*
X98117242Y-100485024D01*
X97956823Y-100533687D01*
X97831804Y-100546000D01*
X97748196Y-100546000D01*
X97623177Y-100533687D01*
X97462758Y-100485024D01*
X97314924Y-100406005D01*
X97314922Y-100406004D01*
X97185341Y-100299659D01*
X97078996Y-100170078D01*
X97055228Y-100125611D01*
X96999976Y-100022242D01*
X96951313Y-99861823D01*
X96934883Y-99695000D01*
X96951313Y-99528177D01*
X96999976Y-99367758D01*
X97078995Y-99219924D01*
X97078996Y-99219922D01*
X97185341Y-99090341D01*
X97314922Y-98983996D01*
X97330094Y-98975886D01*
X97462758Y-98904976D01*
X97623177Y-98856313D01*
X97748196Y-98844000D01*
X97831804Y-98844000D01*
X97956823Y-98856313D01*
X97956823Y-98856313D01*
G37*
G36*
X95416823Y-98856313D02*
G01*
X95577242Y-98904976D01*
X95709906Y-98975886D01*
X95725078Y-98983996D01*
X95854659Y-99090341D01*
X95961004Y-99219922D01*
X95961005Y-99219924D01*
X96040024Y-99367758D01*
X96088687Y-99528177D01*
X96105117Y-99695000D01*
X96088687Y-99861823D01*
X96040024Y-100022242D01*
X95984772Y-100125611D01*
X95961004Y-100170078D01*
X95854659Y-100299659D01*
X95725078Y-100406004D01*
X95725076Y-100406005D01*
X95577242Y-100485024D01*
X95416823Y-100533687D01*
X95291804Y-100546000D01*
X95208196Y-100546000D01*
X95083177Y-100533687D01*
X94922758Y-100485024D01*
X94774924Y-100406005D01*
X94774922Y-100406004D01*
X94645341Y-100299659D01*
X94538996Y-100170078D01*
X94515228Y-100125611D01*
X94459976Y-100022242D01*
X94411313Y-99861823D01*
X94394883Y-99695000D01*
X94411313Y-99528177D01*
X94459976Y-99367758D01*
X94538995Y-99219924D01*
X94538996Y-99219922D01*
X94645341Y-99090341D01*
X94774922Y-98983996D01*
X94790094Y-98975886D01*
X94922758Y-98904976D01*
X95083177Y-98856313D01*
X95208196Y-98844000D01*
X95291804Y-98844000D01*
X95416823Y-98856313D01*
X95416823Y-98856313D01*
G37*
G36*
X82716823Y-98856313D02*
G01*
X82877242Y-98904976D01*
X83009906Y-98975886D01*
X83025078Y-98983996D01*
X83154659Y-99090341D01*
X83261004Y-99219922D01*
X83261005Y-99219924D01*
X83340024Y-99367758D01*
X83388687Y-99528177D01*
X83405117Y-99695000D01*
X83388687Y-99861823D01*
X83340024Y-100022242D01*
X83284772Y-100125611D01*
X83261004Y-100170078D01*
X83154659Y-100299659D01*
X83025078Y-100406004D01*
X83025076Y-100406005D01*
X82877242Y-100485024D01*
X82716823Y-100533687D01*
X82591804Y-100546000D01*
X82508196Y-100546000D01*
X82383177Y-100533687D01*
X82222758Y-100485024D01*
X82074924Y-100406005D01*
X82074922Y-100406004D01*
X81945341Y-100299659D01*
X81838996Y-100170078D01*
X81815228Y-100125611D01*
X81759976Y-100022242D01*
X81711313Y-99861823D01*
X81694883Y-99695000D01*
X81711313Y-99528177D01*
X81759976Y-99367758D01*
X81838995Y-99219924D01*
X81838996Y-99219922D01*
X81945341Y-99090341D01*
X82074922Y-98983996D01*
X82090094Y-98975886D01*
X82222758Y-98904976D01*
X82383177Y-98856313D01*
X82508196Y-98844000D01*
X82591804Y-98844000D01*
X82716823Y-98856313D01*
X82716823Y-98856313D01*
G37*
G36*
X92876823Y-98856313D02*
G01*
X93037242Y-98904976D01*
X93169906Y-98975886D01*
X93185078Y-98983996D01*
X93314659Y-99090341D01*
X93421004Y-99219922D01*
X93421005Y-99219924D01*
X93500024Y-99367758D01*
X93548687Y-99528177D01*
X93565117Y-99695000D01*
X93548687Y-99861823D01*
X93500024Y-100022242D01*
X93444772Y-100125611D01*
X93421004Y-100170078D01*
X93314659Y-100299659D01*
X93185078Y-100406004D01*
X93185076Y-100406005D01*
X93037242Y-100485024D01*
X92876823Y-100533687D01*
X92751804Y-100546000D01*
X92668196Y-100546000D01*
X92543177Y-100533687D01*
X92382758Y-100485024D01*
X92234924Y-100406005D01*
X92234922Y-100406004D01*
X92105341Y-100299659D01*
X91998996Y-100170078D01*
X91975228Y-100125611D01*
X91919976Y-100022242D01*
X91871313Y-99861823D01*
X91854883Y-99695000D01*
X91871313Y-99528177D01*
X91919976Y-99367758D01*
X91998995Y-99219924D01*
X91998996Y-99219922D01*
X92105341Y-99090341D01*
X92234922Y-98983996D01*
X92250094Y-98975886D01*
X92382758Y-98904976D01*
X92543177Y-98856313D01*
X92668196Y-98844000D01*
X92751804Y-98844000D01*
X92876823Y-98856313D01*
X92876823Y-98856313D01*
G37*
G36*
X85256823Y-98856313D02*
G01*
X85417242Y-98904976D01*
X85549906Y-98975886D01*
X85565078Y-98983996D01*
X85694659Y-99090341D01*
X85801004Y-99219922D01*
X85801005Y-99219924D01*
X85880024Y-99367758D01*
X85928687Y-99528177D01*
X85945117Y-99695000D01*
X85928687Y-99861823D01*
X85880024Y-100022242D01*
X85824772Y-100125611D01*
X85801004Y-100170078D01*
X85694659Y-100299659D01*
X85565078Y-100406004D01*
X85565076Y-100406005D01*
X85417242Y-100485024D01*
X85256823Y-100533687D01*
X85131804Y-100546000D01*
X85048196Y-100546000D01*
X84923177Y-100533687D01*
X84762758Y-100485024D01*
X84614924Y-100406005D01*
X84614922Y-100406004D01*
X84485341Y-100299659D01*
X84378996Y-100170078D01*
X84355228Y-100125611D01*
X84299976Y-100022242D01*
X84251313Y-99861823D01*
X84234883Y-99695000D01*
X84251313Y-99528177D01*
X84299976Y-99367758D01*
X84378995Y-99219924D01*
X84378996Y-99219922D01*
X84485341Y-99090341D01*
X84614922Y-98983996D01*
X84630094Y-98975886D01*
X84762758Y-98904976D01*
X84923177Y-98856313D01*
X85048196Y-98844000D01*
X85131804Y-98844000D01*
X85256823Y-98856313D01*
X85256823Y-98856313D01*
G37*
G36*
X87796823Y-98856313D02*
G01*
X87957242Y-98904976D01*
X88089906Y-98975886D01*
X88105078Y-98983996D01*
X88234659Y-99090341D01*
X88341004Y-99219922D01*
X88341005Y-99219924D01*
X88420024Y-99367758D01*
X88468687Y-99528177D01*
X88485117Y-99695000D01*
X88468687Y-99861823D01*
X88420024Y-100022242D01*
X88364772Y-100125611D01*
X88341004Y-100170078D01*
X88234659Y-100299659D01*
X88105078Y-100406004D01*
X88105076Y-100406005D01*
X87957242Y-100485024D01*
X87796823Y-100533687D01*
X87671804Y-100546000D01*
X87588196Y-100546000D01*
X87463177Y-100533687D01*
X87302758Y-100485024D01*
X87154924Y-100406005D01*
X87154922Y-100406004D01*
X87025341Y-100299659D01*
X86918996Y-100170078D01*
X86895228Y-100125611D01*
X86839976Y-100022242D01*
X86791313Y-99861823D01*
X86774883Y-99695000D01*
X86791313Y-99528177D01*
X86839976Y-99367758D01*
X86918995Y-99219924D01*
X86918996Y-99219922D01*
X87025341Y-99090341D01*
X87154922Y-98983996D01*
X87170094Y-98975886D01*
X87302758Y-98904976D01*
X87463177Y-98856313D01*
X87588196Y-98844000D01*
X87671804Y-98844000D01*
X87796823Y-98856313D01*
X87796823Y-98856313D01*
G37*
G36*
X90336823Y-98856313D02*
G01*
X90497242Y-98904976D01*
X90629906Y-98975886D01*
X90645078Y-98983996D01*
X90774659Y-99090341D01*
X90881004Y-99219922D01*
X90881005Y-99219924D01*
X90960024Y-99367758D01*
X91008687Y-99528177D01*
X91025117Y-99695000D01*
X91008687Y-99861823D01*
X90960024Y-100022242D01*
X90904772Y-100125611D01*
X90881004Y-100170078D01*
X90774659Y-100299659D01*
X90645078Y-100406004D01*
X90645076Y-100406005D01*
X90497242Y-100485024D01*
X90336823Y-100533687D01*
X90211804Y-100546000D01*
X90128196Y-100546000D01*
X90003177Y-100533687D01*
X89842758Y-100485024D01*
X89694924Y-100406005D01*
X89694922Y-100406004D01*
X89565341Y-100299659D01*
X89458996Y-100170078D01*
X89435228Y-100125611D01*
X89379976Y-100022242D01*
X89331313Y-99861823D01*
X89314883Y-99695000D01*
X89331313Y-99528177D01*
X89379976Y-99367758D01*
X89458995Y-99219924D01*
X89458996Y-99219922D01*
X89565341Y-99090341D01*
X89694922Y-98983996D01*
X89710094Y-98975886D01*
X89842758Y-98904976D01*
X90003177Y-98856313D01*
X90128196Y-98844000D01*
X90211804Y-98844000D01*
X90336823Y-98856313D01*
X90336823Y-98856313D01*
G37*
G36*
X80176823Y-98856313D02*
G01*
X80337242Y-98904976D01*
X80469906Y-98975886D01*
X80485078Y-98983996D01*
X80614659Y-99090341D01*
X80721004Y-99219922D01*
X80721005Y-99219924D01*
X80800024Y-99367758D01*
X80848687Y-99528177D01*
X80865117Y-99695000D01*
X80848687Y-99861823D01*
X80800024Y-100022242D01*
X80744772Y-100125611D01*
X80721004Y-100170078D01*
X80614659Y-100299659D01*
X80485078Y-100406004D01*
X80485076Y-100406005D01*
X80337242Y-100485024D01*
X80176823Y-100533687D01*
X80051804Y-100546000D01*
X79968196Y-100546000D01*
X79843177Y-100533687D01*
X79682758Y-100485024D01*
X79534924Y-100406005D01*
X79534922Y-100406004D01*
X79405341Y-100299659D01*
X79298996Y-100170078D01*
X79275228Y-100125611D01*
X79219976Y-100022242D01*
X79171313Y-99861823D01*
X79154883Y-99695000D01*
X79171313Y-99528177D01*
X79219976Y-99367758D01*
X79298995Y-99219924D01*
X79298996Y-99219922D01*
X79405341Y-99090341D01*
X79534922Y-98983996D01*
X79550094Y-98975886D01*
X79682758Y-98904976D01*
X79843177Y-98856313D01*
X79968196Y-98844000D01*
X80051804Y-98844000D01*
X80176823Y-98856313D01*
X80176823Y-98856313D01*
G37*
G36*
X104446564Y-98104389D02*
G01*
X104637833Y-98183615D01*
X104637835Y-98183616D01*
X104809973Y-98298635D01*
X104956365Y-98445027D01*
X105071385Y-98617167D01*
X105150611Y-98808436D01*
X105191000Y-99011484D01*
X105191000Y-99218516D01*
X105150611Y-99421564D01*
X105071385Y-99612833D01*
X105071384Y-99612835D01*
X104956365Y-99784973D01*
X104809973Y-99931365D01*
X104637835Y-100046384D01*
X104637834Y-100046385D01*
X104637833Y-100046385D01*
X104446564Y-100125611D01*
X104243516Y-100166000D01*
X104036484Y-100166000D01*
X103833436Y-100125611D01*
X103642167Y-100046385D01*
X103642166Y-100046385D01*
X103642165Y-100046384D01*
X103470027Y-99931365D01*
X103323635Y-99784973D01*
X103208616Y-99612835D01*
X103208615Y-99612833D01*
X103129389Y-99421564D01*
X103089000Y-99218516D01*
X103089000Y-99011484D01*
X103129389Y-98808436D01*
X103208615Y-98617167D01*
X103323635Y-98445027D01*
X103470027Y-98298635D01*
X103642165Y-98183616D01*
X103642167Y-98183615D01*
X103833436Y-98104389D01*
X104036484Y-98064000D01*
X104243516Y-98064000D01*
X104446564Y-98104389D01*
X104446564Y-98104389D01*
G37*
G36*
X110946564Y-98104389D02*
G01*
X111137833Y-98183615D01*
X111137835Y-98183616D01*
X111309973Y-98298635D01*
X111456365Y-98445027D01*
X111571385Y-98617167D01*
X111650611Y-98808436D01*
X111691000Y-99011484D01*
X111691000Y-99218516D01*
X111650611Y-99421564D01*
X111571385Y-99612833D01*
X111571384Y-99612835D01*
X111456365Y-99784973D01*
X111309973Y-99931365D01*
X111137835Y-100046384D01*
X111137834Y-100046385D01*
X111137833Y-100046385D01*
X110946564Y-100125611D01*
X110743516Y-100166000D01*
X110536484Y-100166000D01*
X110333436Y-100125611D01*
X110142167Y-100046385D01*
X110142166Y-100046385D01*
X110142165Y-100046384D01*
X109970027Y-99931365D01*
X109823635Y-99784973D01*
X109708616Y-99612835D01*
X109708615Y-99612833D01*
X109629389Y-99421564D01*
X109589000Y-99218516D01*
X109589000Y-99011484D01*
X109629389Y-98808436D01*
X109708615Y-98617167D01*
X109823635Y-98445027D01*
X109970027Y-98298635D01*
X110142165Y-98183616D01*
X110142167Y-98183615D01*
X110333436Y-98104389D01*
X110536484Y-98064000D01*
X110743516Y-98064000D01*
X110946564Y-98104389D01*
X110946564Y-98104389D01*
G37*
G36*
X121741564Y-98104389D02*
G01*
X121932833Y-98183615D01*
X121932835Y-98183616D01*
X122104973Y-98298635D01*
X122251365Y-98445027D01*
X122366385Y-98617167D01*
X122445611Y-98808436D01*
X122486000Y-99011484D01*
X122486000Y-99218516D01*
X122445611Y-99421564D01*
X122366385Y-99612833D01*
X122366384Y-99612835D01*
X122251365Y-99784973D01*
X122104973Y-99931365D01*
X121932835Y-100046384D01*
X121932834Y-100046385D01*
X121932833Y-100046385D01*
X121741564Y-100125611D01*
X121538516Y-100166000D01*
X121331484Y-100166000D01*
X121128436Y-100125611D01*
X120937167Y-100046385D01*
X120937166Y-100046385D01*
X120937165Y-100046384D01*
X120765027Y-99931365D01*
X120618635Y-99784973D01*
X120503616Y-99612835D01*
X120503615Y-99612833D01*
X120424389Y-99421564D01*
X120384000Y-99218516D01*
X120384000Y-99011484D01*
X120424389Y-98808436D01*
X120503615Y-98617167D01*
X120618635Y-98445027D01*
X120765027Y-98298635D01*
X120937165Y-98183616D01*
X120937167Y-98183615D01*
X121128436Y-98104389D01*
X121331484Y-98064000D01*
X121538516Y-98064000D01*
X121741564Y-98104389D01*
X121741564Y-98104389D01*
G37*
G36*
X115241564Y-98104389D02*
G01*
X115432833Y-98183615D01*
X115432835Y-98183616D01*
X115604973Y-98298635D01*
X115751365Y-98445027D01*
X115866385Y-98617167D01*
X115945611Y-98808436D01*
X115986000Y-99011484D01*
X115986000Y-99218516D01*
X115945611Y-99421564D01*
X115866385Y-99612833D01*
X115866384Y-99612835D01*
X115751365Y-99784973D01*
X115604973Y-99931365D01*
X115432835Y-100046384D01*
X115432834Y-100046385D01*
X115432833Y-100046385D01*
X115241564Y-100125611D01*
X115038516Y-100166000D01*
X114831484Y-100166000D01*
X114628436Y-100125611D01*
X114437167Y-100046385D01*
X114437166Y-100046385D01*
X114437165Y-100046384D01*
X114265027Y-99931365D01*
X114118635Y-99784973D01*
X114003616Y-99612835D01*
X114003615Y-99612833D01*
X113924389Y-99421564D01*
X113884000Y-99218516D01*
X113884000Y-99011484D01*
X113924389Y-98808436D01*
X114003615Y-98617167D01*
X114118635Y-98445027D01*
X114265027Y-98298635D01*
X114437165Y-98183616D01*
X114437167Y-98183615D01*
X114628436Y-98104389D01*
X114831484Y-98064000D01*
X115038516Y-98064000D01*
X115241564Y-98104389D01*
X115241564Y-98104389D01*
G37*
G36*
X67850825Y-93104760D02*
G01*
X67850828Y-93104761D01*
X67850829Y-93104761D01*
X68030093Y-93159140D01*
X68030096Y-93159142D01*
X68030097Y-93159142D01*
X68195303Y-93247446D01*
X68340112Y-93366288D01*
X68458954Y-93511097D01*
X68547258Y-93676303D01*
X68547260Y-93676307D01*
X68601639Y-93855571D01*
X68601640Y-93855575D01*
X68615400Y-93995282D01*
X68615400Y-95488718D01*
X68601640Y-95628425D01*
X68601639Y-95628428D01*
X68601639Y-95628429D01*
X68547260Y-95807693D01*
X68547258Y-95807696D01*
X68547258Y-95807697D01*
X68458954Y-95972903D01*
X68340112Y-96117712D01*
X68195303Y-96236554D01*
X68030096Y-96324858D01*
X68030092Y-96324860D01*
X67850828Y-96379239D01*
X67850827Y-96379239D01*
X67850824Y-96379240D01*
X67664400Y-96397601D01*
X67477975Y-96379240D01*
X67477972Y-96379239D01*
X67477971Y-96379239D01*
X67298707Y-96324860D01*
X67298703Y-96324858D01*
X67133497Y-96236554D01*
X66988688Y-96117712D01*
X66869846Y-95972903D01*
X66781542Y-95807696D01*
X66781541Y-95807693D01*
X66781540Y-95807692D01*
X66727161Y-95628428D01*
X66727161Y-95628427D01*
X66727160Y-95628424D01*
X66713400Y-95488717D01*
X66713400Y-93995282D01*
X66727160Y-93855570D01*
X66781540Y-93676308D01*
X66869847Y-93511097D01*
X66988689Y-93366288D01*
X67133498Y-93247446D01*
X67298704Y-93159142D01*
X67298705Y-93159142D01*
X67298708Y-93159140D01*
X67477972Y-93104761D01*
X67477973Y-93104761D01*
X67477976Y-93104760D01*
X67664400Y-93086399D01*
X67850825Y-93104760D01*
X67850825Y-93104760D01*
G37*
G36*
X74760825Y-93104760D02*
G01*
X74760828Y-93104761D01*
X74760829Y-93104761D01*
X74940093Y-93159140D01*
X74940096Y-93159142D01*
X74940097Y-93159142D01*
X75105303Y-93247446D01*
X75250112Y-93366288D01*
X75368954Y-93511097D01*
X75457258Y-93676303D01*
X75457260Y-93676307D01*
X75511639Y-93855571D01*
X75511640Y-93855575D01*
X75525400Y-93995282D01*
X75525400Y-95488718D01*
X75511640Y-95628425D01*
X75511639Y-95628428D01*
X75511639Y-95628429D01*
X75457260Y-95807693D01*
X75457258Y-95807696D01*
X75457258Y-95807697D01*
X75368954Y-95972903D01*
X75250112Y-96117712D01*
X75105303Y-96236554D01*
X74940096Y-96324858D01*
X74940092Y-96324860D01*
X74760828Y-96379239D01*
X74760827Y-96379239D01*
X74760824Y-96379240D01*
X74574400Y-96397601D01*
X74387975Y-96379240D01*
X74387972Y-96379239D01*
X74387971Y-96379239D01*
X74208707Y-96324860D01*
X74208703Y-96324858D01*
X74043497Y-96236554D01*
X73898688Y-96117712D01*
X73779846Y-95972903D01*
X73691542Y-95807696D01*
X73691541Y-95807693D01*
X73691540Y-95807692D01*
X73637161Y-95628428D01*
X73637161Y-95628427D01*
X73637160Y-95628424D01*
X73623400Y-95488717D01*
X73623400Y-93995282D01*
X73637160Y-93855570D01*
X73691540Y-93676308D01*
X73779847Y-93511097D01*
X73898689Y-93366288D01*
X74043498Y-93247446D01*
X74208704Y-93159142D01*
X74208705Y-93159142D01*
X74208708Y-93159140D01*
X74387972Y-93104761D01*
X74387973Y-93104761D01*
X74387976Y-93104760D01*
X74574400Y-93086399D01*
X74760825Y-93104760D01*
X74760825Y-93104760D01*
G37*
G36*
X121741564Y-93604389D02*
G01*
X121915192Y-93676308D01*
X121932835Y-93683616D01*
X122104973Y-93798635D01*
X122251365Y-93945027D01*
X122353431Y-94097779D01*
X122366385Y-94117167D01*
X122445611Y-94308436D01*
X122486000Y-94511484D01*
X122486000Y-94718516D01*
X122445611Y-94921564D01*
X122366385Y-95112833D01*
X122366384Y-95112835D01*
X122251365Y-95284973D01*
X122104973Y-95431365D01*
X121932835Y-95546384D01*
X121932834Y-95546385D01*
X121932833Y-95546385D01*
X121741564Y-95625611D01*
X121538516Y-95666000D01*
X121331484Y-95666000D01*
X121128436Y-95625611D01*
X120937167Y-95546385D01*
X120937166Y-95546385D01*
X120937165Y-95546384D01*
X120765027Y-95431365D01*
X120618635Y-95284973D01*
X120503616Y-95112835D01*
X120503615Y-95112833D01*
X120424389Y-94921564D01*
X120384000Y-94718516D01*
X120384000Y-94511484D01*
X120424389Y-94308436D01*
X120503615Y-94117167D01*
X120516570Y-94097779D01*
X120618635Y-93945027D01*
X120765027Y-93798635D01*
X120937165Y-93683616D01*
X120954808Y-93676308D01*
X121128436Y-93604389D01*
X121331484Y-93564000D01*
X121538516Y-93564000D01*
X121741564Y-93604389D01*
X121741564Y-93604389D01*
G37*
G36*
X115241564Y-93604389D02*
G01*
X115415192Y-93676308D01*
X115432835Y-93683616D01*
X115604973Y-93798635D01*
X115751365Y-93945027D01*
X115853431Y-94097779D01*
X115866385Y-94117167D01*
X115945611Y-94308436D01*
X115986000Y-94511484D01*
X115986000Y-94718516D01*
X115945611Y-94921564D01*
X115866385Y-95112833D01*
X115866384Y-95112835D01*
X115751365Y-95284973D01*
X115604973Y-95431365D01*
X115432835Y-95546384D01*
X115432834Y-95546385D01*
X115432833Y-95546385D01*
X115241564Y-95625611D01*
X115038516Y-95666000D01*
X114831484Y-95666000D01*
X114628436Y-95625611D01*
X114437167Y-95546385D01*
X114437166Y-95546385D01*
X114437165Y-95546384D01*
X114265027Y-95431365D01*
X114118635Y-95284973D01*
X114003616Y-95112835D01*
X114003615Y-95112833D01*
X113924389Y-94921564D01*
X113884000Y-94718516D01*
X113884000Y-94511484D01*
X113924389Y-94308436D01*
X114003615Y-94117167D01*
X114016570Y-94097779D01*
X114118635Y-93945027D01*
X114265027Y-93798635D01*
X114437165Y-93683616D01*
X114454808Y-93676308D01*
X114628436Y-93604389D01*
X114831484Y-93564000D01*
X115038516Y-93564000D01*
X115241564Y-93604389D01*
X115241564Y-93604389D01*
G37*
G36*
X110946564Y-93604389D02*
G01*
X111120192Y-93676308D01*
X111137835Y-93683616D01*
X111309973Y-93798635D01*
X111456365Y-93945027D01*
X111558431Y-94097779D01*
X111571385Y-94117167D01*
X111650611Y-94308436D01*
X111691000Y-94511484D01*
X111691000Y-94718516D01*
X111650611Y-94921564D01*
X111571385Y-95112833D01*
X111571384Y-95112835D01*
X111456365Y-95284973D01*
X111309973Y-95431365D01*
X111137835Y-95546384D01*
X111137834Y-95546385D01*
X111137833Y-95546385D01*
X110946564Y-95625611D01*
X110743516Y-95666000D01*
X110536484Y-95666000D01*
X110333436Y-95625611D01*
X110142167Y-95546385D01*
X110142166Y-95546385D01*
X110142165Y-95546384D01*
X109970027Y-95431365D01*
X109823635Y-95284973D01*
X109708616Y-95112835D01*
X109708615Y-95112833D01*
X109629389Y-94921564D01*
X109589000Y-94718516D01*
X109589000Y-94511484D01*
X109629389Y-94308436D01*
X109708615Y-94117167D01*
X109721570Y-94097779D01*
X109823635Y-93945027D01*
X109970027Y-93798635D01*
X110142165Y-93683616D01*
X110159808Y-93676308D01*
X110333436Y-93604389D01*
X110536484Y-93564000D01*
X110743516Y-93564000D01*
X110946564Y-93604389D01*
X110946564Y-93604389D01*
G37*
G36*
X104446564Y-93604389D02*
G01*
X104620192Y-93676308D01*
X104637835Y-93683616D01*
X104809973Y-93798635D01*
X104956365Y-93945027D01*
X105058431Y-94097779D01*
X105071385Y-94117167D01*
X105150611Y-94308436D01*
X105191000Y-94511484D01*
X105191000Y-94718516D01*
X105150611Y-94921564D01*
X105071385Y-95112833D01*
X105071384Y-95112835D01*
X104956365Y-95284973D01*
X104809973Y-95431365D01*
X104637835Y-95546384D01*
X104637834Y-95546385D01*
X104637833Y-95546385D01*
X104446564Y-95625611D01*
X104243516Y-95666000D01*
X104036484Y-95666000D01*
X103833436Y-95625611D01*
X103642167Y-95546385D01*
X103642166Y-95546385D01*
X103642165Y-95546384D01*
X103470027Y-95431365D01*
X103323635Y-95284973D01*
X103208616Y-95112835D01*
X103208615Y-95112833D01*
X103129389Y-94921564D01*
X103089000Y-94718516D01*
X103089000Y-94511484D01*
X103129389Y-94308436D01*
X103208615Y-94117167D01*
X103221570Y-94097779D01*
X103323635Y-93945027D01*
X103470027Y-93798635D01*
X103642165Y-93683616D01*
X103659808Y-93676308D01*
X103833436Y-93604389D01*
X104036484Y-93564000D01*
X104243516Y-93564000D01*
X104446564Y-93604389D01*
X104446564Y-93604389D01*
G37*
G36*
X126094443Y-92450519D02*
G01*
X126160627Y-92457037D01*
X126330466Y-92508557D01*
X126486991Y-92592222D01*
X126522729Y-92621552D01*
X126624186Y-92704814D01*
X126707448Y-92806271D01*
X126736778Y-92842009D01*
X126820443Y-92998534D01*
X126871963Y-93168373D01*
X126889359Y-93345000D01*
X126871963Y-93521627D01*
X126820443Y-93691466D01*
X126736778Y-93847991D01*
X126707448Y-93883729D01*
X126624186Y-93985186D01*
X126522729Y-94068448D01*
X126486991Y-94097778D01*
X126330466Y-94181443D01*
X126160627Y-94232963D01*
X126094443Y-94239481D01*
X126028260Y-94246000D01*
X125939740Y-94246000D01*
X125873557Y-94239481D01*
X125807373Y-94232963D01*
X125637534Y-94181443D01*
X125481009Y-94097778D01*
X125445271Y-94068448D01*
X125343814Y-93985186D01*
X125260552Y-93883729D01*
X125231222Y-93847991D01*
X125147557Y-93691466D01*
X125096037Y-93521627D01*
X125078641Y-93345000D01*
X125096037Y-93168373D01*
X125147557Y-92998534D01*
X125231222Y-92842009D01*
X125260552Y-92806271D01*
X125343814Y-92704814D01*
X125445271Y-92621552D01*
X125481009Y-92592222D01*
X125637534Y-92508557D01*
X125807373Y-92457037D01*
X125873557Y-92450519D01*
X125939740Y-92444000D01*
X126028260Y-92444000D01*
X126094443Y-92450519D01*
X126094443Y-92450519D01*
G37*
G36*
X67850825Y-88504760D02*
G01*
X67850828Y-88504761D01*
X67850829Y-88504761D01*
X68030093Y-88559140D01*
X68030096Y-88559142D01*
X68030097Y-88559142D01*
X68195303Y-88647446D01*
X68340112Y-88766288D01*
X68458954Y-88911097D01*
X68515976Y-89017779D01*
X68547260Y-89076307D01*
X68601639Y-89255571D01*
X68601640Y-89255575D01*
X68615400Y-89395282D01*
X68615400Y-90888718D01*
X68601640Y-91028425D01*
X68601639Y-91028428D01*
X68601639Y-91028429D01*
X68547260Y-91207693D01*
X68547258Y-91207696D01*
X68547258Y-91207697D01*
X68458954Y-91372903D01*
X68340112Y-91517712D01*
X68195303Y-91636554D01*
X68065377Y-91706000D01*
X68030092Y-91724860D01*
X67850828Y-91779239D01*
X67850827Y-91779239D01*
X67850824Y-91779240D01*
X67664400Y-91797601D01*
X67477975Y-91779240D01*
X67477972Y-91779239D01*
X67477971Y-91779239D01*
X67298707Y-91724860D01*
X67298703Y-91724858D01*
X67133497Y-91636554D01*
X66988688Y-91517712D01*
X66869846Y-91372903D01*
X66781542Y-91207696D01*
X66781541Y-91207693D01*
X66781540Y-91207692D01*
X66727161Y-91028428D01*
X66727161Y-91028427D01*
X66727160Y-91028424D01*
X66713400Y-90888717D01*
X66713400Y-89395282D01*
X66727160Y-89255570D01*
X66781540Y-89076308D01*
X66869847Y-88911097D01*
X66988689Y-88766288D01*
X67133498Y-88647446D01*
X67298704Y-88559142D01*
X67298705Y-88559142D01*
X67298708Y-88559140D01*
X67477972Y-88504761D01*
X67477973Y-88504761D01*
X67477976Y-88504760D01*
X67664400Y-88486399D01*
X67850825Y-88504760D01*
X67850825Y-88504760D01*
G37*
G36*
X74760825Y-88504760D02*
G01*
X74760828Y-88504761D01*
X74760829Y-88504761D01*
X74940093Y-88559140D01*
X74940096Y-88559142D01*
X74940097Y-88559142D01*
X75105303Y-88647446D01*
X75250112Y-88766288D01*
X75368954Y-88911097D01*
X75425976Y-89017779D01*
X75457260Y-89076307D01*
X75511639Y-89255571D01*
X75511640Y-89255575D01*
X75525400Y-89395282D01*
X75525400Y-90888718D01*
X75511640Y-91028425D01*
X75511639Y-91028428D01*
X75511639Y-91028429D01*
X75457260Y-91207693D01*
X75457258Y-91207696D01*
X75457258Y-91207697D01*
X75368954Y-91372903D01*
X75250112Y-91517712D01*
X75105303Y-91636554D01*
X74975377Y-91706000D01*
X74940092Y-91724860D01*
X74760828Y-91779239D01*
X74760827Y-91779239D01*
X74760824Y-91779240D01*
X74574400Y-91797601D01*
X74387975Y-91779240D01*
X74387972Y-91779239D01*
X74387971Y-91779239D01*
X74208707Y-91724860D01*
X74208703Y-91724858D01*
X74043497Y-91636554D01*
X73898688Y-91517712D01*
X73779846Y-91372903D01*
X73691542Y-91207696D01*
X73691541Y-91207693D01*
X73691540Y-91207692D01*
X73637161Y-91028428D01*
X73637161Y-91028427D01*
X73637160Y-91028424D01*
X73623400Y-90888717D01*
X73623400Y-89395282D01*
X73637160Y-89255570D01*
X73691540Y-89076308D01*
X73779847Y-88911097D01*
X73898689Y-88766288D01*
X74043498Y-88647446D01*
X74208704Y-88559142D01*
X74208705Y-88559142D01*
X74208708Y-88559140D01*
X74387972Y-88504761D01*
X74387973Y-88504761D01*
X74387976Y-88504760D01*
X74574400Y-88486399D01*
X74760825Y-88504760D01*
X74760825Y-88504760D01*
G37*
G36*
X126094442Y-89910518D02*
G01*
X126160627Y-89917037D01*
X126330466Y-89968557D01*
X126486991Y-90052222D01*
X126522729Y-90081552D01*
X126624186Y-90164814D01*
X126707448Y-90266271D01*
X126736778Y-90302009D01*
X126820443Y-90458534D01*
X126871963Y-90628373D01*
X126889359Y-90805000D01*
X126871963Y-90981627D01*
X126820443Y-91151466D01*
X126736778Y-91307991D01*
X126707448Y-91343729D01*
X126624186Y-91445186D01*
X126522729Y-91528448D01*
X126486991Y-91557778D01*
X126486989Y-91557779D01*
X126339615Y-91636553D01*
X126330466Y-91641443D01*
X126160627Y-91692963D01*
X126094442Y-91699482D01*
X126028260Y-91706000D01*
X125939740Y-91706000D01*
X125873558Y-91699482D01*
X125807373Y-91692963D01*
X125637534Y-91641443D01*
X125628386Y-91636553D01*
X125481011Y-91557779D01*
X125481009Y-91557778D01*
X125445271Y-91528448D01*
X125343814Y-91445186D01*
X125260552Y-91343729D01*
X125231222Y-91307991D01*
X125147557Y-91151466D01*
X125096037Y-90981627D01*
X125078641Y-90805000D01*
X125096037Y-90628373D01*
X125147557Y-90458534D01*
X125231222Y-90302009D01*
X125260552Y-90266271D01*
X125343814Y-90164814D01*
X125445271Y-90081552D01*
X125481009Y-90052222D01*
X125637534Y-89968557D01*
X125807373Y-89917037D01*
X125873558Y-89910518D01*
X125939740Y-89904000D01*
X126028260Y-89904000D01*
X126094442Y-89910518D01*
X126094442Y-89910518D01*
G37*
G36*
X118049000Y-88331000D02*
G01*
X116774749Y-88331000D01*
X116750363Y-88333402D01*
X116726914Y-88340515D01*
X116705303Y-88352066D01*
X116686361Y-88367611D01*
X116670816Y-88386553D01*
X116659265Y-88408164D01*
X116652152Y-88431613D01*
X116649750Y-88455999D01*
X116652152Y-88480385D01*
X116659265Y-88503834D01*
X116670816Y-88525444D01*
X116699218Y-88567951D01*
X116752062Y-88695527D01*
X116779000Y-88830956D01*
X116779000Y-88969044D01*
X116752062Y-89104473D01*
X116699218Y-89232049D01*
X116622505Y-89346859D01*
X116524859Y-89444505D01*
X116410049Y-89521218D01*
X116282473Y-89574062D01*
X116147044Y-89601000D01*
X116008956Y-89601000D01*
X115873527Y-89574062D01*
X115745951Y-89521218D01*
X115631141Y-89444505D01*
X115533495Y-89346859D01*
X115456782Y-89232049D01*
X115403938Y-89104473D01*
X115377000Y-88969044D01*
X115377000Y-88830956D01*
X115403938Y-88695527D01*
X115456782Y-88567951D01*
X115533495Y-88453141D01*
X115631141Y-88355495D01*
X115745951Y-88278782D01*
X115873527Y-88225938D01*
X116008956Y-88199000D01*
X116147044Y-88199000D01*
X116282473Y-88225938D01*
X116410049Y-88278782D01*
X116452556Y-88307184D01*
X116474167Y-88318735D01*
X116497616Y-88325848D01*
X116522002Y-88328250D01*
X116546388Y-88325848D01*
X116569837Y-88318735D01*
X116591447Y-88307183D01*
X116610389Y-88291638D01*
X116625934Y-88272696D01*
X116637485Y-88251085D01*
X116644598Y-88227636D01*
X116647000Y-88203251D01*
X116647000Y-86929000D01*
X118049000Y-86929000D01*
X118049000Y-88331000D01*
X118049000Y-88331000D01*
G37*
G36*
X107889000Y-88331000D02*
G01*
X106614749Y-88331000D01*
X106590363Y-88333402D01*
X106566914Y-88340515D01*
X106545303Y-88352066D01*
X106526361Y-88367611D01*
X106510816Y-88386553D01*
X106499265Y-88408164D01*
X106492152Y-88431613D01*
X106489750Y-88455999D01*
X106492152Y-88480385D01*
X106499265Y-88503834D01*
X106510816Y-88525444D01*
X106539218Y-88567951D01*
X106592062Y-88695527D01*
X106619000Y-88830956D01*
X106619000Y-88969044D01*
X106592062Y-89104473D01*
X106539218Y-89232049D01*
X106462505Y-89346859D01*
X106364859Y-89444505D01*
X106250049Y-89521218D01*
X106122473Y-89574062D01*
X105987044Y-89601000D01*
X105848956Y-89601000D01*
X105713527Y-89574062D01*
X105585951Y-89521218D01*
X105471141Y-89444505D01*
X105373495Y-89346859D01*
X105296782Y-89232049D01*
X105243938Y-89104473D01*
X105217000Y-88969044D01*
X105217000Y-88830956D01*
X105243938Y-88695527D01*
X105296782Y-88567951D01*
X105373495Y-88453141D01*
X105471141Y-88355495D01*
X105585951Y-88278782D01*
X105713527Y-88225938D01*
X105848956Y-88199000D01*
X105987044Y-88199000D01*
X106122473Y-88225938D01*
X106250049Y-88278782D01*
X106292556Y-88307184D01*
X106314167Y-88318735D01*
X106337616Y-88325848D01*
X106362002Y-88328250D01*
X106386388Y-88325848D01*
X106409837Y-88318735D01*
X106431447Y-88307183D01*
X106450389Y-88291638D01*
X106465934Y-88272696D01*
X106477485Y-88251085D01*
X106484598Y-88227636D01*
X106487000Y-88203251D01*
X106487000Y-86929000D01*
X107889000Y-86929000D01*
X107889000Y-88331000D01*
X107889000Y-88331000D01*
G37*
G36*
X126094443Y-87370519D02*
G01*
X126160627Y-87377037D01*
X126330466Y-87428557D01*
X126486991Y-87512222D01*
X126522729Y-87541552D01*
X126624186Y-87624814D01*
X126685102Y-87699042D01*
X126736778Y-87762009D01*
X126820443Y-87918534D01*
X126871963Y-88088373D01*
X126889359Y-88265000D01*
X126871963Y-88441627D01*
X126820443Y-88611466D01*
X126736778Y-88767991D01*
X126707448Y-88803729D01*
X126624186Y-88905186D01*
X126522729Y-88988448D01*
X126486991Y-89017778D01*
X126330466Y-89101443D01*
X126160627Y-89152963D01*
X126094443Y-89159481D01*
X126028260Y-89166000D01*
X125939740Y-89166000D01*
X125873557Y-89159481D01*
X125807373Y-89152963D01*
X125637534Y-89101443D01*
X125481009Y-89017778D01*
X125445271Y-88988448D01*
X125343814Y-88905186D01*
X125260552Y-88803729D01*
X125231222Y-88767991D01*
X125147557Y-88611466D01*
X125096037Y-88441627D01*
X125078641Y-88265000D01*
X125096037Y-88088373D01*
X125147557Y-87918534D01*
X125231222Y-87762009D01*
X125282898Y-87699042D01*
X125343814Y-87624814D01*
X125445271Y-87541552D01*
X125481009Y-87512222D01*
X125637534Y-87428557D01*
X125807373Y-87377037D01*
X125873557Y-87370519D01*
X125939740Y-87364000D01*
X126028260Y-87364000D01*
X126094443Y-87370519D01*
X126094443Y-87370519D01*
G37*
G36*
X104852473Y-86955938D02*
G01*
X104980049Y-87008782D01*
X105094859Y-87085495D01*
X105192505Y-87183141D01*
X105269218Y-87297951D01*
X105322062Y-87425527D01*
X105349000Y-87560956D01*
X105349000Y-87699044D01*
X105322062Y-87834473D01*
X105269218Y-87962049D01*
X105192505Y-88076859D01*
X105094859Y-88174505D01*
X104980049Y-88251218D01*
X104852473Y-88304062D01*
X104717044Y-88331000D01*
X104578956Y-88331000D01*
X104443527Y-88304062D01*
X104315951Y-88251218D01*
X104201141Y-88174505D01*
X104103495Y-88076859D01*
X104026782Y-87962049D01*
X103973938Y-87834473D01*
X103947000Y-87699044D01*
X103947000Y-87560956D01*
X103973938Y-87425527D01*
X104026782Y-87297951D01*
X104103495Y-87183141D01*
X104201141Y-87085495D01*
X104315951Y-87008782D01*
X104443527Y-86955938D01*
X104578956Y-86929000D01*
X104717044Y-86929000D01*
X104852473Y-86955938D01*
X104852473Y-86955938D01*
G37*
G36*
X115012473Y-86955938D02*
G01*
X115140049Y-87008782D01*
X115254859Y-87085495D01*
X115352505Y-87183141D01*
X115429218Y-87297951D01*
X115482062Y-87425527D01*
X115509000Y-87560956D01*
X115509000Y-87699044D01*
X115482062Y-87834473D01*
X115429218Y-87962049D01*
X115352505Y-88076859D01*
X115254859Y-88174505D01*
X115140049Y-88251218D01*
X115012473Y-88304062D01*
X114877044Y-88331000D01*
X114738956Y-88331000D01*
X114603527Y-88304062D01*
X114475951Y-88251218D01*
X114361141Y-88174505D01*
X114263495Y-88076859D01*
X114186782Y-87962049D01*
X114133938Y-87834473D01*
X114107000Y-87699044D01*
X114107000Y-87560956D01*
X114133938Y-87425527D01*
X114186782Y-87297951D01*
X114263495Y-87183141D01*
X114361141Y-87085495D01*
X114475951Y-87008782D01*
X114603527Y-86955938D01*
X114738956Y-86929000D01*
X114877044Y-86929000D01*
X115012473Y-86955938D01*
X115012473Y-86955938D01*
G37*
G36*
X80258228Y-86271703D02*
G01*
X80413100Y-86335853D01*
X80552481Y-86428985D01*
X80671015Y-86547519D01*
X80764147Y-86686900D01*
X80828297Y-86841772D01*
X80861000Y-87006184D01*
X80861000Y-87173816D01*
X80828297Y-87338228D01*
X80764147Y-87493100D01*
X80671015Y-87632481D01*
X80552481Y-87751015D01*
X80413100Y-87844147D01*
X80258228Y-87908297D01*
X80093816Y-87941000D01*
X79926184Y-87941000D01*
X79761772Y-87908297D01*
X79606900Y-87844147D01*
X79467519Y-87751015D01*
X79348985Y-87632481D01*
X79255853Y-87493100D01*
X79191703Y-87338228D01*
X79159000Y-87173816D01*
X79159000Y-87006184D01*
X79191703Y-86841772D01*
X79255853Y-86686900D01*
X79348985Y-86547519D01*
X79467519Y-86428985D01*
X79606900Y-86335853D01*
X79761772Y-86271703D01*
X79926184Y-86239000D01*
X80093816Y-86239000D01*
X80258228Y-86271703D01*
X80258228Y-86271703D01*
G37*
G36*
X96768228Y-86271703D02*
G01*
X96923100Y-86335853D01*
X97062481Y-86428985D01*
X97181015Y-86547519D01*
X97274147Y-86686900D01*
X97338297Y-86841772D01*
X97371000Y-87006184D01*
X97371000Y-87173816D01*
X97338297Y-87338228D01*
X97274147Y-87493100D01*
X97181015Y-87632481D01*
X97062481Y-87751015D01*
X96923100Y-87844147D01*
X96768228Y-87908297D01*
X96603816Y-87941000D01*
X96436184Y-87941000D01*
X96271772Y-87908297D01*
X96116900Y-87844147D01*
X95977519Y-87751015D01*
X95858985Y-87632481D01*
X95765853Y-87493100D01*
X95701703Y-87338228D01*
X95669000Y-87173816D01*
X95669000Y-87006184D01*
X95701703Y-86841772D01*
X95765853Y-86686900D01*
X95858985Y-86547519D01*
X95977519Y-86428985D01*
X96116900Y-86335853D01*
X96271772Y-86271703D01*
X96436184Y-86239000D01*
X96603816Y-86239000D01*
X96768228Y-86271703D01*
X96768228Y-86271703D01*
G37*
G36*
X67850825Y-83904760D02*
G01*
X67850828Y-83904761D01*
X67850829Y-83904761D01*
X68030093Y-83959140D01*
X68030096Y-83959142D01*
X68030097Y-83959142D01*
X68195303Y-84047446D01*
X68340112Y-84166288D01*
X68458954Y-84311097D01*
X68547258Y-84476303D01*
X68547260Y-84476307D01*
X68601639Y-84655571D01*
X68601640Y-84655575D01*
X68615400Y-84795282D01*
X68615400Y-86288718D01*
X68601640Y-86428425D01*
X68601639Y-86428428D01*
X68601639Y-86428429D01*
X68547260Y-86607693D01*
X68547258Y-86607696D01*
X68547258Y-86607697D01*
X68458954Y-86772903D01*
X68340112Y-86917712D01*
X68195303Y-87036554D01*
X68030096Y-87124858D01*
X68030092Y-87124860D01*
X67850828Y-87179239D01*
X67850827Y-87179239D01*
X67850824Y-87179240D01*
X67664400Y-87197601D01*
X67477975Y-87179240D01*
X67477972Y-87179239D01*
X67477971Y-87179239D01*
X67298707Y-87124860D01*
X67298703Y-87124858D01*
X67133497Y-87036554D01*
X66988688Y-86917712D01*
X66869846Y-86772903D01*
X66781542Y-86607696D01*
X66781541Y-86607693D01*
X66781540Y-86607692D01*
X66727161Y-86428428D01*
X66727161Y-86428427D01*
X66727160Y-86428424D01*
X66713400Y-86288717D01*
X66713400Y-84795282D01*
X66727160Y-84655570D01*
X66781540Y-84476308D01*
X66869847Y-84311097D01*
X66988689Y-84166288D01*
X67133498Y-84047446D01*
X67298704Y-83959142D01*
X67298705Y-83959142D01*
X67298708Y-83959140D01*
X67477972Y-83904761D01*
X67477973Y-83904761D01*
X67477976Y-83904760D01*
X67664400Y-83886399D01*
X67850825Y-83904760D01*
X67850825Y-83904760D01*
G37*
G36*
X74760825Y-83904760D02*
G01*
X74760828Y-83904761D01*
X74760829Y-83904761D01*
X74940093Y-83959140D01*
X74940096Y-83959142D01*
X74940097Y-83959142D01*
X75105303Y-84047446D01*
X75250112Y-84166288D01*
X75368954Y-84311097D01*
X75457258Y-84476303D01*
X75457260Y-84476307D01*
X75511639Y-84655571D01*
X75511640Y-84655575D01*
X75525400Y-84795282D01*
X75525400Y-86288718D01*
X75511640Y-86428425D01*
X75511639Y-86428428D01*
X75511639Y-86428429D01*
X75457260Y-86607693D01*
X75457258Y-86607696D01*
X75457258Y-86607697D01*
X75368954Y-86772903D01*
X75250112Y-86917712D01*
X75105303Y-87036554D01*
X74940096Y-87124858D01*
X74940092Y-87124860D01*
X74760828Y-87179239D01*
X74760827Y-87179239D01*
X74760824Y-87179240D01*
X74574400Y-87197601D01*
X74387975Y-87179240D01*
X74387972Y-87179239D01*
X74387971Y-87179239D01*
X74208707Y-87124860D01*
X74208703Y-87124858D01*
X74043497Y-87036554D01*
X73898688Y-86917712D01*
X73779846Y-86772903D01*
X73691542Y-86607696D01*
X73691541Y-86607693D01*
X73691540Y-86607692D01*
X73637161Y-86428428D01*
X73637161Y-86428427D01*
X73637160Y-86428424D01*
X73623400Y-86288717D01*
X73623400Y-84795282D01*
X73637160Y-84655570D01*
X73691540Y-84476308D01*
X73779847Y-84311097D01*
X73898689Y-84166288D01*
X74043498Y-84047446D01*
X74208704Y-83959142D01*
X74208705Y-83959142D01*
X74208708Y-83959140D01*
X74387972Y-83904761D01*
X74387973Y-83904761D01*
X74387976Y-83904760D01*
X74574400Y-83886399D01*
X74760825Y-83904760D01*
X74760825Y-83904760D01*
G37*
G36*
X126094443Y-84830519D02*
G01*
X126160627Y-84837037D01*
X126330466Y-84888557D01*
X126486991Y-84972222D01*
X126522729Y-85001552D01*
X126624186Y-85084814D01*
X126707448Y-85186271D01*
X126736778Y-85222009D01*
X126820443Y-85378534D01*
X126871963Y-85548373D01*
X126889359Y-85725000D01*
X126871963Y-85901627D01*
X126820443Y-86071466D01*
X126736778Y-86227991D01*
X126727743Y-86239000D01*
X126624186Y-86365186D01*
X126522729Y-86448448D01*
X126486991Y-86477778D01*
X126330466Y-86561443D01*
X126160627Y-86612963D01*
X126094442Y-86619482D01*
X126028260Y-86626000D01*
X125939740Y-86626000D01*
X125873558Y-86619482D01*
X125807373Y-86612963D01*
X125637534Y-86561443D01*
X125481009Y-86477778D01*
X125445271Y-86448448D01*
X125343814Y-86365186D01*
X125240257Y-86239000D01*
X125231222Y-86227991D01*
X125147557Y-86071466D01*
X125096037Y-85901627D01*
X125078641Y-85725000D01*
X125096037Y-85548373D01*
X125147557Y-85378534D01*
X125231222Y-85222009D01*
X125260552Y-85186271D01*
X125343814Y-85084814D01*
X125445271Y-85001552D01*
X125481009Y-84972222D01*
X125637534Y-84888557D01*
X125807373Y-84837037D01*
X125873557Y-84830519D01*
X125939740Y-84824000D01*
X126028260Y-84824000D01*
X126094443Y-84830519D01*
X126094443Y-84830519D01*
G37*
G36*
X97371000Y-85941000D02*
G01*
X95669000Y-85941000D01*
X95669000Y-84239000D01*
X97371000Y-84239000D01*
X97371000Y-85941000D01*
X97371000Y-85941000D01*
G37*
G36*
X80861000Y-85941000D02*
G01*
X79159000Y-85941000D01*
X79159000Y-84239000D01*
X80861000Y-84239000D01*
X80861000Y-85941000D01*
X80861000Y-85941000D01*
G37*
G36*
X126094443Y-82290519D02*
G01*
X126160627Y-82297037D01*
X126330466Y-82348557D01*
X126486991Y-82432222D01*
X126522729Y-82461552D01*
X126624186Y-82544814D01*
X126707448Y-82646271D01*
X126736778Y-82682009D01*
X126820443Y-82838534D01*
X126871963Y-83008373D01*
X126889359Y-83185000D01*
X126871963Y-83361627D01*
X126820443Y-83531466D01*
X126736778Y-83687991D01*
X126707448Y-83723729D01*
X126624186Y-83825186D01*
X126527223Y-83904760D01*
X126486991Y-83937778D01*
X126330466Y-84021443D01*
X126160627Y-84072963D01*
X126094443Y-84079481D01*
X126028260Y-84086000D01*
X125939740Y-84086000D01*
X125873557Y-84079481D01*
X125807373Y-84072963D01*
X125637534Y-84021443D01*
X125481009Y-83937778D01*
X125440777Y-83904760D01*
X125343814Y-83825186D01*
X125260552Y-83723729D01*
X125231222Y-83687991D01*
X125147557Y-83531466D01*
X125096037Y-83361627D01*
X125078641Y-83185000D01*
X125096037Y-83008373D01*
X125147557Y-82838534D01*
X125231222Y-82682009D01*
X125260552Y-82646271D01*
X125343814Y-82544814D01*
X125445271Y-82461552D01*
X125481009Y-82432222D01*
X125637534Y-82348557D01*
X125807373Y-82297037D01*
X125873557Y-82290519D01*
X125939740Y-82284000D01*
X126028260Y-82284000D01*
X126094443Y-82290519D01*
X126094443Y-82290519D01*
G37*
G36*
X120054823Y-81711313D02*
G01*
X120215242Y-81759976D01*
X120347906Y-81830886D01*
X120363078Y-81838996D01*
X120492659Y-81945341D01*
X120599004Y-82074922D01*
X120599005Y-82074924D01*
X120678024Y-82222758D01*
X120726687Y-82383177D01*
X120743117Y-82550000D01*
X120726687Y-82716823D01*
X120678024Y-82877242D01*
X120607933Y-83008373D01*
X120599004Y-83025078D01*
X120492659Y-83154659D01*
X120363078Y-83261004D01*
X120363076Y-83261005D01*
X120215242Y-83340024D01*
X120054823Y-83388687D01*
X119929804Y-83401000D01*
X119846196Y-83401000D01*
X119721177Y-83388687D01*
X119560758Y-83340024D01*
X119412924Y-83261005D01*
X119412922Y-83261004D01*
X119283341Y-83154659D01*
X119176996Y-83025078D01*
X119168067Y-83008373D01*
X119097976Y-82877242D01*
X119049313Y-82716823D01*
X119032883Y-82550000D01*
X119049313Y-82383177D01*
X119097976Y-82222758D01*
X119176995Y-82074924D01*
X119176996Y-82074922D01*
X119283341Y-81945341D01*
X119412922Y-81838996D01*
X119428094Y-81830886D01*
X119560758Y-81759976D01*
X119721177Y-81711313D01*
X119846196Y-81699000D01*
X119929804Y-81699000D01*
X120054823Y-81711313D01*
X120054823Y-81711313D01*
G37*
G36*
X113119000Y-83401000D02*
G01*
X111417000Y-83401000D01*
X111417000Y-81699000D01*
X113119000Y-81699000D01*
X113119000Y-83401000D01*
X113119000Y-83401000D01*
G37*
G36*
X109894823Y-81711313D02*
G01*
X110055242Y-81759976D01*
X110187906Y-81830886D01*
X110203078Y-81838996D01*
X110332659Y-81945341D01*
X110439004Y-82074922D01*
X110439005Y-82074924D01*
X110518024Y-82222758D01*
X110566687Y-82383177D01*
X110583117Y-82550000D01*
X110566687Y-82716823D01*
X110518024Y-82877242D01*
X110447933Y-83008373D01*
X110439004Y-83025078D01*
X110332659Y-83154659D01*
X110203078Y-83261004D01*
X110203076Y-83261005D01*
X110055242Y-83340024D01*
X109894823Y-83388687D01*
X109769804Y-83401000D01*
X109686196Y-83401000D01*
X109561177Y-83388687D01*
X109400758Y-83340024D01*
X109252924Y-83261005D01*
X109252922Y-83261004D01*
X109123341Y-83154659D01*
X109016996Y-83025078D01*
X109008067Y-83008373D01*
X108937976Y-82877242D01*
X108889313Y-82716823D01*
X108872883Y-82550000D01*
X108889313Y-82383177D01*
X108937976Y-82222758D01*
X109016995Y-82074924D01*
X109016996Y-82074922D01*
X109123341Y-81945341D01*
X109252922Y-81838996D01*
X109268094Y-81830886D01*
X109400758Y-81759976D01*
X109561177Y-81711313D01*
X109686196Y-81699000D01*
X109769804Y-81699000D01*
X109894823Y-81711313D01*
X109894823Y-81711313D01*
G37*
G36*
X102959000Y-83401000D02*
G01*
X101257000Y-83401000D01*
X101257000Y-81699000D01*
X102959000Y-81699000D01*
X102959000Y-83401000D01*
X102959000Y-83401000D01*
G37*
G36*
X80258228Y-79921703D02*
G01*
X80413100Y-79985853D01*
X80552481Y-80078985D01*
X80671015Y-80197519D01*
X80764147Y-80336900D01*
X80828297Y-80491772D01*
X80861000Y-80656184D01*
X80861000Y-80823816D01*
X80828297Y-80988228D01*
X80764147Y-81143100D01*
X80671015Y-81282481D01*
X80552481Y-81401015D01*
X80413100Y-81494147D01*
X80258228Y-81558297D01*
X80093816Y-81591000D01*
X79926184Y-81591000D01*
X79761772Y-81558297D01*
X79606900Y-81494147D01*
X79467519Y-81401015D01*
X79348985Y-81282481D01*
X79255853Y-81143100D01*
X79191703Y-80988228D01*
X79159000Y-80823816D01*
X79159000Y-80656184D01*
X79191703Y-80491772D01*
X79255853Y-80336900D01*
X79348985Y-80197519D01*
X79467519Y-80078985D01*
X79606900Y-79985853D01*
X79761772Y-79921703D01*
X79926184Y-79889000D01*
X80093816Y-79889000D01*
X80258228Y-79921703D01*
X80258228Y-79921703D01*
G37*
G36*
X126885000Y-81546000D02*
G01*
X125083000Y-81546000D01*
X125083000Y-79744000D01*
X126885000Y-79744000D01*
X126885000Y-81546000D01*
X126885000Y-81546000D01*
G37*
G36*
X69960903Y-77608075D02*
G01*
X70147547Y-77685385D01*
X70188571Y-77702378D01*
X70393466Y-77839285D01*
X70567715Y-78013534D01*
X70704622Y-78218429D01*
X70798925Y-78446097D01*
X70847000Y-78687787D01*
X70847000Y-78934213D01*
X70798925Y-79175903D01*
X70704622Y-79403571D01*
X70567715Y-79608466D01*
X70393466Y-79782715D01*
X70188571Y-79919622D01*
X70188570Y-79919623D01*
X70188569Y-79919623D01*
X69960903Y-80013925D01*
X69719214Y-80062000D01*
X69472786Y-80062000D01*
X69231097Y-80013925D01*
X69003431Y-79919623D01*
X69003430Y-79919623D01*
X69003429Y-79919622D01*
X68798534Y-79782715D01*
X68624285Y-79608466D01*
X68487378Y-79403571D01*
X68393075Y-79175903D01*
X68345000Y-78934213D01*
X68345000Y-78687787D01*
X68393075Y-78446097D01*
X68487378Y-78218429D01*
X68624285Y-78013534D01*
X68798534Y-77839285D01*
X69003429Y-77702378D01*
X69044454Y-77685385D01*
X69231097Y-77608075D01*
X69472786Y-77560000D01*
X69719214Y-77560000D01*
X69960903Y-77608075D01*
X69960903Y-77608075D01*
G37*
G36*
X80861000Y-79591000D02*
G01*
X79159000Y-79591000D01*
X79159000Y-77889000D01*
X80861000Y-77889000D01*
X80861000Y-79591000D01*
X80861000Y-79591000D01*
G37*
G36*
X118049000Y-77536000D02*
G01*
X116774749Y-77536000D01*
X116750363Y-77538402D01*
X116726914Y-77545515D01*
X116705303Y-77557066D01*
X116686361Y-77572611D01*
X116670816Y-77591553D01*
X116659265Y-77613164D01*
X116652152Y-77636613D01*
X116649750Y-77660999D01*
X116652152Y-77685385D01*
X116659265Y-77708834D01*
X116670816Y-77730444D01*
X116699218Y-77772951D01*
X116752062Y-77900527D01*
X116779000Y-78035956D01*
X116779000Y-78174044D01*
X116752062Y-78309473D01*
X116699218Y-78437049D01*
X116622505Y-78551859D01*
X116524859Y-78649505D01*
X116410049Y-78726218D01*
X116282473Y-78779062D01*
X116147044Y-78806000D01*
X116008956Y-78806000D01*
X115873527Y-78779062D01*
X115745951Y-78726218D01*
X115631141Y-78649505D01*
X115533495Y-78551859D01*
X115456782Y-78437049D01*
X115403938Y-78309473D01*
X115377000Y-78174044D01*
X115377000Y-78035956D01*
X115403938Y-77900527D01*
X115456782Y-77772951D01*
X115533495Y-77658141D01*
X115631141Y-77560495D01*
X115745951Y-77483782D01*
X115873527Y-77430938D01*
X116008956Y-77404000D01*
X116147044Y-77404000D01*
X116282473Y-77430938D01*
X116410049Y-77483782D01*
X116452556Y-77512184D01*
X116474167Y-77523735D01*
X116497616Y-77530848D01*
X116522002Y-77533250D01*
X116546388Y-77530848D01*
X116569837Y-77523735D01*
X116591447Y-77512183D01*
X116610389Y-77496638D01*
X116625934Y-77477696D01*
X116637485Y-77456085D01*
X116644598Y-77432636D01*
X116647000Y-77408251D01*
X116647000Y-76134000D01*
X118049000Y-76134000D01*
X118049000Y-77536000D01*
X118049000Y-77536000D01*
G37*
G36*
X106122473Y-75525938D02*
G01*
X106250049Y-75578782D01*
X106364859Y-75655495D01*
X106462505Y-75753141D01*
X106539218Y-75867951D01*
X106592062Y-75995527D01*
X106619000Y-76130956D01*
X106619000Y-76269044D01*
X106592062Y-76404473D01*
X106539218Y-76532049D01*
X106462505Y-76646859D01*
X106364859Y-76744505D01*
X106250049Y-76821218D01*
X106122473Y-76874062D01*
X105987044Y-76901000D01*
X105848956Y-76901000D01*
X105713527Y-76874062D01*
X105585951Y-76821218D01*
X105543444Y-76792816D01*
X105521833Y-76781265D01*
X105498384Y-76774152D01*
X105473998Y-76771750D01*
X105449612Y-76774152D01*
X105426163Y-76781265D01*
X105404553Y-76792817D01*
X105385611Y-76808362D01*
X105370066Y-76827304D01*
X105358515Y-76848915D01*
X105351402Y-76872364D01*
X105349000Y-76896749D01*
X105349000Y-78171000D01*
X103947000Y-78171000D01*
X103947000Y-76769000D01*
X105221251Y-76769000D01*
X105245637Y-76766598D01*
X105269086Y-76759485D01*
X105290697Y-76747934D01*
X105309639Y-76732389D01*
X105325184Y-76713447D01*
X105336735Y-76691836D01*
X105343848Y-76668387D01*
X105346250Y-76644001D01*
X105343848Y-76619615D01*
X105336735Y-76596166D01*
X105325184Y-76574556D01*
X105296782Y-76532049D01*
X105243938Y-76404473D01*
X105217000Y-76269044D01*
X105217000Y-76130956D01*
X105243938Y-75995527D01*
X105296782Y-75867951D01*
X105373495Y-75753141D01*
X105471141Y-75655495D01*
X105585951Y-75578782D01*
X105713527Y-75525938D01*
X105848956Y-75499000D01*
X105987044Y-75499000D01*
X106122473Y-75525938D01*
X106122473Y-75525938D01*
G37*
G36*
X107392473Y-76795938D02*
G01*
X107520049Y-76848782D01*
X107634859Y-76925495D01*
X107732505Y-77023141D01*
X107809218Y-77137951D01*
X107862062Y-77265527D01*
X107889000Y-77400956D01*
X107889000Y-77539044D01*
X107862062Y-77674473D01*
X107809218Y-77802049D01*
X107732505Y-77916859D01*
X107634859Y-78014505D01*
X107520049Y-78091218D01*
X107392473Y-78144062D01*
X107257044Y-78171000D01*
X107118956Y-78171000D01*
X106983527Y-78144062D01*
X106855951Y-78091218D01*
X106741141Y-78014505D01*
X106643495Y-77916859D01*
X106566782Y-77802049D01*
X106513938Y-77674473D01*
X106487000Y-77539044D01*
X106487000Y-77400956D01*
X106513938Y-77265527D01*
X106566782Y-77137951D01*
X106643495Y-77023141D01*
X106741141Y-76925495D01*
X106855951Y-76848782D01*
X106983527Y-76795938D01*
X107118956Y-76769000D01*
X107257044Y-76769000D01*
X107392473Y-76795938D01*
X107392473Y-76795938D01*
G37*
G36*
X115012473Y-76160938D02*
G01*
X115140049Y-76213782D01*
X115254859Y-76290495D01*
X115352505Y-76388141D01*
X115429218Y-76502951D01*
X115482062Y-76630527D01*
X115509000Y-76765956D01*
X115509000Y-76904044D01*
X115482062Y-77039473D01*
X115429218Y-77167049D01*
X115352505Y-77281859D01*
X115254859Y-77379505D01*
X115140049Y-77456218D01*
X115012473Y-77509062D01*
X114877044Y-77536000D01*
X114738956Y-77536000D01*
X114603527Y-77509062D01*
X114475951Y-77456218D01*
X114361141Y-77379505D01*
X114263495Y-77281859D01*
X114186782Y-77167049D01*
X114133938Y-77039473D01*
X114107000Y-76904044D01*
X114107000Y-76765956D01*
X114133938Y-76630527D01*
X114186782Y-76502951D01*
X114263495Y-76388141D01*
X114361141Y-76290495D01*
X114475951Y-76213782D01*
X114603527Y-76160938D01*
X114738956Y-76134000D01*
X114877044Y-76134000D01*
X115012473Y-76160938D01*
X115012473Y-76160938D01*
G37*
G36*
X125330000Y-76689000D02*
G01*
X122828000Y-76689000D01*
X122828000Y-74187000D01*
X125330000Y-74187000D01*
X125330000Y-76689000D01*
X125330000Y-76689000D01*
G37*
G36*
X70847000Y-76562000D02*
G01*
X68345000Y-76562000D01*
X68345000Y-74060000D01*
X70847000Y-74060000D01*
X70847000Y-76562000D01*
X70847000Y-76562000D01*
G37*
G36*
X124387391Y-70723834D02*
G01*
X124443903Y-70735075D01*
X124671571Y-70829378D01*
X124876466Y-70966285D01*
X125050715Y-71140534D01*
X125173620Y-71324474D01*
X125187623Y-71345431D01*
X125281925Y-71573097D01*
X125325878Y-71794061D01*
X125330000Y-71814787D01*
X125330000Y-72061213D01*
X125281925Y-72302903D01*
X125187622Y-72530571D01*
X125050715Y-72735466D01*
X124876466Y-72909715D01*
X124671571Y-73046622D01*
X124671570Y-73046623D01*
X124671569Y-73046623D01*
X124443903Y-73140925D01*
X124202214Y-73189000D01*
X123955786Y-73189000D01*
X123714097Y-73140925D01*
X123486431Y-73046623D01*
X123486430Y-73046623D01*
X123486429Y-73046622D01*
X123281534Y-72909715D01*
X123107285Y-72735466D01*
X122970378Y-72530571D01*
X122876075Y-72302903D01*
X122828000Y-72061213D01*
X122828000Y-71814787D01*
X122832123Y-71794061D01*
X122876075Y-71573097D01*
X122970377Y-71345431D01*
X122984380Y-71324474D01*
X123107285Y-71140534D01*
X123281534Y-70966285D01*
X123486429Y-70829378D01*
X123714097Y-70735075D01*
X123770609Y-70723834D01*
X123955786Y-70687000D01*
X124202214Y-70687000D01*
X124387391Y-70723834D01*
X124387391Y-70723834D01*
G37*
G36*
X118049000Y-70551000D02*
G01*
X116774749Y-70551000D01*
X116750363Y-70553402D01*
X116726914Y-70560515D01*
X116705303Y-70572066D01*
X116686361Y-70587611D01*
X116670816Y-70606553D01*
X116659265Y-70628164D01*
X116652152Y-70651613D01*
X116649750Y-70675999D01*
X116652152Y-70700385D01*
X116659265Y-70723834D01*
X116670816Y-70745444D01*
X116699218Y-70787951D01*
X116752062Y-70915527D01*
X116779000Y-71050956D01*
X116779000Y-71189044D01*
X116752062Y-71324473D01*
X116699218Y-71452049D01*
X116622505Y-71566859D01*
X116524859Y-71664505D01*
X116410049Y-71741218D01*
X116282473Y-71794062D01*
X116147044Y-71821000D01*
X116008956Y-71821000D01*
X115873527Y-71794062D01*
X115745951Y-71741218D01*
X115631141Y-71664505D01*
X115533495Y-71566859D01*
X115456782Y-71452049D01*
X115403938Y-71324473D01*
X115377000Y-71189044D01*
X115377000Y-71050956D01*
X115403938Y-70915527D01*
X115456782Y-70787951D01*
X115533495Y-70673141D01*
X115631141Y-70575495D01*
X115745951Y-70498782D01*
X115873527Y-70445938D01*
X116008956Y-70419000D01*
X116147044Y-70419000D01*
X116282473Y-70445938D01*
X116410049Y-70498782D01*
X116452556Y-70527184D01*
X116474167Y-70538735D01*
X116497616Y-70545848D01*
X116522002Y-70548250D01*
X116546388Y-70545848D01*
X116569837Y-70538735D01*
X116591447Y-70527183D01*
X116610389Y-70511638D01*
X116625934Y-70492696D01*
X116637485Y-70471085D01*
X116644598Y-70447636D01*
X116647000Y-70423251D01*
X116647000Y-69149000D01*
X118049000Y-69149000D01*
X118049000Y-70551000D01*
X118049000Y-70551000D01*
G37*
G36*
X107392473Y-69810938D02*
G01*
X107520049Y-69863782D01*
X107634859Y-69940495D01*
X107732505Y-70038141D01*
X107809218Y-70152951D01*
X107862062Y-70280527D01*
X107889000Y-70415956D01*
X107889000Y-70554044D01*
X107862062Y-70689473D01*
X107809218Y-70817049D01*
X107732505Y-70931859D01*
X107634859Y-71029505D01*
X107520049Y-71106218D01*
X107392473Y-71159062D01*
X107257044Y-71186000D01*
X107118956Y-71186000D01*
X106983527Y-71159062D01*
X106855951Y-71106218D01*
X106741141Y-71029505D01*
X106643495Y-70931859D01*
X106566782Y-70817049D01*
X106513938Y-70689473D01*
X106487000Y-70554044D01*
X106487000Y-70415956D01*
X106513938Y-70280527D01*
X106566782Y-70152951D01*
X106643495Y-70038141D01*
X106741141Y-69940495D01*
X106855951Y-69863782D01*
X106983527Y-69810938D01*
X107118956Y-69784000D01*
X107257044Y-69784000D01*
X107392473Y-69810938D01*
X107392473Y-69810938D01*
G37*
G36*
X106122473Y-68540938D02*
G01*
X106250049Y-68593782D01*
X106364859Y-68670495D01*
X106462505Y-68768141D01*
X106539218Y-68882951D01*
X106592062Y-69010527D01*
X106619000Y-69145956D01*
X106619000Y-69284044D01*
X106592062Y-69419473D01*
X106539218Y-69547049D01*
X106462505Y-69661859D01*
X106364859Y-69759505D01*
X106250049Y-69836218D01*
X106122473Y-69889062D01*
X105987044Y-69916000D01*
X105848956Y-69916000D01*
X105713527Y-69889062D01*
X105585951Y-69836218D01*
X105543444Y-69807816D01*
X105521833Y-69796265D01*
X105498384Y-69789152D01*
X105473998Y-69786750D01*
X105449612Y-69789152D01*
X105426163Y-69796265D01*
X105404553Y-69807817D01*
X105385611Y-69823362D01*
X105370066Y-69842304D01*
X105358515Y-69863915D01*
X105351402Y-69887364D01*
X105349000Y-69911749D01*
X105349000Y-71186000D01*
X103947000Y-71186000D01*
X103947000Y-69784000D01*
X105221251Y-69784000D01*
X105245637Y-69781598D01*
X105269086Y-69774485D01*
X105290697Y-69762934D01*
X105309639Y-69747389D01*
X105325184Y-69728447D01*
X105336735Y-69706836D01*
X105343848Y-69683387D01*
X105346250Y-69659001D01*
X105343848Y-69634615D01*
X105336735Y-69611166D01*
X105325184Y-69589556D01*
X105296782Y-69547049D01*
X105243938Y-69419473D01*
X105217000Y-69284044D01*
X105217000Y-69145956D01*
X105243938Y-69010527D01*
X105296782Y-68882951D01*
X105373495Y-68768141D01*
X105471141Y-68670495D01*
X105585951Y-68593782D01*
X105713527Y-68540938D01*
X105848956Y-68514000D01*
X105987044Y-68514000D01*
X106122473Y-68540938D01*
X106122473Y-68540938D01*
G37*
G36*
X115012473Y-69175938D02*
G01*
X115140049Y-69228782D01*
X115254859Y-69305495D01*
X115352505Y-69403141D01*
X115429218Y-69517951D01*
X115482062Y-69645527D01*
X115509000Y-69780956D01*
X115509000Y-69919044D01*
X115482062Y-70054473D01*
X115429218Y-70182049D01*
X115352505Y-70296859D01*
X115254859Y-70394505D01*
X115140049Y-70471218D01*
X115012473Y-70524062D01*
X114877044Y-70551000D01*
X114738956Y-70551000D01*
X114603527Y-70524062D01*
X114475951Y-70471218D01*
X114361141Y-70394505D01*
X114263495Y-70296859D01*
X114186782Y-70182049D01*
X114133938Y-70054473D01*
X114107000Y-69919044D01*
X114107000Y-69780956D01*
X114133938Y-69645527D01*
X114186782Y-69517951D01*
X114263495Y-69403141D01*
X114361141Y-69305495D01*
X114475951Y-69228782D01*
X114603527Y-69175938D01*
X114738956Y-69149000D01*
X114877044Y-69149000D01*
X115012473Y-69175938D01*
X115012473Y-69175938D01*
G37*
G36*
X124812497Y-63156771D02*
G01*
X124941579Y-63182447D01*
X125242042Y-63306903D01*
X125512451Y-63487585D01*
X125742415Y-63717549D01*
X125923097Y-63987958D01*
X126047553Y-64288421D01*
X126068702Y-64394744D01*
X126111000Y-64607389D01*
X126111000Y-64932611D01*
X126078253Y-65097239D01*
X126047553Y-65251579D01*
X125923097Y-65552042D01*
X125742415Y-65822451D01*
X125512451Y-66052415D01*
X125242042Y-66233097D01*
X124941579Y-66357553D01*
X124835256Y-66378702D01*
X124622611Y-66421000D01*
X124297389Y-66421000D01*
X124084744Y-66378702D01*
X123978421Y-66357553D01*
X123677958Y-66233097D01*
X123407549Y-66052415D01*
X123177585Y-65822451D01*
X122996903Y-65552042D01*
X122872447Y-65251579D01*
X122841747Y-65097239D01*
X122809000Y-64932611D01*
X122809000Y-64607389D01*
X122851298Y-64394744D01*
X122872447Y-64288421D01*
X122996903Y-63987958D01*
X123177585Y-63717549D01*
X123407549Y-63487585D01*
X123677958Y-63306903D01*
X123978421Y-63182447D01*
X124107503Y-63156771D01*
X124297389Y-63119000D01*
X124622611Y-63119000D01*
X124812497Y-63156771D01*
X124812497Y-63156771D01*
G37*
G36*
X69567497Y-63156771D02*
G01*
X69696579Y-63182447D01*
X69997042Y-63306903D01*
X70267451Y-63487585D01*
X70497415Y-63717549D01*
X70678097Y-63987958D01*
X70802553Y-64288421D01*
X70823702Y-64394744D01*
X70866000Y-64607389D01*
X70866000Y-64932611D01*
X70833253Y-65097239D01*
X70802553Y-65251579D01*
X70678097Y-65552042D01*
X70497415Y-65822451D01*
X70267451Y-66052415D01*
X69997042Y-66233097D01*
X69696579Y-66357553D01*
X69590256Y-66378702D01*
X69377611Y-66421000D01*
X69052389Y-66421000D01*
X68839744Y-66378702D01*
X68733421Y-66357553D01*
X68432958Y-66233097D01*
X68162549Y-66052415D01*
X67932585Y-65822451D01*
X67751903Y-65552042D01*
X67627447Y-65251579D01*
X67596747Y-65097239D01*
X67564000Y-64932611D01*
X67564000Y-64607389D01*
X67606298Y-64394744D01*
X67627447Y-64288421D01*
X67751903Y-63987958D01*
X67932585Y-63717549D01*
X68162549Y-63487585D01*
X68432958Y-63306903D01*
X68733421Y-63182447D01*
X68862503Y-63156771D01*
X69052389Y-63119000D01*
X69377611Y-63119000D01*
X69567497Y-63156771D01*
X69567497Y-63156771D01*
G37*
G36*
X94196000Y-66256000D02*
G01*
X92494000Y-66256000D01*
X92494000Y-64554000D01*
X94196000Y-64554000D01*
X94196000Y-66256000D01*
X94196000Y-66256000D01*
G37*
G36*
X113119000Y-65621000D02*
G01*
X111417000Y-65621000D01*
X111417000Y-63919000D01*
X113119000Y-63919000D01*
X113119000Y-65621000D01*
X113119000Y-65621000D01*
G37*
G36*
X109894823Y-63931313D02*
G01*
X110055242Y-63979976D01*
X110187906Y-64050886D01*
X110203078Y-64058996D01*
X110332659Y-64165341D01*
X110439004Y-64294922D01*
X110439005Y-64294924D01*
X110518024Y-64442758D01*
X110566687Y-64603177D01*
X110583117Y-64770000D01*
X110566687Y-64936823D01*
X110518024Y-65097242D01*
X110447114Y-65229906D01*
X110439004Y-65245078D01*
X110332659Y-65374659D01*
X110203078Y-65481004D01*
X110203076Y-65481005D01*
X110055242Y-65560024D01*
X109894823Y-65608687D01*
X109769804Y-65621000D01*
X109686196Y-65621000D01*
X109561177Y-65608687D01*
X109400758Y-65560024D01*
X109252924Y-65481005D01*
X109252922Y-65481004D01*
X109123341Y-65374659D01*
X109016996Y-65245078D01*
X109008886Y-65229906D01*
X108937976Y-65097242D01*
X108889313Y-64936823D01*
X108872883Y-64770000D01*
X108889313Y-64603177D01*
X108937976Y-64442758D01*
X109016995Y-64294924D01*
X109016996Y-64294922D01*
X109123341Y-64165341D01*
X109252922Y-64058996D01*
X109268094Y-64050886D01*
X109400758Y-63979976D01*
X109561177Y-63931313D01*
X109686196Y-63919000D01*
X109769804Y-63919000D01*
X109894823Y-63931313D01*
X109894823Y-63931313D01*
G37*
G36*
X102959000Y-65621000D02*
G01*
X101257000Y-65621000D01*
X101257000Y-63919000D01*
X102959000Y-63919000D01*
X102959000Y-65621000D01*
X102959000Y-65621000D01*
G37*
G36*
X120054823Y-63931313D02*
G01*
X120215242Y-63979976D01*
X120347906Y-64050886D01*
X120363078Y-64058996D01*
X120492659Y-64165341D01*
X120599004Y-64294922D01*
X120599005Y-64294924D01*
X120678024Y-64442758D01*
X120726687Y-64603177D01*
X120743117Y-64770000D01*
X120726687Y-64936823D01*
X120678024Y-65097242D01*
X120607114Y-65229906D01*
X120599004Y-65245078D01*
X120492659Y-65374659D01*
X120363078Y-65481004D01*
X120363076Y-65481005D01*
X120215242Y-65560024D01*
X120054823Y-65608687D01*
X119929804Y-65621000D01*
X119846196Y-65621000D01*
X119721177Y-65608687D01*
X119560758Y-65560024D01*
X119412924Y-65481005D01*
X119412922Y-65481004D01*
X119283341Y-65374659D01*
X119176996Y-65245078D01*
X119168886Y-65229906D01*
X119097976Y-65097242D01*
X119049313Y-64936823D01*
X119032883Y-64770000D01*
X119049313Y-64603177D01*
X119097976Y-64442758D01*
X119176995Y-64294924D01*
X119176996Y-64294922D01*
X119283341Y-64165341D01*
X119412922Y-64058996D01*
X119428094Y-64050886D01*
X119560758Y-63979976D01*
X119721177Y-63931313D01*
X119846196Y-63919000D01*
X119929804Y-63919000D01*
X120054823Y-63931313D01*
X120054823Y-63931313D01*
G37*
G36*
X93593228Y-62586703D02*
G01*
X93748100Y-62650853D01*
X93887481Y-62743985D01*
X94006015Y-62862519D01*
X94099147Y-63001900D01*
X94163297Y-63156772D01*
X94196000Y-63321184D01*
X94196000Y-63488816D01*
X94163297Y-63653228D01*
X94099147Y-63808100D01*
X94006015Y-63947481D01*
X93887481Y-64066015D01*
X93748100Y-64159147D01*
X93593228Y-64223297D01*
X93428816Y-64256000D01*
X93261184Y-64256000D01*
X93096772Y-64223297D01*
X92941900Y-64159147D01*
X92802519Y-64066015D01*
X92683985Y-63947481D01*
X92590853Y-63808100D01*
X92526703Y-63653228D01*
X92494000Y-63488816D01*
X92494000Y-63321184D01*
X92526703Y-63156772D01*
X92590853Y-63001900D01*
X92683985Y-62862519D01*
X92802519Y-62743985D01*
X92941900Y-62650853D01*
X93096772Y-62586703D01*
X93261184Y-62554000D01*
X93428816Y-62554000D01*
X93593228Y-62586703D01*
X93593228Y-62586703D01*
G37*
M02*
