G04 #@! TF.GenerationSoftware,KiCad,Pcbnew,5.1.4*
G04 #@! TF.CreationDate,2019-11-19T03:17:16+01:00*
G04 #@! TF.ProjectId,sclock,73636c6f-636b-42e6-9b69-6361645f7063,rev?*
G04 #@! TF.SameCoordinates,Original*
G04 #@! TF.FileFunction,Copper,L1,Top*
G04 #@! TF.FilePolarity,Positive*
%FSLAX46Y46*%
G04 Gerber Fmt 4.6, Leading zero omitted, Abs format (unit mm)*
G04 Created by KiCad (PCBNEW 5.1.4) date 2019-11-19 03:17:16*
%MOMM*%
%LPD*%
G04 APERTURE LIST*
G04 #@! TA.AperFunction,NonConductor*
%ADD10C,0.050000*%
G04 #@! TD*
G04 #@! TA.AperFunction,SMDPad,CuDef*
%ADD11R,1.200000X4.000000*%
G04 #@! TD*
G04 #@! TA.AperFunction,ComponentPad*
%ADD12O,1.800000X3.200000*%
G04 #@! TD*
G04 #@! TA.AperFunction,ComponentPad*
%ADD13R,1.700000X1.700000*%
G04 #@! TD*
G04 #@! TA.AperFunction,ComponentPad*
%ADD14O,1.700000X1.700000*%
G04 #@! TD*
G04 #@! TA.AperFunction,SMDPad,CuDef*
%ADD15R,4.900000X5.400000*%
G04 #@! TD*
G04 #@! TA.AperFunction,Conductor*
%ADD16C,0.100000*%
G04 #@! TD*
G04 #@! TA.AperFunction,SMDPad,CuDef*
%ADD17C,1.150000*%
G04 #@! TD*
G04 #@! TA.AperFunction,ComponentPad*
%ADD18R,1.600000X1.600000*%
G04 #@! TD*
G04 #@! TA.AperFunction,ComponentPad*
%ADD19C,1.600000*%
G04 #@! TD*
G04 #@! TA.AperFunction,SMDPad,CuDef*
%ADD20R,0.900000X1.200000*%
G04 #@! TD*
G04 #@! TA.AperFunction,SMDPad,CuDef*
%ADD21C,0.600000*%
G04 #@! TD*
G04 #@! TA.AperFunction,ComponentPad*
%ADD22O,1.600000X1.600000*%
G04 #@! TD*
G04 #@! TA.AperFunction,ComponentPad*
%ADD23C,2.400000*%
G04 #@! TD*
G04 #@! TA.AperFunction,ComponentPad*
%ADD24R,2.400000X2.400000*%
G04 #@! TD*
G04 #@! TA.AperFunction,ComponentPad*
%ADD25R,1.300000X1.300000*%
G04 #@! TD*
G04 #@! TA.AperFunction,ComponentPad*
%ADD26C,1.300000*%
G04 #@! TD*
G04 #@! TA.AperFunction,ComponentPad*
%ADD27C,2.000000*%
G04 #@! TD*
G04 #@! TA.AperFunction,ViaPad*
%ADD28C,0.800000*%
G04 #@! TD*
G04 #@! TA.AperFunction,Conductor*
%ADD29C,0.250000*%
G04 #@! TD*
G04 #@! TA.AperFunction,Conductor*
%ADD30C,0.700000*%
G04 #@! TD*
G04 #@! TA.AperFunction,Conductor*
%ADD31C,0.500000*%
G04 #@! TD*
G04 APERTURE END LIST*
D10*
X128270000Y-60960000D02*
X65405000Y-60960000D01*
X128270000Y-109220000D02*
X128270000Y-60960000D01*
X65405000Y-109220000D02*
X128270000Y-109220000D01*
X65405000Y-60960000D02*
X65405000Y-109220000D01*
D11*
G04 #@! TO.P,Y1,3*
G04 #@! TO.N,Net-(U3-Pad9)*
X83749000Y-94996000D03*
G04 #@! TO.P,Y1,2*
G04 #@! TO.N,GND*
X80899000Y-94996000D03*
G04 #@! TO.P,Y1,1*
G04 #@! TO.N,Net-(U3-Pad10)*
X78049000Y-94996000D03*
G04 #@! TD*
D12*
G04 #@! TO.P,SW3,6*
G04 #@! TO.N,N/C*
X67664400Y-94742000D03*
G04 #@! TO.P,SW3,5*
X67664400Y-90142000D03*
G04 #@! TO.P,SW3,4*
X67664400Y-85542000D03*
G04 #@! TO.P,SW3,3*
G04 #@! TO.N,VCC*
X74574400Y-85542000D03*
G04 #@! TO.P,SW3,2*
G04 #@! TO.N,+BATT*
X74574400Y-90142000D03*
G04 #@! TO.P,SW3,1*
G04 #@! TO.N,Net-(SW3-Pad1)*
X74574400Y-94742000D03*
G04 #@! TD*
D13*
G04 #@! TO.P,RTC,1*
G04 #@! TO.N,GND*
X124841000Y-104902000D03*
D14*
G04 #@! TO.P,RTC,2*
G04 #@! TO.N,+3V3*
X122301000Y-104902000D03*
G04 #@! TO.P,RTC,3*
G04 #@! TO.N,SDA*
X119761000Y-104902000D03*
G04 #@! TO.P,RTC,4*
G04 #@! TO.N,SCL*
X117221000Y-104902000D03*
G04 #@! TO.P,RTC,5*
G04 #@! TO.N,INT0*
X114681000Y-104902000D03*
G04 #@! TO.P,RTC,6*
G04 #@! TO.N,Net-(J3-Pad6)*
X112141000Y-104902000D03*
G04 #@! TD*
D15*
G04 #@! TO.P,L1,1*
G04 #@! TO.N,VCC*
X75565000Y-69215000D03*
G04 #@! TO.P,L1,2*
G04 #@! TO.N,Net-(D1-Pad2)*
X87365000Y-69215000D03*
G04 #@! TD*
D16*
G04 #@! TO.N,Net-(C1-Pad1)*
G04 #@! TO.C,C1*
G36*
X85564505Y-80071204D02*
G01*
X85588773Y-80074804D01*
X85612572Y-80080765D01*
X85635671Y-80089030D01*
X85657850Y-80099520D01*
X85678893Y-80112132D01*
X85698599Y-80126747D01*
X85716777Y-80143223D01*
X85733253Y-80161401D01*
X85747868Y-80181107D01*
X85760480Y-80202150D01*
X85770970Y-80224329D01*
X85779235Y-80247428D01*
X85785196Y-80271227D01*
X85788796Y-80295495D01*
X85790000Y-80319999D01*
X85790000Y-80970001D01*
X85788796Y-80994505D01*
X85785196Y-81018773D01*
X85779235Y-81042572D01*
X85770970Y-81065671D01*
X85760480Y-81087850D01*
X85747868Y-81108893D01*
X85733253Y-81128599D01*
X85716777Y-81146777D01*
X85698599Y-81163253D01*
X85678893Y-81177868D01*
X85657850Y-81190480D01*
X85635671Y-81200970D01*
X85612572Y-81209235D01*
X85588773Y-81215196D01*
X85564505Y-81218796D01*
X85540001Y-81220000D01*
X84639999Y-81220000D01*
X84615495Y-81218796D01*
X84591227Y-81215196D01*
X84567428Y-81209235D01*
X84544329Y-81200970D01*
X84522150Y-81190480D01*
X84501107Y-81177868D01*
X84481401Y-81163253D01*
X84463223Y-81146777D01*
X84446747Y-81128599D01*
X84432132Y-81108893D01*
X84419520Y-81087850D01*
X84409030Y-81065671D01*
X84400765Y-81042572D01*
X84394804Y-81018773D01*
X84391204Y-80994505D01*
X84390000Y-80970001D01*
X84390000Y-80319999D01*
X84391204Y-80295495D01*
X84394804Y-80271227D01*
X84400765Y-80247428D01*
X84409030Y-80224329D01*
X84419520Y-80202150D01*
X84432132Y-80181107D01*
X84446747Y-80161401D01*
X84463223Y-80143223D01*
X84481401Y-80126747D01*
X84501107Y-80112132D01*
X84522150Y-80099520D01*
X84544329Y-80089030D01*
X84567428Y-80080765D01*
X84591227Y-80074804D01*
X84615495Y-80071204D01*
X84639999Y-80070000D01*
X85540001Y-80070000D01*
X85564505Y-80071204D01*
X85564505Y-80071204D01*
G37*
D17*
G04 #@! TD*
G04 #@! TO.P,C1,1*
G04 #@! TO.N,Net-(C1-Pad1)*
X85090000Y-80645000D03*
D16*
G04 #@! TO.N,GND*
G04 #@! TO.C,C1*
G36*
X85564505Y-78021204D02*
G01*
X85588773Y-78024804D01*
X85612572Y-78030765D01*
X85635671Y-78039030D01*
X85657850Y-78049520D01*
X85678893Y-78062132D01*
X85698599Y-78076747D01*
X85716777Y-78093223D01*
X85733253Y-78111401D01*
X85747868Y-78131107D01*
X85760480Y-78152150D01*
X85770970Y-78174329D01*
X85779235Y-78197428D01*
X85785196Y-78221227D01*
X85788796Y-78245495D01*
X85790000Y-78269999D01*
X85790000Y-78920001D01*
X85788796Y-78944505D01*
X85785196Y-78968773D01*
X85779235Y-78992572D01*
X85770970Y-79015671D01*
X85760480Y-79037850D01*
X85747868Y-79058893D01*
X85733253Y-79078599D01*
X85716777Y-79096777D01*
X85698599Y-79113253D01*
X85678893Y-79127868D01*
X85657850Y-79140480D01*
X85635671Y-79150970D01*
X85612572Y-79159235D01*
X85588773Y-79165196D01*
X85564505Y-79168796D01*
X85540001Y-79170000D01*
X84639999Y-79170000D01*
X84615495Y-79168796D01*
X84591227Y-79165196D01*
X84567428Y-79159235D01*
X84544329Y-79150970D01*
X84522150Y-79140480D01*
X84501107Y-79127868D01*
X84481401Y-79113253D01*
X84463223Y-79096777D01*
X84446747Y-79078599D01*
X84432132Y-79058893D01*
X84419520Y-79037850D01*
X84409030Y-79015671D01*
X84400765Y-78992572D01*
X84394804Y-78968773D01*
X84391204Y-78944505D01*
X84390000Y-78920001D01*
X84390000Y-78269999D01*
X84391204Y-78245495D01*
X84394804Y-78221227D01*
X84400765Y-78197428D01*
X84409030Y-78174329D01*
X84419520Y-78152150D01*
X84432132Y-78131107D01*
X84446747Y-78111401D01*
X84463223Y-78093223D01*
X84481401Y-78076747D01*
X84501107Y-78062132D01*
X84522150Y-78049520D01*
X84544329Y-78039030D01*
X84567428Y-78030765D01*
X84591227Y-78024804D01*
X84615495Y-78021204D01*
X84639999Y-78020000D01*
X85540001Y-78020000D01*
X85564505Y-78021204D01*
X85564505Y-78021204D01*
G37*
D17*
G04 #@! TD*
G04 #@! TO.P,C1,2*
G04 #@! TO.N,GND*
X85090000Y-78595000D03*
D16*
G04 #@! TO.N,GND*
G04 #@! TO.C,C2*
G36*
X99534505Y-80216204D02*
G01*
X99558773Y-80219804D01*
X99582572Y-80225765D01*
X99605671Y-80234030D01*
X99627850Y-80244520D01*
X99648893Y-80257132D01*
X99668599Y-80271747D01*
X99686777Y-80288223D01*
X99703253Y-80306401D01*
X99717868Y-80326107D01*
X99730480Y-80347150D01*
X99740970Y-80369329D01*
X99749235Y-80392428D01*
X99755196Y-80416227D01*
X99758796Y-80440495D01*
X99760000Y-80464999D01*
X99760000Y-81115001D01*
X99758796Y-81139505D01*
X99755196Y-81163773D01*
X99749235Y-81187572D01*
X99740970Y-81210671D01*
X99730480Y-81232850D01*
X99717868Y-81253893D01*
X99703253Y-81273599D01*
X99686777Y-81291777D01*
X99668599Y-81308253D01*
X99648893Y-81322868D01*
X99627850Y-81335480D01*
X99605671Y-81345970D01*
X99582572Y-81354235D01*
X99558773Y-81360196D01*
X99534505Y-81363796D01*
X99510001Y-81365000D01*
X98609999Y-81365000D01*
X98585495Y-81363796D01*
X98561227Y-81360196D01*
X98537428Y-81354235D01*
X98514329Y-81345970D01*
X98492150Y-81335480D01*
X98471107Y-81322868D01*
X98451401Y-81308253D01*
X98433223Y-81291777D01*
X98416747Y-81273599D01*
X98402132Y-81253893D01*
X98389520Y-81232850D01*
X98379030Y-81210671D01*
X98370765Y-81187572D01*
X98364804Y-81163773D01*
X98361204Y-81139505D01*
X98360000Y-81115001D01*
X98360000Y-80464999D01*
X98361204Y-80440495D01*
X98364804Y-80416227D01*
X98370765Y-80392428D01*
X98379030Y-80369329D01*
X98389520Y-80347150D01*
X98402132Y-80326107D01*
X98416747Y-80306401D01*
X98433223Y-80288223D01*
X98451401Y-80271747D01*
X98471107Y-80257132D01*
X98492150Y-80244520D01*
X98514329Y-80234030D01*
X98537428Y-80225765D01*
X98561227Y-80219804D01*
X98585495Y-80216204D01*
X98609999Y-80215000D01*
X99510001Y-80215000D01*
X99534505Y-80216204D01*
X99534505Y-80216204D01*
G37*
D17*
G04 #@! TD*
G04 #@! TO.P,C2,2*
G04 #@! TO.N,GND*
X99060000Y-80790000D03*
D16*
G04 #@! TO.N,+3V3*
G04 #@! TO.C,C2*
G36*
X99534505Y-78166204D02*
G01*
X99558773Y-78169804D01*
X99582572Y-78175765D01*
X99605671Y-78184030D01*
X99627850Y-78194520D01*
X99648893Y-78207132D01*
X99668599Y-78221747D01*
X99686777Y-78238223D01*
X99703253Y-78256401D01*
X99717868Y-78276107D01*
X99730480Y-78297150D01*
X99740970Y-78319329D01*
X99749235Y-78342428D01*
X99755196Y-78366227D01*
X99758796Y-78390495D01*
X99760000Y-78414999D01*
X99760000Y-79065001D01*
X99758796Y-79089505D01*
X99755196Y-79113773D01*
X99749235Y-79137572D01*
X99740970Y-79160671D01*
X99730480Y-79182850D01*
X99717868Y-79203893D01*
X99703253Y-79223599D01*
X99686777Y-79241777D01*
X99668599Y-79258253D01*
X99648893Y-79272868D01*
X99627850Y-79285480D01*
X99605671Y-79295970D01*
X99582572Y-79304235D01*
X99558773Y-79310196D01*
X99534505Y-79313796D01*
X99510001Y-79315000D01*
X98609999Y-79315000D01*
X98585495Y-79313796D01*
X98561227Y-79310196D01*
X98537428Y-79304235D01*
X98514329Y-79295970D01*
X98492150Y-79285480D01*
X98471107Y-79272868D01*
X98451401Y-79258253D01*
X98433223Y-79241777D01*
X98416747Y-79223599D01*
X98402132Y-79203893D01*
X98389520Y-79182850D01*
X98379030Y-79160671D01*
X98370765Y-79137572D01*
X98364804Y-79113773D01*
X98361204Y-79089505D01*
X98360000Y-79065001D01*
X98360000Y-78414999D01*
X98361204Y-78390495D01*
X98364804Y-78366227D01*
X98370765Y-78342428D01*
X98379030Y-78319329D01*
X98389520Y-78297150D01*
X98402132Y-78276107D01*
X98416747Y-78256401D01*
X98433223Y-78238223D01*
X98451401Y-78221747D01*
X98471107Y-78207132D01*
X98492150Y-78194520D01*
X98514329Y-78184030D01*
X98537428Y-78175765D01*
X98561227Y-78169804D01*
X98585495Y-78166204D01*
X98609999Y-78165000D01*
X99510001Y-78165000D01*
X99534505Y-78166204D01*
X99534505Y-78166204D01*
G37*
D17*
G04 #@! TD*
G04 #@! TO.P,C2,1*
G04 #@! TO.N,+3V3*
X99060000Y-78740000D03*
D18*
G04 #@! TO.P,C3,1*
G04 #@! TO.N,VCC*
X80010000Y-78740000D03*
D19*
G04 #@! TO.P,C3,2*
G04 #@! TO.N,GND*
X80010000Y-80740000D03*
G04 #@! TD*
D16*
G04 #@! TO.N,+24V*
G04 #@! TO.C,C4*
G36*
X94184505Y-69151204D02*
G01*
X94208773Y-69154804D01*
X94232572Y-69160765D01*
X94255671Y-69169030D01*
X94277850Y-69179520D01*
X94298893Y-69192132D01*
X94318599Y-69206747D01*
X94336777Y-69223223D01*
X94353253Y-69241401D01*
X94367868Y-69261107D01*
X94380480Y-69282150D01*
X94390970Y-69304329D01*
X94399235Y-69327428D01*
X94405196Y-69351227D01*
X94408796Y-69375495D01*
X94410000Y-69399999D01*
X94410000Y-70300001D01*
X94408796Y-70324505D01*
X94405196Y-70348773D01*
X94399235Y-70372572D01*
X94390970Y-70395671D01*
X94380480Y-70417850D01*
X94367868Y-70438893D01*
X94353253Y-70458599D01*
X94336777Y-70476777D01*
X94318599Y-70493253D01*
X94298893Y-70507868D01*
X94277850Y-70520480D01*
X94255671Y-70530970D01*
X94232572Y-70539235D01*
X94208773Y-70545196D01*
X94184505Y-70548796D01*
X94160001Y-70550000D01*
X93509999Y-70550000D01*
X93485495Y-70548796D01*
X93461227Y-70545196D01*
X93437428Y-70539235D01*
X93414329Y-70530970D01*
X93392150Y-70520480D01*
X93371107Y-70507868D01*
X93351401Y-70493253D01*
X93333223Y-70476777D01*
X93316747Y-70458599D01*
X93302132Y-70438893D01*
X93289520Y-70417850D01*
X93279030Y-70395671D01*
X93270765Y-70372572D01*
X93264804Y-70348773D01*
X93261204Y-70324505D01*
X93260000Y-70300001D01*
X93260000Y-69399999D01*
X93261204Y-69375495D01*
X93264804Y-69351227D01*
X93270765Y-69327428D01*
X93279030Y-69304329D01*
X93289520Y-69282150D01*
X93302132Y-69261107D01*
X93316747Y-69241401D01*
X93333223Y-69223223D01*
X93351401Y-69206747D01*
X93371107Y-69192132D01*
X93392150Y-69179520D01*
X93414329Y-69169030D01*
X93437428Y-69160765D01*
X93461227Y-69154804D01*
X93485495Y-69151204D01*
X93509999Y-69150000D01*
X94160001Y-69150000D01*
X94184505Y-69151204D01*
X94184505Y-69151204D01*
G37*
D17*
G04 #@! TD*
G04 #@! TO.P,C4,1*
G04 #@! TO.N,+24V*
X93835000Y-69850000D03*
D16*
G04 #@! TO.N,Net-(C4-Pad2)*
G04 #@! TO.C,C4*
G36*
X96234505Y-69151204D02*
G01*
X96258773Y-69154804D01*
X96282572Y-69160765D01*
X96305671Y-69169030D01*
X96327850Y-69179520D01*
X96348893Y-69192132D01*
X96368599Y-69206747D01*
X96386777Y-69223223D01*
X96403253Y-69241401D01*
X96417868Y-69261107D01*
X96430480Y-69282150D01*
X96440970Y-69304329D01*
X96449235Y-69327428D01*
X96455196Y-69351227D01*
X96458796Y-69375495D01*
X96460000Y-69399999D01*
X96460000Y-70300001D01*
X96458796Y-70324505D01*
X96455196Y-70348773D01*
X96449235Y-70372572D01*
X96440970Y-70395671D01*
X96430480Y-70417850D01*
X96417868Y-70438893D01*
X96403253Y-70458599D01*
X96386777Y-70476777D01*
X96368599Y-70493253D01*
X96348893Y-70507868D01*
X96327850Y-70520480D01*
X96305671Y-70530970D01*
X96282572Y-70539235D01*
X96258773Y-70545196D01*
X96234505Y-70548796D01*
X96210001Y-70550000D01*
X95559999Y-70550000D01*
X95535495Y-70548796D01*
X95511227Y-70545196D01*
X95487428Y-70539235D01*
X95464329Y-70530970D01*
X95442150Y-70520480D01*
X95421107Y-70507868D01*
X95401401Y-70493253D01*
X95383223Y-70476777D01*
X95366747Y-70458599D01*
X95352132Y-70438893D01*
X95339520Y-70417850D01*
X95329030Y-70395671D01*
X95320765Y-70372572D01*
X95314804Y-70348773D01*
X95311204Y-70324505D01*
X95310000Y-70300001D01*
X95310000Y-69399999D01*
X95311204Y-69375495D01*
X95314804Y-69351227D01*
X95320765Y-69327428D01*
X95329030Y-69304329D01*
X95339520Y-69282150D01*
X95352132Y-69261107D01*
X95366747Y-69241401D01*
X95383223Y-69223223D01*
X95401401Y-69206747D01*
X95421107Y-69192132D01*
X95442150Y-69179520D01*
X95464329Y-69169030D01*
X95487428Y-69160765D01*
X95511227Y-69154804D01*
X95535495Y-69151204D01*
X95559999Y-69150000D01*
X96210001Y-69150000D01*
X96234505Y-69151204D01*
X96234505Y-69151204D01*
G37*
D17*
G04 #@! TD*
G04 #@! TO.P,C4,2*
G04 #@! TO.N,Net-(C4-Pad2)*
X95885000Y-69850000D03*
D19*
G04 #@! TO.P,C5,2*
G04 #@! TO.N,GND*
X93345000Y-63405000D03*
D18*
G04 #@! TO.P,C5,1*
G04 #@! TO.N,+24V*
X93345000Y-65405000D03*
G04 #@! TD*
D20*
G04 #@! TO.P,D1,1*
G04 #@! TO.N,+24V*
X94360000Y-74295000D03*
G04 #@! TO.P,D1,2*
G04 #@! TO.N,Net-(D1-Pad2)*
X91060000Y-74295000D03*
G04 #@! TD*
D16*
G04 #@! TO.N,Net-(C4-Pad2)*
G04 #@! TO.C,R1*
G36*
X99799505Y-73596204D02*
G01*
X99823773Y-73599804D01*
X99847572Y-73605765D01*
X99870671Y-73614030D01*
X99892850Y-73624520D01*
X99913893Y-73637132D01*
X99933599Y-73651747D01*
X99951777Y-73668223D01*
X99968253Y-73686401D01*
X99982868Y-73706107D01*
X99995480Y-73727150D01*
X100005970Y-73749329D01*
X100014235Y-73772428D01*
X100020196Y-73796227D01*
X100023796Y-73820495D01*
X100025000Y-73844999D01*
X100025000Y-74745001D01*
X100023796Y-74769505D01*
X100020196Y-74793773D01*
X100014235Y-74817572D01*
X100005970Y-74840671D01*
X99995480Y-74862850D01*
X99982868Y-74883893D01*
X99968253Y-74903599D01*
X99951777Y-74921777D01*
X99933599Y-74938253D01*
X99913893Y-74952868D01*
X99892850Y-74965480D01*
X99870671Y-74975970D01*
X99847572Y-74984235D01*
X99823773Y-74990196D01*
X99799505Y-74993796D01*
X99775001Y-74995000D01*
X99124999Y-74995000D01*
X99100495Y-74993796D01*
X99076227Y-74990196D01*
X99052428Y-74984235D01*
X99029329Y-74975970D01*
X99007150Y-74965480D01*
X98986107Y-74952868D01*
X98966401Y-74938253D01*
X98948223Y-74921777D01*
X98931747Y-74903599D01*
X98917132Y-74883893D01*
X98904520Y-74862850D01*
X98894030Y-74840671D01*
X98885765Y-74817572D01*
X98879804Y-74793773D01*
X98876204Y-74769505D01*
X98875000Y-74745001D01*
X98875000Y-73844999D01*
X98876204Y-73820495D01*
X98879804Y-73796227D01*
X98885765Y-73772428D01*
X98894030Y-73749329D01*
X98904520Y-73727150D01*
X98917132Y-73706107D01*
X98931747Y-73686401D01*
X98948223Y-73668223D01*
X98966401Y-73651747D01*
X98986107Y-73637132D01*
X99007150Y-73624520D01*
X99029329Y-73614030D01*
X99052428Y-73605765D01*
X99076227Y-73599804D01*
X99100495Y-73596204D01*
X99124999Y-73595000D01*
X99775001Y-73595000D01*
X99799505Y-73596204D01*
X99799505Y-73596204D01*
G37*
D17*
G04 #@! TD*
G04 #@! TO.P,R1,2*
G04 #@! TO.N,Net-(C4-Pad2)*
X99450000Y-74295000D03*
D16*
G04 #@! TO.N,+24V*
G04 #@! TO.C,R1*
G36*
X97749505Y-73596204D02*
G01*
X97773773Y-73599804D01*
X97797572Y-73605765D01*
X97820671Y-73614030D01*
X97842850Y-73624520D01*
X97863893Y-73637132D01*
X97883599Y-73651747D01*
X97901777Y-73668223D01*
X97918253Y-73686401D01*
X97932868Y-73706107D01*
X97945480Y-73727150D01*
X97955970Y-73749329D01*
X97964235Y-73772428D01*
X97970196Y-73796227D01*
X97973796Y-73820495D01*
X97975000Y-73844999D01*
X97975000Y-74745001D01*
X97973796Y-74769505D01*
X97970196Y-74793773D01*
X97964235Y-74817572D01*
X97955970Y-74840671D01*
X97945480Y-74862850D01*
X97932868Y-74883893D01*
X97918253Y-74903599D01*
X97901777Y-74921777D01*
X97883599Y-74938253D01*
X97863893Y-74952868D01*
X97842850Y-74965480D01*
X97820671Y-74975970D01*
X97797572Y-74984235D01*
X97773773Y-74990196D01*
X97749505Y-74993796D01*
X97725001Y-74995000D01*
X97074999Y-74995000D01*
X97050495Y-74993796D01*
X97026227Y-74990196D01*
X97002428Y-74984235D01*
X96979329Y-74975970D01*
X96957150Y-74965480D01*
X96936107Y-74952868D01*
X96916401Y-74938253D01*
X96898223Y-74921777D01*
X96881747Y-74903599D01*
X96867132Y-74883893D01*
X96854520Y-74862850D01*
X96844030Y-74840671D01*
X96835765Y-74817572D01*
X96829804Y-74793773D01*
X96826204Y-74769505D01*
X96825000Y-74745001D01*
X96825000Y-73844999D01*
X96826204Y-73820495D01*
X96829804Y-73796227D01*
X96835765Y-73772428D01*
X96844030Y-73749329D01*
X96854520Y-73727150D01*
X96867132Y-73706107D01*
X96881747Y-73686401D01*
X96898223Y-73668223D01*
X96916401Y-73651747D01*
X96936107Y-73637132D01*
X96957150Y-73624520D01*
X96979329Y-73614030D01*
X97002428Y-73605765D01*
X97026227Y-73599804D01*
X97050495Y-73596204D01*
X97074999Y-73595000D01*
X97725001Y-73595000D01*
X97749505Y-73596204D01*
X97749505Y-73596204D01*
G37*
D17*
G04 #@! TD*
G04 #@! TO.P,R1,1*
G04 #@! TO.N,+24V*
X97400000Y-74295000D03*
D16*
G04 #@! TO.N,Net-(C4-Pad2)*
G04 #@! TO.C,R2*
G36*
X98638505Y-69151204D02*
G01*
X98662773Y-69154804D01*
X98686572Y-69160765D01*
X98709671Y-69169030D01*
X98731850Y-69179520D01*
X98752893Y-69192132D01*
X98772599Y-69206747D01*
X98790777Y-69223223D01*
X98807253Y-69241401D01*
X98821868Y-69261107D01*
X98834480Y-69282150D01*
X98844970Y-69304329D01*
X98853235Y-69327428D01*
X98859196Y-69351227D01*
X98862796Y-69375495D01*
X98864000Y-69399999D01*
X98864000Y-70300001D01*
X98862796Y-70324505D01*
X98859196Y-70348773D01*
X98853235Y-70372572D01*
X98844970Y-70395671D01*
X98834480Y-70417850D01*
X98821868Y-70438893D01*
X98807253Y-70458599D01*
X98790777Y-70476777D01*
X98772599Y-70493253D01*
X98752893Y-70507868D01*
X98731850Y-70520480D01*
X98709671Y-70530970D01*
X98686572Y-70539235D01*
X98662773Y-70545196D01*
X98638505Y-70548796D01*
X98614001Y-70550000D01*
X97963999Y-70550000D01*
X97939495Y-70548796D01*
X97915227Y-70545196D01*
X97891428Y-70539235D01*
X97868329Y-70530970D01*
X97846150Y-70520480D01*
X97825107Y-70507868D01*
X97805401Y-70493253D01*
X97787223Y-70476777D01*
X97770747Y-70458599D01*
X97756132Y-70438893D01*
X97743520Y-70417850D01*
X97733030Y-70395671D01*
X97724765Y-70372572D01*
X97718804Y-70348773D01*
X97715204Y-70324505D01*
X97714000Y-70300001D01*
X97714000Y-69399999D01*
X97715204Y-69375495D01*
X97718804Y-69351227D01*
X97724765Y-69327428D01*
X97733030Y-69304329D01*
X97743520Y-69282150D01*
X97756132Y-69261107D01*
X97770747Y-69241401D01*
X97787223Y-69223223D01*
X97805401Y-69206747D01*
X97825107Y-69192132D01*
X97846150Y-69179520D01*
X97868329Y-69169030D01*
X97891428Y-69160765D01*
X97915227Y-69154804D01*
X97939495Y-69151204D01*
X97963999Y-69150000D01*
X98614001Y-69150000D01*
X98638505Y-69151204D01*
X98638505Y-69151204D01*
G37*
D17*
G04 #@! TD*
G04 #@! TO.P,R2,1*
G04 #@! TO.N,Net-(C4-Pad2)*
X98289000Y-69850000D03*
D16*
G04 #@! TO.N,GND*
G04 #@! TO.C,R2*
G36*
X100688505Y-69151204D02*
G01*
X100712773Y-69154804D01*
X100736572Y-69160765D01*
X100759671Y-69169030D01*
X100781850Y-69179520D01*
X100802893Y-69192132D01*
X100822599Y-69206747D01*
X100840777Y-69223223D01*
X100857253Y-69241401D01*
X100871868Y-69261107D01*
X100884480Y-69282150D01*
X100894970Y-69304329D01*
X100903235Y-69327428D01*
X100909196Y-69351227D01*
X100912796Y-69375495D01*
X100914000Y-69399999D01*
X100914000Y-70300001D01*
X100912796Y-70324505D01*
X100909196Y-70348773D01*
X100903235Y-70372572D01*
X100894970Y-70395671D01*
X100884480Y-70417850D01*
X100871868Y-70438893D01*
X100857253Y-70458599D01*
X100840777Y-70476777D01*
X100822599Y-70493253D01*
X100802893Y-70507868D01*
X100781850Y-70520480D01*
X100759671Y-70530970D01*
X100736572Y-70539235D01*
X100712773Y-70545196D01*
X100688505Y-70548796D01*
X100664001Y-70550000D01*
X100013999Y-70550000D01*
X99989495Y-70548796D01*
X99965227Y-70545196D01*
X99941428Y-70539235D01*
X99918329Y-70530970D01*
X99896150Y-70520480D01*
X99875107Y-70507868D01*
X99855401Y-70493253D01*
X99837223Y-70476777D01*
X99820747Y-70458599D01*
X99806132Y-70438893D01*
X99793520Y-70417850D01*
X99783030Y-70395671D01*
X99774765Y-70372572D01*
X99768804Y-70348773D01*
X99765204Y-70324505D01*
X99764000Y-70300001D01*
X99764000Y-69399999D01*
X99765204Y-69375495D01*
X99768804Y-69351227D01*
X99774765Y-69327428D01*
X99783030Y-69304329D01*
X99793520Y-69282150D01*
X99806132Y-69261107D01*
X99820747Y-69241401D01*
X99837223Y-69223223D01*
X99855401Y-69206747D01*
X99875107Y-69192132D01*
X99896150Y-69179520D01*
X99918329Y-69169030D01*
X99941428Y-69160765D01*
X99965227Y-69154804D01*
X99989495Y-69151204D01*
X100013999Y-69150000D01*
X100664001Y-69150000D01*
X100688505Y-69151204D01*
X100688505Y-69151204D01*
G37*
D17*
G04 #@! TD*
G04 #@! TO.P,R2,2*
G04 #@! TO.N,GND*
X100339000Y-69850000D03*
D16*
G04 #@! TO.N,SHDN*
G04 #@! TO.C,U1*
G36*
X90439703Y-77170722D02*
G01*
X90454264Y-77172882D01*
X90468543Y-77176459D01*
X90482403Y-77181418D01*
X90495710Y-77187712D01*
X90508336Y-77195280D01*
X90520159Y-77204048D01*
X90531066Y-77213934D01*
X90540952Y-77224841D01*
X90549720Y-77236664D01*
X90557288Y-77249290D01*
X90563582Y-77262597D01*
X90568541Y-77276457D01*
X90572118Y-77290736D01*
X90574278Y-77305297D01*
X90575000Y-77320000D01*
X90575000Y-77620000D01*
X90574278Y-77634703D01*
X90572118Y-77649264D01*
X90568541Y-77663543D01*
X90563582Y-77677403D01*
X90557288Y-77690710D01*
X90549720Y-77703336D01*
X90540952Y-77715159D01*
X90531066Y-77726066D01*
X90520159Y-77735952D01*
X90508336Y-77744720D01*
X90495710Y-77752288D01*
X90482403Y-77758582D01*
X90468543Y-77763541D01*
X90454264Y-77767118D01*
X90439703Y-77769278D01*
X90425000Y-77770000D01*
X88775000Y-77770000D01*
X88760297Y-77769278D01*
X88745736Y-77767118D01*
X88731457Y-77763541D01*
X88717597Y-77758582D01*
X88704290Y-77752288D01*
X88691664Y-77744720D01*
X88679841Y-77735952D01*
X88668934Y-77726066D01*
X88659048Y-77715159D01*
X88650280Y-77703336D01*
X88642712Y-77690710D01*
X88636418Y-77677403D01*
X88631459Y-77663543D01*
X88627882Y-77649264D01*
X88625722Y-77634703D01*
X88625000Y-77620000D01*
X88625000Y-77320000D01*
X88625722Y-77305297D01*
X88627882Y-77290736D01*
X88631459Y-77276457D01*
X88636418Y-77262597D01*
X88642712Y-77249290D01*
X88650280Y-77236664D01*
X88659048Y-77224841D01*
X88668934Y-77213934D01*
X88679841Y-77204048D01*
X88691664Y-77195280D01*
X88704290Y-77187712D01*
X88717597Y-77181418D01*
X88731457Y-77176459D01*
X88745736Y-77172882D01*
X88760297Y-77170722D01*
X88775000Y-77170000D01*
X90425000Y-77170000D01*
X90439703Y-77170722D01*
X90439703Y-77170722D01*
G37*
D21*
G04 #@! TD*
G04 #@! TO.P,U1,1*
G04 #@! TO.N,SHDN*
X89600000Y-77470000D03*
D16*
G04 #@! TO.N,GND*
G04 #@! TO.C,U1*
G36*
X90439703Y-78440722D02*
G01*
X90454264Y-78442882D01*
X90468543Y-78446459D01*
X90482403Y-78451418D01*
X90495710Y-78457712D01*
X90508336Y-78465280D01*
X90520159Y-78474048D01*
X90531066Y-78483934D01*
X90540952Y-78494841D01*
X90549720Y-78506664D01*
X90557288Y-78519290D01*
X90563582Y-78532597D01*
X90568541Y-78546457D01*
X90572118Y-78560736D01*
X90574278Y-78575297D01*
X90575000Y-78590000D01*
X90575000Y-78890000D01*
X90574278Y-78904703D01*
X90572118Y-78919264D01*
X90568541Y-78933543D01*
X90563582Y-78947403D01*
X90557288Y-78960710D01*
X90549720Y-78973336D01*
X90540952Y-78985159D01*
X90531066Y-78996066D01*
X90520159Y-79005952D01*
X90508336Y-79014720D01*
X90495710Y-79022288D01*
X90482403Y-79028582D01*
X90468543Y-79033541D01*
X90454264Y-79037118D01*
X90439703Y-79039278D01*
X90425000Y-79040000D01*
X88775000Y-79040000D01*
X88760297Y-79039278D01*
X88745736Y-79037118D01*
X88731457Y-79033541D01*
X88717597Y-79028582D01*
X88704290Y-79022288D01*
X88691664Y-79014720D01*
X88679841Y-79005952D01*
X88668934Y-78996066D01*
X88659048Y-78985159D01*
X88650280Y-78973336D01*
X88642712Y-78960710D01*
X88636418Y-78947403D01*
X88631459Y-78933543D01*
X88627882Y-78919264D01*
X88625722Y-78904703D01*
X88625000Y-78890000D01*
X88625000Y-78590000D01*
X88625722Y-78575297D01*
X88627882Y-78560736D01*
X88631459Y-78546457D01*
X88636418Y-78532597D01*
X88642712Y-78519290D01*
X88650280Y-78506664D01*
X88659048Y-78494841D01*
X88668934Y-78483934D01*
X88679841Y-78474048D01*
X88691664Y-78465280D01*
X88704290Y-78457712D01*
X88717597Y-78451418D01*
X88731457Y-78446459D01*
X88745736Y-78442882D01*
X88760297Y-78440722D01*
X88775000Y-78440000D01*
X90425000Y-78440000D01*
X90439703Y-78440722D01*
X90439703Y-78440722D01*
G37*
D21*
G04 #@! TD*
G04 #@! TO.P,U1,2*
G04 #@! TO.N,GND*
X89600000Y-78740000D03*
D16*
G04 #@! TO.N,Net-(C1-Pad1)*
G04 #@! TO.C,U1*
G36*
X90439703Y-79710722D02*
G01*
X90454264Y-79712882D01*
X90468543Y-79716459D01*
X90482403Y-79721418D01*
X90495710Y-79727712D01*
X90508336Y-79735280D01*
X90520159Y-79744048D01*
X90531066Y-79753934D01*
X90540952Y-79764841D01*
X90549720Y-79776664D01*
X90557288Y-79789290D01*
X90563582Y-79802597D01*
X90568541Y-79816457D01*
X90572118Y-79830736D01*
X90574278Y-79845297D01*
X90575000Y-79860000D01*
X90575000Y-80160000D01*
X90574278Y-80174703D01*
X90572118Y-80189264D01*
X90568541Y-80203543D01*
X90563582Y-80217403D01*
X90557288Y-80230710D01*
X90549720Y-80243336D01*
X90540952Y-80255159D01*
X90531066Y-80266066D01*
X90520159Y-80275952D01*
X90508336Y-80284720D01*
X90495710Y-80292288D01*
X90482403Y-80298582D01*
X90468543Y-80303541D01*
X90454264Y-80307118D01*
X90439703Y-80309278D01*
X90425000Y-80310000D01*
X88775000Y-80310000D01*
X88760297Y-80309278D01*
X88745736Y-80307118D01*
X88731457Y-80303541D01*
X88717597Y-80298582D01*
X88704290Y-80292288D01*
X88691664Y-80284720D01*
X88679841Y-80275952D01*
X88668934Y-80266066D01*
X88659048Y-80255159D01*
X88650280Y-80243336D01*
X88642712Y-80230710D01*
X88636418Y-80217403D01*
X88631459Y-80203543D01*
X88627882Y-80189264D01*
X88625722Y-80174703D01*
X88625000Y-80160000D01*
X88625000Y-79860000D01*
X88625722Y-79845297D01*
X88627882Y-79830736D01*
X88631459Y-79816457D01*
X88636418Y-79802597D01*
X88642712Y-79789290D01*
X88650280Y-79776664D01*
X88659048Y-79764841D01*
X88668934Y-79753934D01*
X88679841Y-79744048D01*
X88691664Y-79735280D01*
X88704290Y-79727712D01*
X88717597Y-79721418D01*
X88731457Y-79716459D01*
X88745736Y-79712882D01*
X88760297Y-79710722D01*
X88775000Y-79710000D01*
X90425000Y-79710000D01*
X90439703Y-79710722D01*
X90439703Y-79710722D01*
G37*
D21*
G04 #@! TD*
G04 #@! TO.P,U1,3*
G04 #@! TO.N,Net-(C1-Pad1)*
X89600000Y-80010000D03*
D16*
G04 #@! TO.N,Net-(C4-Pad2)*
G04 #@! TO.C,U1*
G36*
X90439703Y-80980722D02*
G01*
X90454264Y-80982882D01*
X90468543Y-80986459D01*
X90482403Y-80991418D01*
X90495710Y-80997712D01*
X90508336Y-81005280D01*
X90520159Y-81014048D01*
X90531066Y-81023934D01*
X90540952Y-81034841D01*
X90549720Y-81046664D01*
X90557288Y-81059290D01*
X90563582Y-81072597D01*
X90568541Y-81086457D01*
X90572118Y-81100736D01*
X90574278Y-81115297D01*
X90575000Y-81130000D01*
X90575000Y-81430000D01*
X90574278Y-81444703D01*
X90572118Y-81459264D01*
X90568541Y-81473543D01*
X90563582Y-81487403D01*
X90557288Y-81500710D01*
X90549720Y-81513336D01*
X90540952Y-81525159D01*
X90531066Y-81536066D01*
X90520159Y-81545952D01*
X90508336Y-81554720D01*
X90495710Y-81562288D01*
X90482403Y-81568582D01*
X90468543Y-81573541D01*
X90454264Y-81577118D01*
X90439703Y-81579278D01*
X90425000Y-81580000D01*
X88775000Y-81580000D01*
X88760297Y-81579278D01*
X88745736Y-81577118D01*
X88731457Y-81573541D01*
X88717597Y-81568582D01*
X88704290Y-81562288D01*
X88691664Y-81554720D01*
X88679841Y-81545952D01*
X88668934Y-81536066D01*
X88659048Y-81525159D01*
X88650280Y-81513336D01*
X88642712Y-81500710D01*
X88636418Y-81487403D01*
X88631459Y-81473543D01*
X88627882Y-81459264D01*
X88625722Y-81444703D01*
X88625000Y-81430000D01*
X88625000Y-81130000D01*
X88625722Y-81115297D01*
X88627882Y-81100736D01*
X88631459Y-81086457D01*
X88636418Y-81072597D01*
X88642712Y-81059290D01*
X88650280Y-81046664D01*
X88659048Y-81034841D01*
X88668934Y-81023934D01*
X88679841Y-81014048D01*
X88691664Y-81005280D01*
X88704290Y-80997712D01*
X88717597Y-80991418D01*
X88731457Y-80986459D01*
X88745736Y-80982882D01*
X88760297Y-80980722D01*
X88775000Y-80980000D01*
X90425000Y-80980000D01*
X90439703Y-80980722D01*
X90439703Y-80980722D01*
G37*
D21*
G04 #@! TD*
G04 #@! TO.P,U1,4*
G04 #@! TO.N,Net-(C4-Pad2)*
X89600000Y-81280000D03*
D16*
G04 #@! TO.N,+3V3*
G04 #@! TO.C,U1*
G36*
X95389703Y-80980722D02*
G01*
X95404264Y-80982882D01*
X95418543Y-80986459D01*
X95432403Y-80991418D01*
X95445710Y-80997712D01*
X95458336Y-81005280D01*
X95470159Y-81014048D01*
X95481066Y-81023934D01*
X95490952Y-81034841D01*
X95499720Y-81046664D01*
X95507288Y-81059290D01*
X95513582Y-81072597D01*
X95518541Y-81086457D01*
X95522118Y-81100736D01*
X95524278Y-81115297D01*
X95525000Y-81130000D01*
X95525000Y-81430000D01*
X95524278Y-81444703D01*
X95522118Y-81459264D01*
X95518541Y-81473543D01*
X95513582Y-81487403D01*
X95507288Y-81500710D01*
X95499720Y-81513336D01*
X95490952Y-81525159D01*
X95481066Y-81536066D01*
X95470159Y-81545952D01*
X95458336Y-81554720D01*
X95445710Y-81562288D01*
X95432403Y-81568582D01*
X95418543Y-81573541D01*
X95404264Y-81577118D01*
X95389703Y-81579278D01*
X95375000Y-81580000D01*
X93725000Y-81580000D01*
X93710297Y-81579278D01*
X93695736Y-81577118D01*
X93681457Y-81573541D01*
X93667597Y-81568582D01*
X93654290Y-81562288D01*
X93641664Y-81554720D01*
X93629841Y-81545952D01*
X93618934Y-81536066D01*
X93609048Y-81525159D01*
X93600280Y-81513336D01*
X93592712Y-81500710D01*
X93586418Y-81487403D01*
X93581459Y-81473543D01*
X93577882Y-81459264D01*
X93575722Y-81444703D01*
X93575000Y-81430000D01*
X93575000Y-81130000D01*
X93575722Y-81115297D01*
X93577882Y-81100736D01*
X93581459Y-81086457D01*
X93586418Y-81072597D01*
X93592712Y-81059290D01*
X93600280Y-81046664D01*
X93609048Y-81034841D01*
X93618934Y-81023934D01*
X93629841Y-81014048D01*
X93641664Y-81005280D01*
X93654290Y-80997712D01*
X93667597Y-80991418D01*
X93681457Y-80986459D01*
X93695736Y-80982882D01*
X93710297Y-80980722D01*
X93725000Y-80980000D01*
X95375000Y-80980000D01*
X95389703Y-80980722D01*
X95389703Y-80980722D01*
G37*
D21*
G04 #@! TD*
G04 #@! TO.P,U1,5*
G04 #@! TO.N,+3V3*
X94550000Y-81280000D03*
D16*
G04 #@! TO.N,GND*
G04 #@! TO.C,U1*
G36*
X95389703Y-79710722D02*
G01*
X95404264Y-79712882D01*
X95418543Y-79716459D01*
X95432403Y-79721418D01*
X95445710Y-79727712D01*
X95458336Y-79735280D01*
X95470159Y-79744048D01*
X95481066Y-79753934D01*
X95490952Y-79764841D01*
X95499720Y-79776664D01*
X95507288Y-79789290D01*
X95513582Y-79802597D01*
X95518541Y-79816457D01*
X95522118Y-79830736D01*
X95524278Y-79845297D01*
X95525000Y-79860000D01*
X95525000Y-80160000D01*
X95524278Y-80174703D01*
X95522118Y-80189264D01*
X95518541Y-80203543D01*
X95513582Y-80217403D01*
X95507288Y-80230710D01*
X95499720Y-80243336D01*
X95490952Y-80255159D01*
X95481066Y-80266066D01*
X95470159Y-80275952D01*
X95458336Y-80284720D01*
X95445710Y-80292288D01*
X95432403Y-80298582D01*
X95418543Y-80303541D01*
X95404264Y-80307118D01*
X95389703Y-80309278D01*
X95375000Y-80310000D01*
X93725000Y-80310000D01*
X93710297Y-80309278D01*
X93695736Y-80307118D01*
X93681457Y-80303541D01*
X93667597Y-80298582D01*
X93654290Y-80292288D01*
X93641664Y-80284720D01*
X93629841Y-80275952D01*
X93618934Y-80266066D01*
X93609048Y-80255159D01*
X93600280Y-80243336D01*
X93592712Y-80230710D01*
X93586418Y-80217403D01*
X93581459Y-80203543D01*
X93577882Y-80189264D01*
X93575722Y-80174703D01*
X93575000Y-80160000D01*
X93575000Y-79860000D01*
X93575722Y-79845297D01*
X93577882Y-79830736D01*
X93581459Y-79816457D01*
X93586418Y-79802597D01*
X93592712Y-79789290D01*
X93600280Y-79776664D01*
X93609048Y-79764841D01*
X93618934Y-79753934D01*
X93629841Y-79744048D01*
X93641664Y-79735280D01*
X93654290Y-79727712D01*
X93667597Y-79721418D01*
X93681457Y-79716459D01*
X93695736Y-79712882D01*
X93710297Y-79710722D01*
X93725000Y-79710000D01*
X95375000Y-79710000D01*
X95389703Y-79710722D01*
X95389703Y-79710722D01*
G37*
D21*
G04 #@! TD*
G04 #@! TO.P,U1,6*
G04 #@! TO.N,GND*
X94550000Y-80010000D03*
D16*
G04 #@! TO.N,Net-(D1-Pad2)*
G04 #@! TO.C,U1*
G36*
X95389703Y-78440722D02*
G01*
X95404264Y-78442882D01*
X95418543Y-78446459D01*
X95432403Y-78451418D01*
X95445710Y-78457712D01*
X95458336Y-78465280D01*
X95470159Y-78474048D01*
X95481066Y-78483934D01*
X95490952Y-78494841D01*
X95499720Y-78506664D01*
X95507288Y-78519290D01*
X95513582Y-78532597D01*
X95518541Y-78546457D01*
X95522118Y-78560736D01*
X95524278Y-78575297D01*
X95525000Y-78590000D01*
X95525000Y-78890000D01*
X95524278Y-78904703D01*
X95522118Y-78919264D01*
X95518541Y-78933543D01*
X95513582Y-78947403D01*
X95507288Y-78960710D01*
X95499720Y-78973336D01*
X95490952Y-78985159D01*
X95481066Y-78996066D01*
X95470159Y-79005952D01*
X95458336Y-79014720D01*
X95445710Y-79022288D01*
X95432403Y-79028582D01*
X95418543Y-79033541D01*
X95404264Y-79037118D01*
X95389703Y-79039278D01*
X95375000Y-79040000D01*
X93725000Y-79040000D01*
X93710297Y-79039278D01*
X93695736Y-79037118D01*
X93681457Y-79033541D01*
X93667597Y-79028582D01*
X93654290Y-79022288D01*
X93641664Y-79014720D01*
X93629841Y-79005952D01*
X93618934Y-78996066D01*
X93609048Y-78985159D01*
X93600280Y-78973336D01*
X93592712Y-78960710D01*
X93586418Y-78947403D01*
X93581459Y-78933543D01*
X93577882Y-78919264D01*
X93575722Y-78904703D01*
X93575000Y-78890000D01*
X93575000Y-78590000D01*
X93575722Y-78575297D01*
X93577882Y-78560736D01*
X93581459Y-78546457D01*
X93586418Y-78532597D01*
X93592712Y-78519290D01*
X93600280Y-78506664D01*
X93609048Y-78494841D01*
X93618934Y-78483934D01*
X93629841Y-78474048D01*
X93641664Y-78465280D01*
X93654290Y-78457712D01*
X93667597Y-78451418D01*
X93681457Y-78446459D01*
X93695736Y-78442882D01*
X93710297Y-78440722D01*
X93725000Y-78440000D01*
X95375000Y-78440000D01*
X95389703Y-78440722D01*
X95389703Y-78440722D01*
G37*
D21*
G04 #@! TD*
G04 #@! TO.P,U1,7*
G04 #@! TO.N,Net-(D1-Pad2)*
X94550000Y-78740000D03*
D16*
G04 #@! TO.N,+3V3*
G04 #@! TO.C,U1*
G36*
X95389703Y-77170722D02*
G01*
X95404264Y-77172882D01*
X95418543Y-77176459D01*
X95432403Y-77181418D01*
X95445710Y-77187712D01*
X95458336Y-77195280D01*
X95470159Y-77204048D01*
X95481066Y-77213934D01*
X95490952Y-77224841D01*
X95499720Y-77236664D01*
X95507288Y-77249290D01*
X95513582Y-77262597D01*
X95518541Y-77276457D01*
X95522118Y-77290736D01*
X95524278Y-77305297D01*
X95525000Y-77320000D01*
X95525000Y-77620000D01*
X95524278Y-77634703D01*
X95522118Y-77649264D01*
X95518541Y-77663543D01*
X95513582Y-77677403D01*
X95507288Y-77690710D01*
X95499720Y-77703336D01*
X95490952Y-77715159D01*
X95481066Y-77726066D01*
X95470159Y-77735952D01*
X95458336Y-77744720D01*
X95445710Y-77752288D01*
X95432403Y-77758582D01*
X95418543Y-77763541D01*
X95404264Y-77767118D01*
X95389703Y-77769278D01*
X95375000Y-77770000D01*
X93725000Y-77770000D01*
X93710297Y-77769278D01*
X93695736Y-77767118D01*
X93681457Y-77763541D01*
X93667597Y-77758582D01*
X93654290Y-77752288D01*
X93641664Y-77744720D01*
X93629841Y-77735952D01*
X93618934Y-77726066D01*
X93609048Y-77715159D01*
X93600280Y-77703336D01*
X93592712Y-77690710D01*
X93586418Y-77677403D01*
X93581459Y-77663543D01*
X93577882Y-77649264D01*
X93575722Y-77634703D01*
X93575000Y-77620000D01*
X93575000Y-77320000D01*
X93575722Y-77305297D01*
X93577882Y-77290736D01*
X93581459Y-77276457D01*
X93586418Y-77262597D01*
X93592712Y-77249290D01*
X93600280Y-77236664D01*
X93609048Y-77224841D01*
X93618934Y-77213934D01*
X93629841Y-77204048D01*
X93641664Y-77195280D01*
X93654290Y-77187712D01*
X93667597Y-77181418D01*
X93681457Y-77176459D01*
X93695736Y-77172882D01*
X93710297Y-77170722D01*
X93725000Y-77170000D01*
X95375000Y-77170000D01*
X95389703Y-77170722D01*
X95389703Y-77170722D01*
G37*
D21*
G04 #@! TD*
G04 #@! TO.P,U1,8*
G04 #@! TO.N,+3V3*
X94550000Y-77470000D03*
D18*
G04 #@! TO.P,C6,1*
G04 #@! TO.N,VCC*
X80010000Y-85090000D03*
D19*
G04 #@! TO.P,C6,2*
G04 #@! TO.N,GND*
X80010000Y-87090000D03*
G04 #@! TD*
G04 #@! TO.P,C7,2*
G04 #@! TO.N,GND*
X96520000Y-87090000D03*
D18*
G04 #@! TO.P,C7,1*
G04 #@! TO.N,+3V3*
X96520000Y-85090000D03*
G04 #@! TD*
D16*
G04 #@! TO.N,Net-(C8-Pad1)*
G04 #@! TO.C,C8*
G36*
X111599505Y-86911204D02*
G01*
X111623773Y-86914804D01*
X111647572Y-86920765D01*
X111670671Y-86929030D01*
X111692850Y-86939520D01*
X111713893Y-86952132D01*
X111733599Y-86966747D01*
X111751777Y-86983223D01*
X111768253Y-87001401D01*
X111782868Y-87021107D01*
X111795480Y-87042150D01*
X111805970Y-87064329D01*
X111814235Y-87087428D01*
X111820196Y-87111227D01*
X111823796Y-87135495D01*
X111825000Y-87159999D01*
X111825000Y-87810001D01*
X111823796Y-87834505D01*
X111820196Y-87858773D01*
X111814235Y-87882572D01*
X111805970Y-87905671D01*
X111795480Y-87927850D01*
X111782868Y-87948893D01*
X111768253Y-87968599D01*
X111751777Y-87986777D01*
X111733599Y-88003253D01*
X111713893Y-88017868D01*
X111692850Y-88030480D01*
X111670671Y-88040970D01*
X111647572Y-88049235D01*
X111623773Y-88055196D01*
X111599505Y-88058796D01*
X111575001Y-88060000D01*
X110674999Y-88060000D01*
X110650495Y-88058796D01*
X110626227Y-88055196D01*
X110602428Y-88049235D01*
X110579329Y-88040970D01*
X110557150Y-88030480D01*
X110536107Y-88017868D01*
X110516401Y-88003253D01*
X110498223Y-87986777D01*
X110481747Y-87968599D01*
X110467132Y-87948893D01*
X110454520Y-87927850D01*
X110444030Y-87905671D01*
X110435765Y-87882572D01*
X110429804Y-87858773D01*
X110426204Y-87834505D01*
X110425000Y-87810001D01*
X110425000Y-87159999D01*
X110426204Y-87135495D01*
X110429804Y-87111227D01*
X110435765Y-87087428D01*
X110444030Y-87064329D01*
X110454520Y-87042150D01*
X110467132Y-87021107D01*
X110481747Y-87001401D01*
X110498223Y-86983223D01*
X110516401Y-86966747D01*
X110536107Y-86952132D01*
X110557150Y-86939520D01*
X110579329Y-86929030D01*
X110602428Y-86920765D01*
X110626227Y-86914804D01*
X110650495Y-86911204D01*
X110674999Y-86910000D01*
X111575001Y-86910000D01*
X111599505Y-86911204D01*
X111599505Y-86911204D01*
G37*
D17*
G04 #@! TD*
G04 #@! TO.P,C8,1*
G04 #@! TO.N,Net-(C8-Pad1)*
X111125000Y-87485000D03*
D16*
G04 #@! TO.N,DTR*
G04 #@! TO.C,C8*
G36*
X111599505Y-88961204D02*
G01*
X111623773Y-88964804D01*
X111647572Y-88970765D01*
X111670671Y-88979030D01*
X111692850Y-88989520D01*
X111713893Y-89002132D01*
X111733599Y-89016747D01*
X111751777Y-89033223D01*
X111768253Y-89051401D01*
X111782868Y-89071107D01*
X111795480Y-89092150D01*
X111805970Y-89114329D01*
X111814235Y-89137428D01*
X111820196Y-89161227D01*
X111823796Y-89185495D01*
X111825000Y-89209999D01*
X111825000Y-89860001D01*
X111823796Y-89884505D01*
X111820196Y-89908773D01*
X111814235Y-89932572D01*
X111805970Y-89955671D01*
X111795480Y-89977850D01*
X111782868Y-89998893D01*
X111768253Y-90018599D01*
X111751777Y-90036777D01*
X111733599Y-90053253D01*
X111713893Y-90067868D01*
X111692850Y-90080480D01*
X111670671Y-90090970D01*
X111647572Y-90099235D01*
X111623773Y-90105196D01*
X111599505Y-90108796D01*
X111575001Y-90110000D01*
X110674999Y-90110000D01*
X110650495Y-90108796D01*
X110626227Y-90105196D01*
X110602428Y-90099235D01*
X110579329Y-90090970D01*
X110557150Y-90080480D01*
X110536107Y-90067868D01*
X110516401Y-90053253D01*
X110498223Y-90036777D01*
X110481747Y-90018599D01*
X110467132Y-89998893D01*
X110454520Y-89977850D01*
X110444030Y-89955671D01*
X110435765Y-89932572D01*
X110429804Y-89908773D01*
X110426204Y-89884505D01*
X110425000Y-89860001D01*
X110425000Y-89209999D01*
X110426204Y-89185495D01*
X110429804Y-89161227D01*
X110435765Y-89137428D01*
X110444030Y-89114329D01*
X110454520Y-89092150D01*
X110467132Y-89071107D01*
X110481747Y-89051401D01*
X110498223Y-89033223D01*
X110516401Y-89016747D01*
X110536107Y-89002132D01*
X110557150Y-88989520D01*
X110579329Y-88979030D01*
X110602428Y-88970765D01*
X110626227Y-88964804D01*
X110650495Y-88961204D01*
X110674999Y-88960000D01*
X111575001Y-88960000D01*
X111599505Y-88961204D01*
X111599505Y-88961204D01*
G37*
D17*
G04 #@! TD*
G04 #@! TO.P,C8,2*
G04 #@! TO.N,DTR*
X111125000Y-89535000D03*
D16*
G04 #@! TO.N,+3V3*
G04 #@! TO.C,C9*
G36*
X88496505Y-94805204D02*
G01*
X88520773Y-94808804D01*
X88544572Y-94814765D01*
X88567671Y-94823030D01*
X88589850Y-94833520D01*
X88610893Y-94846132D01*
X88630599Y-94860747D01*
X88648777Y-94877223D01*
X88665253Y-94895401D01*
X88679868Y-94915107D01*
X88692480Y-94936150D01*
X88702970Y-94958329D01*
X88711235Y-94981428D01*
X88717196Y-95005227D01*
X88720796Y-95029495D01*
X88722000Y-95053999D01*
X88722000Y-95954001D01*
X88720796Y-95978505D01*
X88717196Y-96002773D01*
X88711235Y-96026572D01*
X88702970Y-96049671D01*
X88692480Y-96071850D01*
X88679868Y-96092893D01*
X88665253Y-96112599D01*
X88648777Y-96130777D01*
X88630599Y-96147253D01*
X88610893Y-96161868D01*
X88589850Y-96174480D01*
X88567671Y-96184970D01*
X88544572Y-96193235D01*
X88520773Y-96199196D01*
X88496505Y-96202796D01*
X88472001Y-96204000D01*
X87821999Y-96204000D01*
X87797495Y-96202796D01*
X87773227Y-96199196D01*
X87749428Y-96193235D01*
X87726329Y-96184970D01*
X87704150Y-96174480D01*
X87683107Y-96161868D01*
X87663401Y-96147253D01*
X87645223Y-96130777D01*
X87628747Y-96112599D01*
X87614132Y-96092893D01*
X87601520Y-96071850D01*
X87591030Y-96049671D01*
X87582765Y-96026572D01*
X87576804Y-96002773D01*
X87573204Y-95978505D01*
X87572000Y-95954001D01*
X87572000Y-95053999D01*
X87573204Y-95029495D01*
X87576804Y-95005227D01*
X87582765Y-94981428D01*
X87591030Y-94958329D01*
X87601520Y-94936150D01*
X87614132Y-94915107D01*
X87628747Y-94895401D01*
X87645223Y-94877223D01*
X87663401Y-94860747D01*
X87683107Y-94846132D01*
X87704150Y-94833520D01*
X87726329Y-94823030D01*
X87749428Y-94814765D01*
X87773227Y-94808804D01*
X87797495Y-94805204D01*
X87821999Y-94804000D01*
X88472001Y-94804000D01*
X88496505Y-94805204D01*
X88496505Y-94805204D01*
G37*
D17*
G04 #@! TD*
G04 #@! TO.P,C9,1*
G04 #@! TO.N,+3V3*
X88147000Y-95504000D03*
D16*
G04 #@! TO.N,GND*
G04 #@! TO.C,C9*
G36*
X86446505Y-94805204D02*
G01*
X86470773Y-94808804D01*
X86494572Y-94814765D01*
X86517671Y-94823030D01*
X86539850Y-94833520D01*
X86560893Y-94846132D01*
X86580599Y-94860747D01*
X86598777Y-94877223D01*
X86615253Y-94895401D01*
X86629868Y-94915107D01*
X86642480Y-94936150D01*
X86652970Y-94958329D01*
X86661235Y-94981428D01*
X86667196Y-95005227D01*
X86670796Y-95029495D01*
X86672000Y-95053999D01*
X86672000Y-95954001D01*
X86670796Y-95978505D01*
X86667196Y-96002773D01*
X86661235Y-96026572D01*
X86652970Y-96049671D01*
X86642480Y-96071850D01*
X86629868Y-96092893D01*
X86615253Y-96112599D01*
X86598777Y-96130777D01*
X86580599Y-96147253D01*
X86560893Y-96161868D01*
X86539850Y-96174480D01*
X86517671Y-96184970D01*
X86494572Y-96193235D01*
X86470773Y-96199196D01*
X86446505Y-96202796D01*
X86422001Y-96204000D01*
X85771999Y-96204000D01*
X85747495Y-96202796D01*
X85723227Y-96199196D01*
X85699428Y-96193235D01*
X85676329Y-96184970D01*
X85654150Y-96174480D01*
X85633107Y-96161868D01*
X85613401Y-96147253D01*
X85595223Y-96130777D01*
X85578747Y-96112599D01*
X85564132Y-96092893D01*
X85551520Y-96071850D01*
X85541030Y-96049671D01*
X85532765Y-96026572D01*
X85526804Y-96002773D01*
X85523204Y-95978505D01*
X85522000Y-95954001D01*
X85522000Y-95053999D01*
X85523204Y-95029495D01*
X85526804Y-95005227D01*
X85532765Y-94981428D01*
X85541030Y-94958329D01*
X85551520Y-94936150D01*
X85564132Y-94915107D01*
X85578747Y-94895401D01*
X85595223Y-94877223D01*
X85613401Y-94860747D01*
X85633107Y-94846132D01*
X85654150Y-94833520D01*
X85676329Y-94823030D01*
X85699428Y-94814765D01*
X85723227Y-94808804D01*
X85747495Y-94805204D01*
X85771999Y-94804000D01*
X86422001Y-94804000D01*
X86446505Y-94805204D01*
X86446505Y-94805204D01*
G37*
D17*
G04 #@! TD*
G04 #@! TO.P,C9,2*
G04 #@! TO.N,GND*
X86097000Y-95504000D03*
D16*
G04 #@! TO.N,GND*
G04 #@! TO.C,C10*
G36*
X93195505Y-94805204D02*
G01*
X93219773Y-94808804D01*
X93243572Y-94814765D01*
X93266671Y-94823030D01*
X93288850Y-94833520D01*
X93309893Y-94846132D01*
X93329599Y-94860747D01*
X93347777Y-94877223D01*
X93364253Y-94895401D01*
X93378868Y-94915107D01*
X93391480Y-94936150D01*
X93401970Y-94958329D01*
X93410235Y-94981428D01*
X93416196Y-95005227D01*
X93419796Y-95029495D01*
X93421000Y-95053999D01*
X93421000Y-95954001D01*
X93419796Y-95978505D01*
X93416196Y-96002773D01*
X93410235Y-96026572D01*
X93401970Y-96049671D01*
X93391480Y-96071850D01*
X93378868Y-96092893D01*
X93364253Y-96112599D01*
X93347777Y-96130777D01*
X93329599Y-96147253D01*
X93309893Y-96161868D01*
X93288850Y-96174480D01*
X93266671Y-96184970D01*
X93243572Y-96193235D01*
X93219773Y-96199196D01*
X93195505Y-96202796D01*
X93171001Y-96204000D01*
X92520999Y-96204000D01*
X92496495Y-96202796D01*
X92472227Y-96199196D01*
X92448428Y-96193235D01*
X92425329Y-96184970D01*
X92403150Y-96174480D01*
X92382107Y-96161868D01*
X92362401Y-96147253D01*
X92344223Y-96130777D01*
X92327747Y-96112599D01*
X92313132Y-96092893D01*
X92300520Y-96071850D01*
X92290030Y-96049671D01*
X92281765Y-96026572D01*
X92275804Y-96002773D01*
X92272204Y-95978505D01*
X92271000Y-95954001D01*
X92271000Y-95053999D01*
X92272204Y-95029495D01*
X92275804Y-95005227D01*
X92281765Y-94981428D01*
X92290030Y-94958329D01*
X92300520Y-94936150D01*
X92313132Y-94915107D01*
X92327747Y-94895401D01*
X92344223Y-94877223D01*
X92362401Y-94860747D01*
X92382107Y-94846132D01*
X92403150Y-94833520D01*
X92425329Y-94823030D01*
X92448428Y-94814765D01*
X92472227Y-94808804D01*
X92496495Y-94805204D01*
X92520999Y-94804000D01*
X93171001Y-94804000D01*
X93195505Y-94805204D01*
X93195505Y-94805204D01*
G37*
D17*
G04 #@! TD*
G04 #@! TO.P,C10,2*
G04 #@! TO.N,GND*
X92846000Y-95504000D03*
D16*
G04 #@! TO.N,Net-(C10-Pad1)*
G04 #@! TO.C,C10*
G36*
X91145505Y-94805204D02*
G01*
X91169773Y-94808804D01*
X91193572Y-94814765D01*
X91216671Y-94823030D01*
X91238850Y-94833520D01*
X91259893Y-94846132D01*
X91279599Y-94860747D01*
X91297777Y-94877223D01*
X91314253Y-94895401D01*
X91328868Y-94915107D01*
X91341480Y-94936150D01*
X91351970Y-94958329D01*
X91360235Y-94981428D01*
X91366196Y-95005227D01*
X91369796Y-95029495D01*
X91371000Y-95053999D01*
X91371000Y-95954001D01*
X91369796Y-95978505D01*
X91366196Y-96002773D01*
X91360235Y-96026572D01*
X91351970Y-96049671D01*
X91341480Y-96071850D01*
X91328868Y-96092893D01*
X91314253Y-96112599D01*
X91297777Y-96130777D01*
X91279599Y-96147253D01*
X91259893Y-96161868D01*
X91238850Y-96174480D01*
X91216671Y-96184970D01*
X91193572Y-96193235D01*
X91169773Y-96199196D01*
X91145505Y-96202796D01*
X91121001Y-96204000D01*
X90470999Y-96204000D01*
X90446495Y-96202796D01*
X90422227Y-96199196D01*
X90398428Y-96193235D01*
X90375329Y-96184970D01*
X90353150Y-96174480D01*
X90332107Y-96161868D01*
X90312401Y-96147253D01*
X90294223Y-96130777D01*
X90277747Y-96112599D01*
X90263132Y-96092893D01*
X90250520Y-96071850D01*
X90240030Y-96049671D01*
X90231765Y-96026572D01*
X90225804Y-96002773D01*
X90222204Y-95978505D01*
X90221000Y-95954001D01*
X90221000Y-95053999D01*
X90222204Y-95029495D01*
X90225804Y-95005227D01*
X90231765Y-94981428D01*
X90240030Y-94958329D01*
X90250520Y-94936150D01*
X90263132Y-94915107D01*
X90277747Y-94895401D01*
X90294223Y-94877223D01*
X90312401Y-94860747D01*
X90332107Y-94846132D01*
X90353150Y-94833520D01*
X90375329Y-94823030D01*
X90398428Y-94814765D01*
X90422227Y-94808804D01*
X90446495Y-94805204D01*
X90470999Y-94804000D01*
X91121001Y-94804000D01*
X91145505Y-94805204D01*
X91145505Y-94805204D01*
G37*
D17*
G04 #@! TD*
G04 #@! TO.P,C10,1*
G04 #@! TO.N,Net-(C10-Pad1)*
X90796000Y-95504000D03*
D18*
G04 #@! TO.P,D2,1*
G04 #@! TO.N,+24V*
X102108000Y-82550000D03*
D22*
G04 #@! TO.P,D2,2*
G04 #@! TO.N,COUT1*
X109728000Y-82550000D03*
G04 #@! TD*
D18*
G04 #@! TO.P,D3,1*
G04 #@! TO.N,COUT1*
X112268000Y-82550000D03*
D22*
G04 #@! TO.P,D3,2*
G04 #@! TO.N,GND*
X119888000Y-82550000D03*
G04 #@! TD*
G04 #@! TO.P,D4,2*
G04 #@! TO.N,COUT2*
X109728000Y-64770000D03*
D18*
G04 #@! TO.P,D4,1*
G04 #@! TO.N,+24V*
X102108000Y-64770000D03*
G04 #@! TD*
D22*
G04 #@! TO.P,D5,2*
G04 #@! TO.N,GND*
X119888000Y-64770000D03*
D18*
G04 #@! TO.P,D5,1*
G04 #@! TO.N,COUT2*
X112268000Y-64770000D03*
G04 #@! TD*
D23*
G04 #@! TO.P,CLOCK,2*
G04 #@! TO.N,COUT2*
X124079000Y-71938000D03*
D24*
G04 #@! TO.P,CLOCK,1*
G04 #@! TO.N,COUT1*
X124079000Y-75438000D03*
G04 #@! TD*
D13*
G04 #@! TO.P,UART,1*
G04 #@! TO.N,GND*
X125984000Y-80645000D03*
D14*
G04 #@! TO.P,UART,2*
X125984000Y-83185000D03*
G04 #@! TO.P,UART,3*
G04 #@! TO.N,+3V3*
X125984000Y-85725000D03*
G04 #@! TO.P,UART,4*
G04 #@! TO.N,RXI*
X125984000Y-88265000D03*
G04 #@! TO.P,UART,5*
G04 #@! TO.N,TXO*
X125984000Y-90805000D03*
G04 #@! TO.P,UART,6*
G04 #@! TO.N,DTR*
X125984000Y-93345000D03*
G04 #@! TD*
D24*
G04 #@! TO.P,BATT,1*
G04 #@! TO.N,GND*
X69596000Y-75311000D03*
D23*
G04 #@! TO.P,BATT,2*
G04 #@! TO.N,+BATT*
X69596000Y-78811000D03*
G04 #@! TD*
D25*
G04 #@! TO.P,Q1,1*
G04 #@! TO.N,Net-(Q1-Pad1)*
X107188000Y-87630000D03*
D26*
G04 #@! TO.P,Q1,3*
G04 #@! TO.N,Net-(Q1-Pad3)*
X104648000Y-87630000D03*
G04 #@! TO.P,Q1,2*
G04 #@! TO.N,Net-(Q1-Pad2)*
X105918000Y-88900000D03*
G04 #@! TD*
D25*
G04 #@! TO.P,Q2,1*
G04 #@! TO.N,Net-(Q2-Pad1)*
X117348000Y-87630000D03*
D26*
G04 #@! TO.P,Q2,3*
G04 #@! TO.N,Net-(Q2-Pad3)*
X114808000Y-87630000D03*
G04 #@! TO.P,Q2,2*
G04 #@! TO.N,Net-(Q2-Pad2)*
X116078000Y-88900000D03*
G04 #@! TD*
G04 #@! TO.P,Q3,2*
G04 #@! TO.N,COUT1*
X116078000Y-78105000D03*
G04 #@! TO.P,Q3,3*
G04 #@! TO.N,Net-(Q1-Pad1)*
X114808000Y-76835000D03*
D25*
G04 #@! TO.P,Q3,1*
G04 #@! TO.N,GND*
X117348000Y-76835000D03*
G04 #@! TD*
G04 #@! TO.P,Q4,1*
G04 #@! TO.N,+24V*
X104648000Y-77470000D03*
D26*
G04 #@! TO.P,Q4,3*
G04 #@! TO.N,Net-(Q4-Pad3)*
X107188000Y-77470000D03*
G04 #@! TO.P,Q4,2*
G04 #@! TO.N,COUT1*
X105918000Y-76200000D03*
G04 #@! TD*
G04 #@! TO.P,Q5,2*
G04 #@! TO.N,COUT2*
X116078000Y-71120000D03*
G04 #@! TO.P,Q5,3*
G04 #@! TO.N,Net-(Q2-Pad1)*
X114808000Y-69850000D03*
D25*
G04 #@! TO.P,Q5,1*
G04 #@! TO.N,GND*
X117348000Y-69850000D03*
G04 #@! TD*
D26*
G04 #@! TO.P,Q6,2*
G04 #@! TO.N,COUT2*
X105918000Y-69215000D03*
G04 #@! TO.P,Q6,3*
G04 #@! TO.N,Net-(Q6-Pad3)*
X107188000Y-70485000D03*
D25*
G04 #@! TO.P,Q6,1*
G04 #@! TO.N,+24V*
X104648000Y-70485000D03*
G04 #@! TD*
D16*
G04 #@! TO.N,Net-(C8-Pad1)*
G04 #@! TO.C,R3*
G36*
X100189505Y-95821204D02*
G01*
X100213773Y-95824804D01*
X100237572Y-95830765D01*
X100260671Y-95839030D01*
X100282850Y-95849520D01*
X100303893Y-95862132D01*
X100323599Y-95876747D01*
X100341777Y-95893223D01*
X100358253Y-95911401D01*
X100372868Y-95931107D01*
X100385480Y-95952150D01*
X100395970Y-95974329D01*
X100404235Y-95997428D01*
X100410196Y-96021227D01*
X100413796Y-96045495D01*
X100415000Y-96069999D01*
X100415000Y-96970001D01*
X100413796Y-96994505D01*
X100410196Y-97018773D01*
X100404235Y-97042572D01*
X100395970Y-97065671D01*
X100385480Y-97087850D01*
X100372868Y-97108893D01*
X100358253Y-97128599D01*
X100341777Y-97146777D01*
X100323599Y-97163253D01*
X100303893Y-97177868D01*
X100282850Y-97190480D01*
X100260671Y-97200970D01*
X100237572Y-97209235D01*
X100213773Y-97215196D01*
X100189505Y-97218796D01*
X100165001Y-97220000D01*
X99514999Y-97220000D01*
X99490495Y-97218796D01*
X99466227Y-97215196D01*
X99442428Y-97209235D01*
X99419329Y-97200970D01*
X99397150Y-97190480D01*
X99376107Y-97177868D01*
X99356401Y-97163253D01*
X99338223Y-97146777D01*
X99321747Y-97128599D01*
X99307132Y-97108893D01*
X99294520Y-97087850D01*
X99284030Y-97065671D01*
X99275765Y-97042572D01*
X99269804Y-97018773D01*
X99266204Y-96994505D01*
X99265000Y-96970001D01*
X99265000Y-96069999D01*
X99266204Y-96045495D01*
X99269804Y-96021227D01*
X99275765Y-95997428D01*
X99284030Y-95974329D01*
X99294520Y-95952150D01*
X99307132Y-95931107D01*
X99321747Y-95911401D01*
X99338223Y-95893223D01*
X99356401Y-95876747D01*
X99376107Y-95862132D01*
X99397150Y-95849520D01*
X99419329Y-95839030D01*
X99442428Y-95830765D01*
X99466227Y-95824804D01*
X99490495Y-95821204D01*
X99514999Y-95820000D01*
X100165001Y-95820000D01*
X100189505Y-95821204D01*
X100189505Y-95821204D01*
G37*
D17*
G04 #@! TD*
G04 #@! TO.P,R3,1*
G04 #@! TO.N,Net-(C8-Pad1)*
X99840000Y-96520000D03*
D16*
G04 #@! TO.N,+3V3*
G04 #@! TO.C,R3*
G36*
X98139505Y-95821204D02*
G01*
X98163773Y-95824804D01*
X98187572Y-95830765D01*
X98210671Y-95839030D01*
X98232850Y-95849520D01*
X98253893Y-95862132D01*
X98273599Y-95876747D01*
X98291777Y-95893223D01*
X98308253Y-95911401D01*
X98322868Y-95931107D01*
X98335480Y-95952150D01*
X98345970Y-95974329D01*
X98354235Y-95997428D01*
X98360196Y-96021227D01*
X98363796Y-96045495D01*
X98365000Y-96069999D01*
X98365000Y-96970001D01*
X98363796Y-96994505D01*
X98360196Y-97018773D01*
X98354235Y-97042572D01*
X98345970Y-97065671D01*
X98335480Y-97087850D01*
X98322868Y-97108893D01*
X98308253Y-97128599D01*
X98291777Y-97146777D01*
X98273599Y-97163253D01*
X98253893Y-97177868D01*
X98232850Y-97190480D01*
X98210671Y-97200970D01*
X98187572Y-97209235D01*
X98163773Y-97215196D01*
X98139505Y-97218796D01*
X98115001Y-97220000D01*
X97464999Y-97220000D01*
X97440495Y-97218796D01*
X97416227Y-97215196D01*
X97392428Y-97209235D01*
X97369329Y-97200970D01*
X97347150Y-97190480D01*
X97326107Y-97177868D01*
X97306401Y-97163253D01*
X97288223Y-97146777D01*
X97271747Y-97128599D01*
X97257132Y-97108893D01*
X97244520Y-97087850D01*
X97234030Y-97065671D01*
X97225765Y-97042572D01*
X97219804Y-97018773D01*
X97216204Y-96994505D01*
X97215000Y-96970001D01*
X97215000Y-96069999D01*
X97216204Y-96045495D01*
X97219804Y-96021227D01*
X97225765Y-95997428D01*
X97234030Y-95974329D01*
X97244520Y-95952150D01*
X97257132Y-95931107D01*
X97271747Y-95911401D01*
X97288223Y-95893223D01*
X97306401Y-95876747D01*
X97326107Y-95862132D01*
X97347150Y-95849520D01*
X97369329Y-95839030D01*
X97392428Y-95830765D01*
X97416227Y-95824804D01*
X97440495Y-95821204D01*
X97464999Y-95820000D01*
X98115001Y-95820000D01*
X98139505Y-95821204D01*
X98139505Y-95821204D01*
G37*
D17*
G04 #@! TD*
G04 #@! TO.P,R3,2*
G04 #@! TO.N,+3V3*
X97790000Y-96520000D03*
D16*
G04 #@! TO.N,Net-(Q1-Pad2)*
G04 #@! TO.C,R4*
G36*
X100677505Y-90857204D02*
G01*
X100701773Y-90860804D01*
X100725572Y-90866765D01*
X100748671Y-90875030D01*
X100770850Y-90885520D01*
X100791893Y-90898132D01*
X100811599Y-90912747D01*
X100829777Y-90929223D01*
X100846253Y-90947401D01*
X100860868Y-90967107D01*
X100873480Y-90988150D01*
X100883970Y-91010329D01*
X100892235Y-91033428D01*
X100898196Y-91057227D01*
X100901796Y-91081495D01*
X100903000Y-91105999D01*
X100903000Y-91756001D01*
X100901796Y-91780505D01*
X100898196Y-91804773D01*
X100892235Y-91828572D01*
X100883970Y-91851671D01*
X100873480Y-91873850D01*
X100860868Y-91894893D01*
X100846253Y-91914599D01*
X100829777Y-91932777D01*
X100811599Y-91949253D01*
X100791893Y-91963868D01*
X100770850Y-91976480D01*
X100748671Y-91986970D01*
X100725572Y-91995235D01*
X100701773Y-92001196D01*
X100677505Y-92004796D01*
X100653001Y-92006000D01*
X99752999Y-92006000D01*
X99728495Y-92004796D01*
X99704227Y-92001196D01*
X99680428Y-91995235D01*
X99657329Y-91986970D01*
X99635150Y-91976480D01*
X99614107Y-91963868D01*
X99594401Y-91949253D01*
X99576223Y-91932777D01*
X99559747Y-91914599D01*
X99545132Y-91894893D01*
X99532520Y-91873850D01*
X99522030Y-91851671D01*
X99513765Y-91828572D01*
X99507804Y-91804773D01*
X99504204Y-91780505D01*
X99503000Y-91756001D01*
X99503000Y-91105999D01*
X99504204Y-91081495D01*
X99507804Y-91057227D01*
X99513765Y-91033428D01*
X99522030Y-91010329D01*
X99532520Y-90988150D01*
X99545132Y-90967107D01*
X99559747Y-90947401D01*
X99576223Y-90929223D01*
X99594401Y-90912747D01*
X99614107Y-90898132D01*
X99635150Y-90885520D01*
X99657329Y-90875030D01*
X99680428Y-90866765D01*
X99704227Y-90860804D01*
X99728495Y-90857204D01*
X99752999Y-90856000D01*
X100653001Y-90856000D01*
X100677505Y-90857204D01*
X100677505Y-90857204D01*
G37*
D17*
G04 #@! TD*
G04 #@! TO.P,R4,1*
G04 #@! TO.N,Net-(Q1-Pad2)*
X100203000Y-91431000D03*
D16*
G04 #@! TO.N,CPULSE1*
G04 #@! TO.C,R4*
G36*
X100677505Y-92907204D02*
G01*
X100701773Y-92910804D01*
X100725572Y-92916765D01*
X100748671Y-92925030D01*
X100770850Y-92935520D01*
X100791893Y-92948132D01*
X100811599Y-92962747D01*
X100829777Y-92979223D01*
X100846253Y-92997401D01*
X100860868Y-93017107D01*
X100873480Y-93038150D01*
X100883970Y-93060329D01*
X100892235Y-93083428D01*
X100898196Y-93107227D01*
X100901796Y-93131495D01*
X100903000Y-93155999D01*
X100903000Y-93806001D01*
X100901796Y-93830505D01*
X100898196Y-93854773D01*
X100892235Y-93878572D01*
X100883970Y-93901671D01*
X100873480Y-93923850D01*
X100860868Y-93944893D01*
X100846253Y-93964599D01*
X100829777Y-93982777D01*
X100811599Y-93999253D01*
X100791893Y-94013868D01*
X100770850Y-94026480D01*
X100748671Y-94036970D01*
X100725572Y-94045235D01*
X100701773Y-94051196D01*
X100677505Y-94054796D01*
X100653001Y-94056000D01*
X99752999Y-94056000D01*
X99728495Y-94054796D01*
X99704227Y-94051196D01*
X99680428Y-94045235D01*
X99657329Y-94036970D01*
X99635150Y-94026480D01*
X99614107Y-94013868D01*
X99594401Y-93999253D01*
X99576223Y-93982777D01*
X99559747Y-93964599D01*
X99545132Y-93944893D01*
X99532520Y-93923850D01*
X99522030Y-93901671D01*
X99513765Y-93878572D01*
X99507804Y-93854773D01*
X99504204Y-93830505D01*
X99503000Y-93806001D01*
X99503000Y-93155999D01*
X99504204Y-93131495D01*
X99507804Y-93107227D01*
X99513765Y-93083428D01*
X99522030Y-93060329D01*
X99532520Y-93038150D01*
X99545132Y-93017107D01*
X99559747Y-92997401D01*
X99576223Y-92979223D01*
X99594401Y-92962747D01*
X99614107Y-92948132D01*
X99635150Y-92935520D01*
X99657329Y-92925030D01*
X99680428Y-92916765D01*
X99704227Y-92910804D01*
X99728495Y-92907204D01*
X99752999Y-92906000D01*
X100653001Y-92906000D01*
X100677505Y-92907204D01*
X100677505Y-92907204D01*
G37*
D17*
G04 #@! TD*
G04 #@! TO.P,R4,2*
G04 #@! TO.N,CPULSE1*
X100203000Y-93481000D03*
D16*
G04 #@! TO.N,Net-(Q2-Pad2)*
G04 #@! TO.C,R5*
G36*
X120854505Y-85661204D02*
G01*
X120878773Y-85664804D01*
X120902572Y-85670765D01*
X120925671Y-85679030D01*
X120947850Y-85689520D01*
X120968893Y-85702132D01*
X120988599Y-85716747D01*
X121006777Y-85733223D01*
X121023253Y-85751401D01*
X121037868Y-85771107D01*
X121050480Y-85792150D01*
X121060970Y-85814329D01*
X121069235Y-85837428D01*
X121075196Y-85861227D01*
X121078796Y-85885495D01*
X121080000Y-85909999D01*
X121080000Y-86810001D01*
X121078796Y-86834505D01*
X121075196Y-86858773D01*
X121069235Y-86882572D01*
X121060970Y-86905671D01*
X121050480Y-86927850D01*
X121037868Y-86948893D01*
X121023253Y-86968599D01*
X121006777Y-86986777D01*
X120988599Y-87003253D01*
X120968893Y-87017868D01*
X120947850Y-87030480D01*
X120925671Y-87040970D01*
X120902572Y-87049235D01*
X120878773Y-87055196D01*
X120854505Y-87058796D01*
X120830001Y-87060000D01*
X120179999Y-87060000D01*
X120155495Y-87058796D01*
X120131227Y-87055196D01*
X120107428Y-87049235D01*
X120084329Y-87040970D01*
X120062150Y-87030480D01*
X120041107Y-87017868D01*
X120021401Y-87003253D01*
X120003223Y-86986777D01*
X119986747Y-86968599D01*
X119972132Y-86948893D01*
X119959520Y-86927850D01*
X119949030Y-86905671D01*
X119940765Y-86882572D01*
X119934804Y-86858773D01*
X119931204Y-86834505D01*
X119930000Y-86810001D01*
X119930000Y-85909999D01*
X119931204Y-85885495D01*
X119934804Y-85861227D01*
X119940765Y-85837428D01*
X119949030Y-85814329D01*
X119959520Y-85792150D01*
X119972132Y-85771107D01*
X119986747Y-85751401D01*
X120003223Y-85733223D01*
X120021401Y-85716747D01*
X120041107Y-85702132D01*
X120062150Y-85689520D01*
X120084329Y-85679030D01*
X120107428Y-85670765D01*
X120131227Y-85664804D01*
X120155495Y-85661204D01*
X120179999Y-85660000D01*
X120830001Y-85660000D01*
X120854505Y-85661204D01*
X120854505Y-85661204D01*
G37*
D17*
G04 #@! TD*
G04 #@! TO.P,R5,1*
G04 #@! TO.N,Net-(Q2-Pad2)*
X120505000Y-86360000D03*
D16*
G04 #@! TO.N,CPULSE2*
G04 #@! TO.C,R5*
G36*
X122904505Y-85661204D02*
G01*
X122928773Y-85664804D01*
X122952572Y-85670765D01*
X122975671Y-85679030D01*
X122997850Y-85689520D01*
X123018893Y-85702132D01*
X123038599Y-85716747D01*
X123056777Y-85733223D01*
X123073253Y-85751401D01*
X123087868Y-85771107D01*
X123100480Y-85792150D01*
X123110970Y-85814329D01*
X123119235Y-85837428D01*
X123125196Y-85861227D01*
X123128796Y-85885495D01*
X123130000Y-85909999D01*
X123130000Y-86810001D01*
X123128796Y-86834505D01*
X123125196Y-86858773D01*
X123119235Y-86882572D01*
X123110970Y-86905671D01*
X123100480Y-86927850D01*
X123087868Y-86948893D01*
X123073253Y-86968599D01*
X123056777Y-86986777D01*
X123038599Y-87003253D01*
X123018893Y-87017868D01*
X122997850Y-87030480D01*
X122975671Y-87040970D01*
X122952572Y-87049235D01*
X122928773Y-87055196D01*
X122904505Y-87058796D01*
X122880001Y-87060000D01*
X122229999Y-87060000D01*
X122205495Y-87058796D01*
X122181227Y-87055196D01*
X122157428Y-87049235D01*
X122134329Y-87040970D01*
X122112150Y-87030480D01*
X122091107Y-87017868D01*
X122071401Y-87003253D01*
X122053223Y-86986777D01*
X122036747Y-86968599D01*
X122022132Y-86948893D01*
X122009520Y-86927850D01*
X121999030Y-86905671D01*
X121990765Y-86882572D01*
X121984804Y-86858773D01*
X121981204Y-86834505D01*
X121980000Y-86810001D01*
X121980000Y-85909999D01*
X121981204Y-85885495D01*
X121984804Y-85861227D01*
X121990765Y-85837428D01*
X121999030Y-85814329D01*
X122009520Y-85792150D01*
X122022132Y-85771107D01*
X122036747Y-85751401D01*
X122053223Y-85733223D01*
X122071401Y-85716747D01*
X122091107Y-85702132D01*
X122112150Y-85689520D01*
X122134329Y-85679030D01*
X122157428Y-85670765D01*
X122181227Y-85664804D01*
X122205495Y-85661204D01*
X122229999Y-85660000D01*
X122880001Y-85660000D01*
X122904505Y-85661204D01*
X122904505Y-85661204D01*
G37*
D17*
G04 #@! TD*
G04 #@! TO.P,R5,2*
G04 #@! TO.N,CPULSE2*
X122555000Y-86360000D03*
D16*
G04 #@! TO.N,GND*
G04 #@! TO.C,R6*
G36*
X97629505Y-92907204D02*
G01*
X97653773Y-92910804D01*
X97677572Y-92916765D01*
X97700671Y-92925030D01*
X97722850Y-92935520D01*
X97743893Y-92948132D01*
X97763599Y-92962747D01*
X97781777Y-92979223D01*
X97798253Y-92997401D01*
X97812868Y-93017107D01*
X97825480Y-93038150D01*
X97835970Y-93060329D01*
X97844235Y-93083428D01*
X97850196Y-93107227D01*
X97853796Y-93131495D01*
X97855000Y-93155999D01*
X97855000Y-93806001D01*
X97853796Y-93830505D01*
X97850196Y-93854773D01*
X97844235Y-93878572D01*
X97835970Y-93901671D01*
X97825480Y-93923850D01*
X97812868Y-93944893D01*
X97798253Y-93964599D01*
X97781777Y-93982777D01*
X97763599Y-93999253D01*
X97743893Y-94013868D01*
X97722850Y-94026480D01*
X97700671Y-94036970D01*
X97677572Y-94045235D01*
X97653773Y-94051196D01*
X97629505Y-94054796D01*
X97605001Y-94056000D01*
X96704999Y-94056000D01*
X96680495Y-94054796D01*
X96656227Y-94051196D01*
X96632428Y-94045235D01*
X96609329Y-94036970D01*
X96587150Y-94026480D01*
X96566107Y-94013868D01*
X96546401Y-93999253D01*
X96528223Y-93982777D01*
X96511747Y-93964599D01*
X96497132Y-93944893D01*
X96484520Y-93923850D01*
X96474030Y-93901671D01*
X96465765Y-93878572D01*
X96459804Y-93854773D01*
X96456204Y-93830505D01*
X96455000Y-93806001D01*
X96455000Y-93155999D01*
X96456204Y-93131495D01*
X96459804Y-93107227D01*
X96465765Y-93083428D01*
X96474030Y-93060329D01*
X96484520Y-93038150D01*
X96497132Y-93017107D01*
X96511747Y-92997401D01*
X96528223Y-92979223D01*
X96546401Y-92962747D01*
X96566107Y-92948132D01*
X96587150Y-92935520D01*
X96609329Y-92925030D01*
X96632428Y-92916765D01*
X96656227Y-92910804D01*
X96680495Y-92907204D01*
X96704999Y-92906000D01*
X97605001Y-92906000D01*
X97629505Y-92907204D01*
X97629505Y-92907204D01*
G37*
D17*
G04 #@! TD*
G04 #@! TO.P,R6,2*
G04 #@! TO.N,GND*
X97155000Y-93481000D03*
D16*
G04 #@! TO.N,Net-(Q1-Pad2)*
G04 #@! TO.C,R6*
G36*
X97629505Y-90857204D02*
G01*
X97653773Y-90860804D01*
X97677572Y-90866765D01*
X97700671Y-90875030D01*
X97722850Y-90885520D01*
X97743893Y-90898132D01*
X97763599Y-90912747D01*
X97781777Y-90929223D01*
X97798253Y-90947401D01*
X97812868Y-90967107D01*
X97825480Y-90988150D01*
X97835970Y-91010329D01*
X97844235Y-91033428D01*
X97850196Y-91057227D01*
X97853796Y-91081495D01*
X97855000Y-91105999D01*
X97855000Y-91756001D01*
X97853796Y-91780505D01*
X97850196Y-91804773D01*
X97844235Y-91828572D01*
X97835970Y-91851671D01*
X97825480Y-91873850D01*
X97812868Y-91894893D01*
X97798253Y-91914599D01*
X97781777Y-91932777D01*
X97763599Y-91949253D01*
X97743893Y-91963868D01*
X97722850Y-91976480D01*
X97700671Y-91986970D01*
X97677572Y-91995235D01*
X97653773Y-92001196D01*
X97629505Y-92004796D01*
X97605001Y-92006000D01*
X96704999Y-92006000D01*
X96680495Y-92004796D01*
X96656227Y-92001196D01*
X96632428Y-91995235D01*
X96609329Y-91986970D01*
X96587150Y-91976480D01*
X96566107Y-91963868D01*
X96546401Y-91949253D01*
X96528223Y-91932777D01*
X96511747Y-91914599D01*
X96497132Y-91894893D01*
X96484520Y-91873850D01*
X96474030Y-91851671D01*
X96465765Y-91828572D01*
X96459804Y-91804773D01*
X96456204Y-91780505D01*
X96455000Y-91756001D01*
X96455000Y-91105999D01*
X96456204Y-91081495D01*
X96459804Y-91057227D01*
X96465765Y-91033428D01*
X96474030Y-91010329D01*
X96484520Y-90988150D01*
X96497132Y-90967107D01*
X96511747Y-90947401D01*
X96528223Y-90929223D01*
X96546401Y-90912747D01*
X96566107Y-90898132D01*
X96587150Y-90885520D01*
X96609329Y-90875030D01*
X96632428Y-90866765D01*
X96656227Y-90860804D01*
X96680495Y-90857204D01*
X96704999Y-90856000D01*
X97605001Y-90856000D01*
X97629505Y-90857204D01*
X97629505Y-90857204D01*
G37*
D17*
G04 #@! TD*
G04 #@! TO.P,R6,1*
G04 #@! TO.N,Net-(Q1-Pad2)*
X97155000Y-91431000D03*
D16*
G04 #@! TO.N,GND*
G04 #@! TO.C,R7*
G36*
X123049505Y-88201204D02*
G01*
X123073773Y-88204804D01*
X123097572Y-88210765D01*
X123120671Y-88219030D01*
X123142850Y-88229520D01*
X123163893Y-88242132D01*
X123183599Y-88256747D01*
X123201777Y-88273223D01*
X123218253Y-88291401D01*
X123232868Y-88311107D01*
X123245480Y-88332150D01*
X123255970Y-88354329D01*
X123264235Y-88377428D01*
X123270196Y-88401227D01*
X123273796Y-88425495D01*
X123275000Y-88449999D01*
X123275000Y-89350001D01*
X123273796Y-89374505D01*
X123270196Y-89398773D01*
X123264235Y-89422572D01*
X123255970Y-89445671D01*
X123245480Y-89467850D01*
X123232868Y-89488893D01*
X123218253Y-89508599D01*
X123201777Y-89526777D01*
X123183599Y-89543253D01*
X123163893Y-89557868D01*
X123142850Y-89570480D01*
X123120671Y-89580970D01*
X123097572Y-89589235D01*
X123073773Y-89595196D01*
X123049505Y-89598796D01*
X123025001Y-89600000D01*
X122374999Y-89600000D01*
X122350495Y-89598796D01*
X122326227Y-89595196D01*
X122302428Y-89589235D01*
X122279329Y-89580970D01*
X122257150Y-89570480D01*
X122236107Y-89557868D01*
X122216401Y-89543253D01*
X122198223Y-89526777D01*
X122181747Y-89508599D01*
X122167132Y-89488893D01*
X122154520Y-89467850D01*
X122144030Y-89445671D01*
X122135765Y-89422572D01*
X122129804Y-89398773D01*
X122126204Y-89374505D01*
X122125000Y-89350001D01*
X122125000Y-88449999D01*
X122126204Y-88425495D01*
X122129804Y-88401227D01*
X122135765Y-88377428D01*
X122144030Y-88354329D01*
X122154520Y-88332150D01*
X122167132Y-88311107D01*
X122181747Y-88291401D01*
X122198223Y-88273223D01*
X122216401Y-88256747D01*
X122236107Y-88242132D01*
X122257150Y-88229520D01*
X122279329Y-88219030D01*
X122302428Y-88210765D01*
X122326227Y-88204804D01*
X122350495Y-88201204D01*
X122374999Y-88200000D01*
X123025001Y-88200000D01*
X123049505Y-88201204D01*
X123049505Y-88201204D01*
G37*
D17*
G04 #@! TD*
G04 #@! TO.P,R7,2*
G04 #@! TO.N,GND*
X122700000Y-88900000D03*
D16*
G04 #@! TO.N,Net-(Q2-Pad2)*
G04 #@! TO.C,R7*
G36*
X120999505Y-88201204D02*
G01*
X121023773Y-88204804D01*
X121047572Y-88210765D01*
X121070671Y-88219030D01*
X121092850Y-88229520D01*
X121113893Y-88242132D01*
X121133599Y-88256747D01*
X121151777Y-88273223D01*
X121168253Y-88291401D01*
X121182868Y-88311107D01*
X121195480Y-88332150D01*
X121205970Y-88354329D01*
X121214235Y-88377428D01*
X121220196Y-88401227D01*
X121223796Y-88425495D01*
X121225000Y-88449999D01*
X121225000Y-89350001D01*
X121223796Y-89374505D01*
X121220196Y-89398773D01*
X121214235Y-89422572D01*
X121205970Y-89445671D01*
X121195480Y-89467850D01*
X121182868Y-89488893D01*
X121168253Y-89508599D01*
X121151777Y-89526777D01*
X121133599Y-89543253D01*
X121113893Y-89557868D01*
X121092850Y-89570480D01*
X121070671Y-89580970D01*
X121047572Y-89589235D01*
X121023773Y-89595196D01*
X120999505Y-89598796D01*
X120975001Y-89600000D01*
X120324999Y-89600000D01*
X120300495Y-89598796D01*
X120276227Y-89595196D01*
X120252428Y-89589235D01*
X120229329Y-89580970D01*
X120207150Y-89570480D01*
X120186107Y-89557868D01*
X120166401Y-89543253D01*
X120148223Y-89526777D01*
X120131747Y-89508599D01*
X120117132Y-89488893D01*
X120104520Y-89467850D01*
X120094030Y-89445671D01*
X120085765Y-89422572D01*
X120079804Y-89398773D01*
X120076204Y-89374505D01*
X120075000Y-89350001D01*
X120075000Y-88449999D01*
X120076204Y-88425495D01*
X120079804Y-88401227D01*
X120085765Y-88377428D01*
X120094030Y-88354329D01*
X120104520Y-88332150D01*
X120117132Y-88311107D01*
X120131747Y-88291401D01*
X120148223Y-88273223D01*
X120166401Y-88256747D01*
X120186107Y-88242132D01*
X120207150Y-88229520D01*
X120229329Y-88219030D01*
X120252428Y-88210765D01*
X120276227Y-88204804D01*
X120300495Y-88201204D01*
X120324999Y-88200000D01*
X120975001Y-88200000D01*
X120999505Y-88201204D01*
X120999505Y-88201204D01*
G37*
D17*
G04 #@! TD*
G04 #@! TO.P,R7,1*
G04 #@! TO.N,Net-(Q2-Pad2)*
X120650000Y-88900000D03*
D16*
G04 #@! TO.N,Net-(Q1-Pad3)*
G04 #@! TO.C,R8*
G36*
X111472505Y-70546204D02*
G01*
X111496773Y-70549804D01*
X111520572Y-70555765D01*
X111543671Y-70564030D01*
X111565850Y-70574520D01*
X111586893Y-70587132D01*
X111606599Y-70601747D01*
X111624777Y-70618223D01*
X111641253Y-70636401D01*
X111655868Y-70656107D01*
X111668480Y-70677150D01*
X111678970Y-70699329D01*
X111687235Y-70722428D01*
X111693196Y-70746227D01*
X111696796Y-70770495D01*
X111698000Y-70794999D01*
X111698000Y-71445001D01*
X111696796Y-71469505D01*
X111693196Y-71493773D01*
X111687235Y-71517572D01*
X111678970Y-71540671D01*
X111668480Y-71562850D01*
X111655868Y-71583893D01*
X111641253Y-71603599D01*
X111624777Y-71621777D01*
X111606599Y-71638253D01*
X111586893Y-71652868D01*
X111565850Y-71665480D01*
X111543671Y-71675970D01*
X111520572Y-71684235D01*
X111496773Y-71690196D01*
X111472505Y-71693796D01*
X111448001Y-71695000D01*
X110547999Y-71695000D01*
X110523495Y-71693796D01*
X110499227Y-71690196D01*
X110475428Y-71684235D01*
X110452329Y-71675970D01*
X110430150Y-71665480D01*
X110409107Y-71652868D01*
X110389401Y-71638253D01*
X110371223Y-71621777D01*
X110354747Y-71603599D01*
X110340132Y-71583893D01*
X110327520Y-71562850D01*
X110317030Y-71540671D01*
X110308765Y-71517572D01*
X110302804Y-71493773D01*
X110299204Y-71469505D01*
X110298000Y-71445001D01*
X110298000Y-70794999D01*
X110299204Y-70770495D01*
X110302804Y-70746227D01*
X110308765Y-70722428D01*
X110317030Y-70699329D01*
X110327520Y-70677150D01*
X110340132Y-70656107D01*
X110354747Y-70636401D01*
X110371223Y-70618223D01*
X110389401Y-70601747D01*
X110409107Y-70587132D01*
X110430150Y-70574520D01*
X110452329Y-70564030D01*
X110475428Y-70555765D01*
X110499227Y-70549804D01*
X110523495Y-70546204D01*
X110547999Y-70545000D01*
X111448001Y-70545000D01*
X111472505Y-70546204D01*
X111472505Y-70546204D01*
G37*
D17*
G04 #@! TD*
G04 #@! TO.P,R8,1*
G04 #@! TO.N,Net-(Q1-Pad3)*
X110998000Y-71120000D03*
D16*
G04 #@! TO.N,Net-(Q6-Pad3)*
G04 #@! TO.C,R8*
G36*
X111472505Y-68496204D02*
G01*
X111496773Y-68499804D01*
X111520572Y-68505765D01*
X111543671Y-68514030D01*
X111565850Y-68524520D01*
X111586893Y-68537132D01*
X111606599Y-68551747D01*
X111624777Y-68568223D01*
X111641253Y-68586401D01*
X111655868Y-68606107D01*
X111668480Y-68627150D01*
X111678970Y-68649329D01*
X111687235Y-68672428D01*
X111693196Y-68696227D01*
X111696796Y-68720495D01*
X111698000Y-68744999D01*
X111698000Y-69395001D01*
X111696796Y-69419505D01*
X111693196Y-69443773D01*
X111687235Y-69467572D01*
X111678970Y-69490671D01*
X111668480Y-69512850D01*
X111655868Y-69533893D01*
X111641253Y-69553599D01*
X111624777Y-69571777D01*
X111606599Y-69588253D01*
X111586893Y-69602868D01*
X111565850Y-69615480D01*
X111543671Y-69625970D01*
X111520572Y-69634235D01*
X111496773Y-69640196D01*
X111472505Y-69643796D01*
X111448001Y-69645000D01*
X110547999Y-69645000D01*
X110523495Y-69643796D01*
X110499227Y-69640196D01*
X110475428Y-69634235D01*
X110452329Y-69625970D01*
X110430150Y-69615480D01*
X110409107Y-69602868D01*
X110389401Y-69588253D01*
X110371223Y-69571777D01*
X110354747Y-69553599D01*
X110340132Y-69533893D01*
X110327520Y-69512850D01*
X110317030Y-69490671D01*
X110308765Y-69467572D01*
X110302804Y-69443773D01*
X110299204Y-69419505D01*
X110298000Y-69395001D01*
X110298000Y-68744999D01*
X110299204Y-68720495D01*
X110302804Y-68696227D01*
X110308765Y-68672428D01*
X110317030Y-68649329D01*
X110327520Y-68627150D01*
X110340132Y-68606107D01*
X110354747Y-68586401D01*
X110371223Y-68568223D01*
X110389401Y-68551747D01*
X110409107Y-68537132D01*
X110430150Y-68524520D01*
X110452329Y-68514030D01*
X110475428Y-68505765D01*
X110499227Y-68499804D01*
X110523495Y-68496204D01*
X110547999Y-68495000D01*
X111448001Y-68495000D01*
X111472505Y-68496204D01*
X111472505Y-68496204D01*
G37*
D17*
G04 #@! TD*
G04 #@! TO.P,R8,2*
G04 #@! TO.N,Net-(Q6-Pad3)*
X110998000Y-69070000D03*
D16*
G04 #@! TO.N,Net-(Q4-Pad3)*
G04 #@! TO.C,R9*
G36*
X111472505Y-75626204D02*
G01*
X111496773Y-75629804D01*
X111520572Y-75635765D01*
X111543671Y-75644030D01*
X111565850Y-75654520D01*
X111586893Y-75667132D01*
X111606599Y-75681747D01*
X111624777Y-75698223D01*
X111641253Y-75716401D01*
X111655868Y-75736107D01*
X111668480Y-75757150D01*
X111678970Y-75779329D01*
X111687235Y-75802428D01*
X111693196Y-75826227D01*
X111696796Y-75850495D01*
X111698000Y-75874999D01*
X111698000Y-76525001D01*
X111696796Y-76549505D01*
X111693196Y-76573773D01*
X111687235Y-76597572D01*
X111678970Y-76620671D01*
X111668480Y-76642850D01*
X111655868Y-76663893D01*
X111641253Y-76683599D01*
X111624777Y-76701777D01*
X111606599Y-76718253D01*
X111586893Y-76732868D01*
X111565850Y-76745480D01*
X111543671Y-76755970D01*
X111520572Y-76764235D01*
X111496773Y-76770196D01*
X111472505Y-76773796D01*
X111448001Y-76775000D01*
X110547999Y-76775000D01*
X110523495Y-76773796D01*
X110499227Y-76770196D01*
X110475428Y-76764235D01*
X110452329Y-76755970D01*
X110430150Y-76745480D01*
X110409107Y-76732868D01*
X110389401Y-76718253D01*
X110371223Y-76701777D01*
X110354747Y-76683599D01*
X110340132Y-76663893D01*
X110327520Y-76642850D01*
X110317030Y-76620671D01*
X110308765Y-76597572D01*
X110302804Y-76573773D01*
X110299204Y-76549505D01*
X110298000Y-76525001D01*
X110298000Y-75874999D01*
X110299204Y-75850495D01*
X110302804Y-75826227D01*
X110308765Y-75802428D01*
X110317030Y-75779329D01*
X110327520Y-75757150D01*
X110340132Y-75736107D01*
X110354747Y-75716401D01*
X110371223Y-75698223D01*
X110389401Y-75681747D01*
X110409107Y-75667132D01*
X110430150Y-75654520D01*
X110452329Y-75644030D01*
X110475428Y-75635765D01*
X110499227Y-75629804D01*
X110523495Y-75626204D01*
X110547999Y-75625000D01*
X111448001Y-75625000D01*
X111472505Y-75626204D01*
X111472505Y-75626204D01*
G37*
D17*
G04 #@! TD*
G04 #@! TO.P,R9,2*
G04 #@! TO.N,Net-(Q4-Pad3)*
X110998000Y-76200000D03*
D16*
G04 #@! TO.N,Net-(Q2-Pad3)*
G04 #@! TO.C,R9*
G36*
X111472505Y-77676204D02*
G01*
X111496773Y-77679804D01*
X111520572Y-77685765D01*
X111543671Y-77694030D01*
X111565850Y-77704520D01*
X111586893Y-77717132D01*
X111606599Y-77731747D01*
X111624777Y-77748223D01*
X111641253Y-77766401D01*
X111655868Y-77786107D01*
X111668480Y-77807150D01*
X111678970Y-77829329D01*
X111687235Y-77852428D01*
X111693196Y-77876227D01*
X111696796Y-77900495D01*
X111698000Y-77924999D01*
X111698000Y-78575001D01*
X111696796Y-78599505D01*
X111693196Y-78623773D01*
X111687235Y-78647572D01*
X111678970Y-78670671D01*
X111668480Y-78692850D01*
X111655868Y-78713893D01*
X111641253Y-78733599D01*
X111624777Y-78751777D01*
X111606599Y-78768253D01*
X111586893Y-78782868D01*
X111565850Y-78795480D01*
X111543671Y-78805970D01*
X111520572Y-78814235D01*
X111496773Y-78820196D01*
X111472505Y-78823796D01*
X111448001Y-78825000D01*
X110547999Y-78825000D01*
X110523495Y-78823796D01*
X110499227Y-78820196D01*
X110475428Y-78814235D01*
X110452329Y-78805970D01*
X110430150Y-78795480D01*
X110409107Y-78782868D01*
X110389401Y-78768253D01*
X110371223Y-78751777D01*
X110354747Y-78733599D01*
X110340132Y-78713893D01*
X110327520Y-78692850D01*
X110317030Y-78670671D01*
X110308765Y-78647572D01*
X110302804Y-78623773D01*
X110299204Y-78599505D01*
X110298000Y-78575001D01*
X110298000Y-77924999D01*
X110299204Y-77900495D01*
X110302804Y-77876227D01*
X110308765Y-77852428D01*
X110317030Y-77829329D01*
X110327520Y-77807150D01*
X110340132Y-77786107D01*
X110354747Y-77766401D01*
X110371223Y-77748223D01*
X110389401Y-77731747D01*
X110409107Y-77717132D01*
X110430150Y-77704520D01*
X110452329Y-77694030D01*
X110475428Y-77685765D01*
X110499227Y-77679804D01*
X110523495Y-77676204D01*
X110547999Y-77675000D01*
X111448001Y-77675000D01*
X111472505Y-77676204D01*
X111472505Y-77676204D01*
G37*
D17*
G04 #@! TD*
G04 #@! TO.P,R9,1*
G04 #@! TO.N,Net-(Q2-Pad3)*
X110998000Y-78250000D03*
D16*
G04 #@! TO.N,SDA*
G04 #@! TO.C,R10*
G36*
X107029505Y-106616204D02*
G01*
X107053773Y-106619804D01*
X107077572Y-106625765D01*
X107100671Y-106634030D01*
X107122850Y-106644520D01*
X107143893Y-106657132D01*
X107163599Y-106671747D01*
X107181777Y-106688223D01*
X107198253Y-106706401D01*
X107212868Y-106726107D01*
X107225480Y-106747150D01*
X107235970Y-106769329D01*
X107244235Y-106792428D01*
X107250196Y-106816227D01*
X107253796Y-106840495D01*
X107255000Y-106864999D01*
X107255000Y-107765001D01*
X107253796Y-107789505D01*
X107250196Y-107813773D01*
X107244235Y-107837572D01*
X107235970Y-107860671D01*
X107225480Y-107882850D01*
X107212868Y-107903893D01*
X107198253Y-107923599D01*
X107181777Y-107941777D01*
X107163599Y-107958253D01*
X107143893Y-107972868D01*
X107122850Y-107985480D01*
X107100671Y-107995970D01*
X107077572Y-108004235D01*
X107053773Y-108010196D01*
X107029505Y-108013796D01*
X107005001Y-108015000D01*
X106354999Y-108015000D01*
X106330495Y-108013796D01*
X106306227Y-108010196D01*
X106282428Y-108004235D01*
X106259329Y-107995970D01*
X106237150Y-107985480D01*
X106216107Y-107972868D01*
X106196401Y-107958253D01*
X106178223Y-107941777D01*
X106161747Y-107923599D01*
X106147132Y-107903893D01*
X106134520Y-107882850D01*
X106124030Y-107860671D01*
X106115765Y-107837572D01*
X106109804Y-107813773D01*
X106106204Y-107789505D01*
X106105000Y-107765001D01*
X106105000Y-106864999D01*
X106106204Y-106840495D01*
X106109804Y-106816227D01*
X106115765Y-106792428D01*
X106124030Y-106769329D01*
X106134520Y-106747150D01*
X106147132Y-106726107D01*
X106161747Y-106706401D01*
X106178223Y-106688223D01*
X106196401Y-106671747D01*
X106216107Y-106657132D01*
X106237150Y-106644520D01*
X106259329Y-106634030D01*
X106282428Y-106625765D01*
X106306227Y-106619804D01*
X106330495Y-106616204D01*
X106354999Y-106615000D01*
X107005001Y-106615000D01*
X107029505Y-106616204D01*
X107029505Y-106616204D01*
G37*
D17*
G04 #@! TD*
G04 #@! TO.P,R10,2*
G04 #@! TO.N,SDA*
X106680000Y-107315000D03*
D16*
G04 #@! TO.N,+3V3*
G04 #@! TO.C,R10*
G36*
X104979505Y-106616204D02*
G01*
X105003773Y-106619804D01*
X105027572Y-106625765D01*
X105050671Y-106634030D01*
X105072850Y-106644520D01*
X105093893Y-106657132D01*
X105113599Y-106671747D01*
X105131777Y-106688223D01*
X105148253Y-106706401D01*
X105162868Y-106726107D01*
X105175480Y-106747150D01*
X105185970Y-106769329D01*
X105194235Y-106792428D01*
X105200196Y-106816227D01*
X105203796Y-106840495D01*
X105205000Y-106864999D01*
X105205000Y-107765001D01*
X105203796Y-107789505D01*
X105200196Y-107813773D01*
X105194235Y-107837572D01*
X105185970Y-107860671D01*
X105175480Y-107882850D01*
X105162868Y-107903893D01*
X105148253Y-107923599D01*
X105131777Y-107941777D01*
X105113599Y-107958253D01*
X105093893Y-107972868D01*
X105072850Y-107985480D01*
X105050671Y-107995970D01*
X105027572Y-108004235D01*
X105003773Y-108010196D01*
X104979505Y-108013796D01*
X104955001Y-108015000D01*
X104304999Y-108015000D01*
X104280495Y-108013796D01*
X104256227Y-108010196D01*
X104232428Y-108004235D01*
X104209329Y-107995970D01*
X104187150Y-107985480D01*
X104166107Y-107972868D01*
X104146401Y-107958253D01*
X104128223Y-107941777D01*
X104111747Y-107923599D01*
X104097132Y-107903893D01*
X104084520Y-107882850D01*
X104074030Y-107860671D01*
X104065765Y-107837572D01*
X104059804Y-107813773D01*
X104056204Y-107789505D01*
X104055000Y-107765001D01*
X104055000Y-106864999D01*
X104056204Y-106840495D01*
X104059804Y-106816227D01*
X104065765Y-106792428D01*
X104074030Y-106769329D01*
X104084520Y-106747150D01*
X104097132Y-106726107D01*
X104111747Y-106706401D01*
X104128223Y-106688223D01*
X104146401Y-106671747D01*
X104166107Y-106657132D01*
X104187150Y-106644520D01*
X104209329Y-106634030D01*
X104232428Y-106625765D01*
X104256227Y-106619804D01*
X104280495Y-106616204D01*
X104304999Y-106615000D01*
X104955001Y-106615000D01*
X104979505Y-106616204D01*
X104979505Y-106616204D01*
G37*
D17*
G04 #@! TD*
G04 #@! TO.P,R10,1*
G04 #@! TO.N,+3V3*
X104630000Y-107315000D03*
D16*
G04 #@! TO.N,+3V3*
G04 #@! TO.C,R11*
G36*
X104979505Y-102806204D02*
G01*
X105003773Y-102809804D01*
X105027572Y-102815765D01*
X105050671Y-102824030D01*
X105072850Y-102834520D01*
X105093893Y-102847132D01*
X105113599Y-102861747D01*
X105131777Y-102878223D01*
X105148253Y-102896401D01*
X105162868Y-102916107D01*
X105175480Y-102937150D01*
X105185970Y-102959329D01*
X105194235Y-102982428D01*
X105200196Y-103006227D01*
X105203796Y-103030495D01*
X105205000Y-103054999D01*
X105205000Y-103955001D01*
X105203796Y-103979505D01*
X105200196Y-104003773D01*
X105194235Y-104027572D01*
X105185970Y-104050671D01*
X105175480Y-104072850D01*
X105162868Y-104093893D01*
X105148253Y-104113599D01*
X105131777Y-104131777D01*
X105113599Y-104148253D01*
X105093893Y-104162868D01*
X105072850Y-104175480D01*
X105050671Y-104185970D01*
X105027572Y-104194235D01*
X105003773Y-104200196D01*
X104979505Y-104203796D01*
X104955001Y-104205000D01*
X104304999Y-104205000D01*
X104280495Y-104203796D01*
X104256227Y-104200196D01*
X104232428Y-104194235D01*
X104209329Y-104185970D01*
X104187150Y-104175480D01*
X104166107Y-104162868D01*
X104146401Y-104148253D01*
X104128223Y-104131777D01*
X104111747Y-104113599D01*
X104097132Y-104093893D01*
X104084520Y-104072850D01*
X104074030Y-104050671D01*
X104065765Y-104027572D01*
X104059804Y-104003773D01*
X104056204Y-103979505D01*
X104055000Y-103955001D01*
X104055000Y-103054999D01*
X104056204Y-103030495D01*
X104059804Y-103006227D01*
X104065765Y-102982428D01*
X104074030Y-102959329D01*
X104084520Y-102937150D01*
X104097132Y-102916107D01*
X104111747Y-102896401D01*
X104128223Y-102878223D01*
X104146401Y-102861747D01*
X104166107Y-102847132D01*
X104187150Y-102834520D01*
X104209329Y-102824030D01*
X104232428Y-102815765D01*
X104256227Y-102809804D01*
X104280495Y-102806204D01*
X104304999Y-102805000D01*
X104955001Y-102805000D01*
X104979505Y-102806204D01*
X104979505Y-102806204D01*
G37*
D17*
G04 #@! TD*
G04 #@! TO.P,R11,1*
G04 #@! TO.N,+3V3*
X104630000Y-103505000D03*
D16*
G04 #@! TO.N,SCL*
G04 #@! TO.C,R11*
G36*
X107029505Y-102806204D02*
G01*
X107053773Y-102809804D01*
X107077572Y-102815765D01*
X107100671Y-102824030D01*
X107122850Y-102834520D01*
X107143893Y-102847132D01*
X107163599Y-102861747D01*
X107181777Y-102878223D01*
X107198253Y-102896401D01*
X107212868Y-102916107D01*
X107225480Y-102937150D01*
X107235970Y-102959329D01*
X107244235Y-102982428D01*
X107250196Y-103006227D01*
X107253796Y-103030495D01*
X107255000Y-103054999D01*
X107255000Y-103955001D01*
X107253796Y-103979505D01*
X107250196Y-104003773D01*
X107244235Y-104027572D01*
X107235970Y-104050671D01*
X107225480Y-104072850D01*
X107212868Y-104093893D01*
X107198253Y-104113599D01*
X107181777Y-104131777D01*
X107163599Y-104148253D01*
X107143893Y-104162868D01*
X107122850Y-104175480D01*
X107100671Y-104185970D01*
X107077572Y-104194235D01*
X107053773Y-104200196D01*
X107029505Y-104203796D01*
X107005001Y-104205000D01*
X106354999Y-104205000D01*
X106330495Y-104203796D01*
X106306227Y-104200196D01*
X106282428Y-104194235D01*
X106259329Y-104185970D01*
X106237150Y-104175480D01*
X106216107Y-104162868D01*
X106196401Y-104148253D01*
X106178223Y-104131777D01*
X106161747Y-104113599D01*
X106147132Y-104093893D01*
X106134520Y-104072850D01*
X106124030Y-104050671D01*
X106115765Y-104027572D01*
X106109804Y-104003773D01*
X106106204Y-103979505D01*
X106105000Y-103955001D01*
X106105000Y-103054999D01*
X106106204Y-103030495D01*
X106109804Y-103006227D01*
X106115765Y-102982428D01*
X106124030Y-102959329D01*
X106134520Y-102937150D01*
X106147132Y-102916107D01*
X106161747Y-102896401D01*
X106178223Y-102878223D01*
X106196401Y-102861747D01*
X106216107Y-102847132D01*
X106237150Y-102834520D01*
X106259329Y-102824030D01*
X106282428Y-102815765D01*
X106306227Y-102809804D01*
X106330495Y-102806204D01*
X106354999Y-102805000D01*
X107005001Y-102805000D01*
X107029505Y-102806204D01*
X107029505Y-102806204D01*
G37*
D17*
G04 #@! TD*
G04 #@! TO.P,R11,2*
G04 #@! TO.N,SCL*
X106680000Y-103505000D03*
D27*
G04 #@! TO.P,SW1,1*
G04 #@! TO.N,Net-(C8-Pad1)*
X110640000Y-94615000D03*
G04 #@! TO.P,SW1,2*
G04 #@! TO.N,GND*
X110640000Y-99115000D03*
G04 #@! TO.P,SW1,1*
G04 #@! TO.N,Net-(C8-Pad1)*
X104140000Y-94615000D03*
G04 #@! TO.P,SW1,2*
G04 #@! TO.N,GND*
X104140000Y-99115000D03*
G04 #@! TD*
G04 #@! TO.P,SW2,2*
G04 #@! TO.N,GND*
X114935000Y-99115000D03*
G04 #@! TO.P,SW2,1*
G04 #@! TO.N,Net-(SW2-Pad1)*
X114935000Y-94615000D03*
G04 #@! TO.P,SW2,2*
G04 #@! TO.N,GND*
X121435000Y-99115000D03*
G04 #@! TO.P,SW2,1*
G04 #@! TO.N,Net-(SW2-Pad1)*
X121435000Y-94615000D03*
G04 #@! TD*
D16*
G04 #@! TO.N,VCC*
G04 #@! TO.C,U2*
G36*
X86629703Y-84790722D02*
G01*
X86644264Y-84792882D01*
X86658543Y-84796459D01*
X86672403Y-84801418D01*
X86685710Y-84807712D01*
X86698336Y-84815280D01*
X86710159Y-84824048D01*
X86721066Y-84833934D01*
X86730952Y-84844841D01*
X86739720Y-84856664D01*
X86747288Y-84869290D01*
X86753582Y-84882597D01*
X86758541Y-84896457D01*
X86762118Y-84910736D01*
X86764278Y-84925297D01*
X86765000Y-84940000D01*
X86765000Y-85240000D01*
X86764278Y-85254703D01*
X86762118Y-85269264D01*
X86758541Y-85283543D01*
X86753582Y-85297403D01*
X86747288Y-85310710D01*
X86739720Y-85323336D01*
X86730952Y-85335159D01*
X86721066Y-85346066D01*
X86710159Y-85355952D01*
X86698336Y-85364720D01*
X86685710Y-85372288D01*
X86672403Y-85378582D01*
X86658543Y-85383541D01*
X86644264Y-85387118D01*
X86629703Y-85389278D01*
X86615000Y-85390000D01*
X84965000Y-85390000D01*
X84950297Y-85389278D01*
X84935736Y-85387118D01*
X84921457Y-85383541D01*
X84907597Y-85378582D01*
X84894290Y-85372288D01*
X84881664Y-85364720D01*
X84869841Y-85355952D01*
X84858934Y-85346066D01*
X84849048Y-85335159D01*
X84840280Y-85323336D01*
X84832712Y-85310710D01*
X84826418Y-85297403D01*
X84821459Y-85283543D01*
X84817882Y-85269264D01*
X84815722Y-85254703D01*
X84815000Y-85240000D01*
X84815000Y-84940000D01*
X84815722Y-84925297D01*
X84817882Y-84910736D01*
X84821459Y-84896457D01*
X84826418Y-84882597D01*
X84832712Y-84869290D01*
X84840280Y-84856664D01*
X84849048Y-84844841D01*
X84858934Y-84833934D01*
X84869841Y-84824048D01*
X84881664Y-84815280D01*
X84894290Y-84807712D01*
X84907597Y-84801418D01*
X84921457Y-84796459D01*
X84935736Y-84792882D01*
X84950297Y-84790722D01*
X84965000Y-84790000D01*
X86615000Y-84790000D01*
X86629703Y-84790722D01*
X86629703Y-84790722D01*
G37*
D21*
G04 #@! TD*
G04 #@! TO.P,U2,1*
G04 #@! TO.N,VCC*
X85790000Y-85090000D03*
D16*
G04 #@! TO.N,GND*
G04 #@! TO.C,U2*
G36*
X86629703Y-86060722D02*
G01*
X86644264Y-86062882D01*
X86658543Y-86066459D01*
X86672403Y-86071418D01*
X86685710Y-86077712D01*
X86698336Y-86085280D01*
X86710159Y-86094048D01*
X86721066Y-86103934D01*
X86730952Y-86114841D01*
X86739720Y-86126664D01*
X86747288Y-86139290D01*
X86753582Y-86152597D01*
X86758541Y-86166457D01*
X86762118Y-86180736D01*
X86764278Y-86195297D01*
X86765000Y-86210000D01*
X86765000Y-86510000D01*
X86764278Y-86524703D01*
X86762118Y-86539264D01*
X86758541Y-86553543D01*
X86753582Y-86567403D01*
X86747288Y-86580710D01*
X86739720Y-86593336D01*
X86730952Y-86605159D01*
X86721066Y-86616066D01*
X86710159Y-86625952D01*
X86698336Y-86634720D01*
X86685710Y-86642288D01*
X86672403Y-86648582D01*
X86658543Y-86653541D01*
X86644264Y-86657118D01*
X86629703Y-86659278D01*
X86615000Y-86660000D01*
X84965000Y-86660000D01*
X84950297Y-86659278D01*
X84935736Y-86657118D01*
X84921457Y-86653541D01*
X84907597Y-86648582D01*
X84894290Y-86642288D01*
X84881664Y-86634720D01*
X84869841Y-86625952D01*
X84858934Y-86616066D01*
X84849048Y-86605159D01*
X84840280Y-86593336D01*
X84832712Y-86580710D01*
X84826418Y-86567403D01*
X84821459Y-86553543D01*
X84817882Y-86539264D01*
X84815722Y-86524703D01*
X84815000Y-86510000D01*
X84815000Y-86210000D01*
X84815722Y-86195297D01*
X84817882Y-86180736D01*
X84821459Y-86166457D01*
X84826418Y-86152597D01*
X84832712Y-86139290D01*
X84840280Y-86126664D01*
X84849048Y-86114841D01*
X84858934Y-86103934D01*
X84869841Y-86094048D01*
X84881664Y-86085280D01*
X84894290Y-86077712D01*
X84907597Y-86071418D01*
X84921457Y-86066459D01*
X84935736Y-86062882D01*
X84950297Y-86060722D01*
X84965000Y-86060000D01*
X86615000Y-86060000D01*
X86629703Y-86060722D01*
X86629703Y-86060722D01*
G37*
D21*
G04 #@! TD*
G04 #@! TO.P,U2,2*
G04 #@! TO.N,GND*
X85790000Y-86360000D03*
D16*
G04 #@! TO.N,GND*
G04 #@! TO.C,U2*
G36*
X86629703Y-87330722D02*
G01*
X86644264Y-87332882D01*
X86658543Y-87336459D01*
X86672403Y-87341418D01*
X86685710Y-87347712D01*
X86698336Y-87355280D01*
X86710159Y-87364048D01*
X86721066Y-87373934D01*
X86730952Y-87384841D01*
X86739720Y-87396664D01*
X86747288Y-87409290D01*
X86753582Y-87422597D01*
X86758541Y-87436457D01*
X86762118Y-87450736D01*
X86764278Y-87465297D01*
X86765000Y-87480000D01*
X86765000Y-87780000D01*
X86764278Y-87794703D01*
X86762118Y-87809264D01*
X86758541Y-87823543D01*
X86753582Y-87837403D01*
X86747288Y-87850710D01*
X86739720Y-87863336D01*
X86730952Y-87875159D01*
X86721066Y-87886066D01*
X86710159Y-87895952D01*
X86698336Y-87904720D01*
X86685710Y-87912288D01*
X86672403Y-87918582D01*
X86658543Y-87923541D01*
X86644264Y-87927118D01*
X86629703Y-87929278D01*
X86615000Y-87930000D01*
X84965000Y-87930000D01*
X84950297Y-87929278D01*
X84935736Y-87927118D01*
X84921457Y-87923541D01*
X84907597Y-87918582D01*
X84894290Y-87912288D01*
X84881664Y-87904720D01*
X84869841Y-87895952D01*
X84858934Y-87886066D01*
X84849048Y-87875159D01*
X84840280Y-87863336D01*
X84832712Y-87850710D01*
X84826418Y-87837403D01*
X84821459Y-87823543D01*
X84817882Y-87809264D01*
X84815722Y-87794703D01*
X84815000Y-87780000D01*
X84815000Y-87480000D01*
X84815722Y-87465297D01*
X84817882Y-87450736D01*
X84821459Y-87436457D01*
X84826418Y-87422597D01*
X84832712Y-87409290D01*
X84840280Y-87396664D01*
X84849048Y-87384841D01*
X84858934Y-87373934D01*
X84869841Y-87364048D01*
X84881664Y-87355280D01*
X84894290Y-87347712D01*
X84907597Y-87341418D01*
X84921457Y-87336459D01*
X84935736Y-87332882D01*
X84950297Y-87330722D01*
X84965000Y-87330000D01*
X86615000Y-87330000D01*
X86629703Y-87330722D01*
X86629703Y-87330722D01*
G37*
D21*
G04 #@! TD*
G04 #@! TO.P,U2,3*
G04 #@! TO.N,GND*
X85790000Y-87630000D03*
D16*
G04 #@! TO.N,VCC*
G04 #@! TO.C,U2*
G36*
X86629703Y-88600722D02*
G01*
X86644264Y-88602882D01*
X86658543Y-88606459D01*
X86672403Y-88611418D01*
X86685710Y-88617712D01*
X86698336Y-88625280D01*
X86710159Y-88634048D01*
X86721066Y-88643934D01*
X86730952Y-88654841D01*
X86739720Y-88666664D01*
X86747288Y-88679290D01*
X86753582Y-88692597D01*
X86758541Y-88706457D01*
X86762118Y-88720736D01*
X86764278Y-88735297D01*
X86765000Y-88750000D01*
X86765000Y-89050000D01*
X86764278Y-89064703D01*
X86762118Y-89079264D01*
X86758541Y-89093543D01*
X86753582Y-89107403D01*
X86747288Y-89120710D01*
X86739720Y-89133336D01*
X86730952Y-89145159D01*
X86721066Y-89156066D01*
X86710159Y-89165952D01*
X86698336Y-89174720D01*
X86685710Y-89182288D01*
X86672403Y-89188582D01*
X86658543Y-89193541D01*
X86644264Y-89197118D01*
X86629703Y-89199278D01*
X86615000Y-89200000D01*
X84965000Y-89200000D01*
X84950297Y-89199278D01*
X84935736Y-89197118D01*
X84921457Y-89193541D01*
X84907597Y-89188582D01*
X84894290Y-89182288D01*
X84881664Y-89174720D01*
X84869841Y-89165952D01*
X84858934Y-89156066D01*
X84849048Y-89145159D01*
X84840280Y-89133336D01*
X84832712Y-89120710D01*
X84826418Y-89107403D01*
X84821459Y-89093543D01*
X84817882Y-89079264D01*
X84815722Y-89064703D01*
X84815000Y-89050000D01*
X84815000Y-88750000D01*
X84815722Y-88735297D01*
X84817882Y-88720736D01*
X84821459Y-88706457D01*
X84826418Y-88692597D01*
X84832712Y-88679290D01*
X84840280Y-88666664D01*
X84849048Y-88654841D01*
X84858934Y-88643934D01*
X84869841Y-88634048D01*
X84881664Y-88625280D01*
X84894290Y-88617712D01*
X84907597Y-88611418D01*
X84921457Y-88606459D01*
X84935736Y-88602882D01*
X84950297Y-88600722D01*
X84965000Y-88600000D01*
X86615000Y-88600000D01*
X86629703Y-88600722D01*
X86629703Y-88600722D01*
G37*
D21*
G04 #@! TD*
G04 #@! TO.P,U2,4*
G04 #@! TO.N,VCC*
X85790000Y-88900000D03*
D16*
G04 #@! TO.N,GND*
G04 #@! TO.C,U2*
G36*
X91579703Y-88600722D02*
G01*
X91594264Y-88602882D01*
X91608543Y-88606459D01*
X91622403Y-88611418D01*
X91635710Y-88617712D01*
X91648336Y-88625280D01*
X91660159Y-88634048D01*
X91671066Y-88643934D01*
X91680952Y-88654841D01*
X91689720Y-88666664D01*
X91697288Y-88679290D01*
X91703582Y-88692597D01*
X91708541Y-88706457D01*
X91712118Y-88720736D01*
X91714278Y-88735297D01*
X91715000Y-88750000D01*
X91715000Y-89050000D01*
X91714278Y-89064703D01*
X91712118Y-89079264D01*
X91708541Y-89093543D01*
X91703582Y-89107403D01*
X91697288Y-89120710D01*
X91689720Y-89133336D01*
X91680952Y-89145159D01*
X91671066Y-89156066D01*
X91660159Y-89165952D01*
X91648336Y-89174720D01*
X91635710Y-89182288D01*
X91622403Y-89188582D01*
X91608543Y-89193541D01*
X91594264Y-89197118D01*
X91579703Y-89199278D01*
X91565000Y-89200000D01*
X89915000Y-89200000D01*
X89900297Y-89199278D01*
X89885736Y-89197118D01*
X89871457Y-89193541D01*
X89857597Y-89188582D01*
X89844290Y-89182288D01*
X89831664Y-89174720D01*
X89819841Y-89165952D01*
X89808934Y-89156066D01*
X89799048Y-89145159D01*
X89790280Y-89133336D01*
X89782712Y-89120710D01*
X89776418Y-89107403D01*
X89771459Y-89093543D01*
X89767882Y-89079264D01*
X89765722Y-89064703D01*
X89765000Y-89050000D01*
X89765000Y-88750000D01*
X89765722Y-88735297D01*
X89767882Y-88720736D01*
X89771459Y-88706457D01*
X89776418Y-88692597D01*
X89782712Y-88679290D01*
X89790280Y-88666664D01*
X89799048Y-88654841D01*
X89808934Y-88643934D01*
X89819841Y-88634048D01*
X89831664Y-88625280D01*
X89844290Y-88617712D01*
X89857597Y-88611418D01*
X89871457Y-88606459D01*
X89885736Y-88602882D01*
X89900297Y-88600722D01*
X89915000Y-88600000D01*
X91565000Y-88600000D01*
X91579703Y-88600722D01*
X91579703Y-88600722D01*
G37*
D21*
G04 #@! TD*
G04 #@! TO.P,U2,5*
G04 #@! TO.N,GND*
X90740000Y-88900000D03*
D16*
G04 #@! TO.N,GND*
G04 #@! TO.C,U2*
G36*
X91579703Y-87330722D02*
G01*
X91594264Y-87332882D01*
X91608543Y-87336459D01*
X91622403Y-87341418D01*
X91635710Y-87347712D01*
X91648336Y-87355280D01*
X91660159Y-87364048D01*
X91671066Y-87373934D01*
X91680952Y-87384841D01*
X91689720Y-87396664D01*
X91697288Y-87409290D01*
X91703582Y-87422597D01*
X91708541Y-87436457D01*
X91712118Y-87450736D01*
X91714278Y-87465297D01*
X91715000Y-87480000D01*
X91715000Y-87780000D01*
X91714278Y-87794703D01*
X91712118Y-87809264D01*
X91708541Y-87823543D01*
X91703582Y-87837403D01*
X91697288Y-87850710D01*
X91689720Y-87863336D01*
X91680952Y-87875159D01*
X91671066Y-87886066D01*
X91660159Y-87895952D01*
X91648336Y-87904720D01*
X91635710Y-87912288D01*
X91622403Y-87918582D01*
X91608543Y-87923541D01*
X91594264Y-87927118D01*
X91579703Y-87929278D01*
X91565000Y-87930000D01*
X89915000Y-87930000D01*
X89900297Y-87929278D01*
X89885736Y-87927118D01*
X89871457Y-87923541D01*
X89857597Y-87918582D01*
X89844290Y-87912288D01*
X89831664Y-87904720D01*
X89819841Y-87895952D01*
X89808934Y-87886066D01*
X89799048Y-87875159D01*
X89790280Y-87863336D01*
X89782712Y-87850710D01*
X89776418Y-87837403D01*
X89771459Y-87823543D01*
X89767882Y-87809264D01*
X89765722Y-87794703D01*
X89765000Y-87780000D01*
X89765000Y-87480000D01*
X89765722Y-87465297D01*
X89767882Y-87450736D01*
X89771459Y-87436457D01*
X89776418Y-87422597D01*
X89782712Y-87409290D01*
X89790280Y-87396664D01*
X89799048Y-87384841D01*
X89808934Y-87373934D01*
X89819841Y-87364048D01*
X89831664Y-87355280D01*
X89844290Y-87347712D01*
X89857597Y-87341418D01*
X89871457Y-87336459D01*
X89885736Y-87332882D01*
X89900297Y-87330722D01*
X89915000Y-87330000D01*
X91565000Y-87330000D01*
X91579703Y-87330722D01*
X91579703Y-87330722D01*
G37*
D21*
G04 #@! TD*
G04 #@! TO.P,U2,6*
G04 #@! TO.N,GND*
X90740000Y-87630000D03*
D16*
G04 #@! TO.N,GND*
G04 #@! TO.C,U2*
G36*
X91579703Y-86060722D02*
G01*
X91594264Y-86062882D01*
X91608543Y-86066459D01*
X91622403Y-86071418D01*
X91635710Y-86077712D01*
X91648336Y-86085280D01*
X91660159Y-86094048D01*
X91671066Y-86103934D01*
X91680952Y-86114841D01*
X91689720Y-86126664D01*
X91697288Y-86139290D01*
X91703582Y-86152597D01*
X91708541Y-86166457D01*
X91712118Y-86180736D01*
X91714278Y-86195297D01*
X91715000Y-86210000D01*
X91715000Y-86510000D01*
X91714278Y-86524703D01*
X91712118Y-86539264D01*
X91708541Y-86553543D01*
X91703582Y-86567403D01*
X91697288Y-86580710D01*
X91689720Y-86593336D01*
X91680952Y-86605159D01*
X91671066Y-86616066D01*
X91660159Y-86625952D01*
X91648336Y-86634720D01*
X91635710Y-86642288D01*
X91622403Y-86648582D01*
X91608543Y-86653541D01*
X91594264Y-86657118D01*
X91579703Y-86659278D01*
X91565000Y-86660000D01*
X89915000Y-86660000D01*
X89900297Y-86659278D01*
X89885736Y-86657118D01*
X89871457Y-86653541D01*
X89857597Y-86648582D01*
X89844290Y-86642288D01*
X89831664Y-86634720D01*
X89819841Y-86625952D01*
X89808934Y-86616066D01*
X89799048Y-86605159D01*
X89790280Y-86593336D01*
X89782712Y-86580710D01*
X89776418Y-86567403D01*
X89771459Y-86553543D01*
X89767882Y-86539264D01*
X89765722Y-86524703D01*
X89765000Y-86510000D01*
X89765000Y-86210000D01*
X89765722Y-86195297D01*
X89767882Y-86180736D01*
X89771459Y-86166457D01*
X89776418Y-86152597D01*
X89782712Y-86139290D01*
X89790280Y-86126664D01*
X89799048Y-86114841D01*
X89808934Y-86103934D01*
X89819841Y-86094048D01*
X89831664Y-86085280D01*
X89844290Y-86077712D01*
X89857597Y-86071418D01*
X89871457Y-86066459D01*
X89885736Y-86062882D01*
X89900297Y-86060722D01*
X89915000Y-86060000D01*
X91565000Y-86060000D01*
X91579703Y-86060722D01*
X91579703Y-86060722D01*
G37*
D21*
G04 #@! TD*
G04 #@! TO.P,U2,7*
G04 #@! TO.N,GND*
X90740000Y-86360000D03*
D16*
G04 #@! TO.N,+3V3*
G04 #@! TO.C,U2*
G36*
X91579703Y-84790722D02*
G01*
X91594264Y-84792882D01*
X91608543Y-84796459D01*
X91622403Y-84801418D01*
X91635710Y-84807712D01*
X91648336Y-84815280D01*
X91660159Y-84824048D01*
X91671066Y-84833934D01*
X91680952Y-84844841D01*
X91689720Y-84856664D01*
X91697288Y-84869290D01*
X91703582Y-84882597D01*
X91708541Y-84896457D01*
X91712118Y-84910736D01*
X91714278Y-84925297D01*
X91715000Y-84940000D01*
X91715000Y-85240000D01*
X91714278Y-85254703D01*
X91712118Y-85269264D01*
X91708541Y-85283543D01*
X91703582Y-85297403D01*
X91697288Y-85310710D01*
X91689720Y-85323336D01*
X91680952Y-85335159D01*
X91671066Y-85346066D01*
X91660159Y-85355952D01*
X91648336Y-85364720D01*
X91635710Y-85372288D01*
X91622403Y-85378582D01*
X91608543Y-85383541D01*
X91594264Y-85387118D01*
X91579703Y-85389278D01*
X91565000Y-85390000D01*
X89915000Y-85390000D01*
X89900297Y-85389278D01*
X89885736Y-85387118D01*
X89871457Y-85383541D01*
X89857597Y-85378582D01*
X89844290Y-85372288D01*
X89831664Y-85364720D01*
X89819841Y-85355952D01*
X89808934Y-85346066D01*
X89799048Y-85335159D01*
X89790280Y-85323336D01*
X89782712Y-85310710D01*
X89776418Y-85297403D01*
X89771459Y-85283543D01*
X89767882Y-85269264D01*
X89765722Y-85254703D01*
X89765000Y-85240000D01*
X89765000Y-84940000D01*
X89765722Y-84925297D01*
X89767882Y-84910736D01*
X89771459Y-84896457D01*
X89776418Y-84882597D01*
X89782712Y-84869290D01*
X89790280Y-84856664D01*
X89799048Y-84844841D01*
X89808934Y-84833934D01*
X89819841Y-84824048D01*
X89831664Y-84815280D01*
X89844290Y-84807712D01*
X89857597Y-84801418D01*
X89871457Y-84796459D01*
X89885736Y-84792882D01*
X89900297Y-84790722D01*
X89915000Y-84790000D01*
X91565000Y-84790000D01*
X91579703Y-84790722D01*
X91579703Y-84790722D01*
G37*
D21*
G04 #@! TD*
G04 #@! TO.P,U2,8*
G04 #@! TO.N,+3V3*
X90740000Y-85090000D03*
D18*
G04 #@! TO.P,U3,1*
G04 #@! TO.N,Net-(C8-Pad1)*
X100330000Y-99695000D03*
D22*
G04 #@! TO.P,U3,15*
G04 #@! TO.N,SHDN*
X67310000Y-107315000D03*
G04 #@! TO.P,U3,2*
G04 #@! TO.N,RXI*
X97790000Y-99695000D03*
G04 #@! TO.P,U3,16*
G04 #@! TO.N,CPULSE1*
X69850000Y-107315000D03*
G04 #@! TO.P,U3,3*
G04 #@! TO.N,TXO*
X95250000Y-99695000D03*
G04 #@! TO.P,U3,17*
G04 #@! TO.N,CPULSE2*
X72390000Y-107315000D03*
G04 #@! TO.P,U3,4*
G04 #@! TO.N,INT0*
X92710000Y-99695000D03*
G04 #@! TO.P,U3,18*
G04 #@! TO.N,Net-(U3-Pad18)*
X74930000Y-107315000D03*
G04 #@! TO.P,U3,5*
G04 #@! TO.N,Net-(SW2-Pad1)*
X90170000Y-99695000D03*
G04 #@! TO.P,U3,19*
G04 #@! TO.N,Net-(U3-Pad19)*
X77470000Y-107315000D03*
G04 #@! TO.P,U3,6*
G04 #@! TO.N,Net-(U3-Pad6)*
X87630000Y-99695000D03*
G04 #@! TO.P,U3,20*
G04 #@! TO.N,+3V3*
X80010000Y-107315000D03*
G04 #@! TO.P,U3,7*
X85090000Y-99695000D03*
G04 #@! TO.P,U3,21*
G04 #@! TO.N,Net-(C10-Pad1)*
X82550000Y-107315000D03*
G04 #@! TO.P,U3,8*
G04 #@! TO.N,GND*
X82550000Y-99695000D03*
G04 #@! TO.P,U3,22*
X85090000Y-107315000D03*
G04 #@! TO.P,U3,9*
G04 #@! TO.N,Net-(U3-Pad9)*
X80010000Y-99695000D03*
G04 #@! TO.P,U3,23*
G04 #@! TO.N,Net-(U3-Pad23)*
X87630000Y-107315000D03*
G04 #@! TO.P,U3,10*
G04 #@! TO.N,Net-(U3-Pad10)*
X77470000Y-99695000D03*
G04 #@! TO.P,U3,24*
G04 #@! TO.N,Net-(U3-Pad24)*
X90170000Y-107315000D03*
G04 #@! TO.P,U3,11*
G04 #@! TO.N,Net-(U3-Pad11)*
X74930000Y-99695000D03*
G04 #@! TO.P,U3,25*
G04 #@! TO.N,Net-(U3-Pad25)*
X92710000Y-107315000D03*
G04 #@! TO.P,U3,12*
G04 #@! TO.N,Net-(U3-Pad12)*
X72390000Y-99695000D03*
G04 #@! TO.P,U3,26*
G04 #@! TO.N,Net-(U3-Pad26)*
X95250000Y-107315000D03*
G04 #@! TO.P,U3,13*
G04 #@! TO.N,Net-(U3-Pad13)*
X69850000Y-99695000D03*
G04 #@! TO.P,U3,27*
G04 #@! TO.N,SDA*
X97790000Y-107315000D03*
G04 #@! TO.P,U3,14*
G04 #@! TO.N,Net-(U3-Pad14)*
X67310000Y-99695000D03*
G04 #@! TO.P,U3,28*
G04 #@! TO.N,SCL*
X100330000Y-107315000D03*
G04 #@! TD*
D28*
G04 #@! TO.N,GND*
X86995000Y-78740000D03*
X97155000Y-80645000D03*
X99695000Y-66675000D03*
X94615000Y-97155000D03*
X120396000Y-90932000D03*
X80899000Y-97917000D03*
X95758000Y-94869000D03*
G04 #@! TO.N,Net-(D1-Pad2)*
X89535000Y-74295000D03*
X92710000Y-78740000D03*
G04 #@! TO.N,SHDN*
X83312000Y-83312000D03*
X83312000Y-89916000D03*
G04 #@! TO.N,DTR*
X121920000Y-92075000D03*
G04 #@! TO.N,Net-(C10-Pad1)*
X88900000Y-97155000D03*
G04 #@! TO.N,SCL*
X102870000Y-105410000D03*
X106680000Y-105410000D03*
G04 #@! TO.N,INT0*
X108585000Y-103505000D03*
X102870000Y-103505000D03*
G04 #@! TO.N,Net-(Q1-Pad3)*
X111125000Y-73025000D03*
G04 #@! TO.N,Net-(Q2-Pad3)*
X111125000Y-80010000D03*
G04 #@! TO.N,CPULSE1*
X74930000Y-102235000D03*
X95504000Y-91821000D03*
G04 #@! TO.N,CPULSE2*
X95504000Y-89916000D03*
X90551000Y-90805000D03*
G04 #@! TO.N,Net-(SW2-Pad1)*
X101600000Y-97536000D03*
X96520000Y-98044000D03*
G04 #@! TD*
D29*
G04 #@! TO.N,Net-(C1-Pad1)*
X89600000Y-80010000D02*
X87630000Y-80010000D01*
X86995000Y-80645000D02*
X85090000Y-80645000D01*
X87630000Y-80010000D02*
X86995000Y-80645000D01*
G04 #@! TO.N,GND*
X89600000Y-78740000D02*
X86995000Y-78740000D01*
X94550000Y-80010000D02*
X96520000Y-80010000D01*
X96520000Y-80010000D02*
X97155000Y-80645000D01*
X97300000Y-80790000D02*
X97155000Y-80645000D01*
X99060000Y-80790000D02*
X97300000Y-80790000D01*
X86850000Y-78595000D02*
X86995000Y-78740000D01*
X85090000Y-78595000D02*
X86850000Y-78595000D01*
X100339000Y-69850000D02*
X100339000Y-67319000D01*
X100339000Y-67319000D02*
X99695000Y-66675000D01*
X85790000Y-86360000D02*
X85790000Y-87630000D01*
X90740000Y-86360000D02*
X90740000Y-88900000D01*
X90740000Y-86360000D02*
X85790000Y-86360000D01*
X80550000Y-87630000D02*
X80010000Y-87090000D01*
X85790000Y-87630000D02*
X80550000Y-87630000D01*
X122700000Y-88900000D02*
X120668000Y-90932000D01*
X120668000Y-90932000D02*
X120396000Y-90932000D01*
X92710000Y-95885000D02*
X93345000Y-95885000D01*
X92964000Y-95504000D02*
X94615000Y-97155000D01*
X92846000Y-95504000D02*
X92964000Y-95504000D01*
X86097000Y-96148000D02*
X86097000Y-95504000D01*
X82550000Y-99695000D02*
X86097000Y-96148000D01*
X80899000Y-94996000D02*
X80899000Y-97917000D01*
X97155000Y-93481000D02*
X97146000Y-93481000D01*
X97146000Y-93481000D02*
X95758000Y-94869000D01*
G04 #@! TO.N,+3V3*
X99060000Y-78740000D02*
X97790000Y-77470000D01*
X97790000Y-77470000D02*
X94550000Y-77470000D01*
X99683372Y-79363372D02*
X99060000Y-78740000D01*
X96520000Y-85090000D02*
X90740000Y-85090000D01*
X96520000Y-83250000D02*
X94550000Y-81280000D01*
X96520000Y-85090000D02*
X96520000Y-83250000D01*
X124460000Y-84455000D02*
X121285000Y-84455000D01*
X96520000Y-85090000D02*
X95470000Y-85090000D01*
X94615000Y-95250000D02*
X94615000Y-90805000D01*
X97790000Y-96520000D02*
X95885000Y-96520000D01*
X95885000Y-96520000D02*
X94615000Y-95250000D01*
X94615000Y-85945000D02*
X94725000Y-85835000D01*
X94615000Y-90805000D02*
X94615000Y-88900000D01*
X94615000Y-88900000D02*
X94615000Y-85945000D01*
X95470000Y-85090000D02*
X95360000Y-85200000D01*
X95360000Y-85200000D02*
X94725000Y-85835000D01*
X104630000Y-106680000D02*
X104630000Y-102870000D01*
X104630000Y-103505000D02*
X105900000Y-102235000D01*
X85889999Y-100494999D02*
X85090000Y-99695000D01*
X90079999Y-104684999D02*
X85889999Y-100494999D01*
X90460999Y-104684999D02*
X82640001Y-104684999D01*
X90460999Y-104684999D02*
X90079999Y-104684999D01*
X82640001Y-104684999D02*
X80010000Y-107315000D01*
X103450001Y-104684999D02*
X104630000Y-103505000D01*
X90460999Y-104684999D02*
X103450001Y-104684999D01*
X86995000Y-97790000D02*
X85090000Y-99695000D01*
X97790000Y-84455000D02*
X97155000Y-84455000D01*
X100330000Y-80010000D02*
X99060000Y-78740000D01*
X100330000Y-81915000D02*
X100330000Y-80010000D01*
X97790000Y-84455000D02*
X100330000Y-81915000D01*
X125984000Y-85725000D02*
X124714000Y-84455000D01*
X122238190Y-84455000D02*
X122047000Y-84455000D01*
X124714000Y-84455000D02*
X122047000Y-84455000D01*
X122047000Y-84455000D02*
X97790000Y-84455000D01*
X119634000Y-102235000D02*
X117983000Y-102235000D01*
X122301000Y-104902000D02*
X119634000Y-102235000D01*
X105900000Y-102235000D02*
X117983000Y-102235000D01*
X88147000Y-96638000D02*
X88147000Y-95504000D01*
X85090000Y-99695000D02*
X88147000Y-96638000D01*
X93345000Y-90306000D02*
X88147000Y-95504000D01*
X95360000Y-85200000D02*
X93345000Y-87215000D01*
X93345000Y-87215000D02*
X93345000Y-90306000D01*
D30*
G04 #@! TO.N,+BATT*
X69596000Y-84813600D02*
X69596000Y-80508056D01*
X74574400Y-89792000D02*
X69596000Y-84813600D01*
X69596000Y-80508056D02*
X69596000Y-78811000D01*
X74574400Y-90142000D02*
X74574400Y-89792000D01*
D29*
G04 #@! TO.N,+24V*
X93345000Y-69360000D02*
X93835000Y-69850000D01*
X93345000Y-65405000D02*
X93345000Y-69360000D01*
X93835000Y-73770000D02*
X94360000Y-74295000D01*
X93835000Y-69850000D02*
X93835000Y-73770000D01*
X97400000Y-74295000D02*
X94360000Y-74295000D01*
X102108000Y-68845000D02*
X103748000Y-70485000D01*
X103748000Y-70485000D02*
X104648000Y-70485000D01*
X102108000Y-68707000D02*
X102108000Y-68845000D01*
X102108000Y-64770000D02*
X102108000Y-68707000D01*
X102108000Y-75830000D02*
X102108000Y-73787000D01*
X103748000Y-77470000D02*
X102108000Y-75830000D01*
X104648000Y-77470000D02*
X103748000Y-77470000D01*
X102108000Y-68707000D02*
X102108000Y-73787000D01*
X102108000Y-73787000D02*
X102108000Y-74803000D01*
X102108000Y-82550000D02*
X102108000Y-75057000D01*
X101473000Y-65405000D02*
X102108000Y-64770000D01*
X93345000Y-65405000D02*
X101473000Y-65405000D01*
G04 #@! TO.N,Net-(C4-Pad2)*
X92075000Y-76835000D02*
X92710000Y-76200000D01*
X89600000Y-81280000D02*
X90805000Y-81280000D01*
X90805000Y-81280000D02*
X91440000Y-80645000D01*
X91440000Y-80645000D02*
X91440000Y-77470000D01*
X91440000Y-77470000D02*
X92710000Y-76200000D01*
X96520000Y-76200000D02*
X92710000Y-76200000D01*
X99450000Y-75175000D02*
X98425000Y-76200000D01*
X98425000Y-76200000D02*
X96520000Y-76200000D01*
X99450000Y-74295000D02*
X99450000Y-75175000D01*
X99450000Y-73415000D02*
X95885000Y-69850000D01*
X99450000Y-74295000D02*
X99450000Y-73415000D01*
X98289000Y-69850000D02*
X95885000Y-69850000D01*
D30*
G04 #@! TO.N,Net-(D1-Pad2)*
X91060000Y-73445000D02*
X91060000Y-74295000D01*
X91060000Y-70210000D02*
X91060000Y-73445000D01*
X90065000Y-69215000D02*
X91060000Y-70210000D01*
X87365000Y-69215000D02*
X90065000Y-69215000D01*
X91060000Y-74295000D02*
X89535000Y-74295000D01*
X92710000Y-78740000D02*
X94550000Y-78740000D01*
D29*
G04 #@! TO.N,SHDN*
X84626810Y-77470000D02*
X83312000Y-78784810D01*
X89600000Y-77470000D02*
X84626810Y-77470000D01*
X83312000Y-78784810D02*
X83312000Y-83312000D01*
X67310000Y-107315000D02*
X71120000Y-103505000D01*
X71120000Y-96113975D02*
X71120000Y-96647000D01*
X71120000Y-103505000D02*
X71120000Y-96647000D01*
X75184000Y-92456000D02*
X77724000Y-89916000D01*
X73660000Y-92456000D02*
X75184000Y-92456000D01*
X77724000Y-89916000D02*
X83312000Y-89916000D01*
X71120000Y-94996000D02*
X73660000Y-92456000D01*
X71120000Y-96647000D02*
X71120000Y-94996000D01*
D31*
G04 #@! TO.N,VCC*
X79220000Y-78740000D02*
X80010000Y-78740000D01*
D29*
X80010000Y-85090000D02*
X85790000Y-85090000D01*
X85790000Y-88900000D02*
X84455000Y-88900000D01*
X85790000Y-88900000D02*
X83820000Y-88900000D01*
D31*
X80010000Y-85090000D02*
X78105000Y-85090000D01*
D29*
X85790000Y-88900000D02*
X80645000Y-88900000D01*
D31*
X78105000Y-85090000D02*
X77470000Y-85090000D01*
D29*
X80645000Y-88900000D02*
X80154998Y-88900000D01*
X80154998Y-88900000D02*
X80010000Y-88900000D01*
X80010000Y-88900000D02*
X76200000Y-85090000D01*
D31*
X77470000Y-85090000D02*
X76200000Y-85090000D01*
D30*
X75565000Y-72615000D02*
X75565000Y-69215000D01*
X78510000Y-78740000D02*
X75565000Y-75795000D01*
X75565000Y-75795000D02*
X75565000Y-72615000D01*
X74574400Y-83592000D02*
X74574400Y-85542000D01*
X74574400Y-82675600D02*
X74574400Y-83592000D01*
X78510000Y-78740000D02*
X74574400Y-82675600D01*
X80010000Y-78740000D02*
X78510000Y-78740000D01*
X75026400Y-85090000D02*
X74574400Y-85542000D01*
X80010000Y-85090000D02*
X75026400Y-85090000D01*
D29*
G04 #@! TO.N,Net-(C8-Pad1)*
X101745000Y-94615000D02*
X99840000Y-96520000D01*
X104140000Y-94615000D02*
X101745000Y-94615000D01*
X110000000Y-87485000D02*
X111125000Y-87485000D01*
X109220000Y-88265000D02*
X110000000Y-87485000D01*
X109220000Y-90805000D02*
X109220000Y-88265000D01*
X110640000Y-94615000D02*
X110640000Y-92225000D01*
X110640000Y-92225000D02*
X109220000Y-90805000D01*
X105554213Y-94615000D02*
X110640000Y-94615000D01*
X104140000Y-94615000D02*
X105554213Y-94615000D01*
X100330000Y-97010000D02*
X99840000Y-96520000D01*
X100330000Y-99695000D02*
X100330000Y-97010000D01*
G04 #@! TO.N,DTR*
X113665000Y-92075000D02*
X111125000Y-89535000D01*
X121920000Y-92075000D02*
X113665000Y-92075000D01*
G04 #@! TO.N,Net-(C10-Pad1)*
X90551000Y-95504000D02*
X90796000Y-95504000D01*
X88900000Y-97155000D02*
X90551000Y-95504000D01*
G04 #@! TO.N,COUT1*
X105918000Y-78740000D02*
X105918000Y-76200000D01*
X109728000Y-82550000D02*
X105918000Y-78740000D01*
X115663000Y-78105000D02*
X116078000Y-78105000D01*
X112268000Y-81500000D02*
X115663000Y-78105000D01*
X112268000Y-82550000D02*
X112268000Y-81500000D01*
X112268000Y-82550000D02*
X109728000Y-82550000D01*
X124079000Y-76888000D02*
X124079000Y-75438000D01*
X122862000Y-78105000D02*
X124079000Y-76888000D01*
X116078000Y-78105000D02*
X122862000Y-78105000D01*
G04 #@! TO.N,COUT2*
X112268000Y-64770000D02*
X109728000Y-64770000D01*
X109728000Y-65405000D02*
X109728000Y-64770000D01*
X105918000Y-69215000D02*
X109728000Y-65405000D01*
X116078000Y-71120000D02*
X116896000Y-71938000D01*
X116078000Y-67530000D02*
X115223000Y-66675000D01*
X116078000Y-71120000D02*
X116078000Y-67530000D01*
X112268000Y-65820000D02*
X113123000Y-66675000D01*
X112268000Y-64770000D02*
X112268000Y-65820000D01*
X113123000Y-66675000D02*
X115223000Y-66675000D01*
X116896000Y-71938000D02*
X121722000Y-71938000D01*
X122381944Y-71938000D02*
X121722000Y-71938000D01*
X124079000Y-71938000D02*
X122381944Y-71938000D01*
X121722000Y-71938000D02*
X123698000Y-71938000D01*
G04 #@! TO.N,RXI*
X99060000Y-100965000D02*
X97790000Y-99695000D01*
X121920000Y-100965000D02*
X99060000Y-100965000D01*
X123190000Y-99695000D02*
X121920000Y-100965000D01*
X123190000Y-91059000D02*
X123190000Y-99695000D01*
X125984000Y-88265000D02*
X123190000Y-91059000D01*
G04 #@! TO.N,TXO*
X95250000Y-99695000D02*
X97064999Y-101509999D01*
X122645001Y-101509999D02*
X122646411Y-101509999D01*
X122646411Y-101509999D02*
X123825000Y-100331410D01*
X97064999Y-101509999D02*
X122645001Y-101509999D01*
X125984000Y-90805000D02*
X123825000Y-92964000D01*
X123825000Y-100331410D02*
X123825000Y-93091000D01*
X123825000Y-92964000D02*
X123825000Y-93091000D01*
G04 #@! TO.N,SDA*
X97790000Y-107315000D02*
X99060000Y-108585000D01*
X105410000Y-108585000D02*
X104140000Y-108585000D01*
X106680000Y-107315000D02*
X105410000Y-108585000D01*
X99060000Y-108585000D02*
X104140000Y-108585000D01*
X104140000Y-108585000D02*
X104775000Y-108585000D01*
X117348000Y-107315000D02*
X106680000Y-107315000D01*
X119761000Y-104902000D02*
X117348000Y-107315000D01*
G04 #@! TO.N,SCL*
X100330000Y-107315000D02*
X102235000Y-105410000D01*
X102235000Y-105410000D02*
X102870000Y-105410000D01*
X106680000Y-105410000D02*
X106680000Y-103505000D01*
X106680000Y-103505000D02*
X109404990Y-106229990D01*
X115893010Y-106229990D02*
X109404990Y-106229990D01*
X117221000Y-104902000D02*
X115893010Y-106229990D01*
G04 #@! TO.N,INT0*
X109125001Y-102964999D02*
X108585000Y-103505000D01*
X112489999Y-102964999D02*
X109125001Y-102964999D01*
X96520000Y-103505000D02*
X92710000Y-99695000D01*
X102870000Y-103505000D02*
X96520000Y-103505000D01*
X114681000Y-104902000D02*
X112743999Y-102964999D01*
X109125001Y-102964999D02*
X112235999Y-102964999D01*
X112743999Y-102964999D02*
X112235999Y-102964999D01*
G04 #@! TO.N,Net-(Q1-Pad3)*
X111125000Y-71247000D02*
X110998000Y-71120000D01*
X111125000Y-73025000D02*
X111125000Y-71247000D01*
G04 #@! TO.N,Net-(Q1-Pad2)*
X97155000Y-91431000D02*
X100203000Y-91431000D01*
X103387000Y-91431000D02*
X105918000Y-88900000D01*
X100203000Y-91431000D02*
X103387000Y-91431000D01*
G04 #@! TO.N,Net-(Q2-Pad3)*
X111125000Y-78377000D02*
X110998000Y-78250000D01*
X111125000Y-80010000D02*
X111125000Y-78377000D01*
G04 #@! TO.N,Net-(Q2-Pad2)*
X120650000Y-88900000D02*
X116078000Y-88900000D01*
X120650000Y-86505000D02*
X120505000Y-86360000D01*
X120650000Y-88900000D02*
X120650000Y-86505000D01*
G04 #@! TO.N,Net-(Q4-Pad3)*
X108458000Y-76200000D02*
X110998000Y-76200000D01*
X107188000Y-77470000D02*
X108458000Y-76200000D01*
G04 #@! TO.N,Net-(Q6-Pad3)*
X108603000Y-69070000D02*
X107188000Y-70485000D01*
X110998000Y-69070000D02*
X108603000Y-69070000D01*
G04 #@! TO.N,CPULSE1*
X99931000Y-93490000D02*
X99568000Y-93490000D01*
X69850000Y-107315000D02*
X74930000Y-102235000D01*
X95504000Y-91821000D02*
X96139000Y-92456000D01*
X99178000Y-92456000D02*
X100203000Y-93481000D01*
X96139000Y-92456000D02*
X99178000Y-92456000D01*
G04 #@! TO.N,CPULSE2*
X122555000Y-86360000D02*
X121100010Y-84905010D01*
X121100010Y-84905010D02*
X102108000Y-84905010D01*
X102108000Y-84905010D02*
X100514990Y-84905010D01*
X100514990Y-84905010D02*
X95504000Y-89916000D01*
X72390000Y-107315000D02*
X76200000Y-103505000D01*
X76200000Y-103505000D02*
X76200000Y-99237800D01*
X76200000Y-99237800D02*
X76200000Y-92710000D01*
X76200000Y-92710000D02*
X78105000Y-90805000D01*
X78105000Y-90805000D02*
X90551000Y-90805000D01*
G04 #@! TO.N,Net-(SW2-Pad1)*
X114935000Y-94615000D02*
X121435000Y-94615000D01*
X102108000Y-97028000D02*
X101600000Y-97536000D01*
X114935000Y-94615000D02*
X112522000Y-97028000D01*
X112522000Y-97028000D02*
X102108000Y-97028000D01*
X91821000Y-98044000D02*
X90170000Y-99695000D01*
X96520000Y-98044000D02*
X91821000Y-98044000D01*
G04 #@! TO.N,Net-(U3-Pad9)*
X83622000Y-96083000D02*
X83622000Y-94996000D01*
X80323000Y-99695000D02*
X80010000Y-99695000D01*
X83622000Y-94996000D02*
X83622000Y-96396000D01*
X80450000Y-99695000D02*
X80010000Y-99695000D01*
X83749000Y-96396000D02*
X80450000Y-99695000D01*
X83749000Y-94996000D02*
X83749000Y-96396000D01*
G04 #@! TO.N,Net-(U3-Pad10)*
X78364510Y-96896900D02*
X78364510Y-94996000D01*
X77922000Y-99243000D02*
X77470000Y-99695000D01*
X78049000Y-99116000D02*
X77470000Y-99695000D01*
X78049000Y-94996000D02*
X78049000Y-99116000D01*
G04 #@! TD*
M02*
